/* XPM */
static char *_fbb15cd9e4a402cbd02013d500ef82cDL2YOTpDlevYKiKl[] = {
/* columns rows colors chars-per-pixel */
"32 48 212 2 ",
"   c #040216",
".  c #0D0913",
"X  c #05001C",
"o  c #09001D",
"O  c #050022",
"+  c #0A0123",
"@  c #0B042C",
"#  c #12002E",
"$  c #00003F",
"%  c #0B0338",
"&  c #180836",
"*  c #161B38",
"=  c #0A1027",
"-  c #2F0C3F",
";  c #330D3E",
":  c #2A1839",
">  c #33173D",
",  c #17363B",
"<  c #45133E",
"1  c #4A143D",
"2  c #040144",
"3  c #090445",
"4  c #0A0947",
"5  c #0B034B",
"6  c #0C0B4A",
"7  c #07044A",
"8  c #110545",
"9  c #1E0742",
"0  c #130A4D",
"q  c #170B48",
"w  c #0E1F4F",
"e  c #14134E",
"r  c #1B154B",
"t  c #160A51",
"y  c #1B0E52",
"u  c #19095B",
"i  c #0F1053",
"p  c #141452",
"a  c #1E1354",
"s  c #191A53",
"d  c #1C1659",
"f  c #1D1D5B",
"g  c #141758",
"h  c #240A42",
"j  c #290D47",
"k  c #330E41",
"l  c #2E144C",
"z  c #2D1A4C",
"x  c #24174A",
"c  c #341242",
"v  c #331D44",
"b  c #3D1946",
"n  c #34134C",
"m  c #361C4A",
"M  c #3C1D4B",
"N  c #3A1447",
"B  c #250F56",
"V  c #240F58",
"C  c #221455",
"Z  c #291453",
"A  c #231B54",
"S  c #24115A",
"D  c #211B5A",
"F  c #331D52",
"G  c #351752",
"H  c #1A2A44",
"J  c #19215D",
"K  c #1F3852",
"L  c #332044",
"P  c #30264C",
"I  c #24225D",
"U  c #2A245D",
"Y  c #2A295B",
"T  c #292556",
"R  c #362355",
"E  c #392253",
"W  c #392B58",
"Q  c #30305E",
"!  c #0F0F69",
"~  c #0F0D67",
"^  c #120F66",
"/  c #100F68",
"(  c #0F126D",
")  c #161164",
"_  c #11136C",
"`  c #1A1464",
"'  c #0F1771",
"]  c #0F1B75",
"[  c #101771",
"{  c #101B75",
"}  c #251A63",
"|  c #220F7B",
" . c #132869",
".. c #112676",
"X. c #252661",
"o. c #272862",
"O. c #2B2B63",
"+. c #292761",
"@. c #343465",
"#. c #3A3463",
"$. c #35336A",
"%. c #3B3B68",
"&. c #393569",
"*. c #2E3772",
"=. c #441441",
"-. c #481740",
";. c #461945",
":. c #411D4B",
">. c #45224C",
",. c #412653",
"<. c #543D59",
"1. c #461D66",
"2. c #542378",
"3. c #1D4153",
"4. c #314976",
"5. c #41476F",
"6. c #725376",
"7. c #6E5671",
"8. c #230F88",
"9. c #24108A",
"0. c #112C86",
"q. c #102E89",
"w. c #11328B",
"e. c #193184",
"r. c #113690",
"t. c #133C95",
"y. c #113F99",
"u. c #293E85",
"i. c #5D2788",
"p. c #572D96",
"a. c #712E9E",
"s. c #6C319B",
"d. c #6C2F99",
"f. c #5830A4",
"g. c #712EA6",
"h. c #7030A0",
"j. c #7835B3",
"k. c #6B2FAA",
"l. c #13459A",
"z. c #12519F",
"x. c #215F80",
"c. c #294990",
"v. c #1247A1",
"b. c #1249A4",
"n. c #1756A6",
"m. c #145CB4",
"M. c #135EB9",
"N. c #1B5FB3",
"B. c #1463BC",
"V. c #1764B8",
"C. c #5955B8",
"Z. c #4C7DB0",
"A. c #1467C1",
"S. c #146AC3",
"D. c #196CC1",
"F. c #1C75C4",
"G. c #1A78C6",
"H. c #217AC6",
"J. c #534EC3",
"K. c #823AB9",
"L. c #893AC7",
"P. c #8C3DCF",
"I. c #9B42E0",
"U. c #A545EC",
"Y. c #A34AE8",
"T. c #AD47F4",
"R. c #AC4AF4",
"E. c #AC4DFB",
"W. c #A74FF3",
"Q. c #B14DF4",
"!. c #B447FE",
"~. c #B34AFC",
"^. c #B648F9",
"/. c #BF50FD",
"(. c #AC50FB",
"). c #3D9996",
"_. c #2383BE",
"`. c #4E9999",
"'. c #4C83A4",
"]. c #53A8A7",
"[. c #6AC6B7",
"{. c #2894C9",
"}. c #238FCB",
"|. c #3ABBC6",
" X c #31AFD0",
".X c #37AAD0",
"XX c #5F9ECB",
"oX c #57A3CB",
"OX c #4FACC8",
"+X c #3DC7CE",
"@X c #3FD1D6",
"#X c #3BC9D5",
"$X c #41D6D7",
"%X c #43D9D7",
"&X c #43DBD8",
"*X c #5AC9D7",
"=X c #69EBDA",
"-X c #5BCCEC",
";X c #5EDDFA",
":X c #5DD7F4",
">X c #5AD2ED",
",X c #6BCAF3",
"<X c #63D4F5",
"1X c #6DD2FD",
"2X c #63DBFC",
"3X c #66D4FA",
"4X c #6AC9F2",
"5X c #7FFBE0",
"6X c #82FDE0",
"7X c #FCC5FA",
"8X c #FAC7F8",
"9X c #F0C8F1",
/* pixels */
"s s s p 4 4 e s s A 1 1 T T A s P <.s s s s 6 4 e s s s Y Y Y T ",
"O.O.X.f 0 6 f O.@.>.1 1 >.>.1 R 6.8Xc O.O.X.p 6 f O.@.%.%.%.%.%.",
"O.O.f d 0 7 p X.W 1 1 1 =.=.1 =.6.7X1 R X.f 0 7 i X.@.%.O.O.O.O.",
"+.f d t 7 2 5 d =.;.) / / / S 1 6.7XM U D C 6 2 7 g X.O.O.O.o.O.",
"D C C t 7 2 5 N n y.{ ( ! ! / / 6.7XD N 1 n 5 2 7 y I O.X.f g g ",
"C C C t 7 3 < S / b.A.w.( ( ( ( 6.7X=.< 1 < q 2 7 y D f f d d d ",
"C C y 5 7 ; n _ ( b.S.A.B.B.B.w.6.7X_ ` ;.-.k 2 7 y C d d C C t ",
"C y 5 5 9 =.) l.B.A.S.S.S.S.S.S.6.7XB.B.V.e.=.< 8 t a C C t t 5 ",
"0 7 7 2 9 } m.$.$.S.B.B.S.S.S. X6.7XG.G.#X_._ n 1 9 5 0 0 7 7 7 ",
"4 6 6 q $.m.A :.N.M.{ { B.S.}.$X6.7X@X@X$Xm m m L 1 c 6 4 4 4 4 ",
"I Y Q W $.4.< c.A.q.0.B.D.G.+X+X7.9X$X%X%X> v v L 1 1 z s s f f ",
"%.%.%.,.#.>.$.M.{ _ w.F.|.|.H H H K , =X=X%X X*.L m 1 -.Q O.O.O.",
"@.@.O.O.R :.N.T z 4.H.V.K.L.L.oXoXXXL.L.K.&X Xn.& m =.1 :.O.O.f ",
"X.O.o.X.F c.b.m m 5.{.3.R.!.!.2X2X2X!.!.R.).$X}.v.m & 1 1 F D d ",
"I o.f d =.v m m [.n !.!.2X;Xo * o +   ;X2X!.!.2.b.( / n 1 l C C ",
"d g d N n v m v `.5.!.~.<X<Xo O O o o <X<X^.!.C.. 0.~ ) =.n C C ",
"C C C N ) v m 6XR.~.E.O O o o 8.u O O O *   ~.!.~.w.! ^ =.n C y ",
"a C j =.^ : : i.~.U.i.o o o o t 8 o o O o o p.P.!.i.g ! S n y 5 ",
"7 7 h S ! n.].~.E.P.o o o o o o O o o   o o O k.E.!.e ! S h 3 2 ",
"e r n / q.F.].!.# O o o o o o o o o o o o o o O # !. .! S < A s ",
"Y :.n ' M.. |.!.+     o o O o o o   o o o o o O + !.l.. / N >.%.",
"R =.^ ] B.Y.E.;XO % 8.9.O o o o o o o o X X o o X 2X(.T.=.1 :.@.",
"E S ! v.S.Y.^.oXO % 9.9.O o o o o o o o X X X o O OX^.T.M 1 :.O.",
"1 S ( b.S.U.Q.H o % 9.9.O o o o o o o o X X o o +   E.T.b :.b J ",
"n / 0.S.S.4X3X* X X O O O o o o o o o o o o o o o o 3X,X=.m m d ",
"n ! w.S.S.-X2Xo X X X o o O   O o o o X o o o o o O 2X:X< n n C ",
"n [ m.S.S.-X2X+ o X o o o O f.O o o o X o o o o o O 2X:X< n C y ",
"1 } l.b.S.-X<X+ o o o o o O p.O o o X X X X o o o + 1X<XB < q 7 ",
"h } y.v.S.U.~.x.o o o o o o o o o o X X o o o o o O E.R.V < 8 4 ",
"z u.] { B.U.Q.-XO o o o o o o o o O | Y.Y.Y.+ o O >X/.T.} < l z ",
",.=.) ' B.T.E.;X= o o X o o o o o O 9.W.Q.Q.O o O ;X!.~.} -.E R ",
"W 1 n [ B.r._.^.+ O o X X X o o o o   W.!.!.+ o X ^.w n.} -.E F ",
"O.:.1 } M.w. .!.# + o o o o o o o O O R.T.T.O + @ !.J B.} =.I d ",
"I U =.S w.m...!.!.L.o o o o o o o O O O O O o g.!.!.g B.} l C C ",
"d g l =.) l.w.1.!.U.j.O o o o o o O O o o o j.I.Q.1...B.} n C C ",
"C N Z N 1 } y.b.~.!.~.O = O o o o o o O O o !.!.Q.0.0.M.} n C a ",
"n < y L L =.e.r.l.Z.!.Q.;X:Xo o o o o :X1X^.!.J.. 0.w.w.V < C 0 ",
"h < 8 v v ; $.w.m.n ~.~.1X;XO O O O O <X1X^.^.2.S.r.m.q.B < 8 2 ",
"j 1 c m m m > S ( { z.F.T.!.!.2X2X2X!.!.T.{ m.B.S.r.t.) =.< r e ",
"I b b v > b : S ! ! w.A.d.s.g.Z.'.'.a.h.d.{ B.S.b.) F ` =.W #.#.",
"O.:.M b n n n / ! ' M.S.S.D..X5X*XM.' ! ! v.S.m.{ n F Z ,.&.@.@.",
"O.O.I A n / _ ( ( { B.S.A.S.S.D.D.q.! ! ! b.b.( S < d n #.O.O.O.",
"I I d C j B 0.M.M.V.B.m.r.A.b.( ( ( ! ! ! ( ( ! S < l =.Y M I I ",
"d C C C t k n G ;.;.;.S _ _ ( / ! ! ! ! ! ! ! ) =.h < F F 1 N d ",
"C C C C t 5 < < C d l < < S / n q ) ) / / / / n ; 8 c d Z < Z C ",
"C C C 0 5 7 2 0 C C C C l 1 1 L m m m n 1 1 1 1 - h y C C C a y ",
"a C 0 7 7 7 2 7 0 a a 5 7 k 1 L m m m v L 1 1 9 2 7 5 0 C y 5 7 ",
"7 4 2 2 2 2 $ 2 2 7 2 2 2 2 2 L m m m m m 1 ; 2 $ 2 2 2 7 2 2 2 "
};
