/* XPM */
static char *_787abc1d30e414b861ea4d4a1f43498nmrM0Lm2Ka9vMGBI[] = {
/* columns rows colors chars-per-pixel */
"32 48 193 2 ",
"   c #0D080F",
".  c #0C0811",
"X  c #07001F",
"o  c #08001E",
"O  c #13091A",
"+  c #050022",
"@  c #080023",
"#  c #070728",
"$  c #0A0628",
"%  c #040A29",
"&  c #0A0D29",
"*  c #140621",
"=  c #140C27",
"-  c #18082B",
";  c #1C1023",
":  c #0D0B34",
">  c #00003F",
",  c #0B0730",
"<  c #140C32",
"1  c #190837",
"2  c #0A1333",
"3  c #0A1534",
"4  c #131736",
"5  c #07132C",
"6  c #270D24",
"7  c #290D39",
"8  c #330D3E",
"9  c #44133E",
"0  c #4A143D",
"q  c #401136",
"w  c #040144",
"e  c #0A0445",
"r  c #0A0947",
"t  c #0B034B",
"y  c #0C0B4A",
"u  c #07044A",
"i  c #110646",
"p  c #1B0941",
"a  c #130A4D",
"s  c #190948",
"d  c #13134D",
"f  c #1A1B49",
"g  c #0F0E57",
"h  c #150B51",
"j  c #1B0E52",
"k  c #140753",
"l  c #0F1053",
"z  c #141452",
"x  c #1E1354",
"c  c #191953",
"v  c #1C1659",
"b  c #1D1D5B",
"n  c #171655",
"m  c #230B42",
"M  c #290F4A",
"N  c #2B0D42",
"B  c #330E41",
"V  c #2E144D",
"C  c #2E194B",
"Z  c #271B48",
"A  c #331143",
"S  c #3B1446",
"D  c #331D45",
"F  c #3E1946",
"G  c #34134C",
"H  c #391349",
"J  c #351C49",
"K  c #3B1D4A",
"L  c #250F56",
"P  c #240F58",
"I  c #221455",
"U  c #291552",
"Y  c #231B54",
"T  c #241159",
"R  c #211B5A",
"E  c #2C1B52",
"W  c #331552",
"Q  c #311D53",
"!  c #3D1E50",
"~  c #122E49",
"^  c #162B45",
"/  c #1C3254",
"(  c #1C2F51",
")  c #2B234F",
"_  c #332045",
"`  c #24225D",
"'  c #2A245D",
"]  c #2A295B",
"[  c #292656",
"{  c #362355",
"}  c #392253",
"|  c #3E2B58",
" . c #352A5A",
".. c #20375C",
"X. c #30305E",
"o. c #0F0F69",
"O. c #120F66",
"+. c #100F68",
"@. c #0F136D",
"#. c #161164",
"$. c #11126B",
"%. c #181062",
"&. c #111C75",
"*. c #251962",
"=. c #132467",
"-. c #252661",
";. c #272862",
":. c #2B2B63",
">. c #292761",
",. c #343465",
"<. c #3A3463",
"1. c #34346B",
"2. c #3B3B68",
"3. c #393667",
"4. c #441441",
"5. c #481740",
"6. c #461945",
"7. c #411D4A",
"8. c #45224C",
"9. c #422552",
"0. c #402A56",
"q. c #471D62",
"w. c #27417F",
"e. c #285376",
"r. c #230F85",
"t. c #240F89",
"y. c #241086",
"u. c #241088",
"i. c #251091",
"p. c #122C85",
"a. c #11318B",
"s. c #143F97",
"d. c #123690",
"f. c #5C2684",
"g. c #56309E",
"h. c #6E319F",
"j. c #562FA2",
"k. c #5B2EA6",
"l. c #5930A4",
"z. c #4E27AC",
"x. c #712FA3",
"c. c #6F30A0",
"v. c #7130A2",
"b. c #7B34AB",
"n. c #134480",
"m. c #195192",
"M. c #124AA4",
"N. c #145BB2",
"B. c #125EBA",
"V. c #1A53A1",
"C. c #1462BB",
"Z. c #1469C3",
"A. c #863BBD",
"S. c #8D3CC6",
"D. c #983EDC",
"F. c #A549EA",
"G. c #AC49F5",
"H. c #AD4CFC",
"J. c #AF47F8",
"K. c #B547FE",
"L. c #BA47FF",
"P. c #B24AFE",
"I. c #B549FE",
"U. c #B34AFD",
"Y. c #B64AFB",
"T. c #AC52FC",
"R. c #9779FC",
"E. c #A562FD",
"W. c #A860FE",
"Q. c #2F92A0",
"!. c #4B93B8",
"~. c #56B6D7",
"^. c #6FBCFB",
"/. c #77B8FD",
"(. c #69AAE3",
"). c #5ECFF2",
"_. c #5DDEFC",
"`. c #5DD3F3",
"'. c #6CCDFC",
"]. c #64D6F6",
"[. c #69D1F7",
"{. c #67D5FA",
"}. c #6AD5FE",
"|. c #63DBFC",
" X c #69DAFF",
".X c #71D0FF",
"XX c #79C7FF",
"oX c #5EE1FD",
"OX c #869EFD",
"+X c #81A2FC",
"@X c #EEBFEE",
"#X c #F5C1F4",
"$X c #E6C6E9",
/* pixels */
"c c c z r r d c c Y 0 0 [ [ Y c c c c c c c y r d c c c [ [ [ [ ",
":.:.-.b a y b :.,.8.0 0 8.8.0 { :.7.7.:.:.-.z y b :.,.3.2.2.2.2.",
":.:.b v a u z -.| 0 0 0 5.5.0 ; ; 0 0 { -.b a u l -.,.2.:.:.:.:.",
">.b v h u w t v 5.6.%.+.+.+.T #X@X .K ' b v y w u n -.:.:.:.;.:.",
"R I I h u w t S G s.&.@.o.o.+.#X@XQ R S 0 G t w u j ` :.-.b v v ",
"I I I h u e 9 T +.M.Z.a.@.@.@.#X#X#.4.9 0 9 s w u j R b b v v v ",
"I I j t u 8 G $.@.M.Z.* * * O #X$X* - p 6.5.B w , 1 I v v I I h ",
"I j t u p 4.#.M.C.Z.Z.U.P.I.I.P.P.P.P.A.D D 4.9 k.k.j.I I h h t ",
"a u u w p *.N.1.Z = 4 U.H.P.P.U.H.H.P.A.D E h * k.k.j.a a u u u ",
"r y y s 1.N.Y 7.U.I.I.P.^.oXoXoXoXoXH.P.I.I.K J l.l.g.y r r r r ",
"` ] X. .1.w.9 ( U.P.P.I./._._._._._.P.P.P.P.! K l.l.j.J c b b b ",
"2.2.2.9.<.8.) K.I.E.oXoX/ Q.o o @ ^ oXoXoXP.I.U.& G 0 5.X.:.:.:.",
",.,.:.:.{ F V.P.P.W.oXoX/ X + + @ o oXoX|.P.P.U.. O.4.0 7.:.:.b ",
"-.:.;.-.Q J.K.K.|.~.m.o @ + i.@ X + o X o oXT.L.L.h T 0 0 Q R v ",
"` ;.b v   G.K.L.|.~.o @ + @ i.+ X X X X X oXU.L.P., . G 0 V I I ",
"v v v S I.K.P.oX+ @ + X + o + X X X X X X 4 `.|.I.H.G.%.5.G I I ",
"I I I H K.Y.P.oX+ + X X X X X X X X X X X X `. XL.H.G.O.4.G I j ",
"x I M 4.K.}.|.+ + + X X X X X X X X X X X X o + _.T.G.o.T G j t ",
"u , - I K. X|.X + X X X X X X X X X X X X X X + |.T.G., T m e w ",
"d h.h.U.K.}.].X y.r.u.+ X X X X X X X X X X X + |.T.P.U.T 9 Y c ",
"] v.v.P.L.|._.X r.u.t.+ X X X X X X X X X X X + _.H.P.P.+.H 8.3.",
"{ v.v.P.{.5 ~ + r.u.u.+ X X X X X X X X X X X @ ~ '.'.K.4.0 7.D ",
"} v.v.P._.% + + u.u.y.+ X X X X X X X X X X X o o |.{.Y.K 0 7.J ",
"0 v.v.H._.# + + @ @ @ + X X X X X X X X X X X X + |.{.K.F 7.F J ",
"G v.v.H._.# X X X X X + X X X X X X X X X X X X + |.{.K.4.J J J ",
"G v.v.H._.# + X X X X X X X X X X X X X X X X X + |.{.K.9 D _ K ",
"G v.v.H._.# X X X X X X X X X X X + X X X X X X + |.{.K.9 J K K ",
"0 v.v.H._.# X X X X X X X X X X @ D.+ X X X X X + |.{.K.L F K J ",
"m c.c.H.|.# + X X X X X X X X X $ I.o X X X X X + |.}.K.P F J J ",
"C x.x.P.R.!.!.X X X X X X X X X @ z.+ X X X X + !.R.R.L.*.9 D C ",
"0.x.x.P.P.}.].o X X X X X X X X @ i.+ X X X X + |.H.I.I.*.5.} { ",
"| q.q.f.K.|.].o X X X X X X X X @ k X X X X X X _.H.H.f.*.5.} Q ",
":.7.0 *.P.}.].@ + X X X X X X X + + X X X o o + _.H.G.C.*.5.` v ",
"` ' 5.T K.OX+Xe.X + X X X X X X X X X X X o e.e.OXH.G.C.*.V I I ",
"b v V 4.K.I.G.|.+ + X X X X X X X X X X X + ). XK.P.G.C.*.G I I ",
"I H U S S.P.U././ ^ X X X X X X X X X X X / /./.P.S.A.B.*.G I x ",
"G 9 j s 9 G.P.I.{.~.+ + X X X X X X X X + |.T.P.K.=.a.a.P 9 I a ",
"m 9 i u e F.F.U.XX(.2 2 + X X X X X 2 2 2 '.T.P.F.=.N.p.L 9 i w ",
"m 0 A A _ 7 7 U.U.E.|. X( + X X X X |.|.|.K.K.H.C.d.s.J 4.9 f d ",
"` F F F D 9 7 G.K.E.[.[...^ 5 ^ % 4 }.}..XI.G.F.M.#.- K 4.| ,.,.",
":.7.K F H G G g Y.P.U.K.^.|.|.|.|.oXU.K.K.K.f N.&.J J J 9.3.,.,.",
":.:.` Y G +.$.@.F.G.F.P./.}.}.}.}.}.H.U.G.G.; @.T J J J <.:.:.:.",
"` ` v I M L p.B.N.n.C.U.P.P.P.P.P.I.P.b.g @.@.o.J J D 5.] K ` ` ",
"v I I I j B G W 6.6.6.G.G.G.U.U.U.U.U.b.o.o.o.#.J J D Q Q 0 H v ",
"I I I I h e 9 9 U v V 6 6 < : - < : : +.+.+.+.G 8 i A v U 9 U I ",
"I I I a t u w a I I I I V 0 0 q N W %.G 0 0 0 0 8 N j I I I x j ",
"x I a u u u w u a x x t u B J J D 0 0 0 0 0 0 p w u t a I j t u ",
"u r w w w w > w w u w w w w J J D 8 0 m p 0 8 w > w w w u w w w "
};
