/* XPM */
static const char *YmxhY2tob2xlMg__[] = {
/* columns rows colors chars-per-pixel */
"32 48 200 2 ",
"   c #0C0A14",
".  c #07001F",
"X  c #09001E",
"o  c #0B0E1A",
"O  c #110A15",
"+  c #050222",
"@  c #080021",
"#  c #0B092A",
"$  c #07082A",
"%  c #180A23",
"&  c #0B1420",
"*  c #00003F",
"=  c #161838",
"-  c #2B0A36",
";  c #330D3E",
":  c #3E123D",
">  c #2B143E",
",  c #44133E",
"<  c #4A143D",
"1  c #040143",
"2  c #090445",
"3  c #0A0947",
"4  c #0B034B",
"5  c #0C0B4A",
"6  c #07044A",
"7  c #110646",
"8  c #1C0940",
"9  c #130A4D",
"0  c #180A48",
"q  c #13134D",
"w  c #1A1448",
"e  c #160A51",
"r  c #1B0E52",
"t  c #160754",
"y  c #0F1053",
"u  c #141452",
"i  c #1E1354",
"p  c #191953",
"a  c #1C1659",
"s  c #1D1D5B",
"d  c #161655",
"f  c #240B42",
"g  c #290E46",
"h  c #330E41",
"j  c #2E144D",
"k  c #2D1C4B",
"l  c #261448",
"z  c #331142",
"x  c #341E45",
"c  c #3F1947",
"v  c #34134C",
"b  c #3A1349",
"n  c #351C4A",
"m  c #3D1D4C",
"M  c #3B1446",
"N  c #250F57",
"B  c #240F58",
"V  c #221455",
"C  c #291453",
"Z  c #24115A",
"A  c #211B5A",
"S  c #231C53",
"D  c #321451",
"F  c #321E53",
"G  c #1A2859",
"H  c #0F365D",
"J  c #352047",
"K  c #24225D",
"L  c #2A245D",
"P  c #2A295B",
"I  c #272855",
"U  c #362355",
"Y  c #392253",
"T  c #382A59",
"R  c #30305E",
"E  c #0F0F69",
"W  c #0C0A67",
"Q  c #120F66",
"!  c #100F68",
"~  c #0F126D",
"^  c #0F1762",
"/  c #161164",
"(  c #181063",
")  c #11136C",
"_  c #181868",
"`  c #0F1772",
"'  c #0F1A75",
"]  c #101770",
"[  c #101B75",
"{  c #241A62",
"}  c #230F7F",
"|  c #122379",
" . c #1D2D78",
".. c #252661",
"X. c #272862",
"o. c #2B2B63",
"O. c #292761",
"+. c #343465",
"@. c #3A3463",
"#. c #35336A",
"$. c #38316B",
"%. c #3B3B68",
"&. c #3A3A66",
"*. c #353671",
"=. c #441441",
"-. c #481640",
";. c #461945",
":. c #411D4A",
">. c #45224C",
",. c #412653",
"<. c #463A4D",
"1. c #2F525E",
"2. c #1F4C76",
"3. c #27417F",
"4. c #240F87",
"5. c #241089",
"6. c #2F1695",
"7. c #122C86",
"8. c #102E89",
"9. c #0E308C",
"0. c #11318B",
"q. c #193183",
"w. c #113690",
"e. c #123B94",
"r. c #113F99",
"t. c #0F2D89",
"y. c #293E85",
"u. c #5C2986",
"i. c #5C2783",
"p. c #7E2D90",
"a. c #6A2886",
"s. c #592EA5",
"d. c #5A31A7",
"f. c #16469B",
"g. c #155188",
"h. c #294990",
"j. c #356093",
"k. c #1247A1",
"l. c #1249A4",
"z. c #1A5CA4",
"x. c #1854A6",
"c. c #145CB5",
"v. c #125EB9",
"b. c #1A5FB3",
"n. c #1462BC",
"m. c #1768BD",
"M. c #1466C1",
"N. c #1469C3",
"B. c #1975C5",
"V. c #1A78C6",
"C. c #903DB4",
"Z. c #873CC6",
"A. c #883AC1",
"S. c #B344C9",
"D. c #A549EA",
"F. c #AA47F3",
"G. c #AC4AF5",
"H. c #AE4BFA",
"J. c #B547FF",
"K. c #B847FF",
"L. c #B24AFD",
"P. c #B948FC",
"I. c #AB53FC",
"U. c #A756FB",
"Y. c #9D68FB",
"T. c #A162FC",
"R. c #CF4CE7",
"E. c #E651FC",
"W. c #2B8080",
"Q. c #2282BD",
"!. c #4E9AB3",
"~. c #54A5B6",
"^. c #5EB1BA",
"/. c #238FCC",
"(. c #3C96C3",
"). c #2492CD",
"_. c #31B0D0",
"`. c #4EAECB",
"'. c #54A9CA",
"]. c #3CCAD5",
"[. c #3DC9D2",
"{. c #5AC9D6",
"}. c #41D5D6",
"|. c #42D9D7",
" X c #73DFD1",
".X c #74E9DA",
"XX c #61E4DB",
"oX c #5FD9F7",
"OX c #5DDEFC",
"+X c #68CFFC",
"@X c #72CEFF",
"#X c #67D5FB",
"$X c #69D6FF",
"%X c #62DCFC",
"&X c #69D8FE",
"*X c #63D3F6",
"=X c #5DE2FC",
"-X c #8A93FD",
";X c #83FEE2",
":X c #FAC2F9",
/* pixels */
"p p p u 3 3 q p p S < < I I S p p p p p p p 5 3 q p p s I I I I ",
"o.o...s 9 5 s o.+.>.< < >.>.< U o.:.:.o.o...u 5 s o.+.&.%.%.%.%.",
"o.o.s a 9 6 u ..T < < < -.-.< =.Y < < U ..s 9 6 y ..+.%.o.o.o.o.",
"O.s a e 6 1 4 i =.;.( ! ! ! Z < m L m L A V 5 1 6 d ..o.o.o.X.o.",
"A V V e 6 1 4 M v r.[ ~ E E ! ! Z F A M < v 4 1 6 r K o...s a a ",
"V V V e 6 2 , Z ! l.M.0.~ ~ ~ ~ ! / =., < , 0 1 6 r A s s i i i ",
"V V r 4 R.; v ) ~ l.N.M.n.n.n.0.~ ) ) _ ;.-.h 1 6 r V a a V V e ",
"V r 4 4 E.: / f.n.M.N.N.N.N.N.N.m.m.n.n.m.q.=., 7 e i V V e e 4 ",
"9 6 6 1 8 :Xc.$.*.N.n.n.N.N.N._.}.].V.V.].Q.) v < 8 4 9 9 6 6 6 ",
"3 5 5 0 #.<.S :.b.v.[ | n.Z.A.Z.Z.Z.C.].}.[.| / =.< z 5 3 3 3 3 ",
"K P R T #.3., h.M.7.7.n.H L.L.L.L.L.P.|.W.].B.0.B < < k s s s s ",
"%.%.%.,.@.>.$.c.[ ) 0.K.K.L.L.L.L.L.L.K.L.|._.v.] v < -.R o.o.o.",
"+.+.o.o.U :.b.0.] !.z J.L.Y.Y.T.Y.Y.T.L.L.> _.n.] a =.< :.o.o.s ",
"..o.X...F h.l. . X.XK.K.J.%X%X%X%X%X%XH.L.L.}./.x x Z < < F A a ",
"K X.s i =.Z ~ ~.;XJ.K.%X%X%X= X # $ %X%X%XK.G.).l.x k v < j V V ",
"a a a M v ! ) ^.1.J.P.%XoXoX. + @ + %X%X@XH.G.2.M.x k ( =.v V V ",
"V V V b ( W j.;XL.K.%XOX+ X + 5.X + . + %X$XL.G.B.0.k Q =.v V r ",
"i V g =.Q ` (.G.K.$X%X$ . . X $ + + . . # %X@XL.D.c.k E Z v r 4 ",
"6 6 f Z E x..XJ.J.OXOXX . . . . . . . . + =X&XL.G.n.k E Z f 2 1 ",
"q w v ! 8.V.XXJ.J.%X. + . . . . . . . . X + $XL.G./.k.E Z , S p ",
"P :.v ` v.B.u.J.-X%X. t t + . . . . . . . + &X-XH.i.l.E ! b >.&.",
"U =.Q ' n.B.L.L.%X%X. 5.5.+ . . . . . . . + %X$XL.F.x.Q =.< :.+.",
"Y Z E k.N.B.J.J.OX= + 5.5.s.. . . . . . . . . &XL.F.x.j m < :.o.",
"< Z ~ l.N.= J.J.OX@ + 4.} s.. . . . . + . . + #XL.F.z.v c :.c G ",
"v ! 7.N.N.J L.J.OXX . + + . . . . . . . . . + #XL.F.~.Q =.n n a ",
"v E 0.N.N.x L.J.OX@ . . . . . . . . . . . . + #XL.F.{.7., v v V ",
"v ] c.N.N.J L.J.OXX . . . . . . . @ . . . . + #XL.F.{.7., v V r ",
"< { f.l.N.N.J.J.OXX . . . . . . + d.. . . X + #XL.F.{.t.B , 0 6 ",
"f { r.k.N.N.L.J.OX'.. . . . . . + 6.. . . + `.#XK.F.{.9.B , 7 3 ",
"k y.' [ n.M.J.K.=XoX. . . . . . + 5.+ . . + %X&XL.G.{.v.{ , j k ",
",.=./ ` n.w.Q.L.K.=X+ . . . . . . . . . . + &XK.G..Xf.n.{ -.Y U ",
"T < v ] n.w.Q.J.J.OXG + . . . . . . . . + I %XL.G.(.w.n.{ -.Y F ",
"o.:.< { v.0.0.L.J.OX%X@ . . . . . . . . + %X$XL.G.c.w.n.{ =.K a ",
"K L =.Z 0.c.w.  L.K.%XOX. . . . . . . + OX$XL.G.z.8.7.n.{ j V V ",
"a a j =./ r.w.B.G.L.%X%X+ + + . . . + + OX$XH.F.N.7.7.n.{ v V V ",
"V v C M < { r.l.g.L.P.%X%X=X+ X + + &X%X$XL.H.N.N.7.7.v.{ v V i ",
"v , r 0 , =.q.w.n.% K.U.I.=X+X+X*X*X#XU.U.H.w N.N.7.0.0.B , V 9 ",
"f , 7 6   O $.0.c.N.K.L.J.=X=X=X=X%X=XL.J.H.v.N.N.w.c.8.B , 7 1 ",
"l < z z E.f =.x ~ [ g.K.L.K.L.L.L.K.K.K.L.^ n.N.N.w.r./ =., w q ",
"K c c p.a., g x V E 0.u.u.L.L.L.L.L.L.u.i.[ n.N.l./ F ( =.T @.@.",
"o.:.m E.b v v x x ` v.N.N.L.L.L.L.L.L.E E k.N.c.[ v F C ,.&.+.+.",
"o.o.K   v ! ) ~ ~ [ n.N.M.& & & & o   E E l.l.~ Z - R.v @.o.o.o.",
"K K a V g B 7.c.c.n.n.c.w.M.l.~ ~ ~ E E E ~ ~ E Z % S.- P m K K ",
"a V V V r h v D ;.;.;.Z ) ) ~ ! E E E E E E E / =.f b C.F < v a ",
"V V V V e 4 , , V a j , , Z ! D ( ! E ! ! ! ! v ; 7 h l C , C V ",
"V V V 9 4 6 1 9 V V V V j < < < v D ( v < < < < ; f r V V V i r ",
"i V 9 6 6 6 1 6 9 i i 4 6 h < , f < < < < < < 8 1 6 4 9 V r 4 6 ",
"6 3 1 1 1 1 * 1 1 6 1 1 1 1 1 1 1 ; < f 8 < ; 1 * 1 1 1 6 1 1 1 "
};
