/* XPM */
static const char *YmxhY2tob2xlMA__[] = {
/* columns rows colors chars-per-pixel */
"32 48 229 2 ",
"   c #06001D",
".  c #08011E",
"X  c #070121",
"o  c #090223",
"O  c #0B032A",
"+  c #0B0C2B",
"@  c #12052C",
"#  c #0A0437",
"$  c #140633",
"%  c #190939",
"&  c #0F1332",
"*  c #13183C",
"=  c #290C3D",
"-  c #330D3E",
";  c #44133E",
":  c #4A143D",
">  c #040144",
",  c #0A0445",
"<  c #0A0947",
"1  c #0B034B",
"2  c #0C0B4A",
"3  c #07044A",
"4  c #110645",
"5  c #1D0B43",
"6  c #130A4D",
"7  c #180949",
"8  c #17134C",
"9  c #150952",
"0  c #1B0E52",
"q  c #18095A",
"w  c #141452",
"e  c #1E1355",
"r  c #191953",
"t  c #1C1659",
"y  c #1D1D5B",
"u  c #161558",
"i  c #0F1053",
"p  c #250B42",
"a  c #220F49",
"s  c #2A0E44",
"d  c #340E42",
"f  c #2C134C",
"g  c #2E1B4C",
"h  c #271546",
"j  c #331243",
"k  c #331D46",
"l  c #3D1A46",
"z  c #34134C",
"x  c #331E49",
"c  c #3D1A4A",
"v  c #240F57",
"b  c #231455",
"n  c #241B54",
"m  c #25125A",
"M  c #211B5A",
"N  c #291655",
"B  c #321352",
"V  c #321D52",
"C  c #381759",
"Z  c #182848",
"A  c #1B2C57",
"S  c #24225D",
"D  c #2A245B",
"F  c #2A295B",
"G  c #2A2555",
"H  c #382757",
"J  c #24375D",
"K  c #2D2654",
"L  c #0F0F69",
"P  c #120F66",
"I  c #110F68",
"U  c #1A0A65",
"Y  c #0F136D",
"T  c #0F196D",
"R  c #161165",
"E  c #181264",
"W  c #12126B",
"Q  c #1C1469",
"!  c #1F0E77",
"~  c #101C75",
"^  c #271867",
"/  c #341B6A",
"(  c #251977",
")  c #381E79",
"_  c #142778",
"`  c #252661",
"'  c #2B2B63",
"]  c #282862",
"[  c #382767",
"{  c #283663",
"}  c #343465",
"|  c #34336B",
" . c #3B3B68",
".. c #373667",
"X. c #392676",
"o. c #393676",
"O. c #441441",
"+. c #491641",
"@. c #411D4B",
"#. c #481947",
"$. c #4A1A5A",
"%. c #511D56",
"&. c #44224C",
"*. c #432553",
"=. c #54215D",
"-. c #421A6A",
";. c #441E76",
":. c #541D62",
">. c #542467",
",. c #43237A",
"<. c #55277A",
"1. c #49327E",
"2. c #56356E",
"3. c #63297E",
"4. c #26456A",
"5. c #2D5474",
"6. c #324C79",
"7. c #424B7C",
"8. c #241087",
"9. c #3A1C86",
"0. c #112D87",
"q. c #163189",
"w. c #133C94",
"e. c #2D3291",
"r. c #353FA4",
"t. c #472688",
"y. c #58298A",
"u. c #503C8E",
"i. c #582A98",
"p. c #49309D",
"a. c #523595",
"s. c #483785",
"d. c #672A9C",
"f. c #6F3392",
"g. c #5834A5",
"h. c #5730A5",
"j. c #662CA4",
"k. c #712EA8",
"l. c #6D33AC",
"z. c #7736AA",
"x. c #6938B8",
"c. c #7734B8",
"v. c #6B2FB3",
"b. c #15459D",
"n. c #2D4C8E",
"m. c #37688A",
"M. c #397498",
"N. c #1249A3",
"B. c #1858A9",
"V. c #145CB4",
"C. c #195DB6",
"Z. c #2858B7",
"A. c #2B55AC",
"S. c #1564BC",
"D. c #1966BA",
"F. c #1965AA",
"G. c #2660B2",
"H. c #57469C",
"J. c #4D448F",
"K. c #624194",
"L. c #446896",
"P. c #437F9D",
"I. c #524DB6",
"U. c #6845B6",
"Y. c #704ABB",
"T. c #6B4DB2",
"R. c #4D78AA",
"E. c #5677BA",
"W. c #5461A7",
"Q. c #6266B9",
"!. c #7839C3",
"~. c #1467C1",
"^. c #1469C3",
"/. c #146AC5",
"(. c #1865C0",
"). c #1A76C4",
"_. c #6D47C6",
"`. c #7747C6",
"'. c #7253C9",
"]. c #726ACA",
"[. c #7878CA",
"{. c #7873D7",
"}. c #6F6CCC",
"|. c #7E7CE0",
" X c #565ECB",
".X c #8135BC",
"XX c #8639C9",
"oX c #933FD9",
"OX c #8D44DB",
"+X c #8C41D2",
"@X c #9942DE",
"#X c #9743DB",
"$X c #884DD0",
"%X c #8470D1",
"&X c #9C43E3",
"*X c #9D47E6",
"=X c #9655E4",
"-X c #9C5AF0",
";X c #A447EE",
":X c #A84AF2",
">X c #A951F6",
",X c #8D67E6",
"<X c #8D6EE8",
"1X c #3986AB",
"2X c #2486BF",
"3X c #35A5AA",
"4X c #3AB6B9",
"5X c #34A8B5",
"6X c #4A91B8",
"7X c #50B0BB",
"8X c #68A6BF",
"9X c #698AB7",
"0X c #64C4B8",
"qX c #2A96C3",
"wX c #31AFD0",
"eX c #7192D1",
"rX c #57A8D3",
"tX c #57B4D9",
"yX c #62A8CD",
"uX c #788EE7",
"iX c #5DBBE2",
"pX c #69B0E9",
"aX c #3CC6CE",
"sX c #3CCAD3",
"dX c #40D2D4",
"fX c #60CAF1",
"gX c #5FCAF0",
"hX c #8388F0",
"jX c #8385ED",
/* pixels */
"r r r w < < 8 r r n : : K G n r r r r r r r 2 < 8 r r y F F F G ",
"' ' ` y 6 2 y ' } &.: : &.&.: H ' @.@.' ' ` w 2 t ' } .. . . . .",
"' ' y t 6 < w ` H : : : +.+.: O.H : : H ` y 6 3 i ` }  .' ' ' ' ",
"] y t 9 3 > 1 t O.O.E I I I m : c F c D M b 2 > 3 u ` ' ' ' ] ' ",
"M b b 9 3 > 1 j z w.~ Y L L I I m V M l : z 1 > 3 0 S ' ` y y y ",
"b b b 9 3 , ; m I N.~.0.Y E g x k k k x l O.7 > 3 0 M y y t t t ",
"b b 0 1 3 - z W Y N./.~.S.B.n.` n n n n l O.d > 3 0 b t t b b 9 ",
"b 0 1 1 5 O.R b.S.~.^.^.^.^.S.D.D.D.S.S.D.q.O.; 4 9 e b b 9 9 1 ",
"6 3 3 > 5 ^ V.| o.^.S.S.^.^.^.wXdXsX).).sX2XW z : 5 1 6 6 3 3 3 ",
"< 2 2 7 | V.n @.C.V.~ ~ V.S.qXdXdXsXaXaXdXaX_ R O.: j < < < < < ",
"S F ' H | n.; n.~.0._ B.B.F.5X4X4X3X3X5X4XaXD.0.v : : g y y y y ",
" . . .*.H &.} B.~ R e.A.E.6X5.5.5.6.R.9X8X7XqXV.W z : +.F ' ' ' ",
"} } ' K k x { _ u m.I.OX#X,XpXiXiX|.=X*X%X1X1XB.T P O.: @.' ' y ",
"` F G g k K X.a.%X[.{.<XY.H.L.M.M.J.T.{.{.].[. Xr.Q m : : V M t ",
"S G x k k f ;.*X:X:XhXrX4.* O o o o Z 6XuX-X>X;Xx.) Q z : f b b ",
"t n x k j y.XX:XXX;.o.4.* % 9 4 O o & J | ,.c.*XOXx.9.^ O.z b b ",
"b b g c ;.c.*X*Xd.o o X X # U 6 O o o o o o ;..X@XOXj.9.#.z b 0 ",
"e b s f.XX!.x.x.;.o . . . o O O X X X o . . % C k.oX@Xv.;.C 0 1 ",
"3 , % j.:X!.h.h./ X . . . . . . . X O 5 % o o @ -.j.oXc.;.B , > ",
"8 5 s j.:X!.h.h./ . . . . . . . . . % ) / $ o . o B z.j.;.#.h r ",
"D >.d.{.uXJ./ 9.( q # o .     . . . O 5 5 O o . . G W.'.Y.y.>...",
"V 3.;XjXrX{ # ! 8.8.9 O .       . . . . . . . . . Z M.[.,Xz.3.} ",
"x y.;XT.4.* # ! 8.8.9 O X         . . . . . . . . & A u.$Xf.<.' ",
"#.s.<Xu.+ o # q U U 4 o .         .         . . . o + [ Y.K.2.y ",
"2.n.pXm.o X o O O O o . . . .           . . . . . . o 4.6XL.7.t ",
"*.n.gXm.o X . . . . . . . . . .         . . . . . . X 4.6XL.7.b ",
"z n.fXm.o X . . . . . . . . . .         . . . . . . X 4.6XL.n.0 ",
"; J.hXJ.X X . . . . . . . . . .   . .     . . . . . X | Q.K.o.3 ",
"= a.-XH.Z + . . . . $ % @ o .   . O O X . . . . . o * 1.`.f.X.< ",
"h g.;X{.1XA . . . . -.y.f @ .   X 4 9 # o . . . o Z m.Q.,Xz.<.g ",
"H >.c.{.eX{ X . . . C <.a @ .   X 4 6 # $ 5 5 5 * F W.}.'.f.<.H ",
"H +.$.U.=X[ o . . . $ % @ o . . . O O o 5 ,.t.t.] X.U.U.y.=.H V ",
"] c O.l.:Xz.-.$ . . o O o . . . . X X X a t.i.i.i.l.+X_.t.%.D t ",
"S G ; d.*X*Xc.B @ . . . . .   .     . . a t.i.v.XXoX&X'.,.C b b ",
"y y f :.i.OX@Xc.-.o X . . .     . . . X $ b i.XX&XoXx.I./ B b b ",
"b z b c %.l.OX&Xk.B D A & o .   . . + Z F / k.@X&X!.p.A.^ z b e ",
"z ; 0 0 O.$.g.*X&XXX}.R.J & . . . X Z M.E.$X@X*X_.p.e.q.v ; b 6 ",
"p ; 4 3 , d 1.x._.U.}.{.H.s.6.5.5.o.u.}.}.U._._.I.e.B.0.v ; 4 > ",
"a : j j : p O./ ^ ^ U.=X=X%XyXtXtX{.=X-X`.X.n.n.B.q.w.R O.; 8 8 ",
"S l l l : ; s m R P r. X}.eXyX7X7XE.p.h.t.( B.C.b.R V E O.H } } ",
"' @.c c z z z I L T B.Z.Z.G.1X0X6XA.( ( Q b.~.V.~ z V N *.} } } ",
"' ' S n z I W Y T ~ C.(.S.S.D.D.D.q.R R I N.N.Y m ; t z } ' ' ' ",
"S S y b s v 0.C.V.V.D.V.w.~.N.Y T Y L L L Y Y L m ; f O.F c S S ",
"t b b b 9 d z B #.#.#.m W W Y I L L L L L L Y R O.p ; V V : z t ",
"b b b b 9 , - ; b t f ; ; m I B E I L I I I I z - 4 j t N ; N b ",
"b b b 6 1 3 > 6 b b b b f : : : z B E z : : : : - s 0 b b b e 0 ",
"e b 6 3 3 3 > 3 6 b 0 1 3 d : ; p : : : : : : 5 > 3 1 6 b 0 1 3 ",
"3 < > > > > # # > , v ^ 6 , > > > - : p 5 : - > # > > > 3 > > > "
};
