/* XPM */
static const char *YmxhY2tob2xlNg__[] = {
/* columns rows colors chars-per-pixel */
"32 48 205 2 ",
"   c #07001F",
".  c #09001E",
"X  c #0F0914",
"o  c #120A1A",
"O  c #0C0D12",
"+  c #070022",
"@  c #080223",
"#  c #09092B",
"$  c #140629",
"%  c #180529",
"&  c #1B0D2C",
"*  c #12092A",
"=  c #0D1A2F",
"-  c #1A142D",
";  c #00003F",
":  c #0D0334",
">  c #0F1636",
",  c #131C3D",
"<  c #171936",
"1  c #140735",
"2  c #20102A",
"3  c #270C38",
"4  c #330D3E",
"5  c #44133E",
"6  c #4A143D",
"7  c #040143",
"8  c #0A0445",
"9  c #0A0947",
"0  c #0B034B",
"q  c #0C0B4A",
"w  c #07044A",
"e  c #110646",
"r  c #1E0742",
"t  c #1C0942",
"y  c #130A4D",
"u  c #170B4C",
"i  c #13134D",
"p  c #1B144B",
"a  c #160A51",
"s  c #1B0E52",
"d  c #18085A",
"f  c #0F1053",
"g  c #141452",
"h  c #1E1354",
"j  c #191953",
"k  c #1C1659",
"l  c #1D1D5B",
"z  c #161655",
"x  c #240B42",
"c  c #290E46",
"v  c #330E41",
"b  c #2D134C",
"n  c #29174A",
"m  c #331142",
"M  c #361E46",
"N  c #3D1946",
"B  c #34134C",
"V  c #3D1D4C",
"C  c #391747",
"Z  c #240F57",
"A  c #221455",
"S  c #291453",
"D  c #231B54",
"F  c #24125A",
"G  c #211A5A",
"H  c #321451",
"J  c #321D52",
"K  c #0E2051",
"L  c #172C4B",
"P  c #322141",
"I  c #252352",
"U  c #24225D",
"Y  c #2A295B",
"T  c #2B265A",
"R  c #382253",
"E  c #372858",
"W  c #30305E",
"Q  c #0F0F69",
"!  c #0C0A67",
"~  c #120F66",
"^  c #100F68",
"/  c #0F126C",
"(  c #161164",
")  c #181063",
"_  c #11136C",
"`  c #191767",
"'  c #0E1772",
"]  c #0F1B75",
"[  c #101770",
"{  c #101C76",
"}  c #241C64",
"|  c #152679",
" . c #0F3A6E",
".. c #252661",
"X. c #272862",
"o. c #2B2C63",
"O. c #292761",
"+. c #343465",
"@. c #3A3463",
"#. c #35336A",
"$. c #3B3B68",
"%. c #393569",
"&. c #353671",
"*. c #441441",
"=. c #481640",
"-. c #461945",
";. c #411D4A",
":. c #45224C",
">. c #412653",
",. c #4A1F6A",
"<. c #441E64",
"1. c #572679",
"2. c #27417F",
"3. c #240F87",
"4. c #24108B",
"5. c #241087",
"6. c #30188A",
"7. c #30178B",
"8. c #112C86",
"9. c #102F8A",
"0. c #11318C",
"q. c #193183",
"w. c #123C95",
"e. c #293E85",
"r. c #4F2F95",
"t. c #522F9C",
"y. c #53309C",
"u. c #512A83",
"i. c #6A2D98",
"p. c #6D3199",
"a. c #592DA5",
"s. c #5931A5",
"d. c #6B2DA0",
"f. c #12449D",
"g. c #294990",
"h. c #1249A4",
"j. c #1257AB",
"k. c #145CB4",
"l. c #175EB5",
"z. c #1465BE",
"x. c #1562BB",
"c. c #1768BD",
"v. c #1467C1",
"b. c #1469C3",
"n. c #146BC4",
"m. c #1976C5",
"M. c #8138BB",
"N. c #9946D9",
"B. c #A346DD",
"V. c #9E45E3",
"C. c #A144E4",
"Z. c #A748EE",
"A. c #AE4BF4",
"S. c #AE4CFB",
"D. c #AB45F2",
"F. c #B547FF",
"G. c #BA47FF",
"H. c #B24AFD",
"J. c #B849FF",
"K. c #B04AF6",
"L. c #AD51FC",
"P. c #9F69FB",
"I. c #967FFD",
"U. c #9C79FD",
"Y. c #D352EB",
"T. c #DF51F6",
"R. c #EB4EFE",
"E. c #E054F7",
"W. c #2486BF",
"Q. c #418CAD",
"!. c #4181A0",
"~. c #4E9AB3",
"^. c #57A4B4",
"/. c #2490CA",
"(. c #31AFD0",
"). c #39BFCD",
"_. c #4CAAC7",
"`. c #53A9CA",
"'. c #4CB0CA",
"]. c #7CB6FE",
"[. c #72BFFC",
"{. c #3FD1D6",
"}. c #3BC6D2",
"|. c #41D6D7",
" X c #73DFD1",
".X c #79E8D2",
"XX c #5EDEFC",
"oX c #5ED8F6",
"OX c #6BCCFC",
"+X c #6EC7FD",
"@X c #76C8FF",
"#X c #65D5FD",
"$X c #69D4FE",
"%X c #62DCFD",
"&X c #68D9FF",
"*X c #63D5F5",
"=X c #5EE1FD",
"-X c #9083FC",
";X c #869AFD",
":X c #8B99FD",
">X c #8F97FB",
",X c #E197F6",
"<X c #DFC9EC",
"1X c #ECC4ED",
"2X c #F7C4F5",
/* pixels */
"j j j g 9 9 i j j D 6 6 T T D j j j j j j j q 9 i j j l Y Y Y Y ",
"o.o...l y q l o.+.:.6 6 :.:.6 R o.;.;.o.o...g q l o.+.$.$.$.$.$.",
"o.o.l k y w g ..E 6 6 6 =.=.6 *.R 6 6 E ..l y w f ..+.$.o.o.o.o.",
"O.l k a w 7 0 k *.-.) ^ ^ ^ F 6 V T V T G A q 7 w z ..o.o.o.X.o.",
"G A A a w 7 0 C B w.{ / Q Q ^ ^ F J G C 6 B 0 7 w s U o...l k k ",
"A A A a w 8 5 F ^ h.v.0./ / / / ^ ( *.5 6 5 u 7 w s G l l k k k ",
"A A s 0 w 4 B _ / h.b.v.z.z.z.0./ _ _ ` -.=.v 7 w s A k k A A a ",
"A s 0 w r *.( f.x.v.b.b.b.b.b.b.c.c.z.z.c.q.*.5 e a h A A a a 0 ",
"u w w 7 t } k.#.&.b.z.z.b.b.b.(.|.}.m.m.}.W._ B 6 r 0 u y w w w ",
"9 q q u #.k.D ;.l.l.{ | x.b./.|.|.|.{.{.|.}.| ( *.6 m q 9 9 9 9 ",
"U Y W E #.2.5 g.v.8.8.z.n.% % $ $ % * % $ % m.9.Z 6 6 J l l l l ",
"$.$.$.>.@.:.#.k.{ _ 0.m.).A.H.H.H.H.H.H.H.A.(.l.[ B 6 =.W o.o.o.",
"+.+.o.o.R ;.l.0.[ ~.A.K.H.S.H.H.H.H.H.H.H.F.K.H.C.~ *.6 ;.o.1X2X",
"..o.X...J g.h.|  Xo S.H.H.F.L.L.S.S.S.S.S.H.F.H.V.o F 6 6 O <X1X",
"U X.l k *.F / ^..XH.H.H.H.&X%X%X%X%X%X%X%X&XH.H.H.F.^ B 6 2X- A ",
"k k k C B ^ _ N.Z.H.$X#X#X%X_.> # # # # #X%X$X$X@XH.K.,X2X2 A A ",
"A A A C ) ! < V.F.J.$X%XXXXX_.. + + .   oXXXXX%X[.F.H.,X2XB A s ",
"h A c *.~ ' H.F.S.%X%XoX+ @ . + 4.:   + +     =XXX%XH.F.F.B s 0 ",
"w w x F <.V.H.].@XXX, >       . : @           - L %X+XU.H.C.* 7 ",
"i p B ^ ,.H.F.OX&XXX@ +                         , =X%XI.H.H.& j ",
"Y ;.B ' ,.H.H.+X%X    +                         .   %XI.H.F.2 $.",
"E *.~ i.M.H.;X$X%X  d d d +     +                   %X].;XF.d.i.",
"R F Q H.H.H.%X%X%X  3.5.4.+                         %XXX&XF.H.S.",
"6 F / K.F.H.%X< . + 3.4.4.@         + + +           K Q.&XF.H.S.",
"B ^ 8.K.F.S.XX,   < 6.7.6.+       1 t .             . Q.&XF.H.S.",
"B Q 0.K.H.S.%X,   . a.a.a.+       u.s.+ +           + Q.&XF.H.S.",
"B [ k.K.F.S.%X,     t.a.a.@         @               + Q.&XF.H.S.",
"6 } f.K.F.S.%X,     r.t.y.@                         + Q.&XF.H.S.",
"x } w.K.H.S.%X, + . . + +             +             + Q.&XF.F.S.",
"b e.] S.H.S.XXoX*X+                 @ 4.@         + *X#X&XF.F.K.",
">.-.( A.A.S.%X%XoX.                 @ 4.+         + %X%X%XJ.K.A.",
"E 6 B [ ,.H.H.OX%X@ +               + +         +   %XI.H.F.& J ",
"o.;.6 } ,.H.H.OX@X*X@ +                         , #X%XU.H.F.& k ",
"U Y *.F ,.F.F.OX=X%X+ .                       + , %X=X-XH.F.& A ",
"l k b *.) w.H.F.A.XX%XoX  +                 . %X%X%XS.H.S.J A A ",
"A C S C 6 } B Z.F.P.#X%X'.`.!..       . _.`.`.%X$XP.F.p.1.M A h ",
"B 5 s u 5 *.q.C.F.F.%XXX=X%X'.< . L # = oXXX=X=XOXF.F.u.M M A y ",
"x 5 e w 8 4 #.0.j.F.F.F.G.%X%X%X%X%X%XXX%X%XG.G.G.F.P P M 5 e 7 ",
"c 6 m m 6 x *.F / i.H.H.S.>X;X;X;X;X;X>X>X>XF.H.D.i.I n N 5 p i ",
"U N N N 6 5 c F Q Q S.F.H.H.H.H.H.H.H.H.H.H.F.F.V.( J ` *.E @.@.",
"o.;.V V B B B ^ Q '  .= n.H.H.H.H.H.H.H.H.A.= j.[ B J S >.%.+.+.",
"o.I 3 D B ^ _ / / { x.b.v.N.V.C.C.C.C.C.C.B.h./ F 5 k B @.o.o.o.",
"U % R.A c Z 8.l.k.x.x.k.w.v.h./ / / Q Q Q / / Q F 5 b *.Y V U U ",
"T.E.X O a v B H -.-.-.F _ _ / ^ Q Q Q Q Q Q Q ( *.x 5 J J 6 C k ",
"Y.Y.A A a 8 5 5 A k b 5 5 F ^ H ) ^ Q ^ ^ ^ ^ B 4 e m k S 5 S A ",
"A A A y 0 w 7 y A A A A b 6 6 6 B H ) B 6 6 6 6 4 c s A A A h s ",
"h A y w w w 7 w u h h 0 w v 6 5 x 6 6 6 6 6 6 r 7 w 0 u A s 0 w ",
"w 9 7 7 7 7 ; 7 7 w 7 7 7 7 7 7 7 4 6 x t 6 4 7 ; 7 7 7 w 7 7 7 "
};
