/* XPM */
static const char *YmxhY2tob2xlMw__[] = {
/* columns rows colors chars-per-pixel */
"32 48 213 2 ",
"   c #07001F",
".  c #09001D",
"X  c #0F0917",
"o  c #12091A",
"O  c #060122",
"+  c #090124",
"@  c #0C052A",
"#  c #0B0B2B",
"$  c #070B28",
"%  c #190728",
"&  c #00003F",
"*  c #0E1535",
"=  c #181434",
"-  c #220F32",
";  c #2A0E3D",
":  c #330D3E",
">  c #311937",
",  c #44133E",
"<  c #4A143D",
"1  c #040144",
"2  c #090445",
"3  c #0A0947",
"4  c #0B034B",
"5  c #0C0B4A",
"6  c #07044A",
"7  c #110546",
"8  c #130A4D",
"9  c #190947",
"0  c #13134D",
"q  c #191245",
"w  c #160A51",
"e  c #1B0E52",
"r  c #141452",
"t  c #1E1354",
"y  c #191953",
"u  c #1C1659",
"i  c #1D1D5B",
"p  c #161655",
"a  c #0F1053",
"s  c #240B42",
"d  c #290E46",
"f  c #330E41",
"g  c #2E144D",
"h  c #28174B",
"j  c #331042",
"k  c #341E44",
"l  c #3E1947",
"z  c #34134C",
"x  c #361C4A",
"c  c #3D1D4C",
"v  c #3A1447",
"b  c #250F57",
"n  c #240F58",
"m  c #221455",
"M  c #231B54",
"N  c #24125A",
"B  c #211B5A",
"V  c #291453",
"C  c #321451",
"Z  c #321D52",
"A  c #1E2745",
"S  c #1B275C",
"D  c #24225D",
"F  c #2A245D",
"G  c #2A295B",
"H  c #292656",
"J  c #362355",
"K  c #392253",
"L  c #382A59",
"P  c #30305E",
"I  c #2B2346",
"U  c #0F0F69",
"Y  c #0E0C67",
"T  c #130F66",
"R  c #100F68",
"E  c #0F126D",
"W  c #161164",
"Q  c #11136C",
"!  c #181465",
"~  c #0F1772",
"^  c #0F1A74",
"/  c #101770",
"(  c #101B75",
")  c #241A62",
"_  c #183163",
"`  c #122379",
"'  c #252661",
"]  c #272862",
"[  c #2B2B63",
"{  c #2B2566",
"}  c #343465",
"|  c #3A3463",
" . c #3B3B68",
".. c #383568",
"X. c #353671",
"o. c #441441",
"O. c #481640",
"+. c #461945",
"@. c #411D4A",
"#. c #45234C",
"$. c #442953",
"%. c #4A1E68",
"&. c #58217F",
"*. c #184075",
"=. c #2C597C",
"-. c #3A5A65",
";. c #6A526E",
":. c #240F8C",
">. c #241089",
",. c #251087",
"<. c #122C86",
"1. c #102E89",
"2. c #11318B",
"3. c #193183",
"4. c #113690",
"5. c #133C95",
"6. c #103E99",
"7. c #0F2F8B",
"8. c #293E85",
"9. c #5E2986",
"0. c #5D2888",
"q. c #56309D",
"w. c #4D2B8A",
"e. c #5D30A9",
"r. c #572FA4",
"t. c #7935AB",
"y. c #6A2F96",
"u. c #164799",
"i. c #1E5197",
"p. c #164285",
"a. c #2B4F8B",
"s. c #306F90",
"d. c #1246A1",
"f. c #124AA4",
"g. c #1857A7",
"h. c #145CB5",
"j. c #125EB9",
"k. c #1B5FB3",
"l. c #1462BC",
"z. c #1768BD",
"x. c #1460AF",
"c. c #1467C1",
"v. c #1469C3",
"b. c #196CC0",
"n. c #1A75C4",
"m. c #1A78C6",
"M. c #724ACC",
"N. c #86688B",
"B. c #8C6D91",
"V. c #9E50E5",
"C. c #A74AEB",
"Z. c #AC4BF5",
"A. c #AD4DFB",
"S. c #AC47F5",
"D. c #B647FE",
"F. c #BA47FF",
"G. c #B24AFE",
"H. c #B848FF",
"J. c #AB52FB",
"K. c #A95BFD",
"L. c #A358F9",
"P. c #9F6DFD",
"I. c #9972FB",
"U. c #E54EFB",
"Y. c #3B9692",
"T. c #2486BF",
"R. c #54A5B6",
"E. c #5EB1BA",
"W. c #67BFB0",
"Q. c #4E9AB3",
"!. c #238FCC",
"~. c #2593CC",
"^. c #3B94C3",
"/. c #35B4D2",
"(. c #30A9CA",
"). c #4CA8CA",
"_. c #7DA9FE",
"`. c #3CC3CB",
"'. c #3CCBD6",
"]. c #3ED1D8",
"[. c #5AC9D6",
"{. c #41D6D7",
"}. c #41D5D6",
"|. c #43D9D7",
" X c #43DBD8",
".X c #58D6D0",
"XX c #71DFD1",
"oX c #4AE1DB",
"OX c #6EF6DF",
"+X c #6DE9D8",
"@X c #5ED2EF",
"#X c #5EDDFA",
"$X c #5DDAF6",
"%X c #6DCDFC",
"&X c #66CFF1",
"*X c #73CBFF",
"=X c #61D5F4",
"-X c #6AD5FE",
";X c #62DCFC",
":X c #67D8FC",
">X c #60CDEB",
",X c #5EE1FD",
"<X c #79F9E0",
"1X c #998BA8",
"2X c #83A3FD",
"3X c #D6ADD6",
"4X c #C9ABCC",
"5X c #E1ABE1",
"6X c #E6BDE4",
"7X c #85FFE2",
"8X c #EDC2EC",
"9X c #FBC3F9",
"0X c #F8C6F7",
/* pixels */
"y y y r 3 3 0 y y M < < H H M y y y y y y y 5 3 0 y y i H H H H ",
"[ [ ' i 8 5 i [ } #.< < #.#.< J [ @.@.[ [ ' r 5 i [ } .. . . . .",
"[ [ i u 8 6 r ' L < < < O.O.< o.K < < J ' i 8 3 a ' }  .[ [ [ [ ",
"] i u w 6 1 4 u o.+.W R R R N < c G c F B m 5 1 6 p ' [ [ [ ] [ ",
"B m m w 6 1 4 v z 5.( E U U R R N Z B v < z 4 1 6 e D [ ' U.q u ",
"m m m w 6 2 , N R f.c.2.E E E E R W o.< < < 9 1 6 e B i i U.u u ",
"m m e 4 6 : z Q E f.v.c.l.l.l.2.E Q Q ! +.O.f 1 6 e m u u m m w ",
"m e 4 4 9 o.W u.l.c.v.v.v.A i.i.z.z.l.l.z.3.o., 7 w t m m w w 4 ",
"8 6 6 1 9 ) h...X.v.l.l.v.x k k {.'.m.m.'.T.Q z < 9 4 8 8 6 6 6 ",
"3 5 5 q 3XB.M @.k.j.( ` l.v.~.{.{.{.].].{.`.` W o.< j 5 3 3 3 3 ",
"D G P L 3XB.: a.c.<.<.l.X X o o o o {. X|.'.n.1.n < < Z i i i i ",
" . . .$.| N.3Xh.( Q 2.n.A.A.G.G.G.G.A +XOX X/.j./ z < O.P [ [ [ ",
"} } [ [ J $.;.1X/ Q.t.t.G._.2X2X2XG.t.t.9. X/.l.^ T o.< @.[ [ i ",
"' [ ] ' Z a.> 8XXXXXH.G.H.;X;X;X;XA.H.G.t.Y.{.!.d.U N < < Z B u ",
"D ] i u o.N E R.W.D.G.,X,X= + . . $X,XP.H.G..X~.x E R z < g m m ",
"u u u v z R Q E.-.G.Z.$X=X@ @ @ @ =X$XI.A.S.A ~.k q Y W o.z m m ",
"m m m v W Y s.-.D.A.;XO . + G.H.+ O O ).2XF.Z..Xn.k U T o.z m e ",
"t m d o.T ~ - C.G.-X$     O G.G.      @ a.*XG.C./.x ~ U N z e 4 ",
"6 6 s N U g.- G.G.,XO     $ H.H..       =.-XH.G.(.k ( U N s 2 1 ",
"0 q z R 1.m.- J.#X  O     .     O       . @ :XG.`.!.d.U N < M y ",
"G @.z ~ j.*.; A.$X  + +   O O O           # -XG.% ~.f.U R v #...",
"J o.T ^ l.0.G.J.;XO ,.:.                  # -XG.G.'.g.T o.< @.} ",
"K N U d.v.0.J.%X# O >.>.                  + $ -XG.].g.g c < @.[ ",
"< N E f.v.0.K.=X  O :.>.                . + + -XG.].g.z l @.l S ",
"z R <.v.v.0.K.=X    O O O             w.e.r.+ -XG.oXR.T o.x x u ",
"z U 2.v.v.0.K.=XO             d       w.e.q.O -XG.oX[.<., z z m ",
"z / h.v.v.0.K.=X              e.O     w.e.q.$ -XG.OX[.<., z m e ",
"< ) u.f.v.0.K.=X              + O     O . = + -XG.OX[.1.n , e 6 ",
"s ) 6.d.v.0.K.=XO             O O O     + O # :XG.7X[.7.n , 7 3 ",
"h 8.^ ( l.0.G.J.;X              ,.O       $ -XG.G.7X[.j.) < g h ",
"$.o.W ~ l.{ &.J.#X              7         $ =XG.%.XXi.l.) O.K J ",
"L < z / l.4.- A.;X+ O                   + @ :XG.<X^.4.l.) O.K Z ",
"[ @.< ) j.2.- G.G.;XO                   =.-XD.Z.[.h.4.l.) o.D u ",
"F F o.N 2.p.F Z.A.;X*                 + =.-XG.Z.m.1.<.l.) g m m ",
"i u g o.W N.5XS G.A.;XO O         O O ).2XG.Z.v.v.<.<.l.) z m m ",
"m z V v 4XB.= f.% G.L.@X@X.       >X&XI.J.S.% v.v.<.<.j.) z m t ",
"z < e w 5XN.3.4.u.H.G.,X,Xs.+ # O #X,XP.G.S.c.v.v.<.2.2.n < m 8 ",
"s , 7 8Xm : ..2.h.x.G.F.F.,X,X,X#XH.F.D.M.* _ 9Xv.4.h.1.N < 7 1 ",
"d < j 6X> s o.N E ( C.V.G.%X%X%X%XA.C.C.y.( _ 8X% 4.5.W o.< y 0 ",
"D l l l < , d k U U 2.v.G.G.G.G.G.G.= E U ( l.g.9XW Z ! o.L | | ",
"[ @.c l z z z 7 U ~ j.v.o o o o o o ~ U U d.v.h.q 8XZ V #...} } ",
"[ [ D M z R Q E E ( l.v.c.v.v.b.b.1.U U U f.f.E N 9Xu z | [ [ [ ",
"D D u m d n <.h.h.l.l.h.4.c.9XE E E U U U E E U N , g o.G c D D ",
"u m m m e f z C +.+.+.N Q $ 9XR U U U U U U U W o.s , Z Z < z u ",
"m m m m w 4 , , m u g < < N 9XC W R U R R R R z : 7 j m V , V m ",
"m m m 8 4 6 1 8 m m m m g < 9X< z C W z < < < < : d e m m m t e ",
"t m 8 6 6 6 1 6 8 t t 4 6 f 9X, s < < < < < < 9 1 6 4 8 m e 4 6 ",
"6 3 1 1 1 1 & 1 1 6 1 1 1 1 9X1 1 : < s 9 < : 1 & 1 1 1 6 1 1 1 "
};
