/* XPM */
static const char *YmxhY2tob2xlMQ__[] = {
/* columns rows colors chars-per-pixel */
"32 48 205 2 ",
"   c #07001F",
".  c #08001E",
"X  c #0C0814",
"o  c #050122",
"O  c #090224",
"+  c #0B0829",
"@  c #00003F",
"#  c #0D1431",
"$  c #161735",
"%  c #290E38",
"&  c #330D3E",
"*  c #2B1436",
"=  c #1F2D38",
"-  c #44133E",
";  c #4A143D",
":  c #040143",
">  c #0A0445",
",  c #0A0947",
"<  c #0B034B",
"1  c #0C0B4A",
"2  c #07044A",
"3  c #110646",
"4  c #1E0742",
"5  c #130A4D",
"6  c #170A48",
"7  c #13134D",
"8  c #1A1649",
"9  c #160A51",
"0  c #1B0E52",
"q  c #0F1053",
"w  c #141452",
"e  c #1E1354",
"r  c #191953",
"t  c #1D1659",
"y  c #1D1D5B",
"u  c #161655",
"i  c #240B42",
"p  c #2A0F4C",
"a  c #290D43",
"s  c #330E41",
"d  c #2E144D",
"f  c #2E194C",
"g  c #251549",
"h  c #331142",
"j  c #3E1947",
"k  c #34134C",
"l  c #391349",
"z  c #361D4B",
"x  c #3C1D4B",
"c  c #3B1446",
"v  c #250F57",
"b  c #240F58",
"n  c #221455",
"m  c #231B54",
"M  c #24125A",
"N  c #211B5A",
"B  c #2A1453",
"V  c #321451",
"C  c #321D52",
"Z  c #162547",
"A  c #192745",
"S  c #1C2757",
"D  c #1E3852",
"F  c #25225D",
"G  c #2A245D",
"H  c #29295B",
"J  c #292656",
"K  c #362355",
"L  c #392253",
"P  c #382A59",
"I  c #33365A",
"U  c #322045",
"Y  c #0F0F69",
"T  c #0E0C67",
"R  c #130F66",
"E  c #100F68",
"W  c #1F0D6F",
"Q  c #0F126C",
"!  c #161164",
"~  c #181063",
"^  c #11136C",
"/  c #191767",
"(  c #0F1772",
")  c #0F1A75",
"_  c #101770",
"`  c #101B75",
"'  c #241A63",
"]  c #152879",
"[  c #183578",
"{  c #252661",
"}  c #272862",
"|  c #2B2B63",
" . c #292761",
".. c #343465",
"X. c #3A3463",
"o. c #35336A",
"O. c #3B3B68",
"+. c #393569",
"@. c #353671",
"#. c #441441",
"$. c #481640",
"%. c #461945",
"&. c #411D4A",
"*. c #45224C",
"=. c #412653",
"-. c #5B1E6A",
";. c #285171",
":. c #27417F",
">. c #39627B",
",. c #24108A",
"<. c #241086",
"1. c #251090",
"2. c #122C86",
"3. c #102E89",
"4. c #11318B",
"5. c #193183",
"6. c #113690",
"7. c #123B94",
"8. c #113F99",
"9. c #0F2F8B",
"0. c #293E85",
"q. c #472988",
"w. c #7E3191",
"e. c #792E8A",
"r. c #552DA5",
"t. c #7532A8",
"y. c #15478A",
"u. c #16469B",
"i. c #294990",
"p. c #376E88",
"a. c #1146A1",
"s. c #1249A4",
"d. c #145CB5",
"f. c #135EB9",
"g. c #1A5FB3",
"h. c #1A57A3",
"j. c #1462BC",
"k. c #1767BB",
"l. c #2579A9",
"z. c #1367C2",
"x. c #146AC3",
"c. c #196CC0",
"v. c #1A74C5",
"b. c #1A78C6",
"n. c #217AC6",
"m. c #82608B",
"M. c #AC44BF",
"N. c #973ED7",
"B. c #9540D4",
"V. c #AC49F4",
"C. c #AD4CFB",
"Z. c #AF47F3",
"A. c #B547FF",
"S. c #B24AFD",
"D. c #B14AF6",
"F. c #AB52FC",
"G. c #A658FB",
"H. c #B055FF",
"J. c #A94CEE",
"K. c #9971FA",
"L. c #9D69FB",
"P. c #A165FC",
"I. c #DC4CF5",
"U. c #E452F9",
"Y. c #2383BE",
"T. c #3397A0",
"R. c #4D99B7",
"E. c #53A7B0",
"W. c #58C6BD",
"Q. c #2389C5",
"!. c #2693CA",
"~. c #3B99C8",
"^. c #3ABCC5",
"/. c #31AFD0",
"(. c #37AAD0",
"). c #5C9ECE",
"_. c #6C92DE",
"`. c #64A3DF",
"'. c #7197E6",
"]. c #60BEE0",
"[. c #54A9C9",
"{. c #3CC5CD",
"}. c #3CCBD5",
"|. c #41D6D7",
" X c #43DAD7",
".X c #57CCD0",
"XX c #6ADBCE",
"oX c #66E9DA",
"OX c #72EADD",
"+X c #5AC2E5",
"@X c #5FD3F2",
"#X c #5ED9F5",
"$X c #5FDDFC",
"%X c #65CEEE",
"&X c #68CCF9",
"*X c #6BC3FA",
"=X c #73C3FF",
"-X c #68D6FD",
";X c #63DBFD",
":X c #67D8FC",
">X c #7EFCE1",
",X c #70F9E2",
"<X c #82A5FE",
"1X c #83FEE2",
"2X c #FAC1F9",
/* pixels */
"r r r w , , 7 r r m ; ; J J m r r r r r r r 1 , 7 r r y J J J J ",
"| | { y 5 1 y | ..*.; ; *.*.; K | &.&.| | { w 1 y | ..O.O.O.O.O.",
"| | y t 5 2 w { P ; ; ; $.$.; #.L ; ; K { y 5 2 q { ..O.| | | | ",
" .y t 9 2 : < t #.%.~ E E E M ; x G x G N n 1 : 2 u { | | | } | ",
"N n n 9 2 : < l k 8.` Q Y Y E E M C N c ; k < : 2 0 F | { y t t ",
"n n n 9 2 > - M E s.z.4.Q Q Q Q E ! #.- ; - 6 : 2 0 N y y t t t ",
"n l e.< 2 & k ^ Q s.x.z.j.j.j.4.Q ^ ^ / %.$.s : 2 0 n t t n n 9 ",
"n -.I.2 4 #.! u.j.z.x.x.x.x.x.x.k.k.j.j.k.5.#.- 3 9 e n n 9 9 < ",
"5 2 2 : 4 ' d.o.@.x.j.j.x.x.x./.|.}.b.b.}.Y.^ k ; 4 < 5 5 2 2 2 ",
", 1 1 6 o.d.m &.g.f.` ] j.z.!.|.p.I I I |.{.] ! #.; h 1 , , , , ",
"F H I P o.i.- i.z.2.2.j.x.b.{.}.>.z z z  X}.v.3.b ; ; f y y y y ",
"O.O.O.=.X.*.o.f.` ^ 4.v.^.^.D A A D ^.oXoX X/.f._ k ; $.H | | | ",
"....| | K &.g.4._ R.n.k.D V.V.V.V.J.V.V.XX X/.j.) R #.; &.| | y ",
"{ | } { C i.s.[ XXOX!.X X S.S.S.S.S.S.S.= E.|.!.a.Y M ; ; C N t ",
"F } y t #.M Q E.1X.XA A.S.S.:X;X;X;X:XA.S.S.W.!.s.Q E k ; d n n ",
"t t t c k E ^ E.,X* Z.S.;X;X+ # O O + ;X;XS.V.$ z.2.T ~ #.k n n ",
"n n n l ~ T p.1Xp.H S.C.#X#Xo o o . o #X#XF.S.$ y.4.E R #.k n 0 ",
"e n p #.R ( ~.>XB.A.C.;Xo . o <.5 o o o   ;XC.C.t.f.( Y M k 0 < ",
"2 2 i M Y h.OXS.A.H.$XO o   o o o o o     # ;XF.S.V.` Y M i > : ",
"7 8 k E 3.b.oXC.F.P.%Xo                     &XG.C.C.a.Y M - m r ",
"H %.k ( f.b.}.C.=X+X  o                       @X<XC.a.Y E l *.O.",
"K #.R ) j.b.S.S.=X+Xo ,.r..                   @X<XS.S.R #.; &...",
"L M Y a.x.v.S.K.).R.o ,.r.                    R._.K.D.d x ; &.| ",
"; M Q s.x.v.S.-XZ o o ,.,.o                     ;.-XD.k j %.j S ",
"k E 2.U x.v.S.:XZ       o o                     ;.-XS.R #.z z t ",
"k Y 4.z x.z.S.-XZ o                             ;.-XS.2.- k k n ",
"k _ d.z x.z.S.;XZ                               ;.-XS.2.- k n 0 ",
"; ' u.z x.x.S.;XZ o         S.+                 ;.-XS.3.b - 6 2 ",
"i ' 8.[ x.x.C.P.`.R.        p     o W q..     [.'.L.S.9.b - 3 , ",
"f 0.) ` j.z.A.S.*X+X        o .   o 1.r.      @X<XS.S.f.' - f f ",
"=.#.! ( j.7.Q.C.=X].        o o     o . .   . &X<XC.u.j.' $.L K ",
"P ; k _ j.6.Y.C.F.P.%Xo                     &XG.C.V.6.j.' $.L C ",
"| &.; ' f.4.4.V.S.G.;X+                   . $XC.S.V.6.j.' #.F t ",
"F G #.M 4.d.6./.N.S.C.;Xo o             . ;XC.A.t.3.2.j.' d n n ",
"t t d #.! 8.7.b.p.p.S.F.#X#X        o ;X#XS.S.[ y.2.2.j.' k n n ",
"n k B c ; ' 8.s.!.% V.C.;X;X+ # # o o -X;XS.V.$ x.2.2.f.' k n e ",
"k - 0 9 - #.5.7.j./.T.A.S.A.;X;X;X;X;XA.A.A.y.x.x.2.4.4.b - n 5 ",
"i - 3 2 > & o.4.d.x.c.h.l.A.S.A.S.S.A.D.X ] f.x.x.6.d.3.b - 3 : ",
"i ; h h ; i #.M Q ` f.b.OXS.V.V.V.V.V.Z.` ` j.x.x.6.8.! #.- 8 7 ",
"F j j j ; - a M Q Y 4.z.~.2X>X>X>X~.) Q Y ` j.x.s.! C / #.P X.X.",
"U.M.x j k k k E Y ( f.x.c.2X~.>X.Xf.( Y Y a.x.d.` k C B =.+.....",
"M.w.F m k E ^ Q Q ` j.x.z.2Xx.c.c.3.Y Y Y s.s.Q M - t k X.| | | ",
"F F t n p b 2.f.f.j.k.d.6.2Xs.Q Q Q Y Y Y Q Q Y M - d #.H x F 8 ",
"t n n n 9 s k V %.%.%.M ^ 2XQ E Y Y Y Y Y Y Y ! #.i - C K ; U.* ",
"n n n n 9 < - - n t d - - m.E V ~ E Y E E E E k & 3 h t B - e.a ",
"n n n 5 < 2 : 5 n n n n d ; ; ; k V ~ k ; ; ; ; & a 0 n n n e 0 ",
"e n 5 2 2 2 : 2 5 e e < 2 s ; - i ; ; ; ; ; ; 4 : 2 < 5 n 0 < 2 ",
"2 , : : : : @ : : 2 : : : : : : : & ; i 4 ; & : @ : : : 2 : : : "
};
