/* XPM */
static char *c23f1b1a4c88415b839c2af007d4a0e5zczqtSL54OOK4lAs[] = {
/* columns rows colors chars-per-pixel */
"32 48 222 2 ",
"   c #07001F",
".  c #08001E",
"X  c #060121",
"o  c #090222",
"O  c #0A042B",
"+  c #0C0929",
"@  c #07092A",
"#  c #090539",
"$  c #1D0C35",
"%  c #131E3E",
"&  c #1B1233",
"*  c #11142F",
"=  c #290D3F",
"-  c #330D3E",
";  c #27143A",
":  c #3E1C39",
">  c #44133E",
",  c #4A143D",
"<  c #040143",
"1  c #0A0445",
"2  c #0A0947",
"3  c #0B034B",
"4  c #0C0B4A",
"5  c #07044A",
"6  c #110646",
"7  c #130A4D",
"8  c #190947",
"9  c #13134D",
"0  c #171748",
"q  c #160A52",
"w  c #1B0E52",
"e  c #17095B",
"r  c #141452",
"t  c #1E1354",
"y  c #191953",
"u  c #1C1659",
"i  c #1D1D5B",
"p  c #171655",
"a  c #0E0D59",
"s  c #240B42",
"d  c #290D41",
"f  c #290F4A",
"g  c #330E41",
"h  c #2E144D",
"j  c #2A1A49",
"k  c #331142",
"l  c #331C46",
"z  c #3D1947",
"x  c #34134C",
"c  c #351B4C",
"v  c #3C1D4B",
"b  c #3A1447",
"n  c #250F57",
"m  c #240F58",
"M  c #221455",
"N  c #251159",
"B  c #211B5A",
"V  c #261853",
"C  c #321451",
"Z  c #321D53",
"A  c #172545",
"S  c #17294B",
"D  c #182B49",
"F  c #1B255C",
"G  c #183853",
"H  c #0F2B47",
"J  c #382545",
"K  c #24225D",
"L  c #2A295B",
"P  c #2A2559",
"I  c #362355",
"U  c #392253",
"Y  c #372A5A",
"T  c #223857",
"R  c #30305E",
"E  c #0F0F69",
"W  c #0F0D67",
"Q  c #120F66",
"!  c #1A0B64",
"~  c #110F68",
"^  c #0F126D",
"/  c #161164",
"(  c #11136C",
")  c #1A1363",
"_  c #0F1772",
"`  c #0F1B75",
"'  c #101770",
"]  c #101C75",
"[  c #1E0C72",
"{  c #241A62",
"}  c #23107D",
"|  c #15286A",
" . c #192676",
".. c #1A3E6E",
"X. c #252661",
"o. c #272962",
"O. c #2B2B63",
"+. c #292761",
"@. c #343465",
"#. c #3A3463",
"$. c #35346C",
"%. c #3B3B68",
"&. c #3A3A66",
"*. c #372E66",
"=. c #441441",
"-. c #481640",
";. c #461945",
":. c #401C4A",
">. c #45234C",
",. c #412653",
"<. c #442479",
"1. c #1E4655",
"2. c #244A6A",
"3. c #244565",
"4. c #255171",
"5. c #2A5176",
"6. c #2B5777",
"7. c #6E5778",
"8. c #241089",
"9. c #122C86",
"0. c #102E89",
"q. c #11308B",
"w. c #1A3783",
"e. c #113690",
"r. c #133F98",
"t. c #0F2F8B",
"y. c #31388B",
"u. c #4B2988",
"i. c #5A2686",
"p. c #482996",
"a. c #582B98",
"s. c #642B92",
"d. c #642996",
"f. c #603097",
"g. c #68329A",
"h. c #682B8F",
"j. c #5C2FA6",
"k. c #4F35A8",
"l. c #5A31A6",
"z. c #7933AD",
"x. c #7935B2",
"c. c #6230AF",
"v. c #16459D",
"b. c #1A4485",
"n. c #23458B",
"m. c #325D83",
"M. c #2E5D81",
"N. c #336789",
"B. c #387B97",
"V. c #32668B",
"C. c #124AA4",
"Z. c #1247A1",
"A. c #145CB5",
"S. c #125DB9",
"D. c #1855A8",
"F. c #1464BE",
"G. c #1461BB",
"H. c #1666BB",
"J. c #7F6484",
"K. c #5A58A7",
"L. c #763EC6",
"P. c #1469C3",
"I. c #146AC4",
"U. c #1467C1",
"Y. c #1973C2",
"T. c #7943C8",
"R. c #7E43D9",
"E. c #635BD7",
"W. c #664ED2",
"Q. c #8139BD",
"!. c #85698C",
"~. c #8539C7",
"^. c #8E3EDA",
"/. c #933DD1",
"(. c #8846D7",
"). c #9844D9",
"_. c #8054CE",
"`. c #8652ED",
"'. c #8954EE",
"]. c #A646EC",
"[. c #A64AF2",
"{. c #AB4BF5",
"}. c #AD4DFC",
"|. c #AC46F3",
" X c #B24AFD",
".X c #B647FE",
"XX c #AA59FD",
"oX c #A854F9",
"OX c #B95BF6",
"+X c #9E65FA",
"@X c #916EF1",
"#X c #2486BF",
"$X c #4B99B4",
"%X c #238FCB",
"&X c #30AED0",
"*X c #5CBDE6",
"=X c #7DACFD",
"-X c #7FA6FE",
";X c #78BAFE",
":X c #68BBEB",
">X c #3BC5D1",
",X c #41D7D7",
"<X c #5CCFF0",
"1X c #63CEF6",
"2X c #6DC5FD",
"3X c #6BCAFD",
"4X c #6CC6F7",
"5X c #72C3FD",
"6X c #78C3FF",
"7X c #62DCFD",
"8X c #6BD4FD",
"9X c #60E0FC",
"0X c #8D8DFD",
"qX c #9B81FA",
"wX c #8A93FB",
"eX c #859CFC",
"rX c #889BFE",
"tX c #82A4FD",
"yX c #81A9FE",
"uX c #C19DC2",
"iX c #EBB5EB",
"pX c #F7CBF6",
/* pixels */
"y y y r 2 2 9 y y V , , P P V y y y y y y y 4 2 9 y y y P P P P ",
"O.O.X.i 7 4 i O.@.>., , >.>., I O.:.:.O.O.X.r 4 i O.@.&.%.%.%.%.",
"O.O.i u 7 5 r X.Y , , , =.=., -.U , , I X.i 7 2 a X.@.%.O.O.O.O.",
"+.i u q 5 < 3 u =.;./ ~ ~ ~ N , v L v L B M 4 < 5 p X.O.O.O.o.O.",
"B M M q 5 < 3 b x r.] ^ E E ~ ~ N Z B b , x 3 < 5 w K O.X.i i u ",
"M M M q 5 1 > N ~ C.U.q.^ ^ ^ ^ ~ / =., , , 8 < 5 w B i i u u u ",
"M M w 3 5 - x ( ^ C.I.U.F.F.F.q.^ ( ( ) ;.-.g < 5 w M u u M M q ",
"M w 3 5 8 =./ v.G.U.P.P.P.P.P.P.H.H.F.F.H.w.=.> 6 q t M M q q 3 ",
"7 5 5 < 8 { D.*.$.I.F.F.w.= s d d d = o.>X#X' x , 8 3 7 7 5 5 5 ",
"2 4 4 8 $.A.c c n.S.] ] W. X X X X X X@X,X>X ./ =., k 4 2 2 2 2 ",
"K L R Y $.j ; ; b.| <.i.~.+X0X0X0X0X@X).i.K.Y.0.m , > J.y y y i ",
"%.%.%.,.#.v l n.] M z. X X0X7X7X7X7X=X X X+X&XS.' x : pXR O.O.O.",
"@.@.O.O.I v <.u.x./.].0X;XB.S S S S m.;XtX|._.G. .7.uXJ :.O.O.i ",
"X.O.o.X.Z R u.j.^. X}.rX7XB.o X X X 2.7X;X X+X%Xv.!.iX, , Z K u ",
"K o.i u =.$ <.j.(.oXtXV.@ X 6 e X o X @ T ;X XOXiX!.& x , h M M ",
"u u u b x ~ p.l.^.XXtXN.X   7 ! X X X o 3.2X.XOXiX!.W / =.x M M ",
"M M M b / a _. XwX*X5.X X X X X X   o 8 u.T 5X}.|.s.E / =.x M w ",
"t M f =.Q _ @X.XrX*X4.X           X X 8 u.D 2X}.[.f._ E N x w 3 ",
"5 5 s N E D.qXyXM.X   X               . . o T 3X[.f.] E N s 1 < ",
"9 0 x ~ 0.H x.tXm.+ X o o                   A 3XoXE.| E N , V y ",
"L ;.x _ S.'. XtXV.# ! 8.e X                 A 3X}. X{.E ~ b >.&.",
"I =.Q ` G.'.}.tX6.# ! 8.e X                 A 4XXX X[.Q =., :.@.",
"U N E Z.I.'.=X4.  O ! 8.e X                 o T 1XwX[.h v , :.O.",
", N ^ C.I.'.=X4.X O e } 7       .             % 1XwX[.x z ;.z F ",
"x ~ 9.P.P.'.=X4.X     X X                     % 1XwX{.Q =.c c u ",
"x E q.I.P.`.=X4.X                             % 1XwX{.9.> x x M ",
"x ' A.P.P.`.=X4.X                             % 1XwX{.9.> x M w ",
", { v.C.I.`.=X4.X                             % 1XwXoX0.m > 8 5 ",
"s { r.Z.I.`.yX4.X                           X 0 1XwXoXt.m > 6 2 ",
"h y.` ] G.`.}.eXm.+             # ! !       A :XXX}.{.S.{ , h j ",
",.=./ _ G.(. X-XM.+   . o o     # [ !       A 2X}..X{.G.{ -.U I ",
"Y , x ' G.0 Q.tXm.+ o a.i..     X X X       A 3XoXx.0 G.{ -.U Z ",
"O.:., { S.q.R.yXm.+ o d.s.X               o 2.3X[.f.e.G.{ =.K u ",
"K L =.N q.A.R..XeX*X4.X + +               D 2X}.|.s.9.G.{ h M M ",
"u u h =./ r.R. XeX<XB.*   .               D 3X}.|.d.9.G.{ x M M ",
"M x V b , Z F T. XXXtXN.X               G *Xl.k.G.9.9.S.{ x M t ",
"x , w 7 > z K L.}.XXtXN.o X X   X   X X G *Xj.a...9.q.q.m , M 7 ",
"s > 6 5 1 c c  .W.{. XrX9XB..   o o 2.7X;X].c.k.P.e.A.0.m > 6 < ",
"s , k k , l l $ g.].{.wX8X$X1.G H @ 2.8X=X].c.p.F e.r./ =., 0 9 ",
"K z z z , > l J ; ; z. X.X0X9X7X7X7X=X.X.X/.H I.C./ Z ) =.Y #.#.",
"O.:.v z x x l l & ; g.).].qX5X5X5X6XrX|.).T.I.S.] x Z n ,.&.@.@.",
"O.O.K V x ~ ( ^ ^ ] G.P.E. X X X X X X~.E C.C.^ N > u x #.O.O.O.",
"K K u M f m 9.S.S.G.H.A.y.s.s.s.s.s.h.i.E ^ ^ E N > h =.L v K K ",
"u M M M w g x C ;.;.;.N ( ( ^ ~ E E E E E E E / =.s > Z Z , x u ",
"M M M M q 3 > > M u h , =.N ~ C / ~ E ~ ~ ~ ~ x - 6 k M V > V M ",
"M M M 7 3 5 < 7 M M M M h , , , x C / x , , , , - d w M M M t w ",
"t M 7 5 5 5 < 5 7 t t 3 3 g , > s , , , , , , 8 < 5 3 7 M w 3 5 ",
"5 2 < < < < # < < 5 < < < < < < < - , s 8 , - < # < < < 5 < < < "
};
