/* XPM */
static char *_0b5764d7288484d9af1d1ed87fa377cU1nxhsbTmw1lIMhk[] = {
/* columns rows colors chars-per-pixel */
"32 48 204 2 ",
"   c #07001F",
".  c #08001E",
"X  c #0C0B12",
"o  c #100915",
"O  c #050123",
"+  c #090223",
"@  c #08072A",
"#  c #18062F",
"$  c #1C0A2A",
"%  c #170921",
"&  c #10132E",
"*  c #00003F",
"=  c #0C0735",
"-  c #0F1030",
";  c #141536",
":  c #140F38",
">  c #27122F",
",  c #280D3A",
"<  c #330D3E",
"1  c #2E1234",
"2  c #3E113C",
"3  c #44133E",
"4  c #4A143D",
"5  c #040143",
"6  c #0A0445",
"7  c #0A0947",
"8  c #0B034B",
"9  c #0C0B4A",
"0  c #07044A",
"q  c #110546",
"w  c #1E0742",
"e  c #130A4D",
"r  c #180948",
"t  c #13134D",
"y  c #1A1449",
"u  c #160A51",
"i  c #1B0E52",
"p  c #170C5D",
"a  c #0F1053",
"s  c #141452",
"d  c #1E1354",
"f  c #191953",
"g  c #1C1659",
"h  c #1D1D5B",
"j  c #171655",
"k  c #0E1349",
"l  c #240A42",
"z  c #290D45",
"x  c #330E41",
"c  c #2C134C",
"v  c #2A1949",
"b  c #331243",
"n  c #331D45",
"m  c #3C1B44",
"M  c #34134C",
"N  c #341D4A",
"B  c #3C1949",
"V  c #250F57",
"C  c #221455",
"Z  c #291453",
"A  c #24125A",
"S  c #211B5A",
"D  c #231C53",
"F  c #321451",
"G  c #331D53",
"H  c #122849",
"J  c #0E3055",
"K  c #24225D",
"L  c #2A245D",
"P  c #2A295B",
"I  c #292656",
"U  c #382253",
"Y  c #372857",
"T  c #30305E",
"R  c #2C2242",
"E  c #0F0F69",
"W  c #110F67",
"Q  c #110F68",
"!  c #0F126C",
"~  c #161164",
"^  c #181063",
"/  c #11146C",
"(  c #1B1764",
")  c #101C76",
"_  c #101770",
"`  c #251C65",
"'  c #36196A",
"]  c #2E1E7D",
"[  c #122379",
"{  c #0F3A70",
"}  c #183671",
"|  c #252661",
" . c #272862",
".. c #2B2B63",
"X. c #292761",
"o. c #343465",
"O. c #383463",
"+. c #343469",
"@. c #3B3B68",
"#. c #393569",
"$. c #353671",
"%. c #441441",
"&. c #481641",
"*. c #461945",
"=. c #411D4A",
"-. c #44234D",
";. c #422F48",
":. c #402654",
">. c #4E3452",
",. c #451F64",
"<. c #431F7D",
"1. c #54317B",
"2. c #1D5671",
"3. c #284969",
"4. c #264F70",
"5. c #295177",
"6. c #241087",
"7. c #24108A",
"8. c #230F85",
"9. c #102E89",
"0. c #112C85",
"q. c #11318B",
"w. c #1A3283",
"e. c #133B94",
"r. c #293E85",
"t. c #471E81",
"y. c #5E2FA9",
"u. c #5D30A9",
"i. c #5731A3",
"p. c #612FAD",
"a. c #6231AE",
"s. c #7632AB",
"d. c #7533A7",
"f. c #14459D",
"g. c #294990",
"h. c #3A799A",
"j. c #387898",
"k. c #1249A4",
"l. c #1358A9",
"z. c #145CB4",
"x. c #165FB7",
"c. c #1464BE",
"v. c #1562BB",
"b. c #1667BC",
"n. c #3D7AA0",
"m. c #6F51BF",
"M. c #1467C1",
"N. c #1469C3",
"B. c #1469C4",
"V. c #1A76C5",
"C. c #8C3FD2",
"Z. c #963DD7",
"A. c #9240CD",
"S. c #9043D4",
"D. c #AF4BEE",
"F. c #AD47F4",
"G. c #AC4AF5",
"H. c #AC4CFB",
"J. c #AB4BF6",
"K. c #B447FE",
"L. c #B947FF",
"P. c #B34AFE",
"I. c #B948FF",
"U. c #B14AF7",
"Y. c #AD50FB",
"T. c #A65DFD",
"R. c #9E6AFB",
"E. c #967BFC",
"W. c #8F7BF5",
"Q. c #A169FC",
"!. c #A366FC",
"~. c #2892BE",
"^. c #4594B5",
"/. c #2490CA",
"(. c #31AFD0",
"). c #568DC4",
"_. c #4DACCD",
"`. c #54B3D4",
"'. c #7692E4",
"]. c #7CBBFE",
"[. c #7FA6FA",
"{. c #3FD1D6",
"}. c #3BC6D2",
"|. c #41D6D7",
" X c #5FD3F1",
".X c #5FD8F7",
"XX c #5EDEFC",
"oX c #67CDF2",
"OX c #64D7FD",
"+X c #63DBFD",
"@X c #6AD8FF",
"#X c #6BD5FF",
"$X c #5DE2FD",
"%X c #61E0FF",
"&X c #BE9CBE",
"*X c #84ACDA",
"=X c #8E8BFB",
"-X c #9187FC",
";X c #80A6FC",
":X c #CC9DCD",
">X c #D78CF1",
",X c #F3BEF2",
"<X c #F0C2EE",
"1X c #FAC3F9",
/* pixels */
"f f f s 7 7 t f f D 4 4 I I D f f X f f f f 9 7 t f f f I I I I ",
"....| h e 9 h ..o.-.4 4 -.-.4 U ..=.=.....| s 9 h ..o.@.@.@.@.@.",
"....h g e 0 s | Y 4 4 4 %.%.4 %.U 4 4 Y | h e 0 a | o.@.........",
"X.h g u 0 5 8 g %.*.^ W W W A 4 B P B L S C 9 5 0 j | ...... ...",
"S C C u 0 5 8 b M e.) ! E E Q W A G S B 4 M 8 5 0 i K ..| h g g ",
"C C C u 0 6 3 A W k.M.q.! ! ! ! Q ~ %.4 4 4 r 5 0 i S h h g g g ",
"C C i 8 0 < M / ! k.B.M.c.c.c.q.! / / ( *.&.x 5 0 i C g g C C u ",
"C i 8 8 w %.~ f.v.M.N.N.N.N.N.N.b.b.c.c.b.w.%.2 q u d C C u u 8 ",
"e 0 0 5 w ` z.#.$.B.c.c.B.N.N.(.|.}.V.V.}.~./ M 4 w 8 e e 0 0 0 ",
"7 9 9 r +.z.D =.x.x.) [ v.B./.|.|.|.{.{.|.}.[ ~ %.4 b 9 7 7 7 7 ",
"K P T Y U P m g.M.0.0.l.s.s.s.s.s.s.s.s.s.d.V.9.V 4 4 G h f f f ",
"@.@.@.-.N N n x.) ~ q.; P.P.U.P.P.P.P.P.P.G.~.l./ M 4 &.T ......",
"o.o.n n N 1 } q.,.U.U.U.P.-X+XOX+XOXOXOXH.H.U.U.U.p %.4 =.....h ",
"| ..n N N g.k.& *XP.K.K.L.-X$X$X$X$X$X$XK.L.L.K.P.E X 4 4 G K g ",
"K  .N n %.A ! P.P.K.OXXXXXh.& -   O O - XXXX$XE.P.P.U.M 4 c C C ",
"g g N n M # # P.Y.J.oX X Xj.  O O   .   oX X X-XT.P.G.% 2 M C C ",
"C C N n ^ G.K.P.E.+X+ O +     8.6..   O O     ^.+XH.I.P.N M C i ",
"d C , M Z.P.P.].).H O     O . = =             ; H ].].K.S.A.i 8 ",
"0 0 l M P.P.H.+X^.O             O                 +X#XI.P.P.6 5 ",
"t y M M K.@X+X    O                             . . @ XXR.P.D f ",
"P =.X ] K.@X+X    O . O                             + +XQ.P.m R ",
"U %.U.P.P.@X+X  q 7.7.6.O                           + +XQ.P.U.G.",
"U A P.Y.R.`.`.  q 7.7.6.O                           + `.W.R.P.G.",
"4 A P.Q.XX+ . . 6 7.7.6.O                           . + _.+XJ.G.",
"M W P.Q.+X+ O O O O O O O                               _.+XH.G.",
"M E P.Q.XX+           O . O                           O _.+XH.G.",
"M _ P.Q.XX+           + i.' O                         O _.+XJ.F.",
"4 ` P.!.XX+           + i.' O                         O _.+XH.G.",
"l ` P.Q.XX+ O           O O                           O _.+XH.G.",
"v r.P.T.[.5.4.O                     = q O           O 4.'.;XP.G.",
":.*.P.K.P.OX+X                      p 7.O           @ +XQ.P.P.G.",
":.4 $ ' P.+XXX  O                   O O               .XR.P., $ ",
"..=.4 M K.+XXX2.+ O                           O O O @ $XR.P.K g ",
"L L %.M K.L.G.%X^.. O                         <.u.u.u.L.P.U.C C ",
"h g c b D.P.H.OX^.2.                          <.y.a.y.P.G.G.C C ",
"C M Z B 4 P.P.P.E.+X+ O O                     <.y.u.p.K.M M C d ",
"M 4 i u 3 >X>XP.T.=Xh.h.j.3..           h.h.j.m.S.C.C.1.c 4 V e ",
"l 4 q 0 6 ,X1XH.P.P.@X+X+Xh.@ @ + + O O +X+X+XE.K.P.J.9.V 3 q 5 ",
"z 4 b ;.,X$ 1 % t.P.H.H.P.=X+XOXOXOX.X.XY.Y.Y.P.P.+ ; ~ %.4 y t ",
"K m m ;.1X> z A ,.I.L.L.P.=X$X$X$X$X$X$XJ.P.L.P.P.^ G ( %.Y O.O.",
"..=.1X:XM M M Q E - x.v.P.P.P.P.P.P.P.P.P.G.J { k M G Z :.#.o.o.",
"> $ <X&XM W / ! ! ) v.l.J.J.F.G.G.G.F.F.F.D.k.! A 3 g M O.......",
",X1Xy : z V 0.x.x.v.b.z.e.M.k.! ! ! E E E ! ! E A 3 c %.P B K K ",
">.1.C C u x M F *.*.*.A / / ! Q E E E E E E E ~ %.l 3 G G 4 M g ",
"C C C C u 6 3 3 C g c 4 4 A Q F ^ Q E W W W W M < q b g Z 4 Z C ",
"C C C e 8 0 5 e C C C C c 4 4 4 M F ^ M 4 4 4 4 < z i C C C d i ",
"d C e 0 0 0 5 0 e d d 8 0 x 4 3 l 4 4 4 4 4 4 w 5 0 8 e C i 8 0 ",
"0 7 5 5 5 5 * 5 5 0 5 5 5 5 5 5 5 < 4 l w 4 < 5 * 5 5 5 0 5 5 5 "
};
