/* XPM */
static const char *YmxhY2tob2xlNQ__[] = {
/* columns rows colors chars-per-pixel */
"32 48 200 2 ",
"   c #07001F",
".  c #08001E",
"X  c #050122",
"o  c #090123",
"O  c #0A0128",
"+  c #0B0B2D",
"@  c #08072A",
"#  c #150B2E",
"$  c #0A122B",
"%  c #00003F",
"&  c #0D0D35",
"*  c #160A37",
"=  c #0B1637",
"-  c #141A3B",
";  c #121534",
":  c #220C2E",
">  c #2A0C3E",
",  c #330D3E",
"<  c #44133E",
"1  c #4A143D",
"2  c #040143",
"3  c #0A0445",
"4  c #0A0A47",
"5  c #0B034B",
"6  c #0D0C4B",
"7  c #07044A",
"8  c #110646",
"9  c #1E0742",
"0  c #1C0B42",
"q  c #130A4D",
"w  c #160B4A",
"e  c #0E114F",
"r  c #13134D",
"t  c #1B144B",
"y  c #0E0E57",
"u  c #160A51",
"i  c #1B0E52",
"p  c #100D5B",
"a  c #0F1059",
"s  c #131453",
"d  c #1E1253",
"f  c #191953",
"g  c #14135B",
"h  c #1C1659",
"j  c #1D1D5B",
"k  c #161854",
"l  c #240B42",
"z  c #2A0F4A",
"x  c #290D43",
"c  c #330E41",
"v  c #2E154D",
"b  c #2E194C",
"n  c #24164A",
"m  c #331142",
"M  c #361E47",
"N  c #3E1947",
"B  c #34134C",
"V  c #351D49",
"C  c #3C1D4B",
"Z  c #3A1447",
"A  c #250F57",
"S  c #240F58",
"D  c #221455",
"F  c #231B54",
"G  c #24125A",
"H  c #211B5A",
"J  c #291552",
"K  c #321451",
"L  c #311D53",
"P  c #102A47",
"I  c #1E205E",
"U  c #24225D",
"Y  c #2A245D",
"T  c #2A295B",
"R  c #292656",
"E  c #362355",
"W  c #392253",
"Q  c #382A59",
"!  c #30305E",
"~  c #0E0D66",
"^  c #0F0E69",
"/  c #120F66",
"(  c #100F68",
")  c #0F126D",
"_  c #0F1360",
"`  c #161164",
"'  c #181063",
"]  c #11136C",
"[  c #0F1772",
"{  c #0F1A74",
"}  c #101770",
"|  c #101B75",
" . c #241A63",
".. c #12246E",
"X. c #112979",
"o. c #103F76",
"O. c #252661",
"+. c #272862",
"@. c #2C2B63",
"#. c #292761",
"$. c #233F62",
"%. c #343465",
"&. c #3A3463",
"*. c #35336A",
"=. c #38316B",
"-. c #3B3B68",
";. c #3A3A66",
":. c #353671",
">. c #441441",
",. c #481640",
"<. c #461945",
"1. c #411D4A",
"2. c #45224C",
"3. c #412653",
"4. c #47297F",
"5. c #20405C",
"6. c #2D535E",
"7. c #10457E",
"8. c #27417F",
"9. c #224363",
"0. c #240F8A",
"q. c #24108B",
"w. c #251090",
"e. c #122D86",
"r. c #102F8A",
"t. c #0E308C",
"y. c #11318C",
"u. c #163584",
"i. c #113690",
"p. c #123F99",
"a. c #143F97",
"s. c #0F2D89",
"d. c #293E85",
"f. c #4F3380",
"g. c #622B8A",
"h. c #612C9D",
"j. c #5931A4",
"k. c #623FB6",
"l. c #144386",
"z. c #12449D",
"x. c #125096",
"c. c #294990",
"v. c #346A8C",
"b. c #2C7985",
"n. c #124AA4",
"m. c #1247A1",
"M. c #1455A4",
"N. c #145CAD",
"B. c #145CB5",
"V. c #125DBA",
"C. c #1A5FB3",
"Z. c #1461BB",
"A. c #1866BB",
"S. c #1768AF",
"D. c #1467C1",
"F. c #1469C3",
"G. c #9F42B7",
"H. c #AD42C0",
"J. c #A747EE",
"K. c #AB4BEF",
"L. c #A349E7",
"P. c #AE47F3",
"I. c #AC49F4",
"U. c #AD4BFB",
"Y. c #AB47F4",
"T. c #B04AF5",
"R. c #B547FE",
"E. c #B947FF",
"W. c #B349FE",
"Q. c #B948FE",
"!. c #B047F7",
"~. c #AD53FC",
"^. c #B552FE",
"/. c #D754EB",
"(. c #DA4FF3",
"). c #E253F9",
"_. c #398387",
"`. c #2486BF",
"'. c #7FAEFD",
"]. c #79B3FD",
"[. c #3BC9D5",
"{. c #59CBEA",
"}. c #5ED5F3",
"|. c #5EDEFD",
" X c #60C7EF",
".X c #65D6FC",
"XX c #6BD5FE",
"oX c #63DCFD",
"OX c #68D9FF",
"+X c #62D3F5",
"@X c #6ACDFB",
"#X c #5EE0FC",
"$X c #60E0FE",
"%X c #B692B9",
"&X c #928FFF",
"*X c #8A95FD",
"=X c #81AAFC",
"-X c #C090C1",
";X c #FCC6FA",
":X c #F8C5F7",
/* pixels */
"k k f s 4 4 r f f F 1 1 R R F f f f f k k f 6 4 r f k j R R R R ",
"@.@.+.j q 6 j @.%.2.1 1 2.2.1 E @.1.1.@.@.+.s 6 h @.%.;.-.-.-.-.",
"@.@.j h q 4 s O.Q 1 1 1 ,.,.1 >.W 1 1 E +.j q 7 e O.%.-.@.@.@.@.",
"#.j h u 7 2 5 h >.<.' ( ( ( G 1 C Y C Y H D 6 2 7 g +.@.@.f././.",
"H D D u 7 2 5 Z B a.| ) ^ ^ ( ( G L H Z 1 B 5 2 7 i U @.+.4.).).",
"D D D u 7 3 < G ( n.D.y.) ) ) ) ( ` >.< 1 < w 2 7 i H j (.G.: : ",
"D D i 5 7 , B ] ) n.F.D.M.M.B.X.p _ g g <.,.c 2 7 i D h ).H.D u ",
"D i 5 7 9 >.` z.A.D.F.F.K.Y.Y.I.Y.Y.I.L.A.u.>.< 8 u d D # * u 5 ",
"w 7 7 2 0  .B.=.:.F.x.x.I.W.W.W.R.W.W.P.[.`.] B 1 9 5 w q 7 7 7 ",
"4 6 6 w *.B.F 1.C.l.P.P.U.=XXXXXXXXX~.U.P.P.X.` >.1 m 4 4 4 4 4 ",
"U T ! Q *.8.< c.D...R.W.W.].oXoXoXoX~.R.R.W.S.r.S 1 1 b j j j j ",
"-.-.-.3.&.2.=.B.g.P.R.OXOX9.- @ + @  XXXXXR.K.- } B 1 ,.! @.@.@.",
"%.%.@.@.E 1.C.y.h.W.R.oXoX$.  X X X {.oXoXR.W.- { / >.1 1.@.@.j ",
"+.@.+.+.L c.n.K.U.U.oXP X X X 0..   O X X OXU.P.L.^ G 1 1 L H h ",
"U +.j h >.G 4 U.R.U.oXo X X o q.    X   X #XW.W.J.& ( B 1 v D D ",
"h h h Z B ( !.W.&X.X@ X   X o X           ; OX~.R.I.~ ' >.B D D ",
"D D D Z ' ~ W.W.*X|.X                     . |.U.R.W.^ / >.B D i ",
"d D z >./ [ R.XXv.  X                       @ +XXXW.[ ^ G B i 5 ",
"7 7 l G ^ P R.OXv.  X .                       }.XXW.& ^ G l 3 2 ",
"r t B ( X.R.R.OXv.X q.q.X . # W.              }.XXW.W.^ G < F f ",
"T 1.B [ M.W.Q.oXv.X q.q.X . # W.X             }.XXR.W.^ ( Z 2.;.",
"E >./ { M.Q.oXX   X q.q.X   o o X             ; & OXR./ >.1 1.%.",
"W G ^ m.N.R.|.X   X q.q.X   X X X   o           + OXR.z C 1 1.@.",
"1 G ) n.N.R.|.X     X X           j.#           + OXR.:X;X%XN I ",
"B ( e.F.N.R.|.X                 X j.+           + OXR.;X;X-XV h ",
"B ^ y.F.N.R.|.X                   o X         X + OXR.k < B B D ",
"B } B.F.N.R.|.X                               X + OXR.e.< B D i ",
"1  .z.n.N.R.|.X                                 + OXR.s.S < w 7 ",
"l  .p.m.N.R.#XX X                 X         X X + |.Q.t.S < 8 4 ",
"b d.{ | & W.Q.OXv.                w.O       X XXXXQ.Q.V. .< b b ",
"3.>.` [ M.R.W.oXv.                q.O       X }.XXR.W.Z. .,.W E ",
"Q 1 B } Z.y.R.XXv.X                         X @XXXW.$ Z. .,.W L ",
"@.1.1  .V.y.R.OXv.O X                     . - }..XW.i.Z. .>.U h ",
"U Y >.G y.B.W.Q.*XoX.                     . oXW.R.W.e.Z. .v D D ",
"h j v >.` p.W.W.*XoXb.                    6.oXU.W.W.e.Z. .B D D ",
"D B J Z 1  .- U.W.W.oX  X                 |.W.R.J.= e.V. .B D d ",
"B < i w < >.u.U.W.U.OX  X X         X X X oXU.!.J.e.y.y.S < D q ",
"l < 8 7 3 , =.y.k.W.R.#XOX5.      X {.$XoXQ.W.l.F.i.B.V S < 8 2 ",
"l 1 m m 1 l >.G g.T.W.oXOX$._.b.X $  XOXXXR.U.- F.i.a.V >.< t r ",
"U N N N 1 < x G y p R.R.R.].oXoXoX|.^.Q.Q.R.= F.n.` V M >.Q %.%.",
"@.1.C N B B B ( ) s T.I.W.'..X.XXX.X~.R.T.P.F.B.} > M V 3.;.%.%.",
"@.@.U F B ( ] ) ) | o.7.T.R.R.W.W.W.W.K.p u.n.) * V M B &.@.@.@.",
"U U h D z S e.B.B.Z.A.B.K.P.P.U.U.!.P.K.^ ) ) ^ 0 V M >.T C U U ",
"h D D D i c B K <.<.<.G e e 6 6 6 6 6 ~ ^ ^ ^ ` >.l < L L 1 B h ",
"D D D D u 5 < < D h v < < G ( K ' ( ^ ( ( ( ( B , 8 m h J < J D ",
"D D D q 5 7 2 q D D D D v 1 1 1 B K ' B 1 1 1 1 , x i D D D d i ",
"d D q 7 7 7 2 7 w d d 5 7 c 1 < l 1 1 1 1 1 1 9 2 7 5 w D i 5 7 ",
"7 4 2 2 2 2 % 2 2 7 2 2 2 2 2 2 2 , 1 l 0 1 , 2 % 2 2 2 7 2 2 2 "
};
