/* XPM */
static char *_0ca28cc19c64cdd9779aaa1cbf0e36djymziO3tBQqhhyZv[] = {
/* columns rows colors chars-per-pixel */
"32 48 204 2 ",
"   c #0C0A0E",
".  c #07001F",
"X  c #09001E",
"o  c #0D0B16",
"O  c #15091D",
"+  c #140C15",
"@  c #050122",
"#  c #090022",
"$  c #070728",
"%  c #0B042C",
"&  c #0B0C27",
"*  c #150725",
"=  c #130924",
"-  c #1D0A2B",
";  c #0D112C",
":  c #00003F",
">  c #0C0336",
",  c #190933",
"<  c #141E3E",
"1  c #121925",
"2  c #200F2C",
"3  c #2F0C3F",
"4  c #330C3D",
"5  c #2A123C",
"6  c #2F1E3E",
"7  c #3F183F",
"8  c #15223C",
"9  c #45133E",
"0  c #4A143D",
"q  c #040144",
"w  c #090445",
"e  c #0A0947",
"r  c #0B034B",
"t  c #0C0B4A",
"y  c #07044A",
"u  c #110646",
"i  c #1E0742",
"p  c #130B43",
"a  c #1D0941",
"s  c #130A4D",
"d  c #1A0C4C",
"f  c #10064E",
"g  c #14144D",
"h  c #1A154B",
"j  c #171C48",
"k  c #160A51",
"l  c #1B0E52",
"z  c #0F1257",
"x  c #151452",
"c  c #1E1355",
"v  c #191953",
"b  c #1C1659",
"n  c #1D1D5B",
"m  c #171852",
"M  c #230A42",
"N  c #290E46",
"B  c #330E41",
"V  c #2E144D",
"C  c #2E194C",
"Z  c #291648",
"A  c #331142",
"S  c #351D46",
"D  c #3E1947",
"F  c #34134C",
"G  c #391349",
"H  c #351D4B",
"J  c #3B1D4A",
"K  c #3B1445",
"L  c #250F56",
"P  c #240F58",
"I  c #221455",
"U  c #291453",
"Y  c #241B54",
"T  c #241159",
"R  c #251B59",
"E  c #331D52",
"W  c #122243",
"Q  c #16284A",
"!  c #1E205E",
"~  c #193453",
"^  c #24235D",
"/  c #2B245C",
"(  c #2B295B",
")  c #272857",
"_  c #362355",
"`  c #392253",
"'  c #3E2B58",
"]  c #362B59",
"[  c #2F305C",
"{  c #30305E",
"}  c #0E0E69",
"|  c #0F0D67",
" . c #130F65",
".. c #100F68",
"X. c #0F126D",
"o. c #161165",
"O. c #171365",
"+. c #0F1771",
"@. c #0F1B75",
"#. c #101771",
"$. c #101A74",
"%. c #251A63",
"&. c #220E7E",
"*. c #3A1D74",
"=. c #0E2F6C",
"-. c #252661",
";. c #272862",
":. c #2B2B62",
">. c #292761",
",. c #343465",
"<. c #3A3463",
"1. c #35336A",
"2. c #3B3B69",
"3. c #393568",
"4. c #392073",
"5. c #441441",
"6. c #481740",
"7. c #411D4A",
"8. c #471944",
"9. c #401E58",
"0. c #541B52",
"q. c #45224B",
"w. c #412653",
"e. c #50225B",
"r. c #294878",
"t. c #295375",
"y. c #240F89",
"u. c #240F86",
"i. c #241089",
"p. c #122D86",
"a. c #102E89",
"s. c #0E308C",
"d. c #11318B",
"f. c #133886",
"g. c #113691",
"h. c #123F99",
"j. c #133E96",
"k. c #0F2D89",
"l. c #293E85",
"z. c #6E309A",
"x. c #5A31A5",
"c. c #5C30A9",
"v. c #5C2EA7",
"b. c #6F32A1",
"n. c #7331A4",
"m. c #7833A6",
"M. c #6B34B8",
"N. c #7F36B3",
"B. c #18489A",
"V. c #29478E",
"C. c #347596",
"Z. c #1246A1",
"A. c #124AA4",
"S. c #1755A6",
"D. c #145CB5",
"F. c #125DB9",
"G. c #1361BC",
"H. c #404688",
"J. c #1469C3",
"K. c #5D71C6",
"L. c #6072CA",
"P. c #8339BB",
"I. c #8B3BC5",
"U. c #993FD9",
"Y. c #9845DA",
"T. c #9F44E1",
"R. c #A545E8",
"E. c #AC4AF4",
"W. c #AE4BFA",
"Q. c #B149F6",
"!. c #B447FF",
"~. c #B24AFD",
"^. c #BA48FF",
"/. c #AB53FC",
"(. c #A758FA",
"). c #A357EE",
"_. c #9C6CFB",
"`. c #A662FD",
"'. c #DD51F2",
"]. c #EA4EFD",
"[. c #3E88A9",
"{. c #488889",
"}. c #50A5B7",
"|. c #6BADEE",
" X c #7CACFC",
".X c #7AA5F6",
"XX c #76B7FC",
"oX c #5AC9D6",
"OX c #5ED3F3",
"+X c #5EDEFC",
"@X c #5DD7F6",
"#X c #68CFFB",
"$X c #6BCAF7",
"%X c #72C6FE",
"&X c #67D5FB",
"*X c #69D5FE",
"=X c #62DDFD",
"-X c #62DCFD",
";X c #6AD9FF",
":X c #61D4F7",
">X c #5DE0FC",
",X c #60E0FC",
"<X c #82ABFD",
"1X c #85A7FE",
/* pixels */
"m m v x e e g v v Y 0 0 * * * * = = h m v v t e g v m , - ) ) ) ",
":.:.;.n s t H H ,.q.0 0 ~.~.~.~.~.~.5 :.:.;.x t n :., ].].2.2.2.",
":.:.n b s e J H ' 0 +   Q.!.!.!.!.!.0._ ;.n s w z -.[ ].].:.:.:.",
">.n b k y H H b 5.5.Q.Q.W.~.~.~.~.~.E.~.n.I t q y x '.O O :.;.:.",
"R I I k y H H K F f.!.!.~.!.!.!.!.!.!.!.m.Z t q y d '.:.^ n b b ",
"I I I k y J 2 T ..N.!.~.1X X X X X<X).!.T.z.p q y p e.m h b b b ",
"I I l r y H F X.X.~.!.!.&X-X=X=X=X=X`.~.~.U.B q y l I b b I I k ",
"I l r r a S O.B.* ~.(.(.&XOXOXOXOX-X`.W.W.Y.- 9 u k c I I k k r ",
"s y y q a %.D.1.~.~.>X+X=X$ =.. @ @X=XK.x.M.E.F 0 a t s s y y y ",
"e t t p 1.D.Y   !.^.-X>X>X@ X @ X @X=XL.x.M.E.; 5.0 A t e e e e ",
"^ ( { ] 1.r.9 ~.!.=X+X=.@ # u.@ X # @ 4.v.M.!.E.L 0 0 C n n n n ",
"2.2.2.w.<.q.( !.~.+X=X@ @ @ i.@ . @ @ *.c.M.!.W.z F 0 6.{ :.:.:.",
",.,.:.:._ 7.I.!.XX+X~ @ . @ > @ . . . , H.|.XX~.P. .5.0 7.:.:.n ",
";.:.;.;.E V.~.!.=X&X# @ . @ . @ . . . @ t.-X*X~.W.} T 0 0 E R b ",
"^ ;.n b 5.T !.!.&XOXX . . . . . . . . . t.OX*X~.W.X...F 0 V I I ",
"b b b K F ..!.!.=X. @ . . . . . . . . . . W *X~.W.p.| o.5.F I I ",
"I I I G o.o !.!.+X. # X . . . . . . . . . W *X!.W.  }  .5.F I l ",
"c I N 5. .!.!.-X=X. y.i.@ . . . . . . . . W +X-XW.~.+.} T F l r ",
"w w M T } ~.!.=X=XX i.y.@ . . . . . . . . W =X&X~.~.$.} T M w q ",
"g h F ..a.!.!.>XW @ i.i.@ . . . . . . . . % Q &X~.~.Z.} T 9 Y v ",
"( 7.F +.F.!.!.+X# . i.y.@ . . . . . . . . . $ &X~.~.A.} ..G q.2.",
"_ 5. .@.G.!.!.+X# @ &.&.@ . . . . . . . . . $ &X~.~.S. .5.0 7.,.",
"` T } Z.J.!.!.+XX @ @ @ . . . . @ . . . . . $ &X~.~.S.V J 0 7.:.",
"0 T X.A.J.!.!.+XX . . . . . . @ @ . . . . . $ &X~.~.S.F D 7.D ! ",
"F ..p.J.J.!.!.+X# . . . . . . E.% . . . . . $ &X~.~.}. .5.H H b ",
"F } d.J.J.!.!.+XX . . . . . . E.% . . . . . $ &X~.~.oXp.9 F F I ",
"F #.D.J.J.!.!.+X# . . . . . . , @ . . . . . $ &X~.W.oXp.9 F I l ",
"0 %.B.A.J.!.!.+X# . . . . . . X . . . . . . $ &X~.W.oXk.L 9 d y ",
"M %.h.Z.J.~.!.=XW . . . . . . . > . . . . % Q &X~.~.oXs.P 9 u e ",
"C l.@.$.G.~.!.+X@X@ . . . . . . y.@ . . . W -X&X!.~.oXF.%.9 C C ",
"w.5.O.+.G.~.!.+X-X@ . . . . . . y.@ . . . W +X&X!.~.B.G.%.6.` _ ",
"' 0 F #.G.& ~.^.-XX . . . . . . @ . . . . 8 *X!.~.1 g.G.%.6.` E ",
":.7.0 %.F.d.!.!.+X# @ . . . . . . . . . @ j ;X~.W.D.g.G.%.5./ b ",
"^ ( 5.T d.D.!.!.-X$XX . . . . . . . . . t.OX;X~.~.a.p.G.%.V I I ",
"n b V 5.O.h.~.!.+X=X@ . . . . . . . . @ t.=X*X~.W.p.p.G.%.F I I ",
"I F U K 0 %.I.!.XX=X~ . . . . . . . . < C.*XXX~.I.p.p.F.%.F I c ",
"F 9 l d 9 5.=.!.!.=X=X. @ . . . . . . [.=X%X~.E.J.p.d.d.P 9 I f ",
"M 9 u y w 4 1.Q.~.-X+X@ @ . . . . @ @ [.-X%X~.~.J.g.D.a.L 9 u q ",
"N 0 A A 0 H 5.  !.^.>X,X=X@ . . . @X>X>X.X!.E.6 J.g.j.O.5.9 h h ",
"^ D D D 0 H N T !.!.=X>X+X; {.{.@ :X>X+X1X~.E.S A.O.E O.5.' ,.,.",
":.7.J D F H S ..= !././.&X#X#X#XOX&X_.(./.R.9.D.$.F E U w.3.,.3.",
":.:.^ Y F S H X.X.~.~.~.=X=X=X=X=X>X(.!.!.Y.H X.T 9 b F <.:.:.:.",
"^ ^ b I N Z S B.D.P.~.~.<X<X X<X<X X/.!.R.b.Y } T 9 V 5.( J ^ ^ ",
"b I I I l B S S 8.7 !.~.!.~.~.~.!.~.!.!.n.} } O.5.M 9 E E 0 F b ",
"I I I I k r J S I b Q.E.~.~.~.~.~.!.Q.Q.n.....F 4 u A b U 9 U I ",
"I I I s r y q s I I o I ~.~.~.~.~.~.5 - 0 0 0 0 3 N d I I I c l ",
"c I s y y y q y s c c r ~.!.!.!.!.!.5 0 0 0 0 a q y r s I l r y ",
"y e q q q q : q q w q q O O O O O O 9 M a 0 4 q : q q q w q q q "
};
