/* XPM */
static const char *YmxhY2tob2xlNA__[] = {
/* columns rows colors chars-per-pixel */
"32 48 229 2 ",
"   c #05001F",
".  c #08001E",
"X  c #050021",
"o  c #090223",
"O  c #0A042C",
"+  c #0A0B2B",
"@  c #12072A",
"#  c #02003E",
"$  c #0D0535",
"%  c #120734",
"&  c #190B3C",
"*  c #101C3E",
"=  c #330D3E",
"-  c #26143B",
";  c #36143E",
":  c #0F2339",
">  c #44133E",
",  c #4A143D",
"<  c #040144",
"1  c #0A0445",
"2  c #0A0947",
"3  c #0B034B",
"4  c #0D0B4A",
"5  c #07044A",
"6  c #110546",
"7  c #12074C",
"8  c #130A4D",
"9  c #1B0A45",
"0  c #1B1344",
"q  c #16154D",
"w  c #0E0E57",
"e  c #160A51",
"r  c #1B0E52",
"t  c #16095C",
"y  c #130752",
"u  c #141452",
"i  c #1E1354",
"p  c #191953",
"a  c #1C1659",
"s  c #1D1C5B",
"d  c #15135A",
"f  c #0F1053",
"g  c #230B42",
"h  c #280E47",
"j  c #330E41",
"k  c #2D134C",
"l  c #2E1B4C",
"z  c #2A1945",
"x  c #331142",
"c  c #3E1947",
"v  c #34134C",
"b  c #321B4A",
"n  c #3D1D4C",
"m  c #391447",
"M  c #250F57",
"N  c #240F58",
"B  c #221455",
"V  c #24125A",
"C  c #211B5A",
"Z  c #261853",
"A  c #311454",
"S  c #321D52",
"D  c #36155C",
"F  c #172445",
"G  c #153050",
"H  c #24225D",
"J  c #2A295B",
"K  c #2A255A",
"L  c #392253",
"P  c #372757",
"I  c #2B2855",
"U  c #0F0F69",
"Y  c #0E0D64",
"T  c #130F66",
"R  c #100F68",
"E  c #1E0D6A",
"W  c #0F126C",
"Q  c #161164",
"!  c #1B1361",
"~  c #12136B",
"^  c #1B1664",
"/  c #0F1873",
"(  c #101770",
")  c #101C76",
"_  c #1E0D73",
"`  c #241A62",
"'  c #391764",
"]  c #3C1E79",
"[  c #321979",
"{  c #23147C",
"}  c #15277C",
"|  c #252661",
" . c #2B2B63",
".. c #282862",
"X. c #343465",
"o. c #35336A",
"O. c #3B3B68",
"+. c #3A3566",
"@. c #343075",
"#. c #441441",
"$. c #481640",
"%. c #461945",
"&. c #411D4A",
"*. c #51184A",
"=. c #45224C",
"-. c #422655",
";. c #491D76",
":. c #441A62",
">. c #482577",
",. c #553071",
"<. c #104076",
"1. c #274878",
"2. c #275574",
"3. c #2D4A70",
"4. c #286779",
"5. c #5E4766",
"6. c #775E7B",
"7. c #230F84",
"8. c #391E8D",
"9. c #231082",
"0. c #122C85",
"q. c #122E88",
"w. c #11318B",
"e. c #183287",
"r. c #133B94",
"t. c #0F2F8B",
"y. c #253496",
"u. c #31318A",
"i. c #492385",
"p. c #5C2682",
"a. c #572883",
"s. c #5A3492",
"d. c #652A88",
"f. c #682B9D",
"g. c #702D91",
"h. c #5A2EA6",
"j. c #5738AB",
"k. c #6A2AA3",
"l. c #7B37B4",
"z. c #6934A3",
"x. c #154599",
"c. c #124F94",
"v. c #27448A",
"b. c #385592",
"n. c #2A4696",
"m. c #377997",
"M. c #1247A1",
"N. c #124BA4",
"B. c #125BB4",
"V. c #155DB7",
"C. c #1855A6",
"Z. c #2854A7",
"A. c #1463BB",
"S. c #1864BB",
"D. c #444095",
"F. c #7D5F83",
"G. c #4C47A8",
"H. c #6E4DB4",
"J. c #456BA4",
"K. c #6E70B8",
"L. c #1469C3",
"P. c #1467C1",
"I. c #1973C2",
"U. c #2A62C7",
"Y. c #3457C3",
"T. c #5A52CA",
"R. c #554FC7",
"E. c #6B76CC",
"W. c #7669DD",
"Q. c #6F6CCE",
"!. c #7458E5",
"~. c #7D62E9",
"^. c #872C8D",
"/. c #8237BB",
"(. c #8B3BCB",
"). c #8838C6",
"_. c #8A3BD4",
"`. c #933BD5",
"'. c #8C4CD3",
"]. c #BB42D4",
"[. c #B745CC",
"{. c #8178CC",
"}. c #974DE2",
"|. c #A446EA",
" X c #AD4CF5",
".X c #AE4BFA",
"XX c #AD47F4",
"oX c #B24AFC",
"OX c #B147FC",
"+X c #AB51F5",
"@X c #AC52FC",
"#X c #A452F4",
"$X c #9366E8",
"%X c #8579EA",
"&X c #9A75FD",
"*X c #9676F6",
"=X c #C046D4",
"-X c #3289BE",
";X c #31A2AC",
":X c #438DAE",
">X c #5688BD",
",X c #5095B0",
"<X c #48A8B8",
"1X c #36B5C4",
"2X c #7682DD",
"3X c #4BACC9",
"4X c #58B2D8",
"5X c #50B2C3",
"6X c #64B9D6",
"7X c #76B6FA",
"8X c #3BC1CD",
"9X c #5ACED6",
"0X c #5DD6F5",
"qX c #6CC9FB",
"wX c #72C6FC",
"eX c #65D6FC",
"rX c #5CE0F9",
"tX c #71DCD5",
"yX c #A783B1",
"uX c #8C8AFA",
"iX c #9285F9",
"pX c #80A2F4",
"aX c #8888D1",
"sX c #CB9FDF",
"dX c #D6AEDC",
"fX c #D48AF2",
"gX c #EDBFED",
"hX c #8DD9EA",
"jX c #F6C5F6",
/* pixels */
"p p p u 2 2 q p p Z , , I I Z p p p p p p p 4 2 q p p s J J z & ",
" . .| s 8 4 s  .X.=., , =.=., L  .&.&. . .| u 4 a  .X.O.O.O.,.=X",
" . .s a 7 5 u | P , , , $.$., #.L , , P | s 8 5 f | X.O. . .,.[.",
"..s a e 5 < 3 a #.%.Q R R R V , n J n K C B 4 < 5 d |  . . ... .",
"C B B e 5 < 3 m v r.) W U U R R V S C m , v 3 < 5 r H  .| s a a ",
"B B B e 5 1 > V R N.P.w.W ~ a b l B #.> , > 8 < 5 r C s s a i a ",
"B B r 3 5 = v ~ W N.L.P.A.A.v.b b ^ ~ ^ %.$.j < 5 r B a a B B e ",
"B r 3 3 9 #.Q x.A.P.L.L.L.L.L.S.S.S.A.A.S.e.#.> 6 e i B B e e 3 ",
"8 5 5 < 9 ` B.o.o.L.A.A.c.F <.1X1X4.: G ;X-X~ v , 9 3 8 7 5 5 5 ",
"2 4 4 9 o.B.Z =.V.V.) } R.@XiXqXqXiX.X$X4X8X} Q #., x 2 2 2 2 2 ",
"H J  .P o.v.> n.P.0.} x.j.@XuXeXqXiX.X}.>X1XI.w.N , , l s s s s ",
"O.O.O.-.+.=.+.6.sX8. X X%Xm.+ + o F :X7X&X'.J.C.( v , $.J  . . .",
"X.X. . .L &.Z.F.sXK.oX@X%Xm.  o o F :X7X&X'.J.C./ T #., &. . .s ",
"|  ...| S v.M.H -.XX`.D @ O 7 E 6 o o + ' (.|.W.u.z z ; , S C a ",
"H ..s a #.V W ,XhXOX`.' + + 7 _ 7 o o o A (.OX~.u.b b b , k B B ",
"a a a m v R ~ ,.).`.D %   o O $ O       % >.`.|.d.b z B #.v B B ",
"B B B m Q Y b.p..X).o o     o   o         D (. X!.@.l B #.v B r ",
"i B h #.T / -Xp.|.>.o o   o k ;.h         9 >./.W.Z.a Q V v r 3 ",
"5 5 g V U C.tXa._.o   o   % a.(.;.          o ;.Q.U.) U V g 1 < ",
"q q v R w.x v s.'.o $ O O O ' z.'         o o >.s.b.r.U V > Z p ",
"J &.v / V. X+XuX4X$ 7.7.t o o o o           o 2.2XQ.y.Y R m =.O.",
"L #.T / A..X XiX3X$ 7.7.t o                 o 3.E.Q.n.T #., &.X.",
"L V U M.L. X+XH.o $ 7.7.t o       o o       o o >.H.n.k n , &. .",
", V W N.L.@X#Xz.X $ 9.{ t         o o o o   o o a.E.Z.v c ; - - ",
"v R 0.L.L.0X0Xm.o o   o   o       % ] h.i.&   o 4.<X:XQ #.yXjXjX",
"v U w.L.L.eX0Xm.o                 % ] h.i.&   o 2.<X5X0.> yXgXjX",
"v ( B.L.L.eX0Xm.                  % ] h.i.&   o 2.<X<X0.> v B r ",
", ` x.N.L.rX0Xm.                  % ] h.i.&   o 2.9X9Xt.N > 9 5 ",
"g ` r.M.L.oXXXf..                       .     o ;.aX6Xt.N > 6 2 ",
"l u./ ) A.oXXXf.o               o o o o o o     ;.K.,XB.` > l l ",
"-.%.Q / A. X@XiX3Xo             O y 1 o     o 3.2X{.v.B.` $.L L ",
"P , v ( A.oX@XuX3Xo             O y 6 o     o 2.2XQ.e.B.` $.L S ",
" .&., ` V.0 0 a.'.  o             o o     o o >.a.@.q.A.` #.K a ",
"H J #.V w.p 0 ,.(.. o o                     o ;.T.y.0.A.` v B B ",
"a a k #.Q dXdXfX Xl.o                     A /.|.!.y.0.A.` v B B ",
"B m Z m , jXjXfXoX).o o                 o D (..X!.y.0.V.` v B i ",
"v > r e > 5.5.,.p.|.s.g         o o o   g k.|.).G.0.w.w.N , B 7 ",
"g > 6 5 1 = o.w.Y..X`.D     o   o   o o A (..X!.U.r.B.w.N > 6 < ",
"h , x x , g #.V { /.|.f.@.G       + G 3.s.).l.d.D.e.r.Q #.> q q ",
"H c c c , > h V ~ 8.oX+X%Xm.o o o F :X7X&X(.] ,.H.[ S ^ #.P X.X.",
" .&.n n v v v e Q 8.}.'.W.J.0 * *  .>XpX$Xl.n.G.z.:.S M -.+.X.X.",
" . .H Z v R ~ a l / A.S.R.@XuXeXqX*X.X_.8.M.N.W V > a v X. . . .",
"H H a B h N 0.v.J A.S.B.j.+XiXwXwX*XXX_.8.W W U V > k #.J n H H ",
"a B B B e j v A %.%.%.V d ^ f.].k.w 4 f Y U U Q #.g > S S , m a ",
"B B B B e 1 > > B a k > , ' k.].f.R U R R R R v = 6 x B Z > Z B ",
"B B B 8 3 5 < 7 B B B B k *.^.].g.A Q v , , , , = h r B B B i r ",
"i B 8 5 5 5 < 5 8 i i 3 5 m ^.].g., , , , , , 9 < 5 3 8 B r 3 5 ",
"5 2 < < < < # < < 5 < < < # O + < = , g 9 , = < # < < < 5 < < < "
};
