/* XPM */
static char *result[] = {
/* columns rows colors chars-per-pixel */
"32 48 147 2 ",
"   c #171852",
".  c #161652",
"X  c #070849",
"o  c #080846",
"O  c #12124C",
"+  c #1B1C53",
"@  c #272857",
"#  c #2E3156",
"$  c #313456",
"%  c #2A2A54",
"&  c #1C1F4F",
"*  c #17194E",
"=  c #2C2D62",
"-  c #262761",
";  c #1D1E5D",
":  c #120E4E",
">  c #0E0F4B",
",  c #1F225A",
"<  c #323564",
"1  c #383A65",
"2  c #39426C",
"3  c #363E6E",
"4  c #353A65",
"5  c #39426B",
"6  c #272A5C",
"7  c #1E2254",
"8  c #22235A",
"9  c #3C3C68",
"0  c #1D1759",
"q  c #2E3264",
"w  c #394476",
"e  c #3C497B",
"r  c #394579",
"t  c #374072",
"y  c #313A6D",
"u  c #292761",
"i  c #221959",
"p  c #1D1455",
"a  c #252861",
"s  c #363E72",
"d  c #394379",
"f  c #3C4A81",
"g  c #3B467D",
"h  c #374276",
"j  c #394276",
"k  c #3C4A7F",
"l  c #333669",
"z  c #2D396A",
"x  c #2E366A",
"c  c #231656",
"v  c #353A6B",
"b  c #374479",
"n  c #231B56",
"m  c #3D4C82",
"M  c #33325C",
"N  c #332E5A",
"B  c #2B2B5C",
"V  c #3D4D84",
"C  c #2B265A",
"Z  c #190F51",
"A  c #3C477E",
"S  c #342C54",
"D  c #342A4F",
"F  c #19124E",
"G  c #393D72",
"H  c #3D294A",
"J  c #52333F",
"K  c #442C4B",
"L  c #4B2D4A",
"P  c #4B2C46",
"I  c #353C6F",
"U  c #CC2F7B",
"Y  c #9C2A70",
"T  c #432A46",
"R  c #573047",
"E  c #3B2D53",
"W  c #532E47",
"Q  c #54314B",
"!  c #5B344B",
"~  c #3C3156",
"^  c #4C3253",
"/  c #FF8933",
"(  c #62364D",
")  c #4C314E",
"_  c #3A3B6C",
"`  c #3D345C",
"'  c #5A3651",
"]  c #64394E",
"[  c #222455",
"{  c #463156",
"}  c #3A3563",
"|  c #BD6A62",
" . c #8F4D57",
".. c #383F78",
"X. c #373F75",
"o. c #442D52",
"O. c #692464",
"+. c #4B1D52",
"@. c #353D71",
"#. c #3A366A",
"$. c #453B6C",
"%. c #4E4076",
"&. c #4A3F7A",
"*. c #524685",
"=. c #63AB3F",
"-. c #4B437C",
";. c #2E315B",
":. c #474176",
">. c #3B7D4F",
",. c #6B6094",
"<. c #695C90",
"1. c #5D5186",
"2. c #52457B",
"3. c #443C72",
"4. c #5A4A7C",
"5. c #544373",
"6. c #4C3B6D",
"7. c #44335C",
"8. c #4D3A65",
"9. c #4B3562",
"0. c #3C2F5A",
"q. c #4B2E52",
"w. c #2D344D",
"e. c #2F304C",
"r. c #393047",
"t. c #3D3046",
"y. c #3D3044",
"u. c #433347",
"i. c #352E46",
"p. c #382E44",
"a. c #292750",
"s. c #312C45",
"d. c #352E42",
"f. c #342C42",
"g. c #312C42",
"h. c #362644",
"j. c #3B2744",
"k. c #3D2944",
"l. c #342847",
"z. c #2A294D",
"x. c #262444",
"c. c #27274B",
"v. c #2A264C",
"b. c #292941",
"n. c #292A3F",
"m. c #29233E",
"M. c #2A2241",
/* pixels */
"      . X o O   + @ # $ $ $ $ $ # $ $ $ # % & O * +   + @ @ @ @ ",
"= = - ; : > , = < 1 1 1 2 2 3 4 4 1 5 2 3 < 6 7 8 = < 1 9 9 9 9 ",
"= = ; 0 : O , q 4 4 4 3 w e r t 3 t r e w y q 6 6 q 4 9 q = = = ",
"u ; i p :   a y 3 3 4 s d f g h 3 j g k r s l l z x l < = = - = ",
"i c c p   , x r r j v v s d s v 4 s j d s v 3 h b h s l = 8 ; ; ",
"c c c n 8 q h m m r v l l v l < < < 4 v l l s r m m r y = 8 n p ",
"c c n 8 = y r m f j 4 < M M N N B N M M M < l b f V g s q C n Z ",
"c n n 6 x s r A d v < N S S S D D D S S S N < v d f g j 4 B n : ",
"F   8 x 3 h j G v < N D H H J J J J J J J J J J v s j j s q , O ",
"O 7 q t d j 3 l < N D K L P J J J J J J J J J J < 4 s d d I 6 + ",
"6 < 3 r g j 4 M N D H L J J U U U U U U Y Y Y Y J J 4 j g j l B ",
"1 1 s d r G < S D H T R J J U U U U U U Y Y Y Y J J l G r d v q ",
"< < 4 s s 4 M E H T J J U U U U U U Y Y Y Y J J J J M 4 G s l = ",
"B < l v 4 < E K P P J J U U U U U U Y Y Y Y J J J J E < l 4 < B ",
"B M < l < M E L J J Y Y U U U U Y Y Y Y J J R W W L E N < < < B ",
"6 q 4 l < E K Q J J Y Y U U U U Y Y Y Y J J ! ! ! W K E < 4 l q ",
"@ < G s 4 ~ ^ ! J J / / / / Y Y Y Y Y Y J J ! ( ( ! ) ~ 4 t t x ",
"B 4 j r _ ` ^ ' J J / / / / Y Y Y Y Y Y J J ! ( ] ! ^ ` 3 r d x ",
"[ l d r J J J J J J J J J J J J J J J J J J J J J J { ` G g d x ",
"6 l h j J J J J J J J J J J J J J J J J J J J J J J { } 3 d h < ",
"q l J J U U U U U U U U U U U U U U U U Y Y Y Y Y Y J J 4 s 3 4 ",
"< < J J U U U U U U U U U U U U U U U U Y Y Y Y Y Y J J l l l < ",
"J J U U U U U U Y Y Y Y Y Y Y Y Y Y Y Y Y Y Y Y Y Y Y Y J J l q ",
"J J U U U U U U Y Y Y Y Y Y Y Y Y Y Y Y Y Y Y Y Y Y Y Y J J 3 x ",
"J J Y Y Y Y J J J J J J J J J J J J J J J J J J Y Y Y Y J J s x ",
"J J Y Y Y Y J J J J J J J J J J J J J J J J J J Y Y Y Y J J d l ",
"B l J J J J J J | | | | | |  . .J J J J J J J J J J J J G d ..l ",
"C < J J J J J J | | | | | |  . .J J J J J J J J J J J J 4 X.s = ",
"[ q l y J J | | | | | | | | | |  . .J J J J J J J J o.N l v l B ",
"6 q < < J J | | | | | | | | | |  . .J J J J J J J J K E M < < B ",
"< 4 4 l J J | | | | O.O.| | | |  . .J J J J J J J J J J M 4 4 < ",
"4 4 3 3 J J | | | | O.O.| | | |  . .J J J J J J J J J J 4 3 3 < ",
"< 3 j j J J | | | | +.+.| | | |  . .J J J J J J J J J J 9 r j l ",
"q 3 d r J J | | | | +.+.| | | |  . .J J J J J J J J J J 3 g d l ",
"B y j d G } J J | | | | | |  . . . .J J J J J J J J J J G g d l ",
"B l s j @.} J J | | | | | |  . . . .J J J J J J J J J J 3 j s < ",
"C < v @.v #.$.%.J J  . . . . . .J J Y Y J J J J J J J J 4 s v = ",
"n B l l l _ &.*.J J  . . . . . .J J Y Y J J J J J J J J l 4 < B ",
"[ B < l l _ J J =.=.Y Y Y Y U U U U Y Y J J J J J J -.9 l l < ;.",
"B < 3 v 4 _ J J =.=.Y Y Y Y U U U U Y Y J J J J J J :.9 4 3 3 4 ",
"< 4 t s v #.J J >.>.U U | | U U Y Y Y Y J J ,.<.1.2.3.9 3 t t 4 ",
"< 4 G G v } J J >.>.U U | | U U Y Y Y Y J J 4.4.5.6.} } 4 G s l ",
"= < v v l M ` 7.J J  . . . .Y Y Y Y Y Y J J 8.8.9.7.0.M l v 4 x ",
"B < l l M S E o.J J  . . . .Y Y Y Y Y Y J J q.{ q.o.E N M < < = ",
"C N < < w.e.r.t.y.t.J J J J J J J J J J u.t.t.y.L L H S M < < B ",
"% M < < w.e.i.y.t.p.J J J J J J J J J J y.r.p.y.L P H S $ < < B ",
"a.# < < $ D s.d.d.f.f.f.d.p.d.g.g.g.d.p.d.f.h.j.k.j.l.z.# ;.;.% ",
"x.c.% % a.v.b.b.b.n.n.n.n.n.n.n.b.b.b.b.n.n.m.M.m.m.M.x.c.c.% v."
};
