/* XPM */
static char *result[] = {
/* columns rows colors chars-per-pixel */
"32 48 141 2 ",
"   c #171852",
".  c #161652",
"X  c #070849",
"o  c #080846",
"O  c #12124C",
"+  c #1B1C53",
"@  c #272857",
"#  c #2E3156",
"$  c #313456",
"%  c #2A2A54",
"&  c #1C1F4F",
"*  c #17194E",
"=  c #2C2D62",
"-  c #262761",
";  c #1D1E5D",
":  c #120E4E",
">  c #0E0F4B",
",  c #1F225A",
"<  c #323564",
"1  c #383A65",
"2  c #39426C",
"3  c #363E6E",
"4  c #353A65",
"5  c #39426B",
"6  c #272A5C",
"7  c #1E2254",
"8  c #22235A",
"9  c #3C3C68",
"0  c #1D1759",
"q  c #2E3264",
"w  c #394476",
"e  c #3C497B",
"r  c #394579",
"t  c #374072",
"y  c #313A6D",
"u  c #292761",
"i  c #221959",
"p  c #1D1455",
"a  c #252861",
"s  c #363E72",
"d  c #394379",
"f  c #3C4A81",
"g  c #3B467D",
"h  c #374276",
"j  c #394276",
"k  c #3C4A7F",
"l  c #333669",
"z  c #2D396A",
"x  c #2E366A",
"c  c #231656",
"v  c #353A6B",
"b  c #374479",
"n  c #231B56",
"m  c #3D4C82",
"M  c #33325C",
"N  c #332E5A",
"B  c #2B2B5C",
"V  c #3D4D84",
"C  c #2B265A",
"Z  c #190F51",
"A  c #3C477E",
"S  c #342C54",
"D  c #342A4F",
"F  c #19124E",
"G  c #393D72",
"H  c #52333F",
"J  c #3D294A",
"K  c #4B2C46",
"L  c #353C6F",
"P  c #9C2A70",
"I  c #CC2F7B",
"U  c #573047",
"Y  c #4B2D4A",
"T  c #62364D",
"R  c #532E47",
"E  c #432A46",
"W  c #442C4B",
"Q  c #3B2D53",
"!  c #54314B",
"~  c #5B344B",
"^  c #3C3156",
"/  c #4C3253",
"(  c #FF8933",
")  c #4C314E",
"_  c #3A3B6C",
"`  c #3D345C",
"'  c #5A3651",
"]  c #64394E",
"[  c #222455",
"{  c #3A3563",
"}  c #353D71",
"|  c #8F4D57",
" . c #BD6A62",
".. c #383F78",
"X. c #3C2F5A",
"o. c #692464",
"O. c #4B1D52",
"+. c #463156",
"@. c #44335C",
"#. c #5A4A7C",
"$. c #544373",
"%. c #453B6C",
"&. c #6A5D8C",
"*. c #594C84",
"=. c #443C72",
"-. c #63AB3F",
";. c #4B437C",
":. c #2E315B",
">. c #474176",
",. c #3A366A",
"<. c #47417A",
"1. c #524685",
"2. c #554C8C",
"3. c #3B7D4F",
"4. c #4C3C73",
"5. c #4B335D",
"6. c #4B3562",
"7. c #442D52",
"8. c #4B2E52",
"9. c #3D3044",
"0. c #3D3046",
"q. c #352E46",
"w. c #2F304C",
"e. c #382E44",
"r. c #393047",
"t. c #292750",
"y. c #362749",
"u. c #3D2944",
"i. c #3B2744",
"p. c #342C42",
"a. c #352E42",
"s. c #312C42",
"d. c #342847",
"f. c #2A294D",
"g. c #262444",
"h. c #27274B",
"j. c #2A264C",
"k. c #2A2241",
"l. c #29233E",
"z. c #292A3F",
"x. c #292941",
/* pixels */
"      . X o O   + @ # $ $ $ $ $ # $ $ $ # % & O * +   + @ @ @ @ ",
"= = - ; : > , = < 1 1 1 2 2 3 4 4 1 5 2 3 < 6 7 8 = < 1 9 9 9 9 ",
"= = ; 0 : O , q 4 4 4 3 w e r t 3 t r e w y q 6 6 q 4 9 q = = = ",
"u ; i p :   a y 3 3 4 s d f g h 3 j g k r s l l z x l < = = - = ",
"i c c p   , x r r j v v s d s v 4 s j d s v 3 h b h s l = 8 ; ; ",
"c c c n 8 q h m m r v l l v l < < < 4 v l l s r m m r y = 8 n p ",
"c c n 8 = y r m f j 4 < M M N N B N M M M < l b f V g s q C n Z ",
"c n n 6 x s r A d v < N S S S D D D S S S N < v d f g j 4 B n : ",
"F   8 x 3 h j G H H H H H H H H H H J J J D N < v s j j s q , O ",
"O 7 q t d j 3 l H H H H H H H H H H K K K J D N < 4 s d d L 6 + ",
"6 < 3 r g j H H P P P P I I I I I I H H U Y J D N M 4 j g j l B ",
"1 1 s d r G H H P P P P I I I I I I H H T R E J D N l G r d v q ",
"< < 4 s s 4 H H H H P P P P I I I I I I H H K E W Q M 4 G s l = ",
"B < l v 4 < H H H H P P P P I I I I I I H H R K K W Q < l 4 < B ",
"B M < l < M Q Y R R H H P P P P I I I I P P H H R Y Q N < < < B ",
"6 q 4 l < Q W ! ~ ~ H H P P P P I I I I P P H H ~ R W Q < 4 l q ",
"@ < G s 4 ^ / ~ T ~ H H P P P P P P ( ( ( ( H H T ~ ) ^ 4 t t x ",
"B 4 j r _ ` / ' ] ~ H H P P P P P P ( ( ( ( H H ] ~ / ` 3 r d x ",
"[ l d r 3 ` H H H H H H H H H H H H H H H H H H H H H H G g d x ",
"6 l h j _ { H H H H H H H H H H H H H H H H H H H H H H 3 d h < ",
"q l s } H H P P P P P P I I I I I I I I I I I I I I I I H H 3 4 ",
"< < l l H H P P P P P P I I I I I I I I I I I I I I I I H H l < ",
"q < H H P P P P P P P P P P P P P P P P P P P P I I I I I I H H ",
"B < H H P P P P P P P P P P P P P P P P P P P P I I I I I I H H ",
"B < H H P P P P H H H H H H H H H H H H H H H H H H P P P P H H ",
"B l H H P P P P H H H H H H H H H H H H H H H H H H P P P P H H ",
"B l j d H H H H H H H H H H H H | |  . . . . . .H H H H H H ..l ",
"C < s s H H H H H H H H H H H H | |  . . . . . .H H H H H H s = ",
"[ q l y < X.H H H H H H H H | |  . . . . . . . . . .H H l v l B ",
"6 q < < M Q H H H H H H H H | |  . . . . . . . . . .H H M < < B ",
"< 4 4 l H H H H H H H H H H | |  . . . .o.o. . . . .H H M 4 4 < ",
"4 4 3 3 H H H H H H H H H H | |  . . . .o.o. . . . .H H 4 3 3 < ",
"< 3 j j H H H H H H H H H H | |  . . . .O.O. . . . .H H 9 r j l ",
"q 3 d r H H H H H H H H H H | |  . . . .O.O. . . . .H H 3 g d l ",
"B y j d H H H H H H H H H H | | | |  . . . . . .H H +.{ G g d l ",
"B l s j H H H H H H H H H H | | | |  . . . . . .H H @.{ 3 j s < ",
"C < v } H H H H H H H H P P H H | | | | | | H H #.$.%.1 4 s v = ",
"n B l l H H H H H H H H P P H H | | | | | | H H &.*.=.1 l 4 < B ",
"[ B < l l _ H H H H H H P P I I I I P P P P -.-.H H ;.9 l l < :.",
"B < 3 v 4 _ H H H H H H P P I I I I P P P P -.-.H H >.9 4 3 3 4 ",
"< 4 t s v ,.=.<.1.2.H H P P P P I I  . .I I 3.3.H H =.9 3 t t 4 ",
"< 4 G G v { { %.4.4.H H P P P P I I  . .I I 3.3.H H { { 4 G s l ",
"= < v v l M ` @.5.6.H H P P P P P P | | | | H H 6.@.X.M l v 4 x ",
"B < l l M S Q 7.8.8.H H P P P P P P | | | | H H 8.7.Q N M < < = ",
"C N < < $ S W Y 9.0.9.0.H H H H H H H H H H 0.9.0.0.q.w.M < < B ",
"% M < < $ S J K 0.e.e.r.H H H H H H H H H H e.9.0.9.q.w.$ < < B ",
"t.# < < $ D y.u.u.i.p.p.a.e.a.s.s.s.a.e.a.p.s.p.a.p.d.f.# :.:.% ",
"g.h.% % t.j.k.k.k.l.z.z.z.z.z.z.x.x.x.x.z.z.z.x.z.z.k.g.h.h.% j."
};
