/* XPM */
static char *_e2f034d933e40dd9a6fbd73634a3851N8RGYAuWhws8WF2I[] = {
/* columns rows colors chars-per-pixel */
"32 48 149 2 ",
"   c #171852",
".  c #161652",
"X  c #070849",
"o  c #080846",
"O  c #12124C",
"+  c #1B1C53",
"@  c #272857",
"#  c #2E3156",
"$  c #313456",
"%  c #2A2A54",
"&  c #1C1F4F",
"*  c #17194E",
"=  c #2C2D62",
"-  c #262761",
";  c #1D1E5D",
":  c #120E4E",
">  c #0E0F4B",
",  c #1F225A",
"<  c #323564",
"1  c #383A65",
"2  c #39426C",
"3  c #363E6E",
"4  c #353A65",
"5  c #39426B",
"6  c #272A5C",
"7  c #1E2254",
"8  c #22235A",
"9  c #3C3C68",
"0  c #1D1759",
"q  c #2E3264",
"w  c #394476",
"e  c #3C497B",
"r  c #394579",
"t  c #374072",
"y  c #313A6D",
"u  c #292761",
"i  c #221959",
"p  c #1D1455",
"a  c #252861",
"s  c #363E72",
"d  c #394379",
"f  c #3C4A81",
"g  c #3B467D",
"h  c #374276",
"j  c #394276",
"k  c #3C4A7F",
"l  c #333669",
"z  c #2D396A",
"x  c #2E366A",
"c  c #231656",
"v  c #353A6B",
"b  c #374479",
"n  c #231B56",
"m  c #3D4C82",
"M  c #33325C",
"N  c #52333F",
"B  c #3D4D84",
"V  c #2B265A",
"C  c #190F51",
"Z  c #3C477E",
"A  c #332E5A",
"S  c #342C54",
"D  c #2B2B5C",
"F  c #19124E",
"G  c #393D72",
"H  c #342A4F",
"J  c #CC2F7B",
"K  c #9C2A70",
"L  c #442C4B",
"P  c #353C6F",
"I  c #3D294A",
"U  c #3B2D53",
"Y  c #4B2C46",
"T  c #432A46",
"R  c #532E47",
"E  c #4B2D4A",
"W  c #FF8933",
"Q  c #573047",
"!  c #54314B",
"~  c #5B344B",
"^  c #4C314E",
"/  c #3C3156",
"(  c #4C3253",
")  c #3D345C",
"_  c #222455",
"`  c #BD6A62",
"'  c #8F4D57",
"]  c #373F75",
"[  c #443562",
"{  c #3A366A",
"}  c #383F78",
"|  c #3C2F5A",
" . c #3A3563",
".. c #692464",
"X. c #4B1D52",
"o. c #44335C",
"O. c #4B335D",
"+. c #55395A",
"@. c #353D71",
"#. c #4D3A65",
"$. c #63AB3F",
"%. c #453B6C",
"&. c #3A3B6C",
"*. c #443C72",
"=. c #8279A8",
"-. c #7C73A4",
";. c #6C649B",
":. c #5B528C",
">. c #4B437C",
",. c #2E315B",
"<. c #796FA2",
"1. c #6B6094",
"2. c #474176",
"3. c #3B7D4F",
"4. c #695C90",
"5. c #5D5186",
"6. c #52457B",
"7. c #5A4A7C",
"8. c #544373",
"9. c #4C3B6D",
"0. c #4B3562",
"q. c #442D52",
"w. c #4B2E52",
"e. c #463156",
"r. c #2D344D",
"t. c #2F304C",
"y. c #393047",
"u. c #3D3046",
"i. c #3D3044",
"p. c #433347",
"a. c #352E46",
"s. c #382E44",
"d. c #292750",
"f. c #312C45",
"g. c #352E42",
"h. c #342C42",
"j. c #312C42",
"k. c #362644",
"l. c #3B2744",
"z. c #3D2944",
"x. c #342847",
"c. c #2A294D",
"v. c #262444",
"b. c #27274B",
"n. c #2A264C",
"m. c #292941",
"M. c #292A3F",
"N. c #29233E",
"B. c #2A2241",
/* pixels */
"      . X o O   + @ # $ $ $ $ $ # $ $ $ # % & O * +   + @ @ @ @ ",
"= = - ; : > , = < 1 1 1 2 2 3 4 4 1 5 2 3 < 6 7 8 = < 1 9 9 9 9 ",
"= = ; 0 : O , q 4 4 4 3 w e r t 3 t r e w y q 6 6 q 4 9 q = = = ",
"u ; i p :   a y 3 3 4 s d f g h 3 j g k r s l l z x l < = = - = ",
"i c c p   , x r r j v v s d s v 4 s j d s v 3 h b h s l = 8 ; ; ",
"c c c n 8 q h m m r v l l v l < < < 4 v l l s r m m r y = 8 n p ",
"c c n 8 = y r m f j 4 < M M N N N N N N N N N N f B g s q V n C ",
"c n n 6 x s r Z d v < A S S N N N N N N N N N N d f g j 4 D n : ",
"F   8 x 3 h j G v < A H N N J J J J J J K K K K N N j j s q , O ",
"O 7 q t d j 3 l < A H L N N J J J J J J K K K K N N s d d P 6 + ",
"6 < 3 r g j 4 M A H N N J J J J J J K K K K N N N N 4 j g j l D ",
"1 1 s d r G < S H I N N J J J J J J K K K K N N N N l G r d v q ",
"< < 4 s s 4 M U N N K K J J J J K K K K N N Y T L U M 4 G s l = ",
"D < l v 4 < U L N N K K J J J J K K K K N N R Y Y L U < l 4 < D ",
"D M < l < M U E N N W W W W K K K K K K N N Q R R E U A < < < D ",
"6 q 4 l < U L ! N N W W W W K K K K K K N N ~ ~ ~ R L U < 4 l q ",
"@ < G s N N N N N N N N N N N N N N N N N N N N N N ^ / 4 t t x ",
"D 4 j r N N N N N N N N N N N N N N N N N N N N N N ( ) 3 r d x ",
"_ l N N J J J J J J J J J J J J J J J J K K K K K K N N G g d x ",
"6 l N N J J J J J J J J J J J J J J J J K K K K K K N N 3 d h < ",
"N N J J J J J J K K K K K K K K K K K K K K K K K K K K N N 3 4 ",
"N N J J J J J J K K K K K K K K K K K K K K K K K K K K N N l < ",
"N N K K K K N N N N N N N N N N N N N N N N N N K K K K N N l q ",
"N N K K K K N N N N N N N N N N N N N N N N N N K K K K N N 3 x ",
"D < N N N N N N ` ` ` ` ` ` ' ' N N N N N N N N N N N N s j s x ",
"D l N N N N N N ` ` ` ` ` ` ' ' N N N N N N N N N N N N ] g d l ",
"D l j d N N ` ` ` ` ` ` ` ` ` ` ' ' N N N N N N N N [ { G d } l ",
"V < s s N N ` ` ` ` ` ` ` ` ` ` ' ' N N N N N N N N |  .4 ] s = ",
"_ q l y N N ` ` ` ` ....` ` ` ` ' ' N N N N N N N N N N l v l D ",
"6 q < < N N ` ` ` ` ....` ` ` ` ' ' N N N N N N N N N N M < < D ",
"< 4 4 l N N ` ` ` ` X.X.` ` ` ` ' ' N N N N N N N N N N M 4 4 < ",
"4 4 3 3 N N ` ` ` ` X.X.` ` ` ` ' ' N N N N N N N N N N 4 3 3 < ",
"< 3 j j 9 o.N N ` ` ` ` ` ` ' ' ' ' N N N N N N N N N N 9 r j l ",
"q 3 d r 3 [ N N ` ` ` ` ` ` ' ' ' ' N N N N N N N N N N 3 g d l ",
"D y j d G  .O.+.N N ' ' ' ' ' ' N N K K N N N N N N N N G g d l ",
"D l s j @. .[ #.N N ' ' ' ' ' ' N N K K N N N N N N N N 3 j s < ",
"V < v @.v { N N $.$.K K K K J J J J K K N N N N N N %.1 4 s v = ",
"n D l l l &.N N $.$.K K K K J J J J K K N N N N N N *.1 l 4 < D ",
"_ D < l l &.N N $.$.J J ` ` J J K K K K N N =.-.;.:.>.9 l l < ,.",
"D < 3 v 4 &.N N $.$.J J ` ` J J K K K K N N -.<.1.:.2.9 4 3 3 4 ",
"< 4 t s v { N N 3.3.J J K K K K K K K K N N 1.4.5.6.*.9 3 t t 4 ",
"< 4 G G v  .N N 3.3.J J K K K K K K K K N N 7.7.8.9. . .4 G s l ",
"= < v v l M ) o.N N ' ' ' ' K K K K K K N N #.#.0.o.| M l v 4 x ",
"D < l l M S U q.N N ' ' ' ' K K K K K K N N w.e.w.q.U A M < < = ",
"V A < < r.t.y.u.i.u.N N N N N N N N N N p.u.u.i.E E I S M < < D ",
"% M < < r.t.a.i.u.s.N N N N N N N N N N i.y.s.i.E Y I S $ < < D ",
"d.# < < $ H f.g.g.h.h.h.g.s.g.j.j.j.g.s.g.h.k.l.z.l.x.c.# ,.,.% ",
"v.b.% % d.n.m.m.m.M.M.M.M.M.M.M.m.m.m.m.M.M.N.B.N.N.B.v.b.b.% n."
};
