/* XPM */
static char *ae26d1a45843498cfa1bdbbc6c30bf32k0oQisZv5WTyJqwz[] = {
/* columns rows colors chars-per-pixel */
"32 48 199 2 ",
"   c #29233E",
".  c #080846",
"X  c #070849",
"o  c #0E0F4B",
"O  c #120E4E",
"+  c #12124C",
"@  c #19124E",
"#  c #17194E",
"$  c #1C1F4F",
"%  c #190F51",
"&  c #161652",
"*  c #1D1455",
"=  c #171852",
"-  c #1B1C53",
";  c #1D1759",
":  c #1D1E5D",
">  c #231656",
",  c #231B56",
"<  c #221959",
"1  c #1E2254",
"2  c #1F225A",
"3  c #262444",
"4  c #2A2241",
"5  c #27274B",
"6  c #2A264C",
"7  c #2A294D",
"8  c #362644",
"9  c #3B2744",
"0  c #342847",
"q  c #3D2944",
"w  c #362749",
"e  c #3B2749",
"r  c #342A4F",
"t  c #3D294A",
"y  c #222455",
"u  c #292750",
"i  c #272857",
"p  c #2A2A54",
"a  c #22235A",
"s  c #2B265A",
"d  c #272A5C",
"f  c #2B2B5C",
"g  c #342C54",
"h  c #3B2D53",
"j  c #332E5A",
"k  c #3C2F5A",
"l  c #2E3156",
"z  c #2E315B",
"x  c #313456",
"c  c #3C3156",
"v  c #33325C",
"b  c #3D345C",
"n  c #262761",
"m  c #292761",
"M  c #252861",
"N  c #2C2D62",
"B  c #2E3264",
"V  c #2E366A",
"C  c #2D396A",
"Z  c #323564",
"A  c #3A3563",
"S  c #353A65",
"D  c #383A65",
"F  c #333669",
"G  c #3A366A",
"H  c #313A6D",
"J  c #353A6E",
"K  c #353C6F",
"L  c #363E6E",
"P  c #353A6B",
"I  c #3C3C68",
"U  c #3A3B6C",
"Y  c #353D71",
"T  c #373F75",
"R  c #363E72",
"E  c #393D72",
"W  c #383F78",
"Q  c #432A46",
"!  c #4B2C46",
"~  c #442C4B",
"^  c #4B2D4A",
"/  c #532E47",
"(  c #522F4A",
")  c #582F48",
"_  c #4C314E",
"`  c #573047",
"'  c #54314B",
"]  c #5B344B",
"[  c #442D52",
"{  c #4B2E52",
"}  c #512F51",
"|  c #463156",
" . c #4C3253",
".. c #44335C",
"X. c #4B335D",
"o. c #533353",
"O. c #5A3651",
"+. c #5E3953",
"@. c #53365B",
"#. c #55395A",
"$. c #5A3B5B",
"%. c #62364D",
"&. c #64394E",
"*. c #6A3A4E",
"=. c #733E4F",
"-. c #643A53",
";. c #6C3D52",
":. c #633E5C",
">. c #6A3F58",
",. c #723F52",
"<. c #443562",
"1. c #4B3562",
"2. c #473866",
"3. c #4D3A65",
"4. c #463769",
"5. c #453B6C",
"6. c #4C3B6D",
"7. c #513B66",
"8. c #5C3D60",
"9. c #533F6C",
"0. c #443C72",
"q. c #4C3C73",
"w. c #4A3F7A",
"e. c #533D72",
"r. c #39426C",
"t. c #39426B",
"y. c #374276",
"u. c #374072",
"i. c #384176",
"p. c #394476",
"a. c #394276",
"s. c #374479",
"d. c #394379",
"f. c #394579",
"g. c #3A467A",
"h. c #3B467D",
"j. c #3C477E",
"k. c #3A447A",
"l. c #3C497B",
"z. c #3C4A7F",
"x. c #744154",
"c. c #794355",
"v. c #55406C",
"b. c #5B446A",
"n. c #474176",
"m. c #4E4076",
"M. c #47417A",
"N. c #4B437C",
"B. c #544373",
"V. c #594371",
"C. c #554977",
"Z. c #52457B",
"A. c #57487F",
"S. c #5A4A7C",
"D. c #614062",
"F. c #604A6F",
"G. c #624C72",
"H. c #60507F",
"J. c #3C4A81",
"K. c #3D4C82",
"L. c #3D4D84",
"P. c #524685",
"I. c #544A84",
"U. c #594C84",
"Y. c #554C8C",
"T. c #5E4E88",
"R. c #5D5186",
"E. c #5B528C",
"W. c #5C5394",
"Q. c #5D569B",
"!. c #5E599C",
"~. c #655682",
"^. c #665881",
"/. c #62558B",
"(. c #66598B",
"). c #6A5D8C",
"_. c #6C5D87",
"`. c #615696",
"'. c #655C94",
"]. c #695C90",
"[. c #60579B",
"{. c #625C9C",
"}. c #695F9C",
"|. c #6F6089",
" X c #6B6094",
".X c #67619F",
"XX c #6C649B",
"oX c #736897",
"OX c #71669A",
"+X c #766B9B",
"@X c #786E9A",
"#X c #7D719C",
"$X c #6F68A2",
"%X c #7066A0",
"&X c #796FA2",
"*X c #746CA2",
"=X c #7C73A4",
"-X c #8077A4",
";X c #8279A8",
/* pixels */
"= = = & X . + = - i l x x x x x l x x x l p $ + # - = - i i i i ",
"N N n : O o 2 N Z D D D r.r.L S S D t.r.L Z d 1 a N Z D I I I I ",
"N N : ; O + 2 B S S S L p.l.f.u.L u.f.l.p.H B d d B S I B N N N ",
"m : < * O = M H L L S R d.J.h.y.L a.h.z.f.R F F C V F Z N N n N ",
"< > > * = 2 V f.f.a.P P R d.R P S R a.d.R P L y.s.y.R F N a : : ",
"> > > , a B y.K.K.f.P F F P F Z Z Z S P F F R f.K.K.f.H N a , * ",
"> > , a N H f.K.J.a.S Z v v j j f j v v v Z F s.J.L.h.R B s , % ",
"> , , d V R f.j.d.P Z j g g g r r r g g g j Z P d.J.h.a.S f , O ",
"@ = a V L y.a.E P Z j r t t e w 0 w t t t r j Z P R a.a.R B 2 + ",
"+ 1 B u.d.a.L F Z j r ~ ^ ! ! q 9 Q ! ! ! t r j Z S R d.d.K d - ",
"d Z L f.h.a.S v j r t ^ ` ] ` ! Q ! ` ] ` ^ t r j v S a.h.a.F f ",
"D D R d.f.E Z g r t Q ` %.*.%./ ! / %.*.%./ Q t r j F E f.d.P B ",
"Z Z S R R S v h t Q ! ] *.=.*.` ! ` *.,.*.] ! Q ~ h v S E R F N ",
"f Z F P S Z h ~ ! ! / %.,.x.*.] ! ] ;.c.,.] / ! ! ~ h Z F S Z f ",
"f v Z F Z v h ^ / / ) &.x.c.;.] ' ] ;.c.x.%.` / / ^ h j Z Z Z f ",
"d B S F Z h ~ ' ] ] ] &.x.c.;.] / ] ;.c.x.&.] ] ] / ~ h Z S F B ",
"i Z E R S c  .] %.] ] &.,.c.;.] ! ] ;.c.x.&.] %.%.] _ c S u.u.V ",
"f S a.f.U b  .O.&.] ] %.;.x.-.' ! ' ;.x.;.%.] %.&.]  .b L f.d.V ",
"y F d.f.L b | O.+.O.' O.-.>.-.o.^ o.-.>.-.O.] O.+.O.| b E h.d.V ",
"d F y.a.U A | @.#.@.@.#.$.8.$.X.X.X.8.D.D.$.$.$.$.#.| A L d.y.Z ",
"B F R Y F A <.3.9.9.9.v.V.V.v.6.6.9.V.G.G.G.G.F.b.7.<.A S R L S ",
"Z Z F F F A 5.Z.A.I.I.U.U.U.U.I.I.U.R.(._.|.|._.~.C.5.A F F F Z ",
"B Z S S F I n.I.E.W.W.W.`.W.W.W.W.`.'.XX+X#X#X@X XR.n.I F S F B ",
"f Z L L P E M.Y.W.!.!.!.[.[.[.[.!.{.}.%X&X=X-X=XXXE.M.U P R L V ",
"f Z u.a.E E M.I.Y.W.W.W.W.W.W.W.W.W.`.}.OX+X+XOX'.U.M.E R a.R V ",
"f F a.d.R U 0.w.P.P.P.P.P.P.P.P.P.I.U.T./.(.(./.U.N.0.U T h.d.F ",
"f F a.d.R G A 4.6.q.0.0.q.q.q.0.0.0.e.e.B.B.B.B.6.4.<.G E d.W F ",
"s Z R R S Z b ..X.X...X.X.X.X.......X.@.@.X.X.X.X.X.k A S T R N ",
"y B F H Z k [ { } { { { o.o.o.[ ~ { o.O.o.o.{ o.o.{ [ j F P F f ",
"d B Z Z v h ^ ' ' ' / ' %.%.' ! ~ ! ] &.%.' ` ' ] ' ~ h v Z Z f ",
"Z S S F v c  .] &.] ] ] *.;.%./ ! / &.,.*.] ] ] &.] _ h v S S Z ",
"S S L L D ..o.-.*.%.] %.;.,.&.` ! ] *.,.;.%.] %.*.%._ c S L L Z ",
"Z L a.a.I ..o.-.-.%.] ] ;.,.-.' ^ ' ;.x.;.%.] &.-.-. .b I f.a.F ",
"B L d.f.L <. .+.-.O.' O.-.>.+._ ^ ' -.>.-.O.O.O.-.O. .b L h.d.F ",
"f H a.d.E A X.#.#.o.o.#.$.$.#.X.|  .$.:.:.#.#.#.#.#.| A E h.d.F ",
"f F R a.Y A <.3.7.7.3.7.9.v.9.3.2.3.v.b.b.b.b.b.v.7...A L a.R Z ",
"s Z P Y P G 5.m.Z.Z.Z.Z.A.A.A.Z.N.Z.S.H.~.^.~.~.S.B.5.D S R P N ",
", f F F F U w.P.Y.E.E.W.W.W.W.W.W.W.`. XoX@X@XoX).U.0.D F S Z f ",
"y f Z F F U M.Y.W.Q.!.!.!.!.!.!.!.{..X$X=X;X;X=XXXE.N.I F F Z z ",
"f Z L P S U M.P.W.Q.!.!.!.!.!.!.!.Q.{.XX*X=X=X&X XE.n.I S L L S ",
"Z S u.R P G 0.M.P.Y.Y.Y.Y.Y.Y.Y.Y.Y.E./.'. X X].R.Z.0.I L u.u.S ",
"Z S E E P A A 5.q.q.q.m.m.q.q.q.q.q.Z.Z.S.S.S.S.B.6.A A S E R F ",
"N Z P P F v b ..X.1.<.1.1.1.1.<.<.<.1.7.7.7.3.3.1...k v F P S V ",
"f Z F F v g h [ { { [ { o.o.{ [ [ [  .o.o. .{ | { [ h j v Z Z N ",
"s j Z Z x g ~ ^ ! ^ ! ^ ( ' ( ~ t ~ ^ ' ' ^ ^ ! ^ ^ t g v Z Z f ",
"p v Z Z x g t ! ^ Q Q ~ ! ' ^ Q 9 Q ^ ' ! ~ Q ! ^ ! t g x Z Z f ",
"u l Z Z x r w q q 9 9 9 q Q q 8 8 8 q Q q 9 8 9 q 9 0 7 l z z p ",
"3 5 p p u 6 4 4 4               4 4 4 4       4     4 3 5 5 p 6 "
};
