/* XPM */
static char *_005248eeaf040ae922f1534091fc024Ke140fmYkvBQRF1O[] = {
/* columns rows colors chars-per-pixel */
"32 48 188 2 ",
"   c #25233C",
".  c #2B223F",
"X  c #36233F",
"o  c #4D263F",
"O  c #060446",
"+  c #0A0747",
"@  c #070846",
"#  c #0B0A46",
"$  c #0B044A",
"%  c #070849",
"&  c #0D0D4B",
"*  c #100E45",
"=  c #120B4D",
"-  c #191B43",
";  c #14134B",
":  c #1B154D",
">  c #17194D",
",  c #1F1A4F",
"<  c #170B51",
"1  c #180C51",
"2  c #151652",
"3  c #1D1354",
"4  c #171953",
"5  c #191A53",
"6  c #1E1659",
"7  c #1D1D5D",
"8  c #211F4D",
"9  c #231455",
"0  c #231959",
"q  c #251A52",
"w  c #1F2441",
"e  c #1F2252",
"r  c #1F2158",
"t  c #262240",
"y  c #2A2241",
"u  c #262844",
"i  c #292B46",
"p  c #272549",
"a  c #2A254B",
"s  c #262A4C",
"d  c #2B2B4D",
"f  c #332443",
"g  c #3D2542",
"h  c #312847",
"j  c #382943",
"k  c #332548",
"l  c #39254A",
"z  c #322A4D",
"x  c #392B4E",
"c  c #31304E",
"v  c #222452",
"b  c #2A2752",
"n  c #262854",
"m  c #2C2B54",
"M  c #212158",
"N  c #252A58",
"B  c #2C2C5B",
"V  c #342E53",
"C  c #3A2B54",
"Z  c #332E5C",
"A  c #3D2D5D",
"S  c #2E3252",
"D  c #2E315D",
"F  c #313354",
"G  c #363954",
"H  c #383B52",
"J  c #31325D",
"K  c #35395A",
"L  c #383B5B",
"P  c #262761",
"I  c #292761",
"U  c #272862",
"Y  c #2C2D62",
"T  c #322F62",
"R  c #3E2F63",
"E  c #2E3262",
"W  c #2F3960",
"Q  c #2E3368",
"!  c #323464",
"~  c #3F3060",
"^  c #333A65",
"/  c #3A3B66",
"(  c #33356A",
")  c #3E326A",
"_  c #343A6C",
"`  c #3A3C6A",
"'  c #353770",
"]  c #3D3772",
"[  c #363C73",
"{  c #393D72",
"}  c #373D79",
"|  c #383F7C",
" . c #442642",
".. c #4B2740",
"X. c #442A44",
"o. c #4C2942",
"O. c #432C4C",
"+. c #4B2D4A",
"@. c #5D2D46",
"#. c #502A49",
"$. c #4B324C",
"%. c #52344C",
"&. c #5C314C",
"*. c #482E52",
"=. c #462F58",
"-. c #443053",
";. c #443059",
":. c #533554",
">. c #652F45",
",. c #682F45",
"<. c #663045",
"1. c #6C374D",
"2. c #663A4D",
"3. c #6D3B4D",
"4. c #743C4D",
"5. c #79394C",
"6. c #673450",
"7. c #633952",
"8. c #6B3C51",
"9. c #753E51",
"0. c #483861",
"q. c #40326B",
"w. c #453D6B",
"e. c #4A3C69",
"r. c #443773",
"t. c #433975",
"y. c #483C7F",
"u. c #36416B",
"i. c #38406D",
"p. c #364273",
"a. c #3A4374",
"s. c #37437D",
"d. c #3B447C",
"f. c #3C4A7C",
"g. c #3F517E",
"h. c #6C4054",
"j. c #744153",
"k. c #5B4C77",
"l. c #51477A",
"z. c #594E7A",
"x. c #473E81",
"c. c #3B4583",
"v. c #3E4B86",
"b. c #3D4B84",
"n. c #3F4C8A",
"m. c #3E4C8A",
"M. c #3E5183",
"N. c #3F518B",
"B. c #4D4484",
"V. c #414F81",
"C. c #4F4A80",
"Z. c #4F458A",
"A. c #404C8C",
"S. c #414D8D",
"D. c #534984",
"F. c #504589",
"G. c #534888",
"H. c #425487",
"J. c #455986",
"K. c #41548C",
"L. c #45598E",
"P. c #5F5386",
"I. c #404E90",
"U. c #425593",
"Y. c #405894",
"T. c #445A93",
"R. c #485B97",
"E. c #455699",
"W. c #455B9A",
"Q. c #465D99",
"!. c #495E9A",
"~. c #5E579D",
"^. c #5F589E",
"/. c #46629C",
"(. c #49629A",
"). c #48609F",
"_. c #49639C",
"`. c #6A669B",
"'. c #645FA4",
"]. c #4761A0",
"[. c #4B67A4",
"{. c #4B68A2",
"}. c #4C68A1",
"|. c #5374AC",
" X c #5577B1",
".X c #5478B1",
"XX c #6762A3",
"oX c #6E67A1",
/* pixels */
"4 4 4 2 % @ ; 4 4 M m F G H H H H H H G m e & @ ; 4 4 5 B B B N ",
"Y Y P 7 = & 7 Y J K K / a.a.` E D _ a.a./ D v > r Y ! / ` ` ` ` ",
"Y Y 7 6 = + 4 B J D ! f.(.{.T.[ _ K.{.(.f.! B N N B ! / Y Y Y Y ",
"I 7 6 < + # e _ f.a.( s.U.W.m.' ( v.W.U.s.! [ f.p.E B Y Y Y U Y ",
"0 9 9 1 ; v p.Q.[.T.{ _ c.n.c.( ( d.A.c._ ( b./._.b.^ B N 7 7 7 ",
"9 9 9 : v _ T.[.).K.a.! ( } [ ! T ' } ' E ( s.T.{.(.f.B M 6 6 6 ",
"9 9 3 8 J V.R.E.I.d.! m m B B b b B B B B T [ v.U.T.H.^ b q 9 < ",
"9 3 : v ! a.v.n.c.[ B a p p p t t p a a a m ( d.m.n.d.! m , < $ ",
"= ; e p.p._ [ } [ Y a y t t t t t t t t y a B ( } } ^ _ p.N * O ",
"# s W K.K.[ ! T B a y y t t t t t t t t t t a B Y E _ M.T.^ - # ",
"M F a.N.T.f.! m a y y y t t t t t t t t t t t a b E s.T.K.a.n M ",
"/ J f.K.U.b.! a f g f y t t t t t t t t t t t t a B s.U.K.b.D B ",
"L J _ s.d.[ B k  .o.g y t t t t t t t t t t t t t b ( d.d.[ B m ",
"J B B Q ( B z +.@.@...X y t t t t t t t t t t t t a m E ( Y m b ",
"F m m B B a O.2.1.>...X y t t t t t t t t t t t t t p b B m m m ",
"S J ^ E m a $.h.4.<...f y t t t t t t t t t t t t   t d D ^ ! d ",
"c ` N.b.^ z %.j.4.>...X y t t t t t t t t t t t t t a ! b.K.a.t ",
"d ` U./.f.F %.9.5.,.o X y t t t t t t t t t t t t t m a.(.T.f.u ",
"p ( m.Y.s.V %.9.5.,.o X y t t t t t t t t t t t t t m p.U.K.[ w ",
"d ( v.A.} V $.7.6.@...X y t t t t t t t t t t t t t b ` A.A.[ u ",
"S ! | c.^ B C ;.=.O.g f y t t t t t t t t t t t t t a ! d.d._ i ",
"F J T ( B Z w.P.P.e.x f y t t t t t t t t t t t t t a B ! ! J d ",
"J m b m a Z D.oXoXD.A k y t t t t t t t t t t t t t t a b m B J ",
"S J E ! m ! B.'.'.G.~ k y t t t t t t t t t t t t t p b E E D d ",
"d a.}. XH.{ B.~.~.B.A k y t t t t t t t t t t t t t m g..X|.J.u ",
"d [ U.].f.( ] x.y.q.C k y t t t t t t t t t t t t t m a.).Q.f.t ",
"d _ m.I.} B Z R R C l f y t t t t t t t t t t t t t d ` N.n.[ u ",
"d _ v.A.[ B O.:.&.#. .f y t t t t t t t t t t t   t d _ n.v.[ u ",
"d ! [ } ! z %.4.4.>...X y t t t t t t t t t t t   t a ! } [ ! u ",
"S D T T m h %.4.5.,...X . t t t t t t t t t t t t t p b Y Y B d ",
"L J J J m k %.4.5.,...X . t t t t t t t t t t t   t p b D D D F ",
"K ^ f.M./ z %.4.5.,...X y t t t t t t t t t t t t t a ^ f.f.u.s ",
"F ` T./.f.V %.9.5.,...X . t t t t t t t t t t t t y m a.!.Q.f.u ",
"F _ n.Y.a.V %.9.5.,...X . t t t t t t t t t t t t y m [ K.K.p.u ",
"m ( v.N.[ V $.8.1.@...X y t t t t t t t t t t t t t b _ A.n.p.u ",
"d _ c.n.[ m C :.:.+.g f y t t t t t t t t t t t t t m _ A.v.{ u ",
"d ^ s.c.( Z w.z.k.0.l f y t t t t t t t t t t t t t d ! d.s._ u ",
"a E ( ( B ! C.`.`.l.C f y t t t t t t t t t t t t t a B ( ( E w ",
"s B B B m T D.XXXXD.R k y t t t t t t t t t t t t t p a B B B d ",
"S J ^ ^ B T B.~.^.B.A k y t t t t t t t t t t t t t a B ^ ^ ! K ",
"F i.M.T.p.! t.F.Z.r.C k y t t t t t t t t t t t t t m i.L.L.f.S ",
"F p.L.!.s.J Z ) ) C k f y t t t t t t t t t t t t t m a.!.W.f.s ",
"S _ d.v._ m x -.*.O.g f y t t t t t t t t t t t t t a ( b.c.{ s ",
"m B E D m a $.h.8.&.X.f y t t t t t t t t t t t t t p m E E D d ",
"b m D D b k %.j.9.@. .. t t t t t t t t t t t t   t t b B D B m ",
"d D d.s.! z $.3.2.o.f y y t t t t t t t t t t t   t a J d.f.! a ",
"i B p.p.J a j X.X.f y t y t t t t t t t t t t t   t a B [ a.B t ",
"    u p p                                             t t u u   "
};
