/* XPM */
static char *result[] = {
/* columns rows colors chars-per-pixel */
"32 48 113 2 ",
"   c #171852",
".  c #161652",
"X  c #070849",
"o  c #080846",
"O  c #12124C",
"+  c #1B1C53",
"@  c #272857",
"#  c #2E3156",
"$  c #313456",
"%  c #2A2A54",
"&  c #1C1F4F",
"*  c #17194E",
"=  c #2C2D62",
"-  c #262761",
";  c #1D1E5D",
":  c #120E4E",
">  c #0E0F4B",
",  c #1F225A",
"<  c #323564",
"1  c #383A65",
"2  c #39426C",
"3  c #363E6E",
"4  c #353A65",
"5  c #39426B",
"6  c #272A5C",
"7  c #1E2254",
"8  c #22235A",
"9  c #3C3C68",
"0  c #1D1759",
"q  c #2E3264",
"w  c #394476",
"e  c #3C497B",
"r  c #394579",
"t  c #374072",
"y  c #313A6D",
"u  c #292761",
"i  c #221959",
"p  c #1D1455",
"a  c #252861",
"s  c #363E72",
"d  c #394379",
"f  c #3C4A81",
"g  c #3B467D",
"h  c #374276",
"j  c #394276",
"k  c #3C4A7F",
"l  c #333669",
"z  c #2D396A",
"x  c #2E366A",
"c  c #231656",
"v  c #353A6B",
"b  c #374479",
"n  c #231B56",
"m  c #3D4C82",
"M  c #33325C",
"N  c #332E5A",
"B  c #2B2B5C",
"V  c #3D4D84",
"C  c #2B265A",
"Z  c #190F51",
"A  c #3C477E",
"S  c #342C54",
"D  c #342A4F",
"F  c #19124E",
"G  c #393D72",
"H  c #3D294A",
"J  c #52333F",
"K  c #442C4B",
"L  c #4B2D4A",
"P  c #4B2C46",
"I  c #353C6F",
"U  c #CC2F7B",
"Y  c #573047",
"T  c #432A46",
"R  c #62364D",
"E  c #532E47",
"W  c #3B2D53",
"Q  c #9C2A70",
"!  c #54314B",
"~  c #5B344B",
"^  c #3C3156",
"/  c #4C3253",
"(  c #4C314E",
")  c #3A3B6C",
"_  c #3D345C",
"`  c #5A3651",
"'  c #64394E",
"]  c #222455",
"[  c #383F78",
"{  c #2E315B",
"}  c #BD6A62",
"|  c #3C2F5A",
" . c #393047",
".. c #3D3046",
"X. c #352E46",
"o. c #3D3044",
"O. c #292750",
"+. c #362749",
"@. c #3D2944",
"#. c #352E42",
"$. c #342C42",
"%. c #382E44",
"&. c #312C42",
"*. c #3B2744",
"=. c #342847",
"-. c #2A294D",
";. c #262444",
":. c #27274B",
">. c #2A264C",
",. c #2A2241",
"<. c #292941",
"1. c #292A3F",
"2. c #29233E",
/* pixels */
"      . X o O   + @ # $ $ $ $ $ # $ $ $ # % & O * +   + @ @ @ @ ",
"= = - ; : > , = < 1 1 1 2 2 3 4 4 1 5 2 3 < 6 7 8 = < 1 9 9 9 9 ",
"= = ; 0 : O , q 4 4 4 3 w e r t 3 t r e w y q 6 6 q 4 9 q = = = ",
"u ; i p :   a y 3 3 4 s d f g h 3 j g k r s l l z x l < = = - = ",
"i c c p   , x r r j v v s d s v 4 s j d s v 3 h b h s l = 8 ; ; ",
"c c c n 8 q h m m r v l l v l < < < 4 v l l s r m m r y = 8 n p ",
"c c n 8 = y r m f j 4 < M M N N B N M M M < l b f V g s q C n Z ",
"c n n 6 x s r A d v < N S S S D D D S S S N < v d f g j 4 B n : ",
"F   8 x 3 h j G v < N D H H J J J J H H H D N < v s j j s q , O ",
"O 7 q t d j 3 l < N D K L P J J J J P P P H D N < 4 s d d I 6 + ",
"6 < 3 r g j 4 M N D H L J J U U U U J J Y L H D N M 4 j g j l B ",
"1 1 s d r G < S D H T Y J J U U U U J J R E T H D N l G r d v q ",
"< < 4 s s 4 M W H T J J U U U U U U U U J J P T K W M 4 G s l = ",
"B < l v 4 < W K P P J J U U U U U U U U J J E P P K W < l 4 < B ",
"B M < l < M W L J J Q Q U U U U U U U U Q Q J J E L W N < < < B ",
"6 q 4 l < W K ! J J Q Q U U U U U U U U Q Q J J ~ E K W < 4 l q ",
"@ < G s 4 ^ / ~ J J Q Q Q Q U U U U Q Q Q Q J J R ~ ( ^ 4 t t x ",
"B 4 j r ) _ / ` J J Q Q Q Q U U U U Q Q Q Q J J ' ~ / _ 3 r d x ",
"] l d r J J J J Q Q Q Q Q Q Q Q Q Q Q Q Q Q Q Q J J J J G g d x ",
"6 l h j J J J J Q Q Q Q Q Q Q Q Q Q Q Q Q Q Q Q J J J J 3 d h < ",
"q l J J Q Q U U U U J J J J J J J J J J J J U U U U Q Q J J 3 4 ",
"< < J J Q Q U U U U J J J J J J J J J J J J U U U U Q Q J J l < ",
"J J Q Q Q Q U U U U U U U U U U U U U U U U U U U U Q Q Q Q J J ",
"J J Q Q Q Q U U U U U U U U U U U U U U U U U U U U Q Q Q Q J J ",
"J J Q Q Q Q Q Q U U U U U U U U U U U U U U U U Q Q Q Q Q Q J J ",
"J J Q Q Q Q Q Q U U U U U U U U U U U U U U U U Q Q Q Q Q Q J J ",
"B l J J Q Q Q Q Q Q Q Q Q Q Q Q Q Q Q Q Q Q Q Q Q Q Q Q J J [ l ",
"C < J J Q Q Q Q Q Q Q Q Q Q Q Q Q Q Q Q Q Q Q Q Q Q Q Q J J s = ",
"] q l y J J J J Q Q Q Q Q Q Q Q Q Q Q Q Q Q Q Q J J J J l v l B ",
"6 q < < J J J J Q Q Q Q Q Q Q Q Q Q Q Q Q Q Q Q J J J J M < < B ",
"< 4 J J J J J J J J J J J J J J J J J J J J J J J J J J J J 4 < ",
"4 4 J J J J J J J J J J J J J J J J J J J J J J J J J J J J 3 < ",
"< 3 J J J J J J J J J J J J J J J J J J J J J J J J J J J J j l ",
"q 3 J J J J J J J J J J J J J J J J J J J J J J J J J J J J d l ",
"B y J J J J J J J J J J J J J J J J J J J J J J J J J J J J d l ",
"B l J J J J J J J J J J J J J J J J J J J J J J J J J J J J s < ",
"C < J J J J J J J J J J J J J J J J J J J J J J J J J J J J v = ",
"n B J J J J J J J J J J J J J J J J J J J J J J J J J J J J < B ",
"] B < l J J J J J J J J J J J J J J J J J J J J J J J J l l < { ",
"B < 3 v J J J J J J J J J J J J J J J J J J J J J J J J 4 3 3 4 ",
"< 4 t s J J } } Q Q U U U U U U U U U U U U Q Q } } J J 3 t t 4 ",
"< 4 G G J J } } Q Q U U U U U U U U U U U U Q Q } } J J 4 G s l ",
"= < v v l M J J Q Q Q Q Q Q Q Q Q Q Q Q Q Q Q Q J J | M l v 4 x ",
"B < l l M S J J Q Q Q Q Q Q Q Q Q Q Q Q Q Q Q Q J J W N M < < = ",
"C N < < $ S  ...J J J J J J J J J J J J J J J J ....H S M < < B ",
"% M < < $ S X.o.J J J J J J J J J J J J J J J J ..o.H S $ < < B ",
"O.# < < $ D +.@.#.$.$.$.#.%.#.&.&.&.#.%.#.$.&.$.@.*.=.-.# { { % ",
";.:.% % O.>.,.,.<.1.1.1.1.1.1.1.<.<.<.<.1.1.1.<.2.2.,.;.:.:.% >."
};
