/* XPM */
static char *_89ae87dd29147a3b0dec3f2d3853c4e2QtxZ0OmNQARwXl0[] = {
/* columns rows colors chars-per-pixel */
"32 48 138 2 ",
"   c #171852",
".  c #161652",
"X  c #070849",
"o  c #080846",
"O  c #12124C",
"+  c #1B1C53",
"@  c #272857",
"#  c #2E3156",
"$  c #313456",
"%  c #2A2A54",
"&  c #1C1F4F",
"*  c #17194E",
"=  c #2C2D62",
"-  c #262761",
";  c #1D1E5D",
":  c #120E4E",
">  c #0E0F4B",
",  c #1F225A",
"<  c #323564",
"1  c #383A65",
"2  c #39426C",
"3  c #363E6E",
"4  c #353A65",
"5  c #39426B",
"6  c #272A5C",
"7  c #1E2254",
"8  c #22235A",
"9  c #3C3C68",
"0  c #1D1759",
"q  c #2E3264",
"w  c #394476",
"e  c #3C497B",
"r  c #394579",
"t  c #374072",
"y  c #313A6D",
"u  c #292761",
"i  c #221959",
"p  c #1D1455",
"a  c #252861",
"s  c #363E72",
"d  c #394379",
"f  c #3C4A81",
"g  c #3B467D",
"h  c #374276",
"j  c #394276",
"k  c #3C4A7F",
"l  c #333669",
"z  c #2D396A",
"x  c #2E366A",
"c  c #231656",
"v  c #353A6B",
"b  c #374479",
"n  c #231B56",
"m  c #3D4C82",
"M  c #52333F",
"N  c #33325C",
"B  c #3D4D84",
"V  c #2B265A",
"C  c #190F51",
"Z  c #3C477E",
"A  c #342C54",
"S  c #332E5A",
"D  c #2B2B5C",
"F  c #19124E",
"G  c #9C2A70",
"H  c #CC2F7B",
"J  c #3D294A",
"K  c #342A4F",
"L  c #4B2C46",
"P  c #353C6F",
"I  c #393D72",
"U  c #432A46",
"Y  c #3B2D53",
"T  c #442C4B",
"R  c #4B2D4A",
"E  c #532E47",
"W  c #FF8933",
"Q  c #54314B",
"!  c #5B344B",
"~  c #3C3156",
"^  c #3A3B6C",
"/  c #3D345C",
"(  c #222455",
")  c #8F4D57",
"_  c #BD6A62",
"`  c #3A366A",
"'  c #383F78",
"]  c #373F75",
"[  c #692464",
"{  c #4B1D52",
"}  c #4C3253",
"|  c #55395A",
" . c #463156",
".. c #3A3563",
"X. c #55406C",
"o. c #513B66",
"O. c #44335C",
"+. c #353D71",
"@. c #63AB3F",
"#. c #453B6C",
"$. c #443C72",
"%. c #47417A",
"&. c #554C8C",
"*. c #5C5394",
"=. c #5D569B",
"-. c #4B437C",
";. c #2E315B",
":. c #524685",
">. c #474176",
",. c #3B7D4F",
"<. c #4C3C73",
"1. c #4B335D",
"2. c #4B3562",
"3. c #3C2F5A",
"4. c #442D52",
"5. c #4B2E52",
"6. c #3D3044",
"7. c #3D3046",
"8. c #352E46",
"9. c #2F304C",
"0. c #382E44",
"q. c #393047",
"w. c #292750",
"e. c #362749",
"r. c #3D2944",
"t. c #3B2744",
"y. c #342C42",
"u. c #352E42",
"i. c #312C42",
"p. c #342847",
"a. c #2A294D",
"s. c #262444",
"d. c #27274B",
"f. c #2A264C",
"g. c #2A2241",
"h. c #29233E",
"j. c #292A3F",
"k. c #292941",
/* pixels */
"      . X o O   + @ # $ $ $ $ $ # $ $ $ # % & O * +   + @ @ @ @ ",
"= = - ; : > , = < 1 1 1 2 2 3 4 4 1 5 2 3 < 6 7 8 = < 1 9 9 9 9 ",
"= = ; 0 : O , q 4 4 4 3 w e r t 3 t r e w y q 6 6 q 4 9 q = = = ",
"u ; i p :   a y 3 3 4 s d f g h 3 j g k r s l l z x l < = = - = ",
"i c c p   , x r r j v v s d s v 4 s j d s v 3 h b h s l = 8 ; ; ",
"c c c n 8 q h m m r v l l v l < < < 4 v l l s r m m r y = 8 n p ",
"c c n 8 = y r m M M M M M M M M M M N N N < l b f B g s q V n C ",
"c n n 6 x s r Z M M M M M M M M M M A A A S < v d f g j 4 D n : ",
"F   8 x 3 h M M G G G G H H H H H H M M J K S < v s j j s q , O ",
"O 7 q t d j M M G G G G H H H H H H M M L J K S < 4 s d d P 6 + ",
"6 < 3 r g j M M M M G G G G H H H H H H M M J K S N 4 j g j l D ",
"1 1 s d r I M M M M G G G G H H H H H H M M U J K S l I r d v q ",
"< < 4 s s 4 N Y J U M M G G G G H H H H G G M M T Y N 4 I s l = ",
"D < l v 4 < Y T L L M M G G G G H H H H G G M M L T Y < l 4 < D ",
"D N < l < N Y R E E M M G G G G G G W W W W M M E R Y S < < < D ",
"6 q 4 l < Y T Q ! ! M M G G G G G G W W W W M M ! E T Y < 4 l q ",
"@ < I s 4 ~ M M M M M M M M M M M M M M M M M M M M M M 4 t t x ",
"D 4 j r ^ / M M M M M M M M M M M M M M M M M M M M M M 3 r d x ",
"( l d r M M G G G G G G H H H H H H H H H H H H H H H H M M d x ",
"6 l h j M M G G G G G G H H H H H H H H H H H H H H H H M M h < ",
"q l M M G G G G G G G G G G G G G G G G G G G G H H H H H H M M ",
"< < M M G G G G G G G G G G G G G G G G G G G G H H H H H H M M ",
"q < M M G G G G M M M M M M M M M M M M M M M M M M G G G G M M ",
"D < M M G G G G M M M M M M M M M M M M M M M M M M G G G G M M ",
"D < t j M M M M M M M M M M M M ) ) _ _ _ _ _ _ M M M M M M s x ",
"D l j d M M M M M M M M M M M M ) ) _ _ _ _ _ _ M M M M M M d l ",
"D l j d s ` M M M M M M M M ) ) _ _ _ _ _ _ _ _ _ _ M M I d ' l ",
"V < s s 4 < M M M M M M M M ) ) _ _ _ _ _ _ _ _ _ _ M M 4 ] s = ",
"( q l y M M M M M M M M M M ) ) _ _ _ _ [ [ _ _ _ _ M M l v l D ",
"6 q < < M M M M M M M M M M ) ) _ _ _ _ [ [ _ _ _ _ M M N < < D ",
"< 4 4 l M M M M M M M M M M ) ) _ _ _ _ { { _ _ _ _ M M N 4 4 < ",
"4 4 3 3 M M M M M M M M M M ) ) _ _ _ _ { { _ _ _ _ M M 4 3 3 < ",
"< 3 j j M M M M M M M M M M ) ) ) ) _ _ _ _ _ _ M M } / 9 r j l ",
"q 3 d r M M M M M M M M M M ) ) ) ) _ _ _ _ _ _ M M } / 3 g d l ",
"D y j d M M M M M M M M G G M M ) ) ) ) ) ) M M | |  ...I g d l ",
"D l s j M M M M M M M M G G M M ) ) ) ) ) ) M M X.o.O...3 j s < ",
"V < v +.v ` M M M M M M G G H H H H G G G G @.@.M M #.1 4 s v = ",
"n D l l l ^ M M M M M M G G H H H H G G G G @.@.M M $.1 l 4 < D ",
"( D < l l ^ %.&.*.=.M M G G G G H H _ _ H H @.@.M M -.9 l l < ;.",
"D < 3 v 4 ^ %.:.*.=.M M G G G G H H _ _ H H @.@.M M >.9 4 3 3 4 ",
"< 4 t s v ` $.%.:.&.M M G G G G G G G G H H ,.,.M M $.9 3 t t 4 ",
"< 4 I I v ....#.<.<.M M G G G G G G G G H H ,.,.M M ....4 I s l ",
"= < v v l N / O.1.2.M M G G G G G G ) ) ) ) M M 2.O.3.N l v 4 x ",
"D < l l N A Y 4.5.5.M M G G G G G G ) ) ) ) M M 5.4.Y S N < < = ",
"V S < < $ A T R 6.7.6.7.M M M M M M M M M M 7.6.7.7.8.9.N < < D ",
"% N < < $ A J L 7.0.0.q.M M M M M M M M M M 0.6.7.6.8.9.$ < < D ",
"w.# < < $ K e.r.r.t.y.y.u.0.u.i.i.i.u.0.u.y.i.y.u.y.p.a.# ;.;.% ",
"s.d.% % w.f.g.g.g.h.j.j.j.j.j.j.k.k.k.k.j.j.j.k.j.j.g.s.d.d.% f."
};
