/* XPM */
static char *_dd71e3c66cc46b8cc4036edb0ac789cDzHfnv1xfo1LwKCd[] = {
/* columns rows colors chars-per-pixel */
"32 48 143 2 ",
"   c #00003F",
".  c #030144",
"X  c #090546",
"o  c #0A0946",
"O  c #070149",
"+  c #0B034B",
"@  c #070849",
"#  c #0D0C4A",
"$  c #11064E",
"%  c #130A4E",
"&  c #190D4F",
"*  c #0F104D",
"=  c #13134D",
"-  c #18174E",
";  c #0D0850",
":  c #150A51",
">  c #1A0D52",
",  c #0F1053",
"<  c #131453",
"1  c #1E1255",
"2  c #171852",
"3  c #1B1B54",
"4  c #161559",
"5  c #1C1659",
"6  c #1D1C5B",
"7  c #231556",
"8  c #211657",
"9  c #221455",
"0  c #241455",
"q  c #241456",
"w  c #241556",
"e  c #221455",
"r  c #241857",
"t  c #241857",
"y  c #201758",
"u  c #221858",
"i  c #231958",
"p  c #231959",
"a  c #221A59",
"s  c #201A5A",
"d  c #201A5B",
"f  c #261C5A",
"g  c #241F5D",
"h  c #231C5B",
"j  c #1F215F",
"k  c #262757",
"l  c #272857",
"z  c #202059",
"x  c #212259",
"c  c #24245A",
"v  c #21225F",
"b  c #25205D",
"n  c #26215E",
"m  c #27225E",
"M  c #26235F",
"N  c #23235D",
"B  c #29245E",
"V  c #28255F",
"C  c #29265F",
"Z  c #29235D",
"A  c #282858",
"S  c #2B2B5C",
"D  c #2B2C5C",
"F  c #2D2D5D",
"G  c #2D2E5D",
"H  c #292A5C",
"J  c #30305E",
"K  c #31315E",
"L  c #31325F",
"P  c #212360",
"I  c #222361",
"U  c #232361",
"Y  c #232461",
"T  c #252460",
"R  c #242560",
"E  c #252461",
"W  c #262460",
"Q  c #252661",
"!  c #262661",
"~  c #272661",
"^  c #262761",
"/  c #262762",
"(  c #272762",
")  c #242561",
"_  c #282660",
"`  c #292761",
"'  c #282762",
"]  c #292660",
"[  c #272862",
"{  c #272861",
"}  c #2A2961",
"|  c #2B2961",
" . c #282862",
".. c #282962",
"X. c #292962",
"o. c #2B2A62",
"O. c #2B2B62",
"+. c #2A2A63",
"@. c #2B2A63",
"#. c #2A2B63",
"$. c #2B2B63",
"%. c #2C2B62",
"&. c #2C2B63",
"*. c #2B2C63",
"=. c #2C2C63",
"-. c #2C2D63",
";. c #2D2D63",
":. c #2B2B64",
">. c #2D2D64",
",. c #2D2E64",
"<. c #2E2E64",
"1. c #2F2E64",
"2. c #2F2F64",
"3. c #2B2B63",
"4. c #2F3066",
"5. c #2F3065",
"6. c #303064",
"7. c #313164",
"8. c #303065",
"9. c #313165",
"0. c #323265",
"q. c #333365",
"w. c #343567",
"e. c #353567",
"r. c #353667",
"t. c #363767",
"y. c #343465",
"u. c #383867",
"i. c #393967",
"p. c #3A3A67",
"a. c #393966",
"s. c #373768",
"d. c #373768",
"f. c #383868",
"g. c #393968",
"h. c #3B3B68",
"j. c #3A3A69",
"k. c #3B3A69",
"l. c #3B3B69",
"z. c #3B3C68",
"x. c #3C3C68",
"c. c #3C3C69",
"v. c #3B3B69",
/* pixels */
"2 2 2 < @ @ = 2 2 6 A A A k 6 2 2 2 2 2 2 2 # @ = 2 2 6 A A A l ",
"$.$.^ 6 % # 6 $.7.u.x.x.x.k.7.$.$.$.$.$.$.^ < # 6 $.7.u.x.x.x.z.",
"=.$.6 5 % X < Y e.u.>.>.>.>.>.=.=.=.=.*.^ 6 % X , U e.k.>.>.>.>.",
"` 6 5 : O . + 4 $.>.$.$.{ $.$.$.=.$.$.` 6 5 # . + 4 ^ >.$.$.{ $.",
"p 7 7 : O . O 1 M $.^ 6 4 4 p V &.^ 6 p 7 7 # . O > M $.^ 6 4 4 ",
"7 7 0 : O . O > p 6 5 1 1 1 e r f p 7 7 7 0 # . O > p 6 6 1 1 1 ",
"7 7 > + O . + > 7 5 1 0 e : % 1 7 7 7 7 e > O . O > 8 5 1 7 e : ",
"0 > + + O . O : 1 0 1 : : + O $ : > 7 e > + O . O : 1 0 e : : + ",
"% O O . . . . O # % # O O O O O O + % % O . . . . O # % % O O O ",
"o # # # # # o o o o o o o o @ . . o o # # # # # # o o o o o o o ",
"x S J J J G c 6 6 6 6 6 6 6 < @ # 6 x c G J J J D x 6 6 6 6 6 6 ",
"k.k.k.k.k.k.7.>.>.>.>.>.:.U 5 # # U 4.k.x.k.k.k.s.7.>.>.=.>.>.$.",
"e.7.$.$.$.$.&.=.=.=.$.$.b 5 : X @ < ^ e.7.$.$.$.$.&.=.=.=.=.$.6 ",
"^ =.{ ^ Y ^ V $.=.$.M M 5 1 $ . . + 5 $.=.^ ^ Y ^ V $.*.` M g 5 ",
"M { 6 5 4 5 7 n V b 5 7 7 e $ . . $ 7 ^ ^ 6 5 4 5 p n ` d 5 7 7 ",
"5 4 5 7 e 1 e 7 7 7 7 7 7 1 + . . $ 1 6 6 5 7 e 1 e 7 7 7 7 7 e ",
"7 7 7 7 > + + > e e 7 7 1 $ O . . + e 7 7 e e : + $ 1 7 7 7 e > ",
"1 7 > + + O O + + : 7 1 $ O O . . O $ e e : + + O O + $ > 7 > + ",
"X X O . . . . . . O X X . . . . . . . X X O . . . . . . O X X . ",
"= = = = # @ @ # = = = 3 3 3 3 2 = = = = = = = * @ @ # = = - 3 3 ",
"S S $.M 6 # # 3 { $.y.u.u.u.u.y.$.S C S S $.M 6 < # 2 { =.e.u.u.",
">.>.$.U 5 % + < U 7.k.e.7.7.7.7.>.>.>.>.>.*.Y 6 : X , Y e.x.7.7.",
"$.$.b 5 > + O + 4 ^ 7.=.$.$.$.$.$.=.=.$.$.b 5 1 # O + 4 { 7.$.$.",
"j f 8 7 : O . O : h $.$.b 6 6 d n $.$.b h p 7 > O . O : g $.$.j ",
"5 7 7 0 : O . O > p b 6 5 5 5 1 0 f f 5 7 7 0 > O . O > p j 6 5 ",
"7 7 7 1 $ O . O > 7 5 5 7 7 1 > > 7 7 7 7 7 1 : O . O : 7 5 5 7 ",
"e 0 1 $ + O . O : 1 7 7 > > $ O + > > e 0 1 % + O . O : e 7 e > ",
"& > # O O . . O O # > & # O O O O O O % > $ O O . . . O $ > % O ",
"X o o o o @ . . @ @ X X @ @ . . . @ @ X o o o o @ . . @ @ X X @ ",
"3 c A D D A 6 3 3 3 3 3 3 3 < @ # 3 3 6 c A A D c 6 3 3 3 3 3 3 ",
"u.x.x.x.x.k.7.=.>.>.>.>.*.^ 5 # # Y 4.k.x.x.x.x.k.>.>.>.>.>.>.$.",
"k.7.=.=.=.=.=.=.*.*.*.$.Y 5 > X @ 4 $.k.7.=.=.=.=.=.=.=.=.=.$.b ",
"$.=.$.^ ^ ^ ` &.=.$.` M 5 1 $ . O ; 6 $.=.$.^ ^ ^ $.$.*.$.` M 5 ",
"M $.b 4 4 5 p n $.b 5 7 7 e $ . . $ 8 ` $.6 6 4 5 f V $.d 5 7 7 ",
"6 4 5 7 7 1 e 0 r 7 7 7 7 e $ . . $ 1 6 4 5 7 7 e 7 0 f 7 7 7 7 ",
"7 1 7 7 > $ $ > 7 7 7 7 e % O . . $ e 7 1 7 7 > $ % 1 7 7 7 7 1 ",
"e 0 > % + + O + % > 0 e % + O . . + : e 7 > % + O + $ : > 0 1 $ ",
"# % X . . . O . . X # X O . . . . . O X # O . O O . . O X # X . ",
"# # # # # @ . o # # - - - - = # # # # # # # # @ . o # # = - - - ",
"N b M b 6 # # 3 M G y.y.y.y.=.M M M M b M b 6 # # 2 M S =.y.y.y.",
">.>.>.^ 6 % # 6 e.x.k.e.s.s.7.>.>.>.>.>.>.^ 6 : # 2 { s.x.e.e.s.",
"$.$.b 5 1 # . < $.7.=.$.$.$.$.&.=.=.$.$.Y 5 1 # O @ 6 =.e.$.$.$.",
"b M 5 7 : O . # d $.$.Y b U M V &.$.U M 5 7 > O . O : b $.$.U b ",
"5 7 e 7 : O . % f ^ b 6 5 5 1 f n M 5 7 7 0 > O . O > h Y b 5 5 ",
"7 7 7 e : O . % 8 5 5 7 7 1 > 1 7 7 7 7 7 e : O . O > 5 5 5 7 7 ",
"7 7 e % + O . % e 7 7 e 1 % O $ 1 1 e 7 e : + O . O : e 7 e 1 > ",
"1 e % O O O . O % 1 1 + O O O O O + > e % O O O . O + % e > + O ",
"O @ . . . .   . . X . . . . . . . . . . . . . .   . . . X . . . "
};
