/* XPM */
static char *c72eedb462114f79ed8b9c0c724b0966pOhmRifSvPEYdJnO[] = {
/* columns rows colors chars-per-pixel */
"32 48 174 2 ",
"   c #00003F",
".  c #030144",
"X  c #090546",
"o  c #0A0946",
"O  c #060248",
"+  c #0B034B",
"@  c #070849",
"#  c #0D0C4A",
"$  c #11064E",
"%  c #130A4D",
"&  c #190D4F",
"*  c #0F104D",
"=  c #13134D",
"-  c #18174E",
";  c #0D0850",
":  c #150B51",
">  c #1A0D52",
",  c #0E1252",
"<  c #141453",
"1  c #1E1255",
"2  c #171852",
"3  c #1B1B54",
"4  c #161559",
"5  c #1C1659",
"6  c #1D1C5B",
"7  c #141A5C",
"8  c #221455",
"9  c #241857",
"0  c #211758",
"q  c #231B5A",
"w  c #1F215F",
"e  c #262757",
"r  c #272857",
"t  c #212159",
"y  c #24245A",
"u  c #26225E",
"i  c #23235D",
"p  c #29255F",
"a  c #29235E",
"s  c #282858",
"d  c #2A2B5C",
"f  c #31315E",
"g  c #1F1E60",
"h  c #152867",
"j  c #1D2860",
"k  c #182F6F",
"l  c #1F366F",
"z  c #0F2F74",
"x  c #142B73",
"c  c #113477",
"v  c #193F71",
"b  c #1B3575",
"n  c #222361",
"m  c #232461",
"M  c #252460",
"N  c #262661",
"B  c #242461",
"V  c #282761",
"C  c #292660",
"Z  c #272862",
"A  c #272862",
"S  c #282962",
"D  c #2B2B63",
"F  c #2B2B62",
"G  c #2B2961",
"H  c #2C2B63",
"J  c #2B2C63",
"K  c #2C2C63",
"L  c #2D2D63",
"P  c #2F2F64",
"I  c #2D2D64",
"U  c #2B2B63",
"Y  c #2D3066",
"T  c #24346F",
"R  c #2D346B",
"E  c #303064",
"W  c #333365",
"Q  c #353667",
"!  c #343465",
"~  c #393967",
"^  c #393966",
"/  c #363668",
"(  c #3B3B69",
")  c #393968",
"_  c #3C3C68",
"`  c #3B3B69",
"'  c #2B3673",
"]  c #273C7B",
"[  c #243775",
"{  c #31447A",
"}  c #314B7D",
"|  c #45457A",
" . c #1D4D83",
".. c #1F5F8E",
"X. c #2C4B82",
"o. c #354883",
"O. c #2D598D",
"+. c #2C5384",
"@. c #335789",
"#. c #285C98",
"$. c #315990",
"%. c #2B618F",
"&. c #2A639C",
"*. c #2A6F98",
"=. c #2A6D96",
"-. c #346A9E",
";. c #376496",
":. c #25739E",
">. c #3A739B",
",. c #2975A0",
"<. c #287FAF",
"1. c #2C75AF",
"2. c #3E7BA8",
"3. c #4E7AA0",
"4. c #3786BE",
"5. c #3A84BB",
"6. c #2F98BE",
"7. c #4486B0",
"8. c #5B89B3",
"9. c #4697BB",
"0. c #6987AE",
"q. c #6F8DB0",
"w. c #2F8FC0",
"e. c #3798C3",
"r. c #2DA5C5",
"t. c #33B2CF",
"y. c #33B9D7",
"u. c #37A8C9",
"i. c #4F9CC2",
"p. c #579FC4",
"a. c #52A0C3",
"s. c #46B8DF",
"d. c #56BDDB",
"f. c #70A9C5",
"g. c #78ACCF",
"h. c #68B0CB",
"j. c #67B0D4",
"k. c #6EBDD3",
"l. c #72B9D4",
"z. c #7BBDE1",
"x. c #3BC8E4",
"c. c #36D1E9",
"v. c #57C0DB",
"b. c #6CC3D6",
"n. c #7CCCDE",
"m. c #59CAE2",
"M. c #7AC0E5",
"N. c #7FD6E8",
"B. c #7AD2E4",
"V. c #87BED9",
"C. c #81C8DE",
"Z. c #83C2DF",
"A. c #8BCEE6",
"S. c #9FCEE5",
"D. c #89DBE7",
"F. c #86DDED",
"G. c #AED9E9",
"H. c #81E3EE",
"J. c #92E4ED",
"K. c #9DF0F6",
"L. c #ADE9EE",
"P. c #A5EDF3",
"I. c #BBEAF2",
"U. c #B2F5F7",
"Y. c #D0E5EE",
"T. c #C0E6F1",
"R. c #CEF5F7",
"E. c #C8FAF9",
"W. c #D5F7FB",
"Q. c #DFFAFA",
"!. c #E2FCFC",
"~. c #ECFBFB",
"^. c #F5FCFB",
"/. c #FCFEFD",
/* pixels */
"2 2 2 < @ @ = 2 2 6 s s s e 6 2 2 2 2 2 2 2 # @ = 2 2 6 s s s r ",
"D D N 6 % # 6 D E ( _ _ _ ( E D D D D D D N < # 6 D E ~ _ _ _ _ ",
"K D 6 5 % X < B Q ~ I I I I I K K K K J N 6 % X , m Q ( I I I I ",
"V 6 5 : O . + 4 D I D D Z D D D K D D V 6 5 # . + 4 N I D D Z D ",
"9 8 8 : O . O 1 u D N 6 7 7 9 p H N 6 9 8 8 # . O > u D N 6 7 7 ",
"8 8 8 : O . O > 9 6 5 1 1 1 8 9 q 9 8 8 8 8 # . O > 9 6 6 1 1 1 ",
"8 8 > + O . + > 8 5 1 8 8 : % 1 8 8 8 8 8 > O . O > 8 5 1 8 8 : ",
"8 > + + O . O : 1 8 1 : : + O $ : > 8 8 > + O . O : 1 8 8 : : + ",
"% O O . . . . O # % # O O O O O O + % % O . . . . O # % % O O O ",
"o # # # # # o o o o o o o o @ . . o o # # # # # # o o o o o o o ",
"t d f f f d y 6 6 6 6 6 6 6 < @ # 6 t y d f f f d t 6 6 6 6 6 6 ",
"( ( ( ( ( ( E I I I I I D m 5 # # m Y ( _ ( ( ( / E I I K I I D ",
"Q E D D D D H K K K D D i 5 : X @ < N Q E J R D D H K K K K D 6 ",
"N K Z N B N p D K D N u 5 1 $ . . + 5 D R O.-.A N p D J V u q 5 ",
"u Z 6 5 4 5 8 u V q 5 8 8 8 $ . . $ 8 ' w.e.[ 4 5 9 u V q 5 8 8 ",
"5 7 5 8 8 1 8 8 8 8 8 8 8 1 + . . $ T p.j.[ 8 8 1 8 8 8 8 8 8 8 ",
"8 8 8 8 > + + > 8 8 8 8 1 : x z c o.f.h.| X.O.> + $ 1 8 8 8 8 > ",
"1 8 > + + O O + + : 8 1 b <.s.M.z.G.P.2.8 r.y.4 O O + $ > 8 > + ",
"X X O . . . . . . O # %.b.J.U.~.^.^.I.C.>.:...@ . . . . O X X . ",
"= = = = # @ @ # = = +.F.!././.^.^.^.^.~.P.2.= * @ @ # = = - 3 3 ",
"d d D i 6 # # 3 Z Y i.W.^./././././.^./.~.l.T 6 < # 2 Z K Q ~ ~ ",
"I I D m 5 % + < m $.m.Q././././././.^.^.^.H.1.g : X , B Q _ E E ",
"D D i 5 > + O + 4 &.A.^./././././././././.I.4.6 # O + 4 Z E D D ",
"i q 0 8 : O . O : #.S././././././././././.Y.5.5 O . O : q D D w ",
"5 8 8 8 : O . O > #.A.^./././././././././.T.5.5 O . O > 9 w 6 5 ",
"8 8 8 1 $ O . O > ] v.!./././././././.^.^.H.&.: O . O : 8 5 5 8 ",
"8 8 1 $ + O . O : 1 9.W./.^.^./././.^.^.~.k.7 + O . O : 8 8 8 > ",
"& > # O O . . @  .,.-.n.R.^.^././././.Q.J.;.O O . . . O $ > % O ",
"X o o o o @ . , t.c.:.v h.L.~.^.^.E.K.B.=.# o o @ . . @ @ X X @ ",
"3 y s d d s 6 j u.x.*.l a.D.G.V.Z.d.6.O.d s s d y 6 3 3 3 3 3 3 ",
"~ _ _ _ _ ( E I } @.{ 9.N.8.{ h k ] R ( _ _ _ _ ( I I I I I I D ",
"( E K K K K K K K W 3.m.q.m > X @ 4 D ( E K K K K K K K K K D i ",
"D K D N N N V H R 0.g.@.6 1 $ . O ; 6 D K D N N N D D J D V u 5 ",
"i D i 7 7 5 9 u ;.7.' 0 8 8 $ . . $ 0 V D 6 6 7 5 9 p D q 5 8 8 ",
"6 7 5 8 8 1 8 9 ' A 8 8 8 8 $ . . $ 1 7 7 5 8 8 8 8 8 9 8 8 8 8 ",
"8 1 8 8 > $ $ > 8 8 8 8 8 % O . . $ 8 8 1 8 8 > $ % 1 8 8 8 8 1 ",
"8 8 > % + + O + % > 8 8 % + O . . + : 8 8 > % + O + $ : > 8 1 $ ",
"# % X . . . O . . X # X O . . . . . O # # O . O O . . O X # X . ",
"# # # # # @ . o # # - - - - = # # # # # # # # @ . o # # = - - - ",
"i i i i 6 # # 3 i d ! ! ! ! K i i i i i i i 6 # # 2 i d K ! ! ! ",
"I I I N 6 % + 6 Q _ ( Q / / E I I I I I I N 6 : # 2 Z / _ Q Q / ",
"D D i 5 1 # . : D E K D D D D H K K D D B 5 1 # O @ 6 K Q D D D ",
"i u 5 8 : O . # q D D B i m u p H D m u 5 8 > O . O : i D D m i ",
"5 8 8 8 : O . % 9 N i 6 5 5 1 9 u u 5 8 8 8 > O . O > q B i 5 5 ",
"8 8 8 8 : O . % 0 5 5 8 8 1 > 1 8 8 8 8 8 8 : O . O > 5 5 5 8 8 ",
"8 8 8 % + O . % 8 8 8 8 1 % O $ 1 1 8 8 8 : + O . O : 8 8 8 1 > ",
"1 8 % O O O . O % 1 1 + O O O O O + > 8 % O O O . O + % 8 > + O ",
"O @ . . . .   . . X . . . . . . . . . X . . . .   . . . X . . . "
};
