/* XPM */
static char *b6573ef106eb43199ddb78551781bdc49iAheuimmXIeQnBP[] = {
/* columns rows colors chars-per-pixel */
"32 48 186 2 ",
"   c #00003F",
".  c #030144",
"X  c #090546",
"o  c #0A0947",
"O  c #070249",
"+  c #0B034B",
"@  c #060A4B",
"#  c #0D0C4A",
"$  c #11064E",
"%  c #130A4D",
"&  c #190D4F",
"*  c #13134D",
"=  c #18174E",
"-  c #080E54",
";  c #150A51",
":  c #1A0D52",
">  c #0C1153",
",  c #0D1D5A",
"<  c #141553",
"1  c #1E1255",
"2  c #171852",
"3  c #1B1B54",
"4  c #171559",
"5  c #1C1659",
"6  c #1C1C5B",
"7  c #141D5D",
"8  c #221456",
"9  c #241456",
"0  c #221455",
"q  c #241857",
"w  c #201758",
"e  c #221959",
"r  c #231C5B",
"t  c #1F215F",
"y  c #262757",
"u  c #272857",
"i  c #212159",
"p  c #24245A",
"a  c #24235D",
"s  c #29255F",
"d  c #29235E",
"f  c #282858",
"g  c #2A2B5C",
"h  c #31315E",
"j  c #0F2566",
"k  c #172667",
"l  c #182661",
"z  c #142B64",
"x  c #192468",
"c  c #1D2968",
"v  c #183069",
"b  c #19387E",
"n  c #153577",
"m  c #222361",
"M  c #232461",
"N  c #252560",
"B  c #262661",
"V  c #242561",
"C  c #282761",
"Z  c #292661",
"A  c #272862",
"S  c #272865",
"D  c #272862",
"F  c #282962",
"G  c #2B2B63",
"H  c #2B2B62",
"J  c #2B2961",
"K  c #2C2B63",
"L  c #2B2C63",
"P  c #2C2C63",
"I  c #2D2D63",
"U  c #2F2F64",
"Y  c #2D2D64",
"T  c #2B2B63",
"R  c #202F69",
"E  c #2C2D69",
"W  c #2E3066",
"Q  c #203069",
"!  c #2D356C",
"~  c #303064",
"^  c #333365",
"/  c #353667",
"(  c #343465",
")  c #393967",
"_  c #393966",
"`  c #373768",
"'  c #3B3B69",
"]  c #393968",
"[  c #3C3C68",
"{  c #3B3B69",
"}  c #202F70",
"|  c #223574",
" . c #263F79",
".. c #283D79",
"X. c #333570",
"o. c #1E457D",
"O. c #2C447C",
"+. c #204C7E",
"@. c #324578",
"#. c #4B4579",
"$. c #274C8B",
"%. c #2D4684",
"&. c #315286",
"*. c #2A5B91",
"=. c #2D5A9B",
"-. c #1F6399",
";. c #296796",
":. c #3A6797",
">. c #346F98",
",. c #386B92",
"<. c #32709E",
"1. c #2C6DA0",
"2. c #2878A2",
"3. c #2C78A9",
"4. c #377DA8",
"5. c #57628E",
"6. c #5E6795",
"7. c #388AAE",
"8. c #3C84AB",
"9. c #308AB5",
"0. c #468BB2",
"q. c #4A86B0",
"w. c #5A99BB",
"e. c #5586AA",
"r. c #6F83A8",
"t. c #7D86AC",
"y. c #7B81A7",
"u. c #6190AF",
"i. c #6F96B4",
"p. c #7E93B4",
"a. c #328EC0",
"s. c #35A0C7",
"d. c #3CA6CB",
"f. c #39ACD3",
"g. c #34B5D5",
"h. c #4FAAC7",
"j. c #4DA2C3",
"k. c #53A6C3",
"l. c #60ABC7",
"z. c #68A6CA",
"x. c #7CADCA",
"c. c #62B1CE",
"v. c #7FB1CC",
"b. c #74BFDC",
"n. c #75BFE8",
"m. c #32CAE2",
"M. c #31D7EC",
"N. c #67CEDE",
"B. c #6FC1DC",
"V. c #7BC0DE",
"C. c #5CD1E8",
"Z. c #70C1E7",
"A. c #7EC0E6",
"S. c #74CDE0",
"D. c #7FDAE8",
"F. c #7BD3E7",
"G. c #868FAF",
"H. c #829CBA",
"J. c #81ADCA",
"K. c #9AA8C2",
"L. c #8FB4CD",
"P. c #85C1DE",
"I. c #99CEDD",
"U. c #94CEDB",
"Y. c #95D1DF",
"T. c #B1C6D8",
"R. c #8BC7E0",
"E. c #87DCE8",
"W. c #8BDBEA",
"Q. c #98DCEE",
"!. c #A0D4E8",
"~. c #8AE2EC",
"^. c #99E1EE",
"/. c #AEEBF1",
"(. c #B0ECF3",
"). c #A4F1F5",
"_. c #ACF5F7",
"`. c #B9F4F9",
"'. c #C5F5F6",
"]. c #C5F7F9",
"[. c #CCF9F7",
"{. c #D9FBFC",
"}. c #E5FAFB",
"|. c #EAFCFC",
" X c #F4FDFB",
".X c #FCFEFE",
/* pixels */
"2 2 2 < @ X * 2 2 6 f f f y 6 2 2 2 2 2 2 2 # X * 2 2 6 f f f u ",
"G G B 6 % # 6 G ~ ) [ [ [ ' ~ G G G G G G B < # 6 G ~ ) [ [ [ [ ",
"P G 6 5 % X < M / ) Y Y Y Y Y P P P P L B 6 % X > M / ' Y Y Y Y ",
"C 6 5 ; O . + 4 G Y G G D G G G P G G C 6 5 # . + 4 B Y G G D G ",
"e 8 8 ; O . O 1 a G B 6 4 4 e s K B 6 e 8 8 # . O : a G B 6 4 4 ",
"8 8 9 ; O . O : e 6 5 1 1 1 0 q r e 8 8 8 9 # . O : e 6 6 1 1 1 ",
"8 8 : + O . + : 8 5 1 9 0 ; % 1 8 8 8 8 0 : O . O : w 5 1 8 0 ; ",
"9 : + + O . O ; 1 9 1 ; ; + O $ ; : 8 0 : + O . O ; 1 9 0 ; ; + ",
"% O O . . . . O # % # O O O O O O + % % O . . . . O # % % O O O ",
"o # # # # # o o o o o o o o X . . o o # # # # # # o o o o o o o ",
"i g h h h g p 6 6 6 6 6 6 6 < o # 6 i p g h h h g i 6 6 6 6 6 6 ",
"' ' ' ' ' ' ~ Y Y Y Y Y G M 5 # # M W ' [ ' ' ' ` ~ Y Y P Y Y G ",
"/ ~ G G G G K P P P G G a 5 ; X X < B / ~ G G G G K P P P P G 6 ",
"B P D B M B s G P G S S 5 1 $ . . + 5 G P B B M B s G L C a r 5 ",
"a D 6 5 4 5 8 d C a Q =.q 0 $ . . $ 8 B B 6 5 4 5 e d C r 5 9 8 ",
"5 4 5 8 0 1 0 8 8 8  .a.r 1 + . . $ 1 6 6 5 8 0 1 0 8 8 8 8 8 0 ",
"8 8 8 8 : + + : 0 0 @.k.| b n n j + 0 8 8 0 0 ; + $ 1 8 8 8 0 : ",
"1 8 : + + O O + + ; #.I.d.Z.A.n.f.-.x 0 0 c 2.o.O O + $ : 8 : + ",
"X X O . . . . . . , u.'.).}. X}.).W.c.+.&.x.~.e.. . . . O X X . ",
"* * * * # X X # l j.`..X.X.X.X.X.X.X{.S.!.T.K.G.@ X # * * = 3 3 ",
"g g G p 6 # # 3 1.W. X.X.X.X.X.X.X.X.X'.Y.5.y.L.7 # 2 D P / ) ) ",
"Y Y G M 5 % + 7 s.)..X.X.X.X.X.X.X.X.X_.g.O.r.~.| X > M / [ ~ ~ ",
"G G a 5 : + O > z.}..X.X.X.X.X.X.X.X.X|.B.$.8.D.E O + 4 D ~ G G ",
"a r w 8 ; O . - z. X.X.X.X.X.X.X.X.X.X XV.$.O.J.C . O ; r G G t ",
"5 8 8 9 ; O . > x. X.X.X.X.X.X.X.X.X.X XR.%.9 t.C . O : e t 6 5 ",
"8 8 0 1 $ O . 6 I.]..X.X.X.X.X.X.X.X.X[./.6.1 t.S . O ; 8 5 5 8 ",
"0 9 1 $ + O @ 4.F.E. X.X.X.X.X.X.X.X X^.C.v.X.H.0.@ O ; 0 8 0 : ",
"& : # O O . @ h.:.q.(. X.X.X.X.X.X.X`.w.*.w.p.U.N., . O $ : % O ",
"X o o o o X v L.p > 0.Q._.}. X|._.Q.k.z o # * ,.i.< . X X X X X ",
"3 p f f g f 9.l.G 3 Q 3.d.b.P.V.d.3.R 6 p f f g f 6 3 3 3 3 3 3 ",
") [ [ [ [ ' 7.>.Y Y Y Y ! ..| n ;.;.@.' [ [ [ [ ' Y Y Y Y Y Y G ",
"' ~ P P P P ! W P P P G M 5 : z m.M.<.' ~ P P P P P P P P P G a ",
"G P G B B B C K P G C a 5 1 $ j g.m.*.G P G B B B G G L G C a 5 ",
"p G a 4 4 5 e d G a 5 8 8 0 $ O , k M C G 6 6 4 5 q s G r 5 8 8 ",
"6 4 5 8 8 1 0 8 q 8 8 8 8 0 $ . . $ 1 4 4 5 8 8 0 8 9 q 8 8 8 8 ",
"8 1 8 8 : $ $ : 8 8 8 8 0 % O . . $ 0 8 1 8 8 : $ % 1 8 8 8 8 1 ",
"0 9 : % + + O + % : 9 0 % + O . . + ; 0 8 : % + O + $ ; : 8 1 $ ",
"# % X . . O O . . X # X O . . . . . O # # O . O O . . O X # X . ",
"# # # # # X . o # # = = = = * # # # # # # # # X X o # # # = = = ",
"a a p a 6 # # 3 p g ( ( ( ( P p p p p a p a 6 # # 2 p g P ( ( ( ",
"Y Y Y B 6 % + 6 / [ ' / ` ` ~ Y Y Y Y Y Y B 6 ; # 2 D ` [ / / ` ",
"G G a 5 1 # . < G ~ P G G G G K P P G G M 5 1 # O @ 6 P / G G G ",
"a a 5 8 ; O . # r G G M a M a s K G M a 5 8 : O . O ; a G G M t ",
"5 8 8 8 ; O . % q B a 6 5 5 1 q d a 5 8 8 9 : O . O : r M a 5 5 ",
"8 8 8 0 ; O . % w 5 5 8 8 1 : 1 8 8 8 8 8 1 ; O . O : 5 5 5 8 8 ",
"8 8 0 % + O . # 0 8 8 0 1 % O $ 1 1 0 8 0 ; + O . O ; 0 8 0 1 : ",
"1 0 % O O O . O % 1 1 + O O O O O + : 0 % O O O . O + % 0 : + O ",
"O X . . . .   . X X X . . . . . . . X . . . . .   . . X X X . . "
};
