/* XPM */
static char *_54d8885ca8b497d9ed575a685ac4a9a0tqoWYBYAuDPtipJ[] = {
/* columns rows colors chars-per-pixel */
"32 48 192 2 ",
"   c #00003F",
".  c #030144",
"X  c #090546",
"o  c #0A0947",
"O  c #060249",
"+  c #0B034B",
"@  c #070849",
"#  c #0D0C4A",
"$  c #11074E",
"%  c #130A4D",
"&  c #190D4F",
"*  c #0F104D",
"=  c #13134D",
"-  c #18174E",
";  c #090D51",
":  c #150B51",
">  c #1A0D52",
",  c #0C1253",
"<  c #0B1857",
"1  c #0C165C",
"2  c #141453",
"3  c #1E1255",
"4  c #171852",
"5  c #1A1B54",
"6  c #161559",
"7  c #1B1659",
"8  c #1D1C5B",
"9  c #171A5E",
"0  c #221455",
"q  c #241857",
"w  c #201758",
"e  c #231B5B",
"r  c #1F215F",
"t  c #262757",
"y  c #272857",
"u  c #23235D",
"i  c #29235E",
"p  c #2A2A5B",
"a  c #31315E",
"s  c #182366",
"d  c #1B2A66",
"f  c #112768",
"g  c #1A296D",
"h  c #1B346B",
"j  c #193A79",
"k  c #222361",
"l  c #232461",
"z  c #252560",
"x  c #262661",
"c  c #232461",
"v  c #282761",
"b  c #292660",
"n  c #272862",
"m  c #272861",
"M  c #282962",
"N  c #2B2B63",
"B  c #2B2B62",
"V  c #2B2961",
"C  c #2C2B63",
"Z  c #2B2C63",
"A  c #2C2C63",
"S  c #2D2D63",
"D  c #2F2F64",
"F  c #2D2D64",
"G  c #2B2B63",
"H  c #212D6B",
"J  c #2E3165",
"K  c #2B326A",
"L  c #313165",
"P  c #353567",
"I  c #343465",
"U  c #393967",
"Y  c #393966",
"T  c #373768",
"R  c #3B3B69",
"E  c #393968",
"W  c #3C3C68",
"Q  c #3B3B69",
"!  c #313A6C",
"~  c #243C71",
"^  c #3A3E73",
"/  c #323C70",
"(  c #18407F",
")  c #214176",
"_  c #28457E",
"`  c #34447D",
"'  c #40406D",
"]  c #424479",
"[  c #274987",
"{  c #374C82",
"}  c #3B5987",
"|  c #235B9C",
" . c #235192",
".. c #31608E",
"X. c #39638F",
"o. c #396B9A",
"O. c #386392",
"+. c #3D729B",
"@. c #266598",
"#. c #357AA3",
"$. c #307AB2",
"%. c #2766A4",
"&. c #464D84",
"*. c #495885",
"=. c #49588A",
"-. c #495585",
";. c #595D89",
":. c #535F8A",
">. c #406B97",
",. c #536993",
"<. c #546092",
"1. c #49749D",
"2. c #537399",
"3. c #4474A3",
"4. c #637EA5",
"5. c #3586AD",
"6. c #328AB8",
"7. c #4F84AF",
"8. c #5784AA",
"9. c #4089B7",
"0. c #5493BC",
"q. c #519DBC",
"w. c #4694B6",
"e. c #6C83AD",
"r. c #7588A7",
"t. c #7689AD",
"y. c #6A8CB2",
"u. c #6C90B1",
"i. c #7698B7",
"p. c #789CB8",
"a. c #7A9CB7",
"s. c #53A0BD",
"d. c #4398C0",
"f. c #489DC1",
"g. c #509BCE",
"h. c #5B9AC2",
"j. c #50A8C6",
"k. c #5BACCC",
"l. c #55AECB",
"z. c #4FB3CB",
"x. c #64A9C4",
"c. c #62A5CA",
"v. c #7DACC9",
"b. c #7EB5C9",
"n. c #67B7D2",
"m. c #6DBDD7",
"M. c #6FBBDA",
"N. c #69C4DD",
"B. c #79C9DB",
"V. c #5FD0EC",
"C. c #75CBE6",
"Z. c #74D8EA",
"A. c #76E8ED",
"S. c #73E4F3",
"D. c #818CB1",
"F. c #8D93B3",
"G. c #8A98B9",
"H. c #83A5C2",
"J. c #98A6C1",
"K. c #96B1CA",
"L. c #80BBD7",
"P. c #8EBED7",
"I. c #8DC8DF",
"U. c #88C4D6",
"Y. c #9CCCDE",
"T. c #96C3D4",
"R. c #ADC8DC",
"E. c #9BD8E9",
"W. c #A6D6EE",
"Q. c #ACD8E6",
"!. c #B3D8E7",
"~. c #99E4EF",
"^. c #94ECF4",
"/. c #A9E6EE",
"(. c #BDE5ED",
"). c #A3EEF6",
"_. c #B7E5F0",
"`. c #A8F0F8",
"'. c #BDF2F6",
"]. c #CFE6ED",
"[. c #CDE9F0",
"{. c #C5F5F7",
"}. c #CBF5F6",
"|. c #D2F7F8",
" X c #DDF7F9",
".X c #E3EFF2",
"XX c #E3F5F6",
"oX c #E5FBF9",
"OX c #EDFAFA",
"+X c #F4FDFC",
"@X c #FCFEFE",
"#X c #F0F5F9",
/* pixels */
"4 4 4 2 @ @ = 4 4 8 y y y t 8 4 4 4 4 4 4 4 # @ = 4 4 8 y y y y ",
"N N x 8 % # 8 N L U W W W R L N N N N N N x 2 # 8 N L U W W W W ",
"A N 8 7 % X 2 l P U F F F F F A A A A Z x 8 % X , l P R F F F F ",
"v 8 7 : O . + 6 N F N N m N N N A N N v 8 7 # . + 6 x F N N m N ",
"q 0 0 : O . O 3 i N x 8 9 9 q i C x 8 q 0 0 # . O > i N x 8 9 9 ",
"0 0 0 : O . O > q 8 7 3 3 3 0 q e q 0 0 0 0 # . O > q 8 8 3 3 3 ",
"0 0 > + O . + > 0 7 3 0 0 : % 3 0 0 0 0 0 > O . O > 0 7 3 0 0 : ",
"0 > + + O . O : 3 0 3 : : + O $ : > 0 0 > + O . O : 3 0 0 : : + ",
"% O O . . . . O # % # O O O O O O + % % O . . . . O # % % O O O ",
"o # # # # # o o o o o o o o @ . . o o # # # # # # o o o o o o o ",
"u p a a a p u 8 8 8 8 8 8 8 2 @ # 8 u u p a a a p u 8 8 8 8 8 8 ",
"R R R R R R L F F F F F N l 7 # # l J R W R R R T L F F A F A N ",
"P L N N N N C A A A N N u 7 : # o.e.D.a.*.N N N N C A A A A N 8 ",
"x A m x l x i N A N x i 7 3 $ d L.<.&.x.v.N x l x i N Z v i e 7 ",
"i m 8 7 6 7 0 i i e 7 0 0 0 6 8.4.$ 0 ^ G.l 7 6 7 q i v e 7 0 0 ",
"7 9 7 0 0 3 0 0 0 0 0 0 0 3 { T.K $ 3 ` H.e 0 0 3 0 0 0 0 0 0 0 ",
"0 0 0 0 > + + > 0 0 0 0 3 9 n.K.# + 0 w.j.e 0 : + $ 3 0 0 0 0 > ",
"3 0 > + + O O + + : 0 3 : o.E.g.| | | P.,.: + + O O + $ > 0 > + ",
"X X O . . . . . . O X X # b.A.V.W.Q.!.[.8.< . . . . . . O X X . ",
"= = = = # @ @ # = = = J F..X}.|.+X@X@X+X_.s.h * @ @ # = = - 5 5 ",
"p p N u 8 # # 5 m N ! 8.XX@X@X@X@X@X@X@X@X'.0.l 2 # 4 m A P U U ",
"F F N l 7 % + 2 l L } N.oX@X@X@X@X@X@X@X@X+XC.[ : X , l P W L L ",
"N N u 7 > + O + 6 x o.(.+X@X@X@X@X@X@X@X@X+X~.7.% O + 6 m L N N ",
"u e w 0 : O . O : e >.].@X@X@X@X@X@X@X@X@X@XOXQ...@ O : e N N r ",
"7 0 0 0 : O . O > q t.#X@X@X@X@X@X@X@X@X@X@X[.M.B.h O > q r 8 7 ",
"0 0 0 3 $ O . O 7 e F.OX+X@X@X@X@X@X@X@X@X+X/.$.u.} O : 0 7 7 0 ",
"0 0 3 $ + O @ 8 5.l.!.^.oX@X@X@X@X@X@X@X@X+XZ.( 1.U.d : 0 0 0 > ",
"& > # O O J +.m.I.9.=.f.{.@X@X@X@X@X@X@X@X Xc.1 H Y.q.; $ > % O ",
"X o o o # :.2.) l , X h k.}.+X+X@X@X@X+X@X}.1.o @ *.E.) @ X X @ ",
"5 u y y p y 8 5 5 5 5 5 ~ k.Z.^. XXX`.S.Z.).r.p u J p.2.5 5 5 5 ",
"U W W W W R L A F F F F Z _ @.6.0.h.d.#.X.z.x.' R A ,.H.^ F F N ",
"R L A A A A A A F F F N l 8 > # ; s K R L ..m.t.L A } Q.;.A N u ",
"N A N x x x v C A N v i 7 3 $ . O  .[ N A N O.v.4.K / R.;.v i 7 ",
"u N u 9 9 7 q i N u 7 0 0 0 $ , , g [ v N 8 9 H 3.y.i.Y.] 7 0 0 ",
"8 9 7 0 0 3 0 0 q 0 0 0 0 0 $ j %.6 3 9 9 7 0 0 b F.J.-.0 0 0 0 ",
"0 3 0 0 > $ $ > 0 0 0 0 0 % O ; f : 0 0 3 0 0 > $ : 0 0 0 0 0 3 ",
"0 0 > % + + O + % > 0 0 % + O . . + : 0 0 > % + O + $ : > 0 3 $ ",
"# % X . . . O . . X # X O . . . . . O # # O . O O . . O X # X . ",
"# # # # # @ . o # # - - - - = # # # # # # # # @ . o # # = - - - ",
"u u u u 8 # # 5 u p I I I I A u u u u u u u 8 # # 4 u p A I I I ",
"F F F x 8 % + 8 P W R P T T L F F F F F F x 8 : # 4 m T W P P T ",
"N N u 7 3 # . : N L A N N N N C A A N N l 7 3 # O @ 8 A P N N N ",
"u i 7 0 : O . # e N N l u l i i C N l i 7 0 > O . O : u N N l u ",
"7 0 0 0 : O . % e x u 8 7 7 3 e i i 7 0 0 0 > O . O > e l u 7 7 ",
"0 0 0 0 : O . % w 7 7 0 0 3 > 3 0 0 0 0 0 0 : O . O > 7 7 7 0 0 ",
"0 0 0 % + O . % 0 0 0 0 3 % O $ 3 3 0 0 0 : + O . O : 0 0 0 3 > ",
"3 0 % O O O . O % 3 3 + O O O O O + > 0 % O O O . O + % 0 > + O ",
"O @ . . . .   . . X . . . . . . . . . X . . . .   . . . X . . . "
};
