/* XPM */
static char *xpm_[] = {
/* columns rows colors chars-per-pixel */
"32 48 164 2 ",
"   c #060606",
".  c #06060A",
"X  c #0C0B0D",
"o  c #0A0714",
"O  c #0C0B15",
"+  c #05031D",
"@  c #08061D",
"#  c #0D0B1B",
"$  c #100D1E",
"%  c #141315",
"&  c #161619",
"*  c #181719",
"=  c #1A1A1C",
"-  c #060423",
";  c #0A0622",
":  c #0E0B22",
">  c #110B25",
",  c #130D2F",
"<  c #131325",
"1  c #1E1E20",
"2  c #15152B",
"3  c #1C1C2A",
"4  c #090337",
"5  c #0F0937",
"6  c #02013F",
"7  c #0B063B",
"8  c #0B0A3E",
"9  c #120B38",
"0  c #180E3B",
"q  c #171733",
"w  c #13103D",
"e  c #191038",
"r  c #201F21",
"t  c #212022",
"y  c #272729",
"u  c #2C2C2E",
"i  c #2D2D30",
"p  c #323234",
"a  c #363639",
"s  c #030142",
"d  c #0A0344",
"f  c #0B0B46",
"g  c #070049",
"h  c #0B034A",
"j  c #070849",
"k  c #0B0C4A",
"l  c #140A43",
"z  c #190E45",
"x  c #130A4D",
"c  c #180E49",
"v  c #151644",
"b  c #1C1146",
"n  c #181944",
"m  c #15144C",
"M  c #1D124B",
"N  c #1B1B4C",
"B  c #160A51",
"V  c #1C0F52",
"C  c #161652",
"Z  c #1E1354",
"A  c #171852",
"S  c #1A1A53",
"D  c #1A165A",
"F  c #1D1D5D",
"G  c #20134C",
"H  c #211E4D",
"J  c #221454",
"K  c #221D53",
"L  c #231959",
"P  c #23224E",
"I  c #282848",
"U  c #252555",
"Y  c #272857",
"T  c #2D2D54",
"R  c #23235C",
"E  c #29295B",
"W  c #303056",
"Q  c #32325C",
"!  c #262761",
"~  c #292761",
"^  c #272862",
"/  c #2C2C63",
"(  c #363661",
")  c #383862",
"_  c #3C3C68",
"`  c #515053",
"'  c #57565A",
"]  c #5B5B5E",
"[  c #5E5E61",
"{  c #616164",
"}  c #666669",
"|  c #6B6B6E",
" . c #6E6E72",
".. c #727275",
"X. c #767679",
"o. c #7C7C7D",
"O. c #868689",
"+. c #8A8A8C",
"@. c #8F8F92",
"#. c #929294",
"$. c #979799",
"%. c #9B9B9D",
"&. c #9F9FA0",
"*. c #A09FA0",
"=. c #A7A6A7",
"-. c #ACABAC",
";. c #AFAFB0",
":. c #B4B4B6",
">. c #B6B6B8",
",. c #BABABB",
"<. c #BEBEC0",
"1. c #C3C3C3",
"2. c #C7C6C8",
"3. c #CCCBCC",
"4. c #D4D4D5",
"5. c #D5D5D6",
"6. c #D2D2D3",
"7. c #D8D8D9",
"8. c #DDDDDD",
"9. c gray87",
"0. c #DDDDDE",
"q. c #DFDFE0",
"w. c #E1E1E1",
"e. c #E2E2E2",
"r. c #E3E3E4",
"t. c #E4E4E4",
"y. c #E5E4E4",
"u. c gray90",
"i. c #E7E7E7",
"p. c #E7E7E7",
"a. c gray91",
"s. c #E8E8E9",
"d. c #E9E9E9",
"f. c #EAEAEA",
"g. c #EBEBEC",
"h. c #ECECEC",
"j. c #ECECED",
"k. c gray93",
"l. c #EEEEEE",
"z. c #EEEEEF",
"x. c #EFEFEF",
"c. c #EFEFF0",
"v. c gray94",
"b. c #F0F0F1",
"n. c #F1F1F1",
"m. c gray95",
"M. c #F3F3F3",
"N. c #F6F6F6",
"B. c gray97",
"V. c #F4F4F4",
"C. c #F7F7F8",
"Z. c #F8F8F8",
"A. c #F8F8F9",
"S. c #F9F9F9",
"D. c #F9F9FA",
"F. c gray98",
"G. c #FBFBFB",
"H. c #FBFBFC",
"J. c gray99",
"K. c #FCFCFD",
"L. c #FDFDFD",
"P. c #FEFEFE",
"I. c white",
"U. c white",
/* pixels */
"A A A C j j m A S K Y Y Y Y K A A A A A S A k j m A S K E Y Y Y ",
"/ / ! F k k S E Q Q ) ) ) ) E E E E E Y E R m f A Y / ) _ _ _ _ ",
"/ / F D 5 @ ; : < 3 < < < < < < < < < < < : @ @ ; < < I / / / / ",
"~ F b , # X X O X X X X X X O X X X X O X X X O X X X < Y ^ / / ",
"L J 2 +.0.G.g...* ..a.G.u.%.* * * * & & $.L.L.L.L.L.L.#.q S F F ",
"J G # @.q.G.h.X.1 o.h.G.u.%.t t = 1 1 t %.L.L.L.L.L.L.$.% v D D ",
"J b X @.r.J.m.3.#.3.m.L.n.3.o.o.| [ | 1.y.L.L.L.L.L.L.4.#.$ z B ",
"J 0 O $.d.L.Z.d.4.h.G.L.V.8.-.=.#.+.$.L.L.L.L.L.L.L.L.L.L.o 5 h ",
"l : % %.g.J.J.n.a.n.S.L.c.1... . .} ..L.L.L.L.L.L.L.L.L.L.% - s ",
"8 3 y =.g.L.L.L.S.G.L.L.l.1.| [ [ { } L.L.L.L.<.,.L.L.L.L.* @ d ",
"N | | 1.n.L.L.L.L.L.L.L.V.4.%.] [ [ { L.L.L.S... .V.L.L.L.& # N ",
"W 2.2.p.S.S.l.l.c.l.l.S.S.n.7.[ [ [ ] L.L.L.c.{ { n.L.L.L.% < Y ",
"T S.S.L.L.l.:.1.4.3.;.s.L.L.L.[ [ [ ] L.L.L.n.{ { S.L.L.L.% < S ",
"P L.L.L.L.e.X.| :.%.} 3.L.L.L.[ [ [ [ L.L.L.n.{ } S.L.L.L.% # M ",
"H L.L.L.L.e.X.[ O.| } 3.L.L.L.[ [ [ [ L.L.L.L.#.#.L.L.L.L.% $ M ",
"m L.L.L.L.e.X.{ { { } 3.L.L.L.{ [ [ { L.L.L.L.u.s.L.L.L.L.% $ M ",
"b L.L.L.L.q...{ [ [ | 4.L.L.L.[ [ [ [ :.9.L.L.L.L.L.L.9.&.% # c ",
"b L.L.L.L.q...[ [ { X.7.L.L.L.[ [ [ [ [ >.L.L.L.L.L.L.:.i % : h ",
"7 o % u ] { { [ [ [ [ [ { [ [ [ [ [ [ [ [ [ [ [ { [ [ ] i % ; 6 ",
"w O % u ] [ [ [ [ [ [ [ [ [ [ [ [ [ [ [ [ [ [ [ [ [ [ ] i % < N ",
"P % % u ] [ [ { [ [ [ [ [ [ [ [ [ [ [ [ [ [ [ [ [ [ [ ] i * 3 Q ",
"U O O u ] { [ [ [ [ [ [ [ [ [ [ [ [ [ [ [ [ [ [ [ [ [ ' u % 2 Q ",
"P % % i ' [ [ [ [ [ [ [ [ [ [ [ [ [ [ [ [ [ [ [ [ [ [ ] u * < R ",
"A O % u ] [ [ [ [ [ [ [ [ [ [ [ [ [ [ [ [ [ [ [ [ [ [ ] u % < S ",
"v # % u ' [ [ [ [ [ [ [ [ [ [ [ [ [ [ [ [ [ [ [ [ [ [ ] u % : C ",
"b O % y ] [ [ [ [ [ [ [ [ [ [ [ [ [ [ [ [ [ [ [ [ [ [ ] u % # G ",
"b # % u ' [ [ [ [ [ [ [ [ [ [ [ [ [ [ [ [ [ [ [ [ [ [ ] i % $ c ",
"0 O % u ' [ [ [ [ [ [ [ [ [ [ [ [ [ [ [ [ [ [ [ [ [ [ ] i % @ d ",
"4 o % u ' [ ] [ [ [ [ [ [ [ [ [ [ [ [ [ [ [ [ [ [ [ [ ] i % @ 7 ",
"v O % u ' [ [ [ [ { { [ [ { [ { { [ { [ { [ ] [ [ [ [ ] i % > m ",
"T % % u ' [ [ [ { { { { { { { { { { { { { { [ { [ ] { ] i % < Y ",
"W # % u ] [ [ [ ] ] ] ] ] ] ] ] ] ] ] ] ] ] ] ] ] [ ] ] u & # N ",
"U % % p } { [ [ ] [ [ [ ] [ [ [ [ [ ] [ [ [ [ [ [ ] [ } p % $ m ",
"N O O p  . . .| | | | | | | | | | | | | | | | | |  ... .p % $ b ",
"N O % t ` +.@.@.@.@.@.@.@.@.@.@.#.@.@.@.@.@.@.@.@.@.+.' r % $ G ",
"b # % = p ' ] ] ] [ ] [ [ ] [ ' ] ] ] ] ] ] ] ] ] ] ' a = % > c ",
"b O % = = 1 1 1 1 1 1 1 1 t 1 1 = 1 1 1 1 1 r r 1 = 1 = = * : f ",
"7 O % = = = = = = = 1 = = = = = = = = = = = = = = = = = = * @ 6 ",
"f o & = = = = = = 1 1 = = = = = = = = = = = = = = = = = 1 * @ v ",
"U < % * = = = = = = = = = = = = = = = = = = = = = = = = * % < W ",
"/ P % & = = * = = = = = = = = & = = = = = = = = = = = = % . 2 ( ",
"/ P O % = = = = & 1 1 = = = = = = = = = = = = = = = = = O   2 / ",
"R U # O % & = = & = = = = = = * = * = = = = = = = = = %   . n L ",
"D J e X X % & * & = * * * = * * * * * * * * = * * * % . . % C D ",
"J J G 0 ; X X X X X X X X X X X X X X X X O X X X X X . @ w J J ",
"J J J B 4 + + ; : : > > ; ; + @ @ o $ o # ; + - + + - : M J J c ",
"V Z x h g s s s x c M h h d 6 6 6 7 z b l d s s 6 s h x Z c h h ",
"s d s s s 6 6 s d d s s 6 s s s s s d s s s s s 6 6 s s j s s s "
};
