/* XPM */
static char *df64d5a655384c1b8856de63d751d83dmZ2S1XxDOhnZIS4K[] = {
/* columns rows colors chars-per-pixel */
"32 48 137 2 ",
"   c #00003F",
".  c #10153F",
"X  c #52333F",
"o  c #030144",
"O  c #090546",
"+  c #0A0946",
"@  c #070148",
"#  c #0B034B",
"$  c #070849",
"%  c #0D0C4A",
"&  c #10064E",
"*  c #130A4D",
"=  c #190D4F",
"-  c #131543",
";  c #12124D",
":  c #18174E",
">  c #1B1A49",
",  c #150A51",
"<  c #1A0E52",
"1  c #0F1053",
"2  c #141452",
"3  c #1E1255",
"4  c #171852",
"5  c #1A1B53",
"6  c #171559",
"7  c #1C1659",
"8  c #1C1C5B",
"9  c #211F4B",
"0  c #221455",
"q  c #241857",
"w  c #221858",
"e  c #231958",
"r  c #231959",
"t  c #221A59",
"y  c #201A5A",
"u  c #201A5B",
"i  c #261C5A",
"p  c #201D5D",
"a  c #221F5D",
"s  c #241F5D",
"d  c #231C5B",
"f  c #1F224F",
"g  c #1F2350",
"h  c #24214D",
"j  c #262757",
"k  c #272857",
"l  c #212259",
"z  c #26215E",
"x  c #27225E",
"c  c #26235E",
"v  c #26235F",
"b  c #23225D",
"n  c #28205C",
"m  c #29235E",
"M  c #29245E",
"N  c #28255F",
"B  c #29265F",
"V  c #2A265F",
"C  c #282858",
"Z  c #2B2B5C",
"A  c #2B2C5C",
"S  c #2D2E5D",
"D  c #2A2A5D",
"F  c #31315E",
"G  c #30305E",
"H  c #31325F",
"J  c #222361",
"K  c #232461",
"L  c #252460",
"P  c #242560",
"I  c #252461",
"U  c #252661",
"Y  c #272661",
"T  c #262761",
"R  c #262762",
"E  c #242461",
"W  c #282660",
"Q  c #292660",
"!  c #292761",
"~  c #2A2760",
"^  c #282762",
"/  c #282660",
"(  c #272861",
")  c #272862",
"_  c #272863",
"`  c #2A2961",
"'  c #2B2961",
"]  c #282862",
"[  c #282962",
"{  c #292962",
"}  c #2B2A62",
"|  c #2B2B62",
" . c #2A2A63",
".. c #2B2A63",
"X. c #2A2B63",
"o. c #2B2B63",
"O. c #2C2B62",
"+. c #2C2B63",
"@. c #2B2C63",
"#. c #2C2C63",
"$. c #2C2D63",
"%. c #2D2D63",
"&. c #2D2D64",
"*. c #2D2E64",
"=. c #2E2E64",
"-. c #2F2F64",
";. c #2F2E64",
":. c #2B2B63",
">. c #303064",
",. c #333365",
"<. c #353567",
"1. c #353667",
"2. c #353565",
"3. c #393967",
"4. c #3A3A67",
"5. c #383867",
"6. c #373768",
"7. c #373768",
"8. c #393968",
"9. c #3A3A69",
"0. c #3B3A69",
"q. c #3B3B69",
"w. c #3B3B68",
"e. c #3B3C68",
"r. c #3C3C68",
"t. c #3C3C69",
"y. c #4B1D52",
"u. c #692464",
"i. c #3B7D4F",
"p. c #9C2A70",
"a. c #9C2A70",
"s. c #CC2F7B",
"d. c #CC2F7B",
"f. c #8F4D57",
"g. c #BD6A62",
"h. c #63AB3F",
"j. c #FF8933",
/* pixels */
"4 4 4 2 $ O ; 4 4 5 C C C j 5 4 4 4 4 4 4 4 % O ; 4 4 5 C C C k ",
"o.o.T 8 * % 8 o.>.3.r.r.r.0.>.o.o.o.o.o.o.T 2 % 8 o.>.3.r.r.r.e.",
"#.o.8 7 * O 2 K 1.3.-.-.-.-.-.#.#.#.#.@.T 8 * O 1 J 1.0.-.-.-.-.",
"! 8 7 , @ o # 6 o.-.o.o.( o.o.o.#.o.o.! 8 7 % o # 6 T -.o.o.( o.",
"r 0 0 , @ o @ 3 c o.T 8 6 6 r N +.T 8 r 0 0 # o @ < c X.T 8 6 6 ",
"0 0 0 , @ o @ < u 8 8 3 3 3 0 q i r 0 0 0 0 # o @ < r 8 8 3 3 3 ",
"0 0 < # @ o # < X X X X X X X X X X 0 0 0 < @ o @ < w 7 3 0 0 , ",
"0 < # @ @ o @ , X X X X X X X X X X 0 0 < # @ o @ , 3 0 0 , , @ ",
"* @ @ o o o X X p.p.p.p.s.s.s.s.s.s.X X @ o o o o @ # * * @ @ @ ",
"+ % % % % % X X p.p.p.p.s.s.s.s.s.s.X X % % % % % + + + + + + + ",
"l Z G G G S X X X X p.p.p.p.s.s.s.s.s.s.X X G G A l 8 8 5 8 8 8 ",
"0.0.0.0.0.0.X X X X p.p.p.p.s.s.s.s.s.s.X X 0.0.6.>.-.-.#.-.-.o.",
"1.>.o.o.o.o.+.#.#.#.X X p.p.p.p.s.s.s.s.p.p.X X o.+.#.#.#.#.o.8 ",
"T #.( T K T N o.#.o.X X p.p.p.p.s.s.s.s.p.p.X X T N o.@.! c s 7 ",
"c ( 8 7 6 7 0 n ! a X X p.p.p.p.p.p.j.j.j.j.X X 7 r n ! a 7 0 0 ",
"7 6 7 0 0 3 0 0 0 0 X X p.p.p.p.p.p.j.j.j.j.X X 3 0 0 0 0 0 0 0 ",
"0 0 0 0 < # X X X X X X X X X X X X X X X X X X X X X X 0 0 0 < ",
"3 0 < # # @ X X X X X X X X X X X X X X X X X X X X X X < 0 < # ",
"O O @ o X X p.p.p.p.p.p.s.s.s.s.s.s.s.s.s.s.s.s.s.s.s.s.X X O o ",
"; ; ; ; X X p.p.p.p.p.p.s.s.s.s.s.s.s.s.s.s.s.s.s.s.s.s.X X 5 5 ",
"Z Z X X p.p.p.p.p.p.p.p.p.p.p.p.p.p.p.p.p.p.p.p.s.s.s.s.s.s.X X ",
"-.-.X X p.p.p.p.p.p.p.p.p.p.p.p.p.p.p.p.p.p.p.p.s.s.s.s.s.s.X X ",
"o.o.X X p.p.p.p.X X X X X X X X X X X X X X X X X X p.p.p.p.X X ",
"a i X X p.p.p.p.X X X X X X X X X X X X X X X X X X p.p.p.p.X X ",
"7 0 0 0 X X X X X X X X X X X X f.f.g.g.g.g.g.g.X X X X X X 8 7 ",
"0 0 0 3 X X X X X X X X X X X X f.f.g.g.g.g.g.g.X X X X X X 7 0 ",
"0 0 3 & @ @ X X X X X X X X f.f.g.g.g.g.g.g.g.g.g.g.X X 0 0 0 < ",
"= < # @ @ o X X X X X X X X f.f.g.g.g.g.g.g.g.g.g.g.X X & < * @ ",
"O + + + X X X X X X X X X X f.f.g.g.g.g.u.u.g.g.g.g.X X O O O O ",
"5 j C C X X X X X X X X X X f.f.g.g.g.g.u.u.g.g.g.g.X X 5 5 5 5 ",
"3.r.r.r.X X X X X X X X X X f.f.g.g.g.g.y.y.g.g.g.g.X X -.-.-.o.",
"0.>.#.#.X X X X X X X X X X f.f.g.g.g.g.y.y.g.g.g.g.X X #.#.o.b ",
"o.#.o.T X X X X X X X X X X f.f.f.f.g.g.g.g.g.g.X X o.@.o.! c 7 ",
"N o.b 6 X X X X X X X X X X f.f.f.f.g.g.g.g.g.g.X X N o.a 7 0 0 ",
"8 6 7 0 X X X X X X X X p.p.X X f.f.f.f.f.f.X X 0 0 0 i 0 0 0 0 ",
"0 3 0 0 X X X X X X X X p.p.X X f.f.f.f.f.f.X X & * 3 0 0 0 0 3 ",
"0 0 < * # @ X X X X X X p.p.s.s.s.s.p.p.p.p.h.h.X X & , < 0 3 & ",
"# * O o o @ X X X X X X p.p.s.s.s.s.p.p.p.p.h.h.X X o @ O % O o ",
"% % % % % O o + % % X X p.p.p.p.s.s.g.g.s.s.h.h.X X % % ; : : : ",
"b b N b 8 % % 5 N S X X p.p.p.p.s.s.g.g.s.s.h.h.X X N Z #.2.2.2.",
"-.-.-.T 8 * % 8 1.r.X X p.p.p.p.p.p.p.p.s.s.i.i.X X ( 6.r.1.1.6.",
"o.o.b 8 3 # @ 2 o.>.X X p.p.p.p.p.p.p.p.s.s.i.i.X X 8 #.1.o.o.o.",
"b c 8 0 , @ o % a o.X X p.p.p.p.p.p.f.f.f.f.X X o @ , b o.o.J b ",
"7 0 0 0 , @ o * i T X X p.p.p.p.p.p.f.f.f.f.X X o @ < d K b 7 7 ",
"0 0 0 0 , @ o * h g f h X X X X X X X X X X > - - - > h 7 7 0 0 ",
"0 0 0 * @ @ o * h h h h X X X X X X X X X X - - - - > h 0 0 3 < ",
"3 0 * @ @ @ o @ * 3 9 > - - - - - > 9 h > - - - - - @ * 0 < # @ ",
"@ O o o o o   o o O - - - - - - - - - - - - - - . - o o O o o o "
};
