/* XPM */
static char *result[] = {
/* columns rows colors chars-per-pixel */
"32 48 49 1 ",
"  c #00003F",
". c #52333F",
"X c #030144",
"o c #090546",
"O c #0A0947",
"+ c #070149",
"@ c #0B044B",
"# c #070849",
"$ c #0E0D49",
"% c #11074E",
"& c #130B4D",
"* c #190D4F",
"= c #131643",
"- c #1A1B47",
"; c #13134D",
": c #18174E",
"> c #1A1949",
", c #160A51",
"< c #1A0E52",
"1 c #0F1053",
"2 c #141552",
"3 c #1E1255",
"4 c #171852",
"5 c #1A1B53",
"6 c #171559",
"7 c #1C1659",
"8 c #1D1D5B",
"9 c #211F4B",
"0 c #221455",
"q c #241857",
"w c #221B5A",
"e c #23204C",
"r c #262757",
"t c #272857",
"y c #24225D",
"u c #29245E",
"i c #292959",
"p c #31315E",
"a c #242561",
"s c #292761",
"d c #272862",
"f c #2C2C63",
"g c #343465",
"h c #393967",
"j c #373768",
"k c #3B3B68",
"l c #9C2A70",
"z c #CC2F7B",
"x c #BD6A62",
/* pixels */
"4452#o;528ttit54444444$#;275ttit",
"ffd81#8fgkkkkkpffffffd2#8fgjkkkk",
"ff87%#1ajjgfgfffffffd8&o1agkfpgf",
"s87<oX+6fffdaffffffu83$X#6affddf",
"wq0,+X+3afa888qufawq70@X%,afa868",
"000,+X+<w683733qwq0000oX+,w887q7",
"00<%XX@<07003&....000,@X+<07300,",
"0<%+XX+,003,,@....00,%+X+,300,,@",
",o+XXXXX$&%+..zzzz..+XXXX+$&%XX+",
"@$$$$$OOOOOO..zzzz..$$$$$#O$OOoO",
"yipppiywr8..zzzzzzzz..gpiy8888y5",
"kkkkkkgfff..zzzzzzzz..kkjgffppff",
"ggffffff..llzzzzzzzzll..ffffffs8",
"afdaaasf..llzzzzzzzzll..sssffyy7",
"ydy667qw..llllzzzzllll..3qssw700",
"767q3<30..llllzzzzllll..<30qq000",
"0000....llllllllllllllll....000<",
"30,@....llllllllllllllll....:0<%",
"oo..llzzzz............zzzzll..oX",
";;..llzzzz............zzzzll..w>",
"..llllzzzzzzzzzzzzzzzzzzzzllll..",
"..llllzzzzzzzzzzzzzzzzzzzzllll..",
"..llllllzzzzzzzzzzzzzzzzllllll..",
"..llllllzzzzzzzzzzzzzzzzllllll..",
"70..llllllllllllllllllllllll..85",
"00..llllllllllllllllllllllll..70",
"000%....llllllllllllllll....000<",
"*<@o....llllllllllllllll....%<*@",
"oo............................oX",
"5r............................55",
"kk............................ff",
"jg............................fy",
"sf............................r7",
"sf............................00",
"86............................00",
"q3............................03",
"30<,........................-93%",
"@%oX........................oOoX",
"$$$$..xxllzzzzzzzzzzzzllxx..&>:>",
"yyyr..xxllzzzzzzzzzzzzllxx..pggg",
"fffa8;..llllzzzzzzzzllll..dgkjjj",
"ffa8<@..llllzzzzzzzzllll..6fgffd",
"aw80,+..llllllllllllllll..<affay",
"7q00<+..llllllllllllllll..<wa877",
"0000,+=-................==<86700",
"000,@X=-................=;,000<<",
":0%+@X  -e9---=;--eee-- X++,0*@@",
"oXXX=   - -- - ====9- -   XXooX "
};
