/* XPM */
static char *a0d1e2e0a42f4cc1ccd806677e3c93b7C9kiQnMYVtwI0ChM[] = {
/* columns rows colors chars-per-pixel */
"32 48 139 2 ",
"   c #00003F",
".  c #52333F",
"X  c #030144",
"o  c #090546",
"O  c #0A0947",
"+  c #070149",
"@  c #0B034B",
"#  c #070849",
"$  c #0D0D49",
"%  c #10074E",
"&  c #130A4D",
"*  c #190D4F",
"=  c #131643",
"-  c #1A1B47",
";  c #13134D",
":  c #18174E",
">  c #1A1949",
",  c #160A51",
"<  c #1A0E52",
"1  c #0F1053",
"2  c #141552",
"3  c #1E1255",
"4  c #171852",
"5  c #1A1B53",
"6  c #171559",
"7  c #1C1659",
"8  c #1D1D5B",
"9  c #221F4B",
"0  c #241456",
"q  c #241556",
"w  c #241455",
"e  c #221455",
"r  c #241857",
"t  c #221858",
"y  c #231958",
"u  c #231959",
"i  c #221A59",
"p  c #201A5A",
"a  c #201A5B",
"s  c #261C5A",
"d  c #201D5D",
"f  c #241F5D",
"g  c #241D5B",
"h  c #24214D",
"j  c #262757",
"k  c #272857",
"l  c #212259",
"z  c #24245A",
"x  c #26215E",
"c  c #27225E",
"v  c #26235E",
"b  c #26235F",
"n  c #23225D",
"m  c #28205C",
"M  c #29235E",
"N  c #29245E",
"B  c #28255F",
"V  c #29265F",
"C  c #282858",
"Z  c #2B2B5C",
"A  c #2B2C5C",
"S  c #2D2E5D",
"D  c #2D2D5D",
"F  c #29295D",
"G  c #30305E",
"H  c #31315E",
"J  c #31325F",
"K  c #222361",
"L  c #232461",
"P  c #252460",
"I  c #242560",
"U  c #252461",
"Y  c #252661",
"T  c #272661",
"R  c #262761",
"E  c #262762",
"W  c #232461",
"Q  c #282660",
"!  c #292660",
"~  c #292761",
"^  c #282762",
"/  c #272861",
"(  c #272862",
")  c #2A2961",
"_  c #2B2961",
"`  c #282862",
"'  c #282962",
"]  c #292962",
"[  c #2B2A62",
"{  c #2B2B62",
"}  c #2A2A63",
"|  c #2B2A63",
" . c #2A2B63",
".. c #2B2B63",
"X. c #2C2B62",
"o. c #2C2B63",
"O. c #2B2C63",
"+. c #2C2C63",
"@. c #2C2D63",
"#. c #2D2D63",
"$. c #2D2D64",
"%. c #2D2E64",
"&. c #2E2E64",
"*. c #2F2E64",
"=. c #2F2F64",
"-. c #2B2B63",
";. c #303064",
":. c #313164",
">. c #303065",
",. c #313165",
"<. c #333365",
"1. c #353567",
"2. c #353667",
"3. c #353565",
"4. c #393967",
"5. c #3A3A67",
"6. c #393966",
"7. c #373768",
"8. c #373768",
"9. c #393968",
"0. c #3A3A69",
"q. c #3B3A69",
"w. c #3B3B69",
"e. c #3B3B68",
"r. c #3B3C68",
"t. c #3C3C68",
"y. c #3C3C69",
"u. c #3B3B69",
"i. c #4B1D52",
"p. c #692464",
"a. c #3B7D4F",
"s. c #9C2A70",
"d. c #9C2A70",
"f. c #CC2F7B",
"g. c #CC2F7B",
"h. c #8F4D57",
"j. c #BD6A62",
"k. c #63AB3F",
"l. c #FF8933",
/* pixels */
"4 4 4 2 # o ; 4 4 8 C C C j 8 4 4 4 4 4 4 4 $ o ; 4 4 8 C C C k ",
"....R 8 & $ 8 ..:.4.t.t.t.q.:.............R 2 $ 8 ..:.4.t.t.t.r.",
"+...8 7 & o 2 L 1.4.$.$.$.$.$.+.+.+.+.O.R 8 & o 1 K 1.q.$.$.$.$.",
"~ 8 7 , + X @ 6 ..$...../ ......+.....~ 8 7 $ X @ 6 R $...../ ..",
"u q q , + X + 3 v ..R 8 6 6 u B o.R 8 u q q @ X + < v  .R 8 6 6 ",
"q q w , + X + < a 8 8 3 3 3 e r s u q q q w @ X + < u 8 8 3 3 3 ",
"q q < @ + X @ < q 7 3 w e , & 3 q q q q e < + X + < t 7 3 q e , ",
"w < @ + + X + , 3 w 3 , , + + % , < q e < @ + X + , 3 w e , , + ",
"& + + X X X X + @ & @ + + + . . . . & & + X X X X + @ & & + + + ",
"O $ $ $ $ $ O O O O O O O O . . . . O $ $ $ $ $ $ O O O O O O O ",
"l Z G G G S z 8 8 8 8 8 . . f.f.f.f.. . S G G G A l 8 8 8 8 8 8 ",
"q.q.q.q.q.q.:.$.$.$.$.$.. . f.f.f.f.. . t.q.q.q.7.:.$.$.+.$.$...",
"1.:.........o.+.+.+.. . f.f.f.f.f.f.f.f.. . ......o.+.+.+.+...8 ",
"R +./ R L R B ..+.... . f.f.f.f.f.f.f.f.. . R L R B ..O.~ v f 7 ",
"v / 8 7 6 7 q m . . d.s.f.f.f.f.f.f.f.f.s.s.. . 7 u m ~ d 7 q q ",
"7 6 7 q e 3 e q . . d.s.f.f.f.f.f.f.f.f.s.s.. . 3 e q q q q q e ",
"q q q q < @ @ < . . s.s.s.s.l.l.l.l.s.s.s.s.. . @ % 3 q q q e < ",
"3 q < @ @ + + @ . . s.s.s.s.l.l.l.l.s.s.s.s.. . + + @ % < q < @ ",
"o o + X . . . . . . . . . . . . . . . . . . . . . . . . + o o X ",
"; ; ; ; . . . . . . . . . . . . . . . . . . . . . . . . ; : 5 5 ",
"Z Z . . s.s.f.f.f.f.f.f.f.f.f.f.f.f.f.f.f.f.f.f.f.f.s.s.. . 4.4.",
"$.$.. . s.s.f.f.f.f.f.f.f.f.f.f.f.f.f.f.f.f.f.f.f.f.s.s.. . :.:.",
". . s.s.s.s.s.s.s.s.s.s.s.s.s.s.s.s.s.s.s.s.s.s.s.s.s.s.s.s.. . ",
". . s.s.s.s.s.s.s.s.s.s.s.s.s.s.s.s.s.s.s.s.s.s.s.s.s.s.s.s.. . ",
". . s.s.s.s.s.s.. . . . . . . . . . . . . . . . s.s.s.s.s.s.. . ",
". . s.s.s.s.s.s.. . . . . . . . . . . . . . . . s.s.s.s.s.s.. . ",
"e w . . s.s.. . . . h.h.j.j.j.j.j.j.j.j.h.h.. . . . s.s.. . e < ",
"* < . . s.s.. . . . h.h.j.j.j.j.j.j.j.j.h.h.. . . . s.s.. . & + ",
"o O O O . . . . h.h.j.j.j.j.j.j.j.j.j.j.j.j.h.h.. . . . o o o o ",
"5 z C C . . . . h.h.j.j.j.j.j.j.j.j.j.j.j.j.h.h.. . . . 5 5 5 5 ",
"4.t.. . . . . . h.h.j.j.p.p.j.j.j.j.p.p.j.j.h.h.. . . . . . $...",
"q.:.. . . . . . h.h.j.j.p.p.j.j.j.j.p.p.j.j.h.h.. . . . . . ..n ",
"..+.. . . . . . h.h.j.j.i.i.j.j.j.j.i.i.j.j.h.h.. . . . . . v 7 ",
"B ... . . . . . h.h.j.j.i.i.j.j.j.j.i.i.j.j.h.h.. . . . . . q q ",
"8 6 . . . . . . . . h.h.j.j.j.j.j.j.j.j.h.h.. . . . . . . . q q ",
"q 3 . . . . . . . . h.h.j.j.j.j.j.j.j.j.h.h.. . . . . . . . q 3 ",
"e w . . . . . . s.s.h.h.h.h.h.h.h.h.h.h.h.h.s.s.. . . . . . 3 % ",
"@ & . . . . . . s.s.h.h.h.h.h.h.h.h.h.h.h.h.s.s.. . . . . . o X ",
"$ $ $ $ . . f.f.s.s.s.s.s.s.a.a.a.a.s.s.s.s.s.s.f.f.. . ; : : : ",
"n n B n . . f.f.s.s.s.s.s.s.a.a.a.a.s.s.s.s.s.s.f.f.. . +.3.3.3.",
"$.$.$.R . . j.j.s.s.f.f.f.f.k.k.k.k.f.f.f.f.s.s.j.j.. . t.1.1.7.",
"....n 8 . . j.j.s.s.f.f.f.f.k.k.k.k.f.f.f.f.s.s.j.j.. . 1.......",
"n v 8 q , + . . s.s.h.h.h.h.. . . . h.h.h.h.s.s.. . , n ....K n ",
"7 q q w , + . . s.s.h.h.h.h.. . . . h.h.h.h.s.s.. . < g L n 7 7 ",
"q q q e , + = - . . . . . . 9 9 h h . . . . . . = = < 7 7 7 q q ",
"q q e % + + = - . . . . . . = > 9 9 . . . . . . = = , e q e 3 < ",
"3 e % + + + X + > h 9 > = = = = = > 9 h > = = = X + + & e < @ + ",
"+ o X X X X   X = = = = = = = = = = = = = = = =   X X X o X X X "
};
