/* XPM */
static char *result[] = {
/* columns rows colors chars-per-pixel */
"32 48 49 1 ",
"  c #00003F",
". c #52333F",
"X c #030144",
"o c #090546",
"O c #0A0947",
"+ c #070149",
"@ c #0B034B",
"# c #070849",
"$ c #0D0D49",
"% c #10074E",
"& c #130A4D",
"* c #190D4F",
"= c #131643",
"- c #1A1B47",
"; c #13134D",
": c #18174E",
"> c #1A1949",
", c #160A51",
"< c #1A0E52",
"1 c #0F1053",
"2 c #141552",
"3 c #1E1255",
"4 c #171852",
"5 c #1A1B53",
"6 c #171559",
"7 c #1C1659",
"8 c #1D1D5B",
"9 c #211F4B",
"0 c #221455",
"q c #241857",
"w c #221B5A",
"e c #23204C",
"r c #262757",
"t c #272857",
"y c #24225D",
"u c #29245E",
"i c #2A2A5B",
"p c #31315E",
"a c #242561",
"s c #292761",
"d c #272862",
"f c #2C2C63",
"g c #343465",
"h c #393966",
"j c #373768",
"k c #3B3B69",
"l c #9C2A70",
"z c #CC2F7B",
"x c #BD6A62",
/* pixels */
"4452#o;578tttt54444464$#;448titt",
"ffd81#8fgjkkkkgfffiffd2#8fghkkkk",
"ff87@#1ajjffgfffffffd8&X1aghpfgf",
"s87<@X+6dgfdssfffffs80$X+6affddf",
"w00,+Xo<ada888qsfaw000OX@<afa888",
"000,+X+3w8w7370qw0q00q@X@<088737",
"00<%XX@<07300,%<q0000<@X+<07700,",
"0<%+XX+,303,,@@$,<00,@+X+,303,,@",
",@++ XXXO*@++X....&&+XXXX+O*&X+X",
"OO$$$$OOO$OO#O....O$$$$$$#OOO#oO",
"yippgiyw8yw5..zzzz..ipgpi88y8y88",
"kkkkkhgfpffp..zzzz..kkjkjgffpfpi",
"ggffdfffff..zzzzzzzz..ffffffffs8",
"yffaaasfff..zzzzzzzz..daassfday7",
"yf8666qw..llzzzzzzzzll..3qss8000",
"86700<00..llzzzzzzzzll..<00qq000",
"q33q<%%<..llllzzzzllll..@&30000<",
"<q<@@@+@..llllzzzzllll..+@@@<0<%",
"ooXX....llllllllllllllll....oOoX",
";;;,....llllllllllllllll....;4>q",
"uf..llzzzz............zzzzll..kh",
"ff..llzzzz............zzzzll..gg",
"..llllzzzzzzzzzzzzzzzzzzzzllll..",
"..llllzzzzzzzzzzzzzzzzzzzzllll..",
"..llllllzzzzzzzzzzzzzzzzllllll..",
"..llllllzzzzzzzzzzzzzzzzllllll..",
"0q..llllllllllllllllllllllll..0,",
"**..llllllllllllllllllllllll..&@",
"oOOo....llllllllllllllll....oooo",
"5rti....llllllllllllllll....4545",
"kk............................pf",
"jg............................aa",
"sf............................y3",
"uf............................q0",
"88............................00",
"33............................03",
"3q............................:%",
"O@............................#X",
"&$$$........................ ---",
"yyyy........................phhh",
"fffa..xxllzzzzzzzzzzzzllxx..kjjj",
"ffa7..xxllzzzzzzzzzzzzllxx..gffd",
"yu7q<+..llllllllllllllll..,aff8y",
"7q0q,@..llllllllllllllll..<ya877",
"0000%+=-................==,77700",
"000%@X==................==,q003<",
"*0%@+XXo-ee-====--eee-- X+@,0*@@",
"oXXXXX  ===========-9 -   XXoXX "
};
