/* XPM */
static char *de10969fee544326d1063af57a0aac41jtxlMkyrDuxLRZl7[] = {
/* columns rows colors chars-per-pixel */
"32 48 137 2 ",
"   c #00003F",
".  c #52333F",
"X  c #030144",
"o  c #090546",
"O  c #0A0947",
"+  c #070149",
"@  c #0B044B",
"#  c #070849",
"$  c #0E0D49",
"%  c #11074E",
"&  c #130B4D",
"*  c #190D4F",
"=  c #131643",
"-  c #1A1B47",
";  c #13134D",
":  c #18174E",
">  c #1A1949",
",  c #160A51",
"<  c #1A0E52",
"1  c #0F1053",
"2  c #141552",
"3  c #1E1255",
"4  c #171852",
"5  c #1A1B53",
"6  c #171559",
"7  c #1C1659",
"8  c #1D1D5B",
"9  c #211F4B",
"0  c #231656",
"q  c #221455",
"w  c #241455",
"e  c #241456",
"r  c #241556",
"t  c #221355",
"y  c #241857",
"u  c #221858",
"i  c #231958",
"p  c #231959",
"a  c #221A59",
"s  c #201A5A",
"d  c #201A5B",
"f  c #261C5A",
"g  c #201D5D",
"h  c #241F5D",
"j  c #241D5B",
"k  c #23204C",
"l  c #262757",
"z  c #272857",
"x  c #212259",
"c  c #24245A",
"v  c #26215E",
"b  c #27225E",
"n  c #26235E",
"m  c #26235F",
"M  c #23225D",
"N  c #28205C",
"B  c #29235E",
"V  c #29245E",
"C  c #28255F",
"Z  c #29265F",
"A  c #282858",
"S  c #2B2B5C",
"D  c #2B2C5C",
"F  c #2D2E5D",
"G  c #30305E",
"H  c #31315E",
"J  c #31325F",
"K  c #222361",
"L  c #232461",
"P  c #252460",
"I  c #242560",
"U  c #252461",
"Y  c #252661",
"T  c #272661",
"R  c #262761",
"E  c #262762",
"W  c #232461",
"Q  c #282660",
"!  c #292660",
"~  c #292761",
"^  c #282762",
"/  c #272861",
"(  c #272862",
")  c #272863",
"_  c #2A2961",
"`  c #2B2961",
"'  c #282862",
"]  c #282962",
"[  c #292962",
"{  c #2B2A62",
"}  c #2B2B62",
"|  c #2A2A63",
" . c #2B2A63",
".. c #2A2B63",
"X. c #2B2B63",
"o. c #2C2B62",
"O. c #2C2B63",
"+. c #2B2C63",
"@. c #2C2C63",
"#. c #2C2D63",
"$. c #2D2D63",
"%. c #2D2D64",
"&. c #2D2E64",
"*. c #2E2E64",
"=. c #2F2E64",
"-. c #2F2F64",
";. c #2B2B63",
":. c #303064",
">. c #313164",
",. c #303065",
"<. c #313165",
"1. c #323265",
"2. c #333365",
"3. c #343567",
"4. c #353567",
"5. c #353667",
"6. c #353564",
"7. c #383867",
"8. c #393967",
"9. c #3A3A67",
"0. c #383867",
"q. c #373768",
"w. c #373768",
"e. c #383868",
"r. c #393968",
"t. c #3B3B68",
"y. c #3A3A69",
"u. c #3B3A69",
"i. c #3B3B69",
"p. c #3B3C68",
"a. c #3C3C68",
"s. c #3B3B69",
"d. c #9C2A70",
"f. c #9C2A70",
"g. c #CC2F7B",
"h. c #CC2F7B",
"j. c #BD6A62",
/* pixels */
"4 4 4 2 # o ; 4 4 5 A A A l 5 4 4 4 4 4 4 4 $ o ; 4 4 5 A A A z ",
"X.X.R 8 & $ 8 X.>.7.a.a.a.u.>.X.X.X.X.X.X.R 2 $ 8 X.>.7.a.a.a.p.",
"@.X.8 7 & o 2 L 4.7.%.%.%.%.%.@.@.@.@.+.R 8 & o 1 K 4.u.%.%.%.%.",
"~ 8 7 , + X @ 6 X.%.X.X./ X.X.X.@.X.X.~ 8 7 @ X @ 6 R %.X.X./ X.",
"p 0 0 , + X + 3 n X.R 8 6 6 p C O.R 8 p 0 0 @ X + < n ..R 8 6 6 ",
"0 0 w , + X + < d 8 8 3 3 3 t y f p 0 0 0 w @ X + < p 8 8 3 3 3 ",
"0 0 < @ + X @ < 0 7 3 w t , . . . . 0 0 t < + X + < u 7 3 0 t , ",
"w < @ + + X + , 3 w 3 , , + . . . . 0 t < @ + X + , 3 w t , , + ",
"& + + X X X X + @ & @ + . . g.g.g.g.. . + X X X X + @ & & + + + ",
"O $ $ $ $ $ O O O O O O . . g.g.g.g.. . $ $ $ $ $ O O O O O O O ",
"x S G G G F c 8 8 8 . . g.g.g.g.g.g.g.g.. . G G D x 8 8 5 8 8 8 ",
"u.u.u.u.u.u.>.%.%.%.. . g.g.g.g.g.g.g.g.. . u.u.q.>.%.%.@.%.@.X.",
"4.>.X.X.X.X.O.@.. . d.d.g.g.g.g.g.g.g.g.d.d.. . X.O.@.@.@.@.X.8 ",
"R @./ R L R C X.. . d.d.g.g.g.g.g.g.g.g.d.d.. . R C X.+.~ n h 7 ",
"n / 8 7 6 7 0 N . . d.d.d.d.g.g.g.g.d.d.d.d.. . 7 p N ~ g 7 0 0 ",
"7 6 7 0 t 3 t 0 . . d.d.d.d.g.g.g.g.d.d.d.d.. . 3 t 0 0 0 0 0 t ",
"0 0 0 0 . . . . d.d.d.d.d.d.d.d.d.d.d.d.d.d.d.d.. . . . 0 0 t < ",
"3 0 < @ . . . . d.d.d.d.d.d.d.d.d.d.d.d.d.d.d.d.. . . . < 0 < @ ",
"o o . . d.d.g.g.g.g.. . . . . . . . . . . . g.g.g.g.d.d.. . o X ",
"; ; . . d.d.g.g.g.g.. . . . . . . . . . . . g.g.g.g.d.d.. . 5 5 ",
". . d.d.d.d.g.g.g.g.g.g.g.g.g.g.g.g.g.g.g.g.g.g.g.g.d.d.d.d.. . ",
". . d.d.d.d.g.g.g.g.g.g.g.g.g.g.g.g.g.g.g.g.g.g.g.g.d.d.d.d.. . ",
". . d.d.d.d.d.d.g.g.g.g.g.g.g.g.g.g.g.g.g.g.g.g.d.d.d.d.d.d.. . ",
". . d.d.d.d.d.d.g.g.g.g.g.g.g.g.g.g.g.g.g.g.g.g.d.d.d.d.d.d.. . ",
"7 0 . . d.d.d.d.d.d.d.d.d.d.d.d.d.d.d.d.d.d.d.d.d.d.d.d.. . 8 7 ",
"0 0 . . d.d.d.d.d.d.d.d.d.d.d.d.d.d.d.d.d.d.d.d.d.d.d.d.. . 7 0 ",
"t w 3 % . . . . d.d.d.d.d.d.d.d.d.d.d.d.d.d.d.d.. . . . t 0 t < ",
"* < @ + . . . . d.d.d.d.d.d.d.d.d.d.d.d.d.d.d.d.. . . . % < & + ",
"o O . . . . . . . . . . . . . . . . . . . . . . . . . . . . o o ",
"5 c . . . . . . . . . . . . . . . . . . . . . . . . . . . . 5 5 ",
"7.a.. . . . . . . . . . . . . . . . . . . . . . . . . . . . %.X.",
"u.>.. . . . . . . . . . . . . . . . . . . . . . . . . . . . X.M ",
"X.@.. . . . . . . . . . . . . . . . . . . . . . . . . . . . n 7 ",
"C X.. . . . . . . . . . . . . . . . . . . . . . . . . . . . 0 0 ",
"8 6 . . . . . . . . . . . . . . . . . . . . . . . . . . . . 0 0 ",
"0 3 . . . . . . . . . . . . . . . . . . . . . . . . . . . . 0 3 ",
"t w < & . . . . . . . . . . . . . . . . . . . . . . . . < w 3 % ",
"@ & o X . . . . . . . . . . . . . . . . . . . . . . . . o @ o X ",
"$ $ $ $ . . j.j.d.d.g.g.g.g.g.g.g.g.g.g.g.g.d.d.j.j.. . ; : : : ",
"M M C M . . j.j.d.d.g.g.g.g.g.g.g.g.g.g.g.g.d.d.j.j.. . @.6.6.6.",
"%.%.%.R 8 & . . d.d.d.d.g.g.g.g.g.g.g.g.d.d.d.d.. . / q.a.4.4.q.",
"X.X.M 8 3 @ . . d.d.d.d.g.g.g.g.g.g.g.g.d.d.d.d.. . 8 @.4.X.X.X.",
"M n 8 0 , + . . d.d.d.d.d.d.d.d.d.d.d.d.d.d.d.d.. . , M X.X.K M ",
"7 0 0 w , + . . d.d.d.d.d.d.d.d.d.d.d.d.d.d.d.d.. . < j L M 7 7 ",
"0 0 0 t , + = - . . . . . . . . . . . . . . . . = = < 7 7 7 0 0 ",
"0 0 t & + + = - . . . . . . . . . . . . . . . . = = , t 0 t 3 < ",
"< t & + + + X + > k 9 > = = = = = > 9 k > = = = X + + & t < @ + ",
"+ + X X X X   X = = = = = = = = = = = = = = = =   X X X o X X X "
};
