/* XPM */
static char *_fbb1b2828f446b3d8e49c31fe6d50b3anJTGhs6Rbb9xxKS[] = {
/* columns rows colors chars-per-pixel */
"32 48 135 2 ",
"   c #00003F",
".  c #52333F",
"X  c #030144",
"o  c #090546",
"O  c #0A0947",
"+  c #070149",
"@  c #0B044B",
"#  c #070849",
"$  c #0E0D49",
"%  c #11074E",
"&  c #130B4D",
"*  c #190D4F",
"=  c #131643",
"-  c #1A1B47",
";  c #13134D",
":  c #18174E",
">  c #1A1949",
",  c #160A51",
"<  c #1A0E52",
"1  c #0F1053",
"2  c #141552",
"3  c #1E1255",
"4  c #171852",
"5  c #1A1B53",
"6  c #171559",
"7  c #1C1659",
"8  c #1D1D5B",
"9  c #221F4B",
"0  c #221455",
"q  c #241857",
"w  c #221858",
"e  c #231958",
"r  c #231959",
"t  c #221A59",
"y  c #201A5A",
"u  c #201A5B",
"i  c #261C5A",
"p  c #201D5D",
"a  c #241F5D",
"s  c #241D5B",
"d  c #24214D",
"f  c #262757",
"g  c #272857",
"h  c #212259",
"j  c #24245A",
"k  c #26215E",
"l  c #27225E",
"z  c #26235E",
"x  c #26235F",
"c  c #23225D",
"v  c #28205C",
"b  c #29235E",
"n  c #29245E",
"m  c #28255F",
"M  c #29265F",
"N  c #282858",
"B  c #2B2B5C",
"V  c #2B2C5C",
"C  c #2D2E5D",
"Z  c #30305E",
"A  c #31315E",
"S  c #31325F",
"D  c #222361",
"F  c #232461",
"G  c #252460",
"H  c #242560",
"J  c #252461",
"K  c #252661",
"L  c #272661",
"P  c #262761",
"I  c #262762",
"U  c #232461",
"Y  c #282660",
"T  c #292660",
"R  c #292761",
"E  c #282762",
"W  c #272861",
"Q  c #272862",
"!  c #272863",
"~  c #2A2961",
"^  c #2B2961",
"/  c #282862",
"(  c #282962",
")  c #292962",
"_  c #2B2A62",
"`  c #2B2B62",
"'  c #2A2A63",
"]  c #2B2A63",
"[  c #2A2B63",
"{  c #2B2B63",
"}  c #2C2B62",
"|  c #2C2B63",
" . c #2B2C63",
".. c #2C2C63",
"X. c #2C2D63",
"o. c #2D2D63",
"O. c #2D2D64",
"+. c #2D2E64",
"@. c #2E2E64",
"#. c #2F2E64",
"$. c #2F2F64",
"%. c #2B2B63",
"&. c #303064",
"*. c #313164",
"=. c #303065",
"-. c #313165",
";. c #323265",
":. c #333365",
">. c #353567",
",. c #353667",
"<. c #353564",
"1. c #393967",
"2. c #3A3A67",
"3. c #383867",
"4. c #373768",
"5. c #373768",
"6. c #393968",
"7. c #3A3A69",
"8. c #3B3A69",
"9. c #3B3B69",
"0. c #3B3B68",
"q. c #3B3C68",
"w. c #3C3C68",
"e. c #3B3B69",
"r. c #4B1D52",
"t. c #692464",
"y. c #3B7D4F",
"u. c #9C2A70",
"i. c #9C2A70",
"p. c #CC2F7B",
"a. c #CC2F7B",
"s. c #8F4D57",
"d. c #BD6A62",
"f. c #63AB3F",
"g. c #FF8933",
/* pixels */
"4 4 4 2 # o ; 4 4 5 N N N f 5 4 4 4 4 4 4 4 $ o ; 4 4 5 N N N g ",
"{ { P 8 & $ 8 { *.1.w.w.w.8.*.{ { { { { { P 2 $ 8 { *.1.w.w.w.q.",
"..{ 8 7 & o 2 F >.1.O.O.O.O.O......... .P 8 & o 1 D >.8.O.O.O.O.",
"R 8 7 , + X @ 6 { O.{ { W { { { ..{ { R 8 7 $ X @ 6 P O.{ { W { ",
"r 0 0 , + X + 3 z { P 8 6 6 r m | P 8 r 0 0 @ X + < z [ P 8 6 6 ",
"0 0 0 , + X + < u 8 8 3 3 3 0 q i r 0 0 0 0 @ X + < r 8 8 3 3 3 ",
"0 0 < @ + X @ < 0 7 3 0 0 , . . . . 0 0 0 < + X + < w 7 3 0 0 , ",
"0 < @ + + X + , 3 0 3 , , + . . . . 0 0 < @ + X + , 3 0 0 , , + ",
"& + + X X X X + @ & @ + . . p.p.p.p.. . + X X X X + @ & & + + + ",
"O $ $ $ $ $ O O O O O O . . p.p.p.p.. . $ $ $ $ $ O O O O O O O ",
"h B Z Z Z C j 8 8 8 . . p.p.p.p.p.p.p.p.. . Z Z V h 8 8 5 8 8 8 ",
"8.8.8.8.8.8.*.O.O.O.. . p.p.p.p.p.p.p.p.. . 8.8.4.*.O.O...O...{ ",
">.*.{ { { { | ... . u.u.p.p.p.p.p.p.p.p.u.u.. . { | ........{ 8 ",
"P ..W P F P m { . . u.u.p.p.p.p.p.p.p.p.u.u.. . P m {  .R z a 7 ",
"z W 8 7 6 7 0 v . . u.u.u.u.g.g.g.g.u.u.u.u.. . 7 r v R p 7 0 0 ",
"7 6 7 0 0 3 0 0 . . u.u.u.u.g.g.g.g.u.u.u.u.. . 3 0 0 0 0 0 0 0 ",
"0 0 0 0 . . . . . . . . . . . . . . . . . . . . . . . . 0 0 0 < ",
"3 0 < @ . . . . . . . . . . . . . . . . . . . . . . . . < 0 < @ ",
"o o . . u.u.p.p.p.p.p.p.p.p.p.p.p.p.p.p.p.p.p.p.p.p.u.u.. . o X ",
"; ; . . u.u.p.p.p.p.p.p.p.p.p.p.p.p.p.p.p.p.p.p.p.p.u.u.. . 5 5 ",
". . u.u.u.u.u.u.u.u.u.u.u.u.u.u.u.u.u.u.u.u.u.u.u.u.u.u.u.u.. . ",
". . u.u.u.u.u.u.u.u.u.u.u.u.u.u.u.u.u.u.u.u.u.u.u.u.u.u.u.u.. . ",
". . u.u.u.u.u.u.. . . . . . . . . . . . . . . . u.u.u.u.u.u.. . ",
". . u.u.u.u.u.u.. . . . . . . . . . . . . . . . u.u.u.u.u.u.. . ",
"7 0 . . u.u.. . . . s.s.d.d.d.d.d.d.d.d.s.s.. . . . u.u.. . 8 7 ",
"0 0 . . u.u.. . . . s.s.d.d.d.d.d.d.d.d.s.s.. . . . u.u.. . 7 0 ",
"0 0 3 % . . . . s.s.d.d.d.d.d.d.d.d.d.d.d.d.s.s.. . . . 0 0 0 < ",
"* < @ + . . . . s.s.d.d.d.d.d.d.d.d.d.d.d.d.s.s.. . . . % < & + ",
"o O . . . . . . s.s.d.d.t.t.d.d.d.d.t.t.d.d.s.s.. . . . . . o o ",
"5 j . . . . . . s.s.d.d.t.t.d.d.d.d.t.t.d.d.s.s.. . . . . . 5 5 ",
"1.w.. . . . . . s.s.d.d.r.r.d.d.d.d.r.r.d.d.s.s.. . . . . . O.{ ",
"8.*.. . . . . . s.s.d.d.r.r.d.d.d.d.r.r.d.d.s.s.. . . . . . { c ",
"{ ... . . . . . . . s.s.d.d.d.d.d.d.d.d.s.s.. . . . . . . . z 7 ",
"m { . . . . . . . . s.s.d.d.d.d.d.d.d.d.s.s.. . . . . . . . 0 0 ",
"8 6 . . . . . . u.u.s.s.s.s.s.s.s.s.s.s.s.s.u.u.. . . . . . 0 0 ",
"0 3 . . . . . . u.u.s.s.s.s.s.s.s.s.s.s.s.s.u.u.. . . . . . 0 3 ",
"0 0 < & . . p.p.u.u.u.u.u.u.y.y.y.y.u.u.u.u.u.u.p.p.. . < 0 3 % ",
"@ & o X . . p.p.u.u.u.u.u.u.y.y.y.y.u.u.u.u.u.u.p.p.. . o $ o X ",
"$ $ $ $ . . d.d.u.u.u.u.p.p.f.f.f.f.p.p.u.u.u.u.d.d.. . ; : : : ",
"c c m c . . d.d.u.u.u.u.p.p.f.f.f.f.p.p.u.u.u.u.d.d.. . ..<.<.<.",
"O.O.O.P 8 & . . u.u.p.p.p.p.f.f.f.f.p.p.p.p.u.u.. . W 4.w.>.>.4.",
"{ { c 8 3 @ . . u.u.p.p.p.p.f.f.f.f.p.p.p.p.u.u.. . 8 ..>.{ { { ",
"c z 8 0 , + . . u.u.s.s.s.s.. . . . s.s.s.s.u.u.. . , c { { D c ",
"7 0 0 0 , + . . u.u.s.s.s.s.. . . . s.s.s.s.u.u.. . < s F c 7 7 ",
"0 0 0 0 , + = - . . . . . . 9 9 d d . . . . . . = = < 7 7 7 0 0 ",
"0 0 0 & + + = - . . . . . . = > 9 9 . . . . . . = = , 0 0 0 3 < ",
"3 0 & + + + X + > d 9 > = = = = = > 9 d > = = = X + + & 0 < @ + ",
"+ o X X X X   X = = = = = = = = = = = = = = = =   X X X o X X X "
};
