/* XPM */
static char *_724f62aa55f4862f20b4125377396399XxdNHCb8zvrhMTI[] = {
/* columns rows colors chars-per-pixel */
"32 48 137 2 ",
"   c #00003F",
".  c #10153F",
"X  c #52333F",
"o  c #030144",
"O  c #090546",
"+  c #0A0947",
"@  c #070149",
"#  c #0B044A",
"$  c #070849",
"%  c #0D0C4A",
"&  c #11074E",
"*  c #130A4D",
"=  c #190D4F",
"-  c #131543",
";  c #1A1B47",
":  c #13134D",
">  c #18174E",
",  c #1B1949",
"<  c #150A51",
"1  c #1A0E52",
"2  c #0F1053",
"3  c #141553",
"4  c #1E1255",
"5  c #171852",
"6  c #1A1B53",
"7  c #17165A",
"8  c #1C1659",
"9  c #1D1C5B",
"0  c #211F4B",
"q  c #221455",
"w  c #241455",
"e  c #241456",
"r  c #241556",
"t  c #221455",
"y  c #241857",
"u  c #221858",
"i  c #231958",
"p  c #231959",
"a  c #221A59",
"s  c #201A5A",
"d  c #201A5B",
"f  c #261C5A",
"g  c #201D5D",
"h  c #241F5D",
"j  c #221D5C",
"k  c #1F2350",
"l  c #1F215F",
"z  c #24214D",
"x  c #262757",
"c  c #272857",
"v  c #212259",
"b  c #24245A",
"n  c #26215E",
"m  c #27225E",
"M  c #26235E",
"N  c #26235F",
"B  c #23225D",
"V  c #28205C",
"C  c #29235E",
"Z  c #29245E",
"A  c #28255F",
"S  c #29265F",
"D  c #282858",
"F  c #2B2B5C",
"G  c #2D2E5D",
"H  c #2A2A5B",
"J  c #30305E",
"K  c #31315E",
"L  c #31325F",
"P  c #222361",
"I  c #232461",
"U  c #252460",
"Y  c #242560",
"T  c #252461",
"R  c #252661",
"E  c #272661",
"W  c #262761",
"Q  c #262762",
"!  c #252561",
"~  c #282660",
"^  c #292660",
"/  c #292761",
"(  c #282762",
")  c #282660",
"_  c #272861",
"`  c #272862",
"'  c #272863",
"]  c #2A2961",
"[  c #2B2961",
"{  c #282862",
"}  c #282962",
"|  c #292962",
" . c #2B2A62",
".. c #2B2B62",
"X. c #2A2A63",
"o. c #2B2A63",
"O. c #2A2B63",
"+. c #2B2B63",
"@. c #2C2B62",
"#. c #2C2B63",
"$. c #2B2C63",
"%. c #2C2C63",
"&. c #2C2D63",
"*. c #2D2D63",
"=. c #2D2D64",
"-. c #2D2E64",
";. c #2E2E64",
":. c #2F2E64",
">. c #2F2F64",
",. c #2B2B63",
"<. c #313164",
"1. c #333365",
"2. c #353567",
"3. c #353667",
"4. c #353565",
"5. c #393967",
"6. c #3A3A67",
"7. c #393966",
"8. c #373768",
"9. c #393968",
"0. c #3A3A69",
"q. c #3B3B69",
"w. c #3B3B69",
"e. c #3B3C68",
"r. c #3C3C68",
"t. c #3B3B69",
"y. c #4B1D52",
"u. c #692464",
"i. c #3B7D4F",
"p. c #9C2A70",
"a. c #9C2A70",
"s. c #CC2F7B",
"d. c #CC2F7B",
"f. c #8F4D57",
"g. c #BD6A62",
"h. c #63AB3F",
"j. c #FF8933",
/* pixels */
"5 5 5 3 $ O : 5 5 6 D D D x 6 5 5 5 5 5 5 5 % O : 5 5 6 D D D c ",
"+.+.W 9 * % 9 +.<.5.r.r.r.w.<.+.+.+.+.+.+.W 3 % 9 +.<.5.r.r.r.e.",
"%.+.9 8 * O 3 I 2.5.=.=.=.=.=.%.%.%.%.$.W 9 * O 2 P 2.w.=.=.=.=.",
"/ 9 8 < @ o # 7 +.=.+.+._ +.+.+.%.+.+./ 9 8 % o # 7 W =.+.+._ +.",
"p r r < @ o @ 4 M +.W 9 7 7 p A #.W 9 p r r % o @ 1 M +.W 9 7 7 ",
"r r w < @ o @ 1 p 9 9 4 4 4 t y f p r r r w % o @ 1 p 9 9 4 4 4 ",
"r r 1 # @ o # 1 r 8 4 w t < X X X X X X X X X X @ 1 u 8 4 r t < ",
"w 1 # @ @ o @ < 4 w 4 < < @ X X X X X X X X X X @ < 4 w t < < @ ",
"* @ @ o o o o @ % * % @ X X s.s.s.s.s.s.p.p.p.p.X X % * * @ @ @ ",
"+ % % % % % + + + + + + X X s.s.s.s.s.s.p.p.p.p.X X + + + + + + ",
"v F J J J G b 9 9 9 X X s.s.s.s.s.s.p.p.p.p.X X X X 9 9 6 9 9 9 ",
"w.w.w.w.w.w.<.=.=.=.X X s.s.s.s.s.s.p.p.p.p.X X X X =.=.%.=.=.+.",
"2.<.+.+.+.+.#.%.X X p.p.s.s.s.s.p.p.p.p.X X +.+.+.#.%.%.%.%.+.9 ",
"W %._ W I W A +.X X p.p.s.s.s.s.p.p.p.p.X X W I W A +.$./ M h 8 ",
"M _ 9 8 7 8 r V X X j.j.j.j.p.p.p.p.p.p.X X 8 7 8 p V / g 8 r r ",
"8 7 8 r t 4 t r X X j.j.j.j.p.p.p.p.p.p.X X r t 4 t r r r r r t ",
"r r r r X X X X X X X X X X X X X X X X X X X X X X 4 r r r t 1 ",
"4 r 1 # X X X X X X X X X X X X X X X X X X X X X X # & 1 r 1 # ",
"O O X X s.s.s.s.s.s.s.s.s.s.s.s.s.s.s.s.p.p.p.p.p.p.X X @ O O o ",
": : X X s.s.s.s.s.s.s.s.s.s.s.s.s.s.s.s.p.p.p.p.p.p.X X : > 6 6 ",
"X X s.d.s.s.s.s.p.p.p.p.p.p.p.p.p.p.p.p.p.p.p.p.p.p.p.p.X X 5.5.",
"X X s.d.s.s.s.s.p.p.p.p.p.p.p.p.p.p.p.p.p.p.p.p.p.p.p.p.X X <.<.",
"X X p.p.p.p.X X X X X X X X X X X X X X X X X X p.p.p.p.X X +.+.",
"X X p.p.p.p.X X X X X X X X X X X X X X X X X X p.p.p.p.X X +.l ",
"8 r X X X X X X g.g.g.g.g.g.f.f.X X X X X X X X X X X X p l 9 8 ",
"r r X X X X X X g.g.g.g.g.g.f.f.X X X X X X X X X X X X r 8 8 r ",
"t w 4 & X X g.g.g.g.g.g.g.g.g.g.f.f.X X X X X X X X @ < t r t 1 ",
"= 1 % @ X X g.g.g.g.g.g.g.g.g.g.f.f.X X X X X X X X o @ & 1 * @ ",
"O + + + X X g.g.g.g.u.u.g.g.g.g.f.f.X X X X X X X X X X O O O O ",
"6 b D D X X g.g.g.g.u.u.g.g.g.g.f.f.X X X X X X X X X X 6 6 6 6 ",
"5.r.r.r.X X g.g.g.g.y.y.g.g.g.g.f.f.X X X X X X X X X X =.=.=.+.",
"w.<.%.%.X X g.g.g.g.y.y.g.g.g.g.f.f.X X X X X X X X X X %.%.+.B ",
"+.%.+.W W W X X g.g.g.g.g.g.f.f.f.f.X X X X X X X X X X +./ M 8 ",
"A +.B 7 7 8 X X g.g.g.g.g.g.f.f.f.f.X X X X X X X X X X g 8 r r ",
"9 7 8 r r 4 t w X X f.f.f.f.f.f.X X p.p.X X X X X X X X r r r r ",
"r 4 r r 1 & & 1 X X f.f.f.f.f.f.X X p.p.X X X X X X X X r r r 4 ",
"t w 1 * # @ X X h.h.p.p.p.p.s.s.s.s.p.p.X X X X X X & < 1 w 4 & ",
"% * O o o o X X h.h.p.p.p.p.s.s.s.s.p.p.X X X X X X o @ O % O o ",
"% % % % % O X X h.h.s.s.g.g.s.s.p.p.p.p.X X % O o + % % : > > > ",
"B B B B 9 % X X h.h.s.s.g.g.s.s.p.p.p.p.X X 9 % % 5 A F %.4.4.4.",
"=.=.=.W 9 * X X i.i.s.s.p.p.p.p.p.p.p.p.X X 9 < % 3 _ 8.r.2.2.8.",
"+.+.B 9 4 % X X i.i.s.s.p.p.p.p.p.p.p.p.X X 4 % @ $ 9 %.2.+.+.+.",
"B M 9 r < @ o % X X f.f.f.f.p.p.p.p.p.p.X X 1 @ o @ < B +.+.P B ",
"8 r r w < @ o * X X f.f.f.f.p.p.p.p.p.p.X X 1 @ o @ 1 j I B 8 8 ",
"r r r t , - - ; z k X X X X X X X X X X z z , - o @ 1 8 8 8 r r ",
"r r t * - - - ; z z X X X X X X X X X X z , - - o @ < t r t 4 1 ",
"4 t * @ @ @ - - , z 0 , - - - - - , 0 z , - @ @ o @ @ * t 1 # @ ",
"@ O o o o o . - - - - - - - - - - - - - - - o o   o o o O o o o "
};
