/* XPM */
static char *result[] = {
/* columns rows colors chars-per-pixel */
"32 48 57 1 ",
"  c #00003F",
". c #10153F",
"X c #52333F",
"o c #030144",
"O c #090546",
"+ c #0A0946",
"@ c #070149",
"# c #0B034B",
"$ c #070849",
"% c #0D0C4A",
"& c #10074E",
"* c #130A4D",
"= c #190D4F",
"- c #131543",
"; c #13134D",
": c #18174E",
"> c #1B1A49",
", c #160A51",
"< c #1A0E52",
"1 c #0F1053",
"2 c #141452",
"3 c #1E1255",
"4 c #171852",
"5 c #1A1B53",
"6 c #171559",
"7 c #1C1659",
"8 c #1C1C5B",
"9 c #211F4B",
"0 c #221455",
"q c #241857",
"w c #231B5B",
"e c #1F224F",
"r c #1F2350",
"t c #24214D",
"y c #262757",
"u c #272857",
"i c #23225D",
"p c #29235E",
"a c #292A5B",
"s c #31315E",
"d c #242561",
"f c #292761",
"g c #272862",
"h c #2B2B63",
"j c #343465",
"k c #393966",
"l c #373768",
"z c #3B3B69",
"x c #4B1D52",
"c c #692464",
"v c #3B7D4F",
"b c #9C2A70",
"n c #CC2F7B",
"m c #8F4D57",
"M c #BD6A62",
"N c #63AB3F",
"B c #FF8933",
/* pixels */
"4442$$;44wuuuu54444444%$;428uuuu",
"hhgw1%8hlzzzzzshhhhhhg2$8hjzzzzz",
"hh87%@1dllhhjhhhhhhhd8&$1ijzjhjs",
"f87<@o$6hhhfdhhhhhff7q%o$6dhhhgf",
"w00,@o@3dhd888qphfw000%o&,phd888",
"000,@o@<w887773qwq000q#o#,w87777",
"00<&oo#307000,,300q00<@o@<03703,",
"0<&#oo@&<00,&###,<00,#@o@&303,,&",
"=@oo oooXXXXXXXXXX*=@oo o@#=%ooo",
"#%%*;%++XXXXXXXXXX+%%%%%%$#%+++$",
"yassjaXXbbbbnnnnnnXXassjairi8iwr",
"zzkzzzXXbbbbnnnnnnXXzzzzzhhhhhhh",
"jjhghhXXXXbbbbnnnnnnXXhhfhhhhhh8",
"dhgdddXXXXbbbbnnnnnnXXdddfhhhiw7",
"igi7660wpwXXbbbbnnnnbbXX7qffi0q0",
"76707000qqXXbbbbnnnnbbXX<0000000",
"00q0<&&<3qXXbbbbbbBBBBXX#*<0000<",
"<0<##@@##,XXbbbbbbBBBBXX@@#&<0<&",
"OOooooXXXXXXXXXXXXXXXXXXXXXXoO@o",
";;;2%OXXXXXXXXXXXXXXXXXXXXXX;:eq",
"ppgiXXbbbbbbnnnnnnnnnnnnnnnnXXkk",
"hjhdXXbbbbbbnnnnnnnnnnnnnnnnXXjj",
"hgXXbbbbbbbbbbbbbbbbbbbbnnnnnnXX",
"rwXXbbbbbbbbbbbbbbbbbbbbnnnnnnXX",
"7wXXbbbbXXXXXXXXXXXXXXXXXXbbbbXX",
"00XXbbbbXXXXXXXXXXXXXXXXXXbbbbXX",
"300&XXXXXXXXXXXXmmMMMMMMXXXXXX0<",
"<<#@XXXXXXXXXXXXmmMMMMMMXXXXXX=@",
"O%++O+XXXXXXXXmmMMMMMMMMMMXXOOOo",
"5yaaauXXXXXXXXmmMMMMMMMMMMXX5555",
"kzzzXXXXXXXXXXmmMMMMccMMMMXXjhhh",
"kjhhXXXXXXXXXXmmMMMMccMMMMXXhhgi",
"fhhdXXXXXXXXXXmmMMMMxxMMMMXXggi6",
"ih88XXXXXXXXXXmmMMMMxxMMMMXXwqqq",
"8870XXXXXXXXXXmmmmMMMMMMXX0q0000",
"7700XXXXXXXXXXmmmmMMMMMMXX000003",
"00<&XXXXXXXXbbXXmmmmmmXX##&,<03&",
"O&OoXXXXXXXXbbXXmmmmmmXXoooo##Oo",
"*%%%%oXXXXXXbbnnnnbbbbNNXX%%;::>",
"iyii8%XXXXXXbbnnnnbbbbNNXXiasjjs",
"hhhd8;$8lzXXbbbbnnMMnnvvXXdlzlll",
"hhd7<#o,hjXXbbbbnnMMnnvvXX7hjhhh",
"di7q,@o%8hXXbbbbbbmmmmXXo@6ihhi8",
"7qqq,#o*wdXXbbbbbbmmmmXXo@<wd877",
"0000,@o*teetXXXXXXXXXX>---:y4700",
"000&#oo#ttttXXXXXXXXXX>--->t000<",
"=0&#@ooO&0t>---;->99>-----@,0=##",
"OOo o    o----.-.------...ooOoo "
};
