/* XPM */
static char *result[] = {
/* columns rows colors chars-per-pixel */
"32 48 57 1 ",
"  c #00003F",
". c #10153F",
"X c #52333F",
"o c #030144",
"O c #090546",
"+ c #0A0946",
"@ c #070148",
"# c #0B034B",
"$ c #070849",
"% c #0D0C4A",
"& c #10064E",
"* c #130A4D",
"= c #190D4F",
"- c #131543",
"; c #12124D",
": c #18174E",
"> c #1B1A49",
", c #150A51",
"< c #1A0E52",
"1 c #0F1053",
"2 c #141452",
"3 c #1E1255",
"4 c #171852",
"5 c #1A1B53",
"6 c #171559",
"7 c #1C1659",
"8 c #1C1C5B",
"9 c #211F4B",
"0 c #221455",
"q c #241857",
"w c #231B5B",
"e c #1F224F",
"r c #1F2350",
"t c #24214D",
"y c #262757",
"u c #272857",
"i c #23225D",
"p c #29245E",
"a c #29295B",
"s c #31315E",
"d c #242561",
"f c #292761",
"g c #272862",
"h c #2B2B63",
"j c #343465",
"k c #393967",
"l c #373768",
"z c #3B3B69",
"x c #4B1D52",
"c c #692464",
"v c #3B7D4F",
"b c #9C2A70",
"n c #CC2F7B",
"m c #8F4D57",
"M c #BD6A62",
"N c #63AB3F",
"B c #FF8933",
/* pixels */
"4442$$;46yyyuy84444446%$;45raauu",
"hhgw1%8hjlzzzzshhhhhhf2+8hhzzzzz",
"hh87*@1dlljhshhhhhhhg8%$1djzhhsh",
"f87<@o$6hhhddhhhhhff80#o@6dhhhdh",
"w00,@ @3dfd888wfhf8000%o#<dhg888",
"000,$o@<88803000wq0000#o#<w88737",
"00<&@o#<XXXXXXXXXX000<@o#,07000,",
"q<#@@o@,XXXXXXXXXX00<#@@#,303,,#",
"=@@@o XXbbbbnnnnnnXX$oo o@%=#@@o",
"O%%%%%XXbbbbnnnnnnXX%%%%%$++%O$+",
"yassshXXXXbbbbnnnnnnXXjsairi8i5y",
"zzzzzlXXXXbbbbnnnnnnXXzzlhhhshhf",
"jshhhhhhhhXXbbbbnnnnbbXXhhhhhhf8",
"dhhdddffhhXXbbbbnnnnbbXXdfhhffd7",
"dh86670paiXXbbbbbbBBBBXX3wff8300",
"7670333000XXbbbbbbBBBBXX<0000000",
"00006&XXXXXXXXXXXXXXXXXXXXXX000<",
"<0<###XXXXXXXXXXXXXXXXXXXXXX=0=&",
"OO@oXXbbbbbbnnnnnnnnnnnnnnnnXX@o",
";;;2XXbbbbbbnnnnnnnnnnnnnnnnXX59",
"ahXXbbbbbbbbbbbbbbbbbbbbnnnnnnXX",
"hhXXbbbbbbbbbbbbbbbbbbbbnnnnnnXX",
"hhXXbbbbXXXXXXXXXXXXXXXXXXbbbbXX",
"8wXXbbbbXXXXXXXXXXXXXXXXXXbbbbXX",
"7000XXXXXXXXXXXXmmMMMMMMXXXXXXw7",
"0003XXXXXXXXXXXXmmMMMMMMXXXXXX70",
"000&#@XXXXXXXXmmMMMMMMMMMMXX000<",
"<<#@@oXXXXXXXXmmMMMMMMMMMMXX&<=#",
"O+++XXXXXXXXXXmmMMMMccMMMMXXOOOo",
"5yaaXXXXXXXXXXmmMMMMccMMMMXX5555",
"kzzzXXXXXXXXXXmmMMMMxxMMMMXXhhhh",
"kjhhXXXXXXXXXXmmMMMMxxMMMMXXhhhr",
"fhhpXXXXXXXXXXmmmmMMMMMMXXahhfi7",
"phr6XXXXXXXXXXmmmmMMMMMMXXffw700",
"8880XXXXXXXXbbXXmmmmmmXX000w0000",
"7700XXXXXXXXbbXXmmmmmmXX&&000000",
"30<*##XXXXXXbbnnnnbbbbNNXX#,<0<&",
"#&@oo@XXXXXXbbnnnnbbbbNNXXo@O*Oo",
"*%%%+oo$%%XXbbbbnnMMnnNNXX%+;::>",
"iiyi81+5ahXXbbbbnnMMnnNNXXiaakjj",
"hhhg8*@8jzXXbbbbbbbbnnvvXXglzlll",
"hhd73#o2hjXXbbbbbbbbnnvvXX8hjhhf",
"di7q<@ %ihXXbbbbbbmmmmXX@@,dhhdi",
"7000<@o*wdXXbbbbbbmmmmXXo@,wdi63",
"0000,@o*teetXXXXXXXXXX>---:y6400",
"003=@oo#ttt9XXXXXXXXXX---->t003<",
":0&@@@o@=39>---;>>99>:----@=0=##",
"Ooooo   oo----.-.---.--...ooOOo "
};
