/* XPM */
static char *cc3892fa573e43d3936a3a20fe583d9akPuBsRinjxtl3925[] = {
/* columns rows colors chars-per-pixel */
"32 48 138 2 ",
"   c #00003F",
".  c #10153F",
"X  c #52333F",
"o  c #030144",
"O  c #090546",
"+  c #0A0947",
"@  c #070149",
"#  c #0B034B",
"$  c #070849",
"%  c #0D0C4A",
"&  c #11074E",
"*  c #130A4D",
"=  c #190D4F",
"-  c #131543",
";  c #1A1B47",
":  c #13124D",
">  c #18174E",
",  c #1B1949",
"<  c #160B51",
"1  c #1A0D52",
"2  c #0F1053",
"3  c #141553",
"4  c #1E1255",
"5  c #171852",
"6  c #1A1B53",
"7  c #17165A",
"8  c #1C1659",
"9  c #1D1D5B",
"0  c #211F4B",
"q  c #231656",
"w  c #221455",
"e  c #241455",
"r  c #241456",
"t  c #241556",
"y  c #221455",
"u  c #241857",
"i  c #221858",
"p  c #231958",
"a  c #231959",
"s  c #221A59",
"d  c #201A5A",
"f  c #201A5B",
"g  c #261C5A",
"h  c #201D5D",
"j  c #241F5D",
"k  c #231E5D",
"l  c #1F2350",
"z  c #1E205E",
"x  c #24214D",
"c  c #262757",
"v  c #272857",
"b  c #212259",
"n  c #24245A",
"m  c #26215E",
"M  c #27225E",
"N  c #26235E",
"B  c #26235F",
"V  c #23225D",
"C  c #28205C",
"Z  c #29235E",
"A  c #29245E",
"S  c #28255F",
"D  c #282858",
"F  c #2B2B5C",
"G  c #2D2E5D",
"H  c #29295D",
"J  c #30305E",
"K  c #31315E",
"L  c #31325F",
"P  c #222361",
"I  c #232461",
"U  c #252460",
"Y  c #242560",
"T  c #252461",
"R  c #252661",
"E  c #272661",
"W  c #262761",
"Q  c #262762",
"!  c #242561",
"~  c #282660",
"^  c #292660",
"/  c #292761",
"(  c #282762",
")  c #282660",
"_  c #272861",
"`  c #272862",
"'  c #272863",
"]  c #2A2961",
"[  c #2B2961",
"{  c #282862",
"}  c #282962",
"|  c #292962",
" . c #2B2A62",
".. c #2B2B62",
"X. c #2A2A63",
"o. c #2B2A63",
"O. c #2A2B63",
"+. c #2B2B63",
"@. c #2C2B62",
"#. c #2C2B63",
"$. c #2B2C63",
"%. c #2C2C63",
"&. c #2C2D63",
"*. c #2D2D63",
"=. c #2D2D64",
"-. c #2D2E64",
";. c #2E2E64",
":. c #2F2E64",
">. c #2F2F64",
",. c #2B2B63",
"<. c #313164",
"1. c #333365",
"2. c #353567",
"3. c #353667",
"4. c #353565",
"5. c #393967",
"6. c #3A3A67",
"7. c #393966",
"8. c #373768",
"9. c #393968",
"0. c #3A3A69",
"q. c #3B3B69",
"w. c #3B3B69",
"e. c #3B3C68",
"r. c #3C3C68",
"t. c #3C3C69",
"y. c #4B1D52",
"u. c #692464",
"i. c #3B7D4F",
"p. c #9C2A70",
"a. c #9C2A70",
"s. c #CC2F7B",
"d. c #CC2F7B",
"f. c #8F4D57",
"g. c #BD6A62",
"h. c #63AB3F",
"j. c #FF8933",
"k. c #FF8933",
/* pixels */
"5 5 5 3 $ O : 5 5 9 D D D c 9 5 5 5 5 5 5 5 % O : 5 5 9 D D D v ",
"+.+.W 9 * % 9 +.<.5.r.r.r.w.<.+.+.+.+.+.+.W 3 % 9 +.<.5.r.r.r.e.",
"%.+.9 8 * O 3 I 2.5.=.=.=.=.=.%.%.%.%.$.W 9 * O 2 P 2.w.=.=.=.=.",
"/ 9 8 < @ o # 7 +.=.+.+._ +.+.+.%.+.+./ 9 8 % o # 7 W =.+.+._ +.",
"a q q < @ o @ 4 N +.W 9 7 7 a S #.W 9 a q q % o @ 1 N +.W 9 7 7 ",
"q q e < @ o @ 1 a 9 9 4 4 4 y u g a q q q e % o @ 1 a 9 9 4 4 4 ",
"q q 1 # @ o # 1 q 8 4 e y < * 4 q q q q y < @ o @ 1 q 8 4 q y < ",
"e 1 # @ @ o @ < 4 e 4 < < @ @ & < 1 q y 1 # @ o @ < 4 e y < < @ ",
"* @ @ o o o o @ % * % @ @ @ X X X X X X X X X X o @ % * * @ @ @ ",
"+ % % % % % + + + + + + + + X X X X X X X X X X % + + + + + + + ",
"b F J J J G n 9 9 9 9 9 X X s.s.s.s.s.s.p.p.p.p.X X 9 9 9 9 9 9 ",
"w.w.w.w.w.w.<.=.=.=.=.=.X X s.s.s.s.s.s.p.p.p.p.X X =.=.%.=.=.+.",
"2.<.+.+.+.+.#.%.%.%.X X s.s.s.s.s.s.p.p.p.p.X X X X %.%.%.%.+.9 ",
"W %._ W I W S +.%.+.X X s.s.s.s.s.s.p.p.p.p.X X X X +.$./ N j 8 ",
"N _ 9 8 7 8 q C X X a.p.s.s.s.s.p.p.p.p.X X 8 7 8 a C / h 8 q q ",
"8 7 8 q y 4 y q X X a.p.s.s.s.s.p.p.p.p.X X q y 4 y q q q q q y ",
"q q q q 1 # # 1 X X j.j.j.j.p.p.p.p.p.p.X X y < # & 4 q q q y 1 ",
"4 q 1 # # @ @ # X X j.j.j.j.p.p.p.p.p.p.X X # # @ @ # & 1 q 1 # ",
"O O @ o X X X X X X X X X X X X X X X X X X X X X X o o @ O O o ",
": : : : X X X X X X X X X X X X X X X X X X X X X X % : : > 6 6 ",
"F F X X s.s.s.s.s.s.s.s.s.s.s.s.s.s.s.s.p.p.p.p.p.p.X X %.2.5.5.",
"=.=.X X s.s.s.s.s.s.s.s.s.s.s.s.s.s.s.s.p.p.p.p.p.p.X X 2.r.<.<.",
"X X s.s.s.s.s.s.p.p.p.p.p.p.p.p.p.p.p.p.p.p.p.p.p.p.p.p.X X +.+.",
"X X s.s.s.s.s.s.p.p.p.p.p.p.p.p.p.p.p.p.p.p.p.p.p.p.p.p.X X +.z ",
"X X p.p.p.p.X X X X X X X X X X X X X X X X X X p.p.p.p.X X 9 8 ",
"X X p.p.p.p.X X X X X X X X X X X X X X X X X X p.p.p.p.X X 8 q ",
"y e X X X X X X g.g.g.g.g.g.f.f.X X X X X X X X X X X X y q y 1 ",
"= 1 X X X X X X g.g.g.g.g.g.f.f.X X X X X X X X X X X X & 1 * @ ",
"O + + + X X g.g.g.g.g.g.g.g.g.g.f.f.X X X X X X X X o O O O O O ",
"6 n D D X X g.g.g.g.g.g.g.g.g.g.f.f.X X X X X X X X 6 6 6 6 6 6 ",
"5.r.r.r.X X g.g.g.g.u.u.g.g.g.g.f.f.X X X X X X X X X X =.=.=.+.",
"w.<.%.%.X X g.g.g.g.u.u.g.g.g.g.f.f.X X X X X X X X X X %.%.+.V ",
"+.%.+.W X X g.g.g.g.y.y.g.g.g.g.f.f.X X X X X X X X X X +./ N 8 ",
"S +.V 7 X X g.g.g.g.y.y.g.g.g.g.f.f.X X X X X X X X X X h 8 q y ",
"9 7 8 q q 4 X X g.g.g.g.g.g.f.f.f.f.X X X X X X X X X X q q q q ",
"q 4 q q 1 & X X g.g.g.g.g.g.f.f.f.f.X X X X X X X X X X q q q 4 ",
"y e 1 * # @ @ # X X f.f.f.f.f.f.X X p.p.X X X X X X X X 1 e 4 & ",
"% * O o o o @ o X X f.f.f.f.f.f.X X p.p.X X X X X X X X O % O o ",
"% % % % % O X X h.h.p.p.p.p.s.s.s.s.p.p.X X X X X X % % : > > > ",
"V V S V 9 % X X h.h.p.p.p.p.s.s.s.s.p.p.X X X X X X S F %.4.4.4.",
"=.=.=.W 9 * X X i.i.s.s.g.g.s.s.p.p.p.p.X X 9 < % 3 _ 8.r.2.2.8.",
"+.+.V 9 4 % X X i.i.s.s.g.g.s.s.p.p.p.p.X X 4 % @ $ 9 %.2.+.+.+.",
"V N 9 q < @ o % X X f.f.f.f.p.p.p.p.p.p.X X 1 @ o @ < V +.+.P V ",
"8 q q e < @ o * X X f.f.f.f.p.p.p.p.p.p.X X 1 @ o @ 1 k I V 8 8 ",
"q q q y , - - ; x l X X X X X X X X X X x x , - o @ 1 8 8 8 q q ",
"y y y * - - - ; x x X X X X X X X X X X x , - - o @ < y q y 4 1 ",
"4 y * @ @ @ - - , x 0 , - - - - - , 0 x , - @ @ o @ @ * y 1 # @ ",
"@ O o o o o . - - - - - - - - - - - - - - - o o   o o o O o o o "
};
