/* XPM */
static char *xpm_[] = {
/* columns rows colors chars-per-pixel */
"16 48 101 2 ",
"   c #0C0B0E",
".  c #0C0A16",
"X  c #05031C",
"o  c #08051C",
"O  c #0E0D19",
"+  c #131315",
"@  c #151519",
"#  c #181719",
"$  c #1A1A1C",
"%  c #0A0623",
"&  c #0D0A22",
"*  c #130D2F",
"=  c #131325",
"-  c #1F1F21",
";  c #14142B",
":  c #090337",
">  c #00003F",
",  c #0A073A",
"<  c #0C0B3D",
"1  c #180E3B",
"2  c #191038",
"3  c #201F21",
"4  c #212022",
"5  c #2B2B2E",
"6  c #323235",
"7  c #040142",
"8  c #090345",
"9  c #0B0B47",
"0  c #070049",
"q  c #070849",
"w  c #150C42",
"e  c #1A0F44",
"r  c #120A4E",
"t  c #171745",
"y  c #1C1246",
"u  c #16144B",
"i  c #1B124C",
"p  c #1C1C4B",
"a  c #141652",
"s  c #1D1253",
"d  c #171852",
"f  c #1A1B54",
"g  c #1C175A",
"h  c #1F1F5D",
"j  c #20134C",
"k  c #211E4D",
"l  c #221455",
"z  c #231959",
"x  c #23224E",
"c  c #242553",
"v  c #2D2D54",
"b  c #29295A",
"n  c #303056",
"m  c #30305E",
"M  c #262761",
"N  c #292761",
"B  c #2B2B63",
"V  c #383861",
"C  c #4A4A4C",
"Z  c #515053",
"A  c #57575A",
"S  c #5B5B5E",
"D  c #5E5E61",
"F  c #626264",
"G  c #666669",
"H  c #6B6A6D",
"J  c #6E6E71",
"K  c #717174",
"L  c #767679",
"P  c #7D7D7E",
"I  c #7C7B82",
"U  c #807F80",
"Y  c #88888B",
"T  c #8F8F92",
"R  c #919193",
"E  c #949496",
"W  c #9A9A9B",
"Q  c #9B9B9C",
"!  c #A0A0A2",
"~  c #A8A8AA",
"^  c #ABABAC",
"/  c #AEAEB0",
"(  c #B1B0B0",
")  c #B5B5B6",
"_  c #B7B7B8",
"`  c #BDBDBE",
"'  c #C3C3C4",
"]  c #C7C7C8",
"[  c #D3D3D4",
"{  c #D4D4D5",
"}  c gainsboro",
"|  c gray89",
" . c #E6E6E6",
".. c #E9E9E9",
"X. c #EEEEEE",
"o. c #F1F1F1",
"O. c #F6F6F6",
"+. c #F6F6F7",
"@. c #FBFBFB",
"#. c gray99",
"$. c white",
/* pixels */
"d d d a q q u d f c b v b b f f ",
"B B M h r q f b m m m V V V b b ",
"B B h s < % % & = = = = = = = = ",
"N h i * .                       ",
"z l * G $.$.$.$.$.$.$.# # # # # ",
"l j I ` $.$.$.$.$.$.$.$ $ 4 4 $ ",
"l y $.$.$.$.$.$.$.$.@.Y Y P P P ",
"l 2 $.$.$.$.$.$.$.$.$.^ $.$.@.^ ",
"w % $.$.$.$.$.o.! W W L $.$.o.L ",
"< . +.@.$.$.$.| L F F F  . .} F ",
"p O D _ $.$.$.+.{ E D D H G G D ",
"n @ + K [ +.$.$.$.] R D D D D D ",
"v O + 5 K { $.$.$.$.@.D G F G D ",
"c O + 5 S F ) $.$.$.$.S o.+. .G ",
"k O 5 C K L ' $.$.$.$.D $.$.| F ",
"t .  ...X.X.+.$.$.$.$.D $.$.} F ",
"y . $.$.$.$.$.$.$.{ ~ D D D D D ",
"e . $.$.$.$.$.$.$.( D D D D D D ",
": . + 5 S D D D D D D D D D D D ",
"< . # 5 S D D F D D D D D D D D ",
"x O + 5 S D D D D D D D D D D D ",
"x + + 5 S D D D D D D D D D D D ",
"x O + 5 S D D D D D D D D D D D ",
"p O + 5 A D D D D D D D D D D D ",
"u . + 5 A D D D D D D D D D D D ",
"j . + 5 A D D D D D D D D D D D ",
"y . + 5 A D D D D D D D D D D D ",
"1 . + 5 A D D D D D D D D D D D ",
": . + 5 A S S D D D D D D D D D ",
"t . + 5 A D D D D D F D D D F D ",
"v + + 5 A D D D F F F F F F F F ",
"v O + 5 S D D D S S S S S S S S ",
"c O + 6 G D D D D D D D D D D S ",
"k O + 6 J K J H H H H H H H H H ",
"t . + 3 Z Y T T T T T T T T T T ",
"i . # # 6 A S S D S D S D S D S ",
"e O + # $ - - - - - - - - - - - ",
", . # # $ $ $ $ $ $ - $ $ $ $ $ ",
"9 . + $ $ $ $ $ - $ $ $ $ $ $ $ ",
"c ; + # $ $ $ $ $ $ - $ $ $ $ $ ",
"m x + + $ $ $ $ $ $ $ $ $ $ $ # ",
"B x . # $ $ $ $ # - $ - $ $ $ $ ",
"M f O . + # $ # # $ - # $ $ # $ ",
"g l 2     + @ # # # @ # @ # $ # ",
"l l j 2 %                       ",
"l l l r : X X % & & & & % % X o ",
"s l r 0 0 7 , 8 r j i r 0 0 , 7 ",
"7 0 7 7 7 > 7 > 7 0 7 7 > 7 7 7 "
};
