/* XPM */
static char *xpm_[] = {
/* columns rows colors chars-per-pixel */
"32 48 140 2 ",
"   c #060606",
".  c #06060A",
"X  c #0C0B0D",
"o  c #0A0714",
"O  c #0C0A15",
"+  c #05031D",
"@  c #08061D",
"#  c #0D0B1B",
"$  c #100D1E",
"%  c #141315",
"&  c #151519",
"*  c #181719",
"=  c #1A1A1C",
"-  c #060423",
";  c #0A0622",
":  c #0E0B22",
">  c #110B25",
",  c #100B2E",
"<  c #131325",
"1  c #1E1E20",
"2  c #15152B",
"3  c #19192A",
"4  c #090337",
"5  c #0F0937",
"6  c #02013F",
"7  c #0B063B",
"8  c #0B0A3E",
"9  c #120B38",
"0  c #180E3B",
"q  c #13103D",
"w  c #191038",
"e  c #201F21",
"r  c #212022",
"t  c #2C2C2E",
"y  c #2E2E31",
"u  c #323234",
"i  c #363639",
"p  c #030142",
"a  c #0A0344",
"s  c #0B0B46",
"d  c #070049",
"f  c #0B034A",
"g  c #070849",
"h  c #0B0C4A",
"j  c #140A43",
"k  c #190E45",
"l  c #130A4D",
"z  c #180E49",
"x  c #151644",
"c  c #1C1146",
"v  c #181944",
"b  c #15144C",
"n  c #1D124B",
"m  c #1B1B4C",
"M  c #160A51",
"N  c #1C0F52",
"B  c #161652",
"V  c #1E1354",
"C  c #171852",
"Z  c #1A1A53",
"A  c #1A165A",
"S  c #1D1D5D",
"D  c #20134C",
"F  c #211E4D",
"G  c #221454",
"H  c #221D53",
"J  c #231959",
"K  c #23224E",
"L  c #282848",
"P  c #3C3C47",
"I  c #252555",
"U  c #272857",
"Y  c #2D2D54",
"T  c #23235C",
"R  c #29295B",
"E  c #303056",
"W  c #32325C",
"Q  c #262761",
"!  c #292761",
"~  c #272862",
"^  c #2C2C63",
"/  c #363661",
"(  c #383862",
")  c #3C3C68",
"_  c #404041",
"`  c #4A4A4C",
"'  c #535255",
"]  c #57565A",
"[  c #5B5B5E",
"{  c #5E5E61",
"}  c #525278",
"|  c #616164",
" . c #66666A",
".. c #6B6B6E",
"X. c #6E6E71",
"o. c #727275",
"O. c #787779",
"+. c #7B7B7C",
"@. c #807F80",
"#. c #878788",
"$. c #8A8A8D",
"%. c #8F8F92",
"&. c #929294",
"*. c #969698",
"=. c #9C9C9E",
"-. c #9F9FA1",
";. c #A3A3A4",
":. c #ADADAF",
">. c #AAAAAB",
",. c #B0B0AF",
"<. c #B3B2B3",
"1. c #B6B5B6",
"2. c #BCBBBC",
"3. c #BFBFC0",
"4. c #C8C7C7",
"5. c #C8C8C9",
"6. c #C9C9CA",
"7. c #CDCDCE",
"8. c #CECECF",
"9. c gray83",
"0. c #D7D7D8",
"q. c gray87",
"w. c #DEDEDF",
"e. c #DFDFE0",
"r. c #E2E2E2",
"t. c #E2E2E3",
"y. c #E4E4E4",
"u. c #E5E5E6",
"i. c #E7E7E7",
"p. c #F1F1F1",
"a. c gray95",
"s. c #F4F4F4",
"d. c #F8F8F8",
"f. c #F9F9F9",
"g. c #FBFBFB",
"h. c gray99",
"j. c #FCFCFD",
"k. c #FDFDFD",
"l. c #FEFEFE",
"z. c white",
/* pixels */
"C C C B g g b C Z I U U U U H Z C C C C C C h g b C Z Z U U R U ",
"^ ^ Q S h h Z R W W ( ( ( / R R R R R R R T b s C R ^ ( ) ) ) ) ",
"^ ^ S A 5 @ ; : 3 < < < < < < < < < < < < : @ @ @ : 2 L / ^ / ^ ",
"! S c , # X X O X X X X X X X X X X X o X X * t y y u P } ~ ~ ~ ",
"J G z.z.z.z.z.O.* * [ z.z.z.z.* * * * * * * +.z.z.z.z.z.z.Z S S ",
"G D z.z.z.z.z.O.1 r | k.z.z.z.1 1 = = r #.#.2.z.z.z.z.z.z.q V A ",
"G c z.z.z.z.z.-. .+.>.z.z.z.z.+. .[ ..@.z.z.z.z.z.z.z.z.z.$ z M ",
"G 0 z.z.z.z.z.1.$.:.4.z.z.z.z.;.*.$.*.<.z.z.z.z.z.z.z.z.z.O 9 f ",
"j ; z.z.z.z.z.%. .+.=.z.z.z.z.o... .X.+.z.z.z.z.z.0.:.:.*.% - p ",
"8 O z.z.z.z.z.%.| | =.z.z.z.f.[ { |  . .z.z.z.z.a.o.|  .u & O a ",
"m # z.z.z.z.z.*.| =.t.z.z.5.$.{ { { | | z.z.z.z.z.2.%.+.] % : m ",
"E & z.z.z.z.z.*.| w.z.z.z.;.{ [ { { [ [ z.z.z.z.z.z.g.f.d.% < I ",
"Y & f.z.z.z.z.;.X.r.z.z.z.;.{ { { { [ { z.z.z.z.z.f.z.z.z.% $ Z ",
"F # _ +.7.z.z.e.5.s.z.z.z.-.{ { { { { { z.z.z.z.f.=.o.X.` % # m ",
"m & % t :.z.z.z.z.z.z.d.w.#.{ { { { { { z.z.z.z.a.o.| { y % # n ",
"b O % t >.z.z.z.z.z.z.i.#.{ { { { { { { z.z.z.z.z.i.7.9.7.% $ D ",
"c O % t -.z.z.z.z.z.z.t.o.{ { { { { { { z.z.z.z.z.z.z.z.z.% # z ",
"k O % t %.z.z.z.z.z.z.i...{ { { { { { { z.z.z.z.z.z.z.z.z.% : f ",
"4 o % t [ { { { { { { { { { { { { { { { { { { { { { { ] y % ; 6 ",
"q O % t [ { | { { { { { { { { { { { { { { { { { { { { [ y % < m ",
"K O & t [ { { { { { { { { { { { { { { { { { { { { { { ] y & 3 W ",
"I O % t [ { { { { { { { { { { { { { { { { { { { { { { [ t % 2 W ",
"K O % t [ { { { { { { { { { { { { { { { { { { { { { { [ y % < I ",
"m O % t [ { { { { { { { { { { | { { { { { { { { { { { [ y % 2 Z ",
"v # % t ] { { { { { { { { { { { { { { { { { { { { { { [ t % : B ",
"D O % t ] { { { { { { { { { { { { { { { { { { { { { { [ t % # D ",
"c O % t [ { { { { { { { { { { { { { { { { { { { { { { [ y % > z ",
"0 O % t ] [ { { { { { { { { { { { { { { { { { { { { { [ t % # 6 ",
"7 o % t ] [ [ { { { { { { { { { { { { { { { { { { { { [ t % @ 6 ",
"x O % t ] { { { { { { { { { | { { { { | { { { { { { { [ y % > m ",
"Y & % t [ { { | | | | | | | | { | { | | { | { { { { { [ y % < I ",
"Y # % t ] { { [ [ [ [ [ [ { [ [ { [ { [ [ [ { [ [ { { ] t & & m ",
"K O % u | | { { { { { { [ { { [ [ { { [ { { { [ { [ {  .u % # b ",
"F # % u ..o.X.....................................o.o.X.u % $ c ",
"m O % r ' #.&.%.%.%.%.%.%.%.%.%.&.%.%.%.&.%.%.%.%.%.$.' r & $ D ",
"x O % = i ] [ [ [ { [ { { [ { [ [ [ [ [ [ [ [ [ [ [ [ i * & > n ",
"c O % * = 1 1 1 1 1 1 1 1 1 1 1 1 1 1 1 1 1 1 1 = e 1 = = & > a ",
"7 O & = = = = = 1 = 1 = = = = = = * = = = = = = = = = * 1 * + 6 ",
"s O & = = = = = = = = = = = = = = = = = = = = = = = = = = * # x ",
"I < % * = = * = = = = 1 = = = = = = = = * = = = = = = = * % < E ",
"^ L O & = = = = = = = = = = = = = = = = = = = = = = = * % . 2 / ",
"^ I X & = = = = = 1 1 = = = * = * = = = = = 1 = = = = * X   2 Q ",
"T H # % % & = = & = = = = = = * = = = = 1 = = = = = = % . . x Q ",
"A G w . X & & * & * * & & * = * * * * * * * * * * * % X   # C A ",
"G G D 0 @ X X X X X X X X X X X X X X X X X X X X X X   O 9 G G ",
"J G G M 4 + + - : : > : ; ; o @ @ o @ O @ ; - - + - ; > n G V N ",
"N V l d d p p a l z n f d a p a a 7 k c j a a p 6 p a l G z f d ",
"a a p p p 6 6 p a a p p p p p p p p p p p p p 6 p 6 p p p g p p "
};
