/* XPM */
static char *_a9ec3127ec34234f17ff5a3809158acSg4Fq7EvCv0JWUhl[] = {
/* columns rows colors chars-per-pixel */
"16 48 97 2 ",
"   c #060606",
".  c #06060A",
"X  c #0C0B0D",
"o  c #0A0714",
"O  c #0C0B10",
"+  c #05031D",
"@  c #08071D",
"#  c #0D0B1C",
"$  c #100C1E",
"%  c #141415",
"&  c #161619",
"*  c #181719",
"=  c #1A1A1C",
"-  c #060423",
";  c #0A0622",
":  c #0E0D22",
">  c #110B25",
",  c #131325",
"<  c #1E1E20",
"1  c #16162C",
"2  c #19192A",
"3  c #02013E",
"4  c #0C053E",
"5  c #09093F",
"6  c #100838",
"7  c #171733",
"8  c #15113C",
"9  c #201F21",
"0  c #212123",
"q  c #2D2D2F",
"w  c #2E2E30",
"e  c #333335",
"r  c #363639",
"t  c #030142",
"y  c #0A0444",
"u  c #0B0A45",
"i  c #0C034B",
"p  c #0B0C4A",
"a  c #110843",
"s  c #180D45",
"d  c #150A4A",
"f  c #190E49",
"g  c #131443",
"h  c #1C1046",
"j  c #181944",
"k  c #15134D",
"l  c #1D124B",
"z  c #1B1B4D",
"x  c #160A51",
"c  c #1C0F52",
"v  c #171752",
"b  c #1E1356",
"n  c #171852",
"m  c #1A1A53",
"M  c #191559",
"N  c #1B1B5D",
"B  c #211353",
"V  c #282848",
"C  c #252656",
"Z  c #272857",
"A  c #23235B",
"S  c #2A2A5B",
"D  c #33335B",
"F  c #272862",
"G  c #2D2D63",
"H  c #343462",
"J  c #383865",
"K  c #3C3C68",
"L  c #565559",
"P  c #5A5A5E",
"I  c #5E5E61",
"U  c #606063",
"Y  c #616164",
"T  c #646467",
"R  c #67676B",
"E  c #68686A",
"W  c #6A6A6C",
"Q  c #6C6C6F",
"!  c #6D6D70",
"~  c #6F7072",
"^  c #737376",
"/  c #767678",
"(  c #7A7A7D",
")  c #7D7C7D",
"_  c #807F7F",
"`  c #807F80",
"'  c #808080",
"]  c #818184",
"[  c #858589",
"{  c #89898D",
"}  c #8F8F92",
"|  c #919193",
" . c #949496",
".. c #979799",
"X. c #ACABAC",
"o. c #B0AFAF",
"O. c #B1B1B1",
/* pixels */
"n n v v n n p y k n n m S S S Z ",
"S S S S S A k u n S S J K K K K ",
", , , , , : @ + @ : 1 V G G G H ",
"X X X X X X X X X X X , C F F F ",
"& & & & & & & & & & & X 7 m N N ",
"= = = 9 9 9 9 9 = = < * # 8 b b ",
"E I W ` _ ) ' ) T I P e % $ l x ",
" .{ ..O.o.X.O.O.| [ ] P 0 O 6 i ",
"! R ! ( ^ ~ / ( Q ! ^ ! e % - t ",
"I Y R R Y U U R T Y Y R e % @ 5 ",
"I I U Y U U I U Y U Y P w % # z ",
"I I P P I I I I P I Y P w % , C ",
"T I P I I I I I P I I P q % , m ",
"R I I I I I I I I I I P q % # l ",
"T I I I I I I I I I I P q % # l ",
"U I I I I I I I I I I P q % $ l ",
"I I I I I I I I I I I P q % # f ",
"I I I I I I I I I I I P q % : i ",
"I I I I I I I I I I I P q % ; 3 ",
"I I I I I I I I I I I P w % , z ",
"I I I I I I I I I I I P w & 2 D ",
"I I I I I I I I I I I P q % 1 S ",
"I I I I I I I I I I I P q % , C ",
"I I I I I I I I I I I P q % , m ",
"I I I I I I I I I I I P q % : l ",
"I I I I I I I I I I I P q % # l ",
"I I I I I I I I I I I P q % # f ",
"I I I I I I I I I I I P q % # y ",
"I I I I I I I I I I I P q % @ 3 ",
"I I I I I I I I I I I P q % : z ",
"Y Y Y Y Y U I I I I U P q % , C ",
"P P P P P P P P P I I P q % % m ",
"I I I I I I I I I P I R e % # k ",
"W W W W W W W W Q ! ^ ! e % # l ",
"} } } } } } } } } } { L 0 % $ l ",
"P P P P P P P P P P P r * % > l ",
"< < < < < < < < < < < = = % : u ",
"= = = = = = = = = = = = = & @ 3 ",
"= = = = = = = = = = = = = * # g ",
"= = = = = = = = = = = = * % , D ",
"= = = = = = = = = = = = % . 1 H ",
"* = = = = = = = = = = * X   1 S ",
"* * = = = = = = = = = %   . j A ",
"* * * * * * * * * & % .   # k M ",
"X X X X X X X X X X X . @ 8 B B ",
"# o # # # ; - - + + ; > l B b c ",
"y 4 s h a y t t 3 t y d B c i i ",
"t t t y t t t t 3 t t t y t t t "
};
