/* XPM */
static char *result[] = {
/* columns rows colors chars-per-pixel */
"32 48 11 1 ",
"  c #52333F",
". c #4B1D52",
"X c #692464",
"o c #3B7D4F",
"O c #9C2A70",
"+ c #CC2F7B",
"@ c #8F4D57",
"# c #BD6A62",
"$ c #63AB3F",
"% c #FF8933",
"& c None",
/* pixels */
"&&&&&&&&&&&&&&&&&&&&&&&&&&&&&&&&",
"&&&&&&&&&&&&&&&&&&&&&&&&&&&&&&&&",
"&&&&&&&&&&&&&&&&&&&&&&&&&&&&&&&&",
"&&&&&&&&&&&&&&&&&&&&&&&&&&&&&&&&",
"&&&&&&&&&&&&&&&&&&&&&&&&&&&&&&&&",
"&&&&&&&&&&&&&&&&&&&&&&&&&&&&&&&&",
"&&&&&&&&&&&&&&    &&&&&&&&&&&&&&",
"&&&&&&&&&&&&&&    &&&&&&&&&&&&&&",
"&&&&&&&&&&&&  ++++  &&&&&&&&&&&&",
"&&&&&&&&&&&&  ++++  &&&&&&&&&&&&",
"&&&&&&&&&&  ++++++++  &&&&&&&&&&",
"&&&&&&&&&&  ++++++++  &&&&&&&&&&",
"&&&&&&&&  OO++++++++OO  &&&&&&&&",
"&&&&&&&&  OO++++++++OO  &&&&&&&&",
"&&&&&&&&  OOOO%%%%OOOO  &&&&&&&&",
"&&&&&&&&  OOOO%%%%OOOO  &&&&&&&&",
"&&&&                        &&&&",
"&&&&                        &&&&",
"&&  OO++++++++++++++++++++OO  &&",
"&&  OO++++++++++++++++++++OO  &&",
"  OOOOOOOOOOOOOOOOOOOOOOOOOOOO  ",
"  OOOOOOOOOOOOOOOOOOOOOOOOOOOO  ",
"  OOOOOO                OOOOOO  ",
"  OOOOOO                OOOOOO  ",
"&&  OO    @@########@@    OO  &&",
"&&  OO    @@########@@    OO  &&",
"&&&&    @@############@@    &&&&",
"&&&&    @@############@@    &&&&",
"&&      @@##XX####XX##@@      &&",
"&&      @@##XX####XX##@@      &&",
"&&      @@##..####..##@@      &&",
"&&      @@##..####..##@@      &&",
"&&        @@########@@        &&",
"&&        @@########@@        &&",
"&&      OO@@@@@@@@@@@@OO      &&",
"&&      OO@@@@@@@@@@@@OO      &&",
"&&&&  ++OOOOOOooooOOOOOO++  &&&&",
"&&&&  ++OOOOOOooooOOOOOO++  &&&&",
"&&&&  ##OOOO++$$$$++OOOO##  &&&&",
"&&&&  ##OOOO++$$$$++OOOO##  &&&&",
"&&&&&&  OO++++$$$$++++OO  &&&&&&",
"&&&&&&  OO++++$$$$++++OO  &&&&&&",
"&&&&&&  OO@@@@    @@@@OO  &&&&&&",
"&&&&&&  OO@@@@    @@@@OO  &&&&&&",
"&&&&&&&&      &&&&      &&&&&&&&",
"&&&&&&&&      &&&&      &&&&&&&&",
"&&&&&&&&&&&&&&&&&&&&&&&&&&&&&&&&",
"&&&&&&&&&&&&&&&&&&&&&&&&&&&&&&&&"
};
