/* XPM */
static char *xpm_[] = {
/* columns rows colors chars-per-pixel */
"16 48 109 2 ",
"   c #0C0B0E",
".  c #0C0A15",
"X  c #05031C",
"o  c #08051C",
"O  c #0E0D19",
"+  c #100E1E",
"@  c #131315",
"#  c #151519",
"$  c #181719",
"%  c #1A1A1C",
"&  c #0A0623",
"*  c #0D0A22",
"=  c #130D2F",
"-  c #131325",
";  c #1F1F21",
":  c #14142B",
">  c #090337",
",  c #00003F",
"<  c #0A073A",
"1  c #0C0B3D",
"2  c #150D38",
"3  c #180E3B",
"4  c #191038",
"5  c #222224",
"6  c #2C2C2E",
"7  c #333335",
"8  c #3F3E3F",
"9  c #040142",
"0  c #090345",
"q  c #070049",
"w  c #0B034A",
"e  c #070849",
"r  c #150C42",
"t  c #1A0F44",
"y  c #120A4E",
"u  c #171745",
"i  c #1C1246",
"p  c #16144B",
"a  c #1B124C",
"s  c #1C1C4B",
"d  c #141652",
"f  c #1D1253",
"g  c #171852",
"h  c #1A1B54",
"j  c #1C175A",
"k  c #1F1F5D",
"l  c #20134C",
"z  c #211E4D",
"x  c #221455",
"c  c #221D53",
"v  c #231959",
"b  c #23224E",
"n  c #242553",
"m  c #2D2D54",
"M  c #23235F",
"N  c #29295A",
"B  c #303056",
"V  c #30305E",
"C  c #262761",
"Z  c #292761",
"A  c #2B2B63",
"S  c #373761",
"D  c #383861",
"F  c #515053",
"G  c #57575A",
"H  c #5B5B5E",
"J  c #5E5E61",
"K  c #616164",
"L  c #646468",
"P  c #6B6B6E",
"I  c #6E6E71",
"U  c #727275",
"Y  c #7D7D7E",
"T  c #807F80",
"R  c #808082",
"E  c #89898C",
"W  c #8F8F92",
"Q  c #969698",
"!  c #A6A6A7",
"~  c #ACABAC",
"^  c #B0AFAF",
"/  c #B2B2B3",
"(  c #B9B9BA",
")  c #C4C4C5",
"_  c #C8C8C8",
"`  c #C9C9CA",
"'  c #CDCDCD",
"]  c #D0D0D1",
"[  c #D7D7D7",
"{  c #DADADA",
"}  c gray87",
"|  c #DFDFE0",
" . c #E2E2E2",
".. c #E3E3E4",
"X. c #E6E6E7",
"o. c #EAEAEA",
"O. c gray92",
"+. c #EEEEEE",
"@. c #EFEFEF",
"#. c gray94",
"$. c #F1F1F1",
"%. c #F3F3F4",
"&. c #F6F6F6",
"*. c gray97",
"=. c #F7F7F8",
"-. c gray98",
";. c #FBFBFB",
":. c #FDFDFD",
">. c #FEFEFE",
/* pixels */
"g g g d e e p g n n N N n N h h ",
"A A C k y e h N V V S D S S N N ",
"A A k f 1 & & * - - - - - - - - ",
"Z k a = O                       ",
"v x :   % Q @.:.:.&.) J % # $ $ ",
"x l O   7 ^ $.:.:.-.` P 8 5 5 % ",
"x i . # ( o.-.:.:.:.$.{ ' R Y Y ",
"x 2 . 5 $.:.:.:.:.:.:.*.*.^ ~ ! ",
"r & @ 7 :.:.:.%.$.:.:.:.:.U U U ",
"1 . # 7 :.:.$.R E o.:.:.:.K J J ",
"s + # 6 :.:.` L K ] :.:.:.K J H ",
"B # @ 6 :.:.) K H ) :.:.:.J J J ",
"m @ @ 6 :.:.[ J H ` :.:.:.J H J ",
"z O @ 6 :.:.} K J ` :.:.:.J J J ",
"s O @ 6 :.:...I U  .-.:.:.J J J ",
"p O @ 6 $.&.-. .o.&.=.@.@.J J J ",
"i . # 6 (  .-.:.:.-.o.) E J J J ",
"t . @ 6 L /  .o.o.@.{ Q K J J J ",
"< . @ 6 H K J K J J J J J J J J ",
"1 . @ 6 H J J K J J J J J J J J ",
"b O @ 6 H J J J J J J J J J J J ",
"b @ @ 6 H J J J J J J J J J J J ",
"b O @ 6 H J J J J J J J J J J J ",
"s O @ 6 G J J J J J J J J J J J ",
"a . @ 6 G J J J J J J J J J J J ",
"i . @ 6 G J J J J J J J J J J J ",
"i . @ 6 G J J J J J J J J J J J ",
"3 . @ 6 G J J J J J J J J J J J ",
"> o @ 6 G J J J J J J J J J J J ",
"u . @ 6 G J J J K J J J J J K J ",
"m @ @ 6 G J J J K K K K K K K K ",
"B O @ 6 G J J J H H H J H H H J ",
"b @ @ 7 L K J J J H J J J J H J ",
"s O @ 7 P U I P P P P P P P P P ",
"p O @ ; F E W W W W W W W W W W ",
"a . @ % 7 G H H J H J H H J H H ",
"t O @ % % ; ; ; ; ; ; ; ; ; ; ; ",
"< . $ % % % % % ; % % ; % % % % ",
"1 . # % % % % % % % % % % % % % ",
"n : . $ % % % % ; % % % ; % % % ",
"V b @ # % % % % $ % % % % % % % ",
"A b . $ % % % % $ ; ; % % % % $ ",
"M c O . @ $ % % $ % ; % % % $ % ",
"j x 2     @ $ $ $ $ # # # % $ $ ",
"x x l 4 o                       ",
"x x x y > X X & * * * * * & o X ",
"f f y w q 9 , 0 y l a w q q , < ",
"q q 9 9 9 , , , q 0 9 9 9 9 9 9 "
};
