/* XPM */
static char *xpm_[] = {
/* columns rows colors chars-per-pixel */
"16 48 110 2 ",
"   c #060606",
".  c #06060A",
"X  c #0B0B0D",
"o  c #0A0714",
"O  c #0C0B10",
"+  c #05031D",
"@  c #08071D",
"#  c #0D0B1C",
"$  c #100C1E",
"%  c #141415",
"&  c #161619",
"*  c #181719",
"=  c #1A1A1C",
"-  c #060423",
";  c #0A0622",
":  c #0E0C22",
">  c #110B25",
",  c #131325",
"<  c #1E1E20",
"1  c #16162C",
"2  c #19192A",
"3  c #02013E",
"4  c #0C053E",
"5  c #100838",
"6  c #171733",
"7  c #15103C",
"8  c #222223",
"9  c #2D2D2F",
"0  c #2E2E30",
"q  c #323235",
"w  c #363639",
"e  c #39383A",
"r  c #030142",
"t  c #0A0444",
"y  c #0B0A45",
"u  c #0C034B",
"i  c #0B0C4A",
"p  c #180D45",
"a  c #150A4A",
"s  c #180E49",
"d  c #131443",
"f  c #1C1046",
"g  c #181944",
"h  c #15134D",
"j  c #1D124B",
"k  c #1B1B4D",
"l  c #160A51",
"z  c #1C0F52",
"x  c #171752",
"c  c #1E1356",
"v  c #171852",
"b  c #1A1A53",
"n  c #191559",
"m  c #1A1B5D",
"M  c #211353",
"N  c #282848",
"B  c #252656",
"V  c #272857",
"C  c #23235B",
"Z  c #2A2A5B",
"A  c #33335A",
"S  c #272862",
"D  c #2D2D63",
"F  c #343462",
"G  c #383865",
"H  c #3C3C68",
"J  c #565559",
"K  c #5A5A5E",
"L  c #5E5E61",
"P  c #616164",
"I  c #666669",
"U  c #6B6B6E",
"Y  c #6F6E72",
"T  c #727275",
"R  c #7B7B7D",
"E  c #878789",
"W  c #88888B",
"Q  c #8F8F92",
"!  c #949496",
"~  c #969698",
"^  c #B0AFB1",
"/  c #B1B1B2",
"(  c #B3B3B4",
")  c #BABABB",
"_  c #C3C3C4",
"`  c #C5C5C6",
"'  c #C6C6C7",
"]  c #C7C7C8",
"[  c #CACACB",
"{  c #CDCDCE",
"}  c #D1D1D2",
"|  c #D6D6D7",
" . c #DADADA",
".. c gray87",
"X. c #DFDFE0",
"o. c #E1E1E1",
"O. c #E3E3E4",
"+. c #E6E6E7",
"@. c #EAEAEB",
"#. c gray92",
"$. c #EEEEEE",
"%. c #EFEFEF",
"&. c gray94",
"*. c #F4F4F4",
"=. c #F6F6F6",
"-. c #F7F7F8",
";. c #F9F9F9",
":. c #FBFBFB",
">. c #FCFCFD",
",. c #FEFEFE",
/* pixels */
"v v x x x v i t h b x b V V Z B ",
"Z Z Z Z Z C h y b Z D G H H H H ",
", , , , , : @ + : : , N F D D D ",
"X X X O X O X X X X X , B S D S ",
"* * * 8 ~ &.,.,.=.' K % 6 m m m ",
"= 8 = e / &.,.,.=.] U e % 7 c c ",
"U K U } #.,.,.,.,.#.{ ^ % # f l ",
"! W ~ :.:.,.,.,.,.:.-.%.8 O 5 u ",
"U U T ,.,.,.=.*.:.,.,.,.q % - r ",
"K P I ,.,.$.R E #.,.,.,.q % o y ",
"L L P ,.,.[ L P } :.,.,.0 * # k ",
"L K K ,.,._ L L ' ,.,.,.0 % , V ",
"L L L ,.,.| L L ] :.,.,.9 & , b ",
"L L L ,.,...P P [ :.,.,.9 % $ j ",
"L L L ,.,.o.U T X.:.,.,.9 % # j ",
"L L L $.=.:.o.#.=.=.$.+.9 % # s ",
"L L L ) o.:.:.,.:.#.' E 9 % # s ",
"L L L U ( o.#.+.$. .! K 9 % : u ",
"L L L L L L L L L L L K 9 % + 3 ",
"L L L L L L L L L L L K 0 % , B ",
"L L L L L L L L L L L K 9 * 2 A ",
"L L L L L L L L L L L K 9 % , Z ",
"L L L L L L L L L L L K 9 * , C ",
"L L L L L L L L L L L K 0 & , b ",
"L L L L L L L L L L L K 9 % : k ",
"L L L L L L L L L L L K 9 % : j ",
"L L L L L L L L L L L K 9 % # f ",
"L L L L L L L L L L L K 9 % # 3 ",
"L L L L L L L L L L L K 9 % @ 3 ",
"L P L L P L L L L L L K 0 % : v ",
"P P P P P P L L L L P K 9 % , B ",
"K L K L K K K K K K L K 9 % & k ",
"L L L K L L L L K L L I q % # h ",
"U U U U U U U U U Y T Y q % $ f ",
"Q Q Q Q Q Q Q Q Q Q W J < % $ f ",
"L K K K K K K K K K J w = * > j ",
"< < < < < < < < < < < = = & : u ",
"= = = = = = = = = = = = = * @ 3 ",
"= = & = = = * = = = = = < = # d ",
"= = = = = = = = = = = = * O & A ",
"= = = = = = = = = = = = *   2 F ",
"= = = = = = = = = = * * X   1 Z ",
"* = = = = = = = = = = % X . g m ",
"* * * * * = * * & & % X   # x n ",
"X X X X X X X X X X X . @ 7 M M ",
"# o # @ # ; - + + + ; > f c M z ",
"4 4 p f y t r r 3 r t a c z u u ",
"r 3 t t r r r r 3 r r 3 t r r r "
};
