/* XPM */
static char *xpm_[] = {
/* columns rows colors chars-per-pixel */
"16 48 99 2 ",
"   c #0C0B0E",
".  c #0C0A15",
"X  c #05031C",
"o  c #08051C",
"O  c #0E0D19",
"+  c #100E1E",
"@  c #131315",
"#  c #151519",
"$  c #181719",
"%  c #1A1A1C",
"&  c #0A0623",
"*  c #0D0A22",
"=  c #130D2F",
"-  c #131325",
";  c #1F1F21",
":  c #14142B",
">  c #090337",
",  c #00003F",
"<  c #0A073A",
"1  c #0C0B3D",
"2  c #150D38",
"3  c #180E3B",
"4  c #191038",
"5  c #201F21",
"6  c #222224",
"7  c #2C2C2E",
"8  c #333335",
"9  c #373739",
"0  c #383739",
"q  c #040142",
"w  c #090345",
"e  c #0B034A",
"r  c #070849",
"t  c #150C42",
"y  c #1A0F44",
"u  c #120A4E",
"i  c #171745",
"p  c #1C1246",
"a  c #16144B",
"s  c #1B124C",
"d  c #1C1C4B",
"f  c #141652",
"g  c #1D1253",
"h  c #171852",
"j  c #1A1B54",
"k  c #1C175A",
"l  c #1F1F5D",
"z  c #20134C",
"x  c #211E4D",
"c  c #221455",
"v  c #221D53",
"b  c #231959",
"n  c #23224E",
"m  c #242553",
"M  c #2D2D54",
"N  c #23235F",
"B  c #29295A",
"V  c #303056",
"C  c #30305E",
"Z  c #262761",
"A  c #292761",
"S  c #2B2B63",
"D  c #373761",
"F  c #383861",
"G  c #515053",
"H  c #57575A",
"J  c #5B5B5E",
"K  c #5E5E61",
"L  c #616164",
"P  c #66666A",
"I  c #6B6B6E",
"U  c #6E6E71",
"Y  c #717274",
"T  c #747477",
"R  c #747578",
"E  c #7B7B7C",
"W  c gray50",
"Q  c #7E7E81",
"!  c #88888B",
"~  c #8D8D8D",
"^  c #8E8E91",
"/  c #8F8F92",
"(  c #A2A2A4",
")  c #A6A6A7",
"_  c #ACABAC",
"`  c #B1B0B0",
"'  c #B9B8B8",
"]  c #D2D2D3",
"[  c #D9D9DA",
"{  c #E3E3E4",
"}  c #E4E4E4",
"|  c #E4E4E5",
" . c #E9E9E9",
".. c #EEEEEE",
"X. c gray95",
"o. c #F4F4F4",
"O. c #FBFBFB",
"+. c gray99",
"@. c #FEFEFE",
/* pixels */
"h h h f r r a h j m m B B m j j ",
"S S Z l u r j B C F F F F D B B ",
"S S l g 1 & & * - - - - - - - - ",
"A l s = O                 .     ",
"b c :     6 +.+.+.[ 9 $ $ $ $ $ ",
"c s #   9 J +.+.+.[ 0 5 5 6 % ; ",
"c p . $ +.+.+.+.+. .~ W W W W E ",
"c 3 O 6 +.+.+.+.+.X.' ` ` ` _ ) ",
"t * @ 8 ( ] +.+.+. .Q R R R R T ",
"< . @ 8 P P +.+.+. .I L L L J J ",
"d * @ 7 J P +.+.+.} I K K K K K ",
"V # @ 7 J I +.+.+.{ I K K K K J ",
"M # @ 7 H L +.+.+. .I K K K K K ",
"j O $ 7 J P +.+.+.} U K K K K K ",
"x O @ 7 P ~ +.+.+...Q L L K K K ",
"i . @ 7 } o.+.+.+.+...} } K K K ",
"p . @ 7 +.+.+.+.+.+.+.+.+.K K K ",
"p . @ 7 +.+.+.+.+.+.+.+.+.K K K ",
"< . @ 7 K L L K P K K L L L K K ",
"1 . @ 7 J L L K K K K K K K K K ",
"n O @ 7 J K K K K K K K K K K K ",
"m @ @ 7 J K L K K K K K K K K K ",
"n O @ 7 H K K K K K K K K K K K ",
"d . @ 7 J K K K K K K K K K K K ",
"s . @ 7 H K K K K K K K K K K K ",
"p . @ 7 H K K K K K K K K K K K ",
"p . @ 7 H K K K K K K K K K K K ",
"3 . @ 7 H K K K K K K K K K K K ",
"> . @ 7 H K K K K K K K K K K K ",
"i . @ 7 H K K K K L L K K K L K ",
"M # @ 7 H K K K L L L L L L L L ",
"M O + 7 H K K K J J J J J J J J ",
"n O @ 8 L L K K K J K K K J K K ",
"x O @ 8 U Y U U I I I I I I I I ",
"a . @ 5 G ! ^ ^ ^ ^ / / / ^ ^ ^ ",
"p . @ % 8 H J J K J K J K K K H ",
"p O @ % % ; ; ; ; ; ; ; ; ; ; ; ",
"< . # % % % % % % % ; % % % % % ",
"1 . # % % % % % % ; % % % % % % ",
"m : @ $ % % % % % % ; % % % % % ",
"S n   $ % % % % % % % % % % % % ",
"S m @ $ $ % % % # ; ; % % % % % ",
"Z v O . @ $ $ $ # % % % $ % % $ ",
"k g 4     @ # # % # $ # $ % $ $ ",
"c c z 4 o     .                 ",
"c c c u > & X & * * * * * & X o ",
"g c u e q q q q u z g e e q > q ",
"q q q q q q q q q w q q q q q q "
};
