/* XPM */
static char *xpm_[] = {
/* columns rows colors chars-per-pixel */
"16 48 98 2 ",
"   c #060606",
".  c #06060A",
"X  c #0C0B0D",
"o  c #0A0714",
"O  c #0C0B10",
"+  c #05031D",
"@  c #08071D",
"#  c #0D0B1C",
"$  c #100C1E",
"%  c #141415",
"&  c #161619",
"*  c #181719",
"=  c #1A1A1C",
"-  c #060423",
";  c #0A0622",
":  c #0E0C22",
">  c #110B25",
",  c #131325",
"<  c #1E1E20",
"1  c #16162C",
"2  c #19192A",
"3  c #02013E",
"4  c #0C053E",
"5  c #171733",
"6  c #15103C",
"7  c #212123",
"8  c #2D2D2F",
"9  c #2E2E30",
"0  c #333335",
"q  c #363639",
"w  c #3E3D3F",
"e  c #030142",
"r  c #0A0444",
"t  c #0B0A45",
"y  c #0C034B",
"u  c #0B0C4A",
"i  c #110843",
"p  c #180D45",
"a  c #180E49",
"s  c #1C1046",
"d  c #181944",
"f  c #15134D",
"g  c #1D124B",
"h  c #1B1B4D",
"j  c #160A51",
"k  c #1C0F52",
"l  c #171752",
"z  c #1E1356",
"x  c #171852",
"c  c #1A1A53",
"v  c #191559",
"b  c #1A1B5D",
"n  c #211353",
"m  c #282848",
"M  c #252656",
"N  c #272857",
"B  c #23235B",
"V  c #2A2A5B",
"C  c #33335A",
"Z  c #272862",
"A  c #2D2D63",
"S  c #343462",
"D  c #383865",
"F  c #3C3C68",
"G  c #565559",
"H  c #5A5A5D",
"J  c #5E5E61",
"K  c #616164",
"L  c #656568",
"P  c #666668",
"I  c #6A6A6C",
"U  c #6B6B6E",
"Y  c #6D6D70",
"T  c #6D6D71",
"R  c #6F6F72",
"E  c #717174",
"W  c #77777A",
"Q  c #7E7E81",
"!  c #818184",
"~  c #89898C",
"^  c #8A8A8C",
"/  c #8C8C90",
"(  c #8E8E91",
")  c #8F8F92",
"_  c #939395",
"`  c #979799",
"'  c #A9A9AB",
"]  c LightGray",
"[  c gray85",
"{  c gray89",
"}  c #E3E3E4",
"|  c #E6E6E7",
" . c gray92",
".. c #ECECED",
"X. c #EEEEEE",
"o. c #F4F4F4",
"O. c #F9F9F9",
"+. c #FEFEFE",
/* pixels */
"x x l l l x u r f x x c V N N N ",
"V V V V V B f t c V A D F F F F ",
", , , , , : @ + # : 2 m S A A A ",
"X X X O X O X X X X X , M Z A Z ",
"* * & * 7 +.+.+.[ 0 * O 5 b b b ",
"= < = w H +.+.+.[ 0 = * % 6 z z ",
"I K I +.+.+.+.+.} U H q % $ s j ",
"_ ~ ` +.+.+.+.+.../ ! G 7 O 4 y ",
"I I E ' ] +.+.+.} W E Y 0 O - e ",
"H K L L I +.+.+. .I K L 0 * @ t ",
"J J K K L +.+.+.} Y K J 9 % * h ",
"J J H H L O.+.+.} I K H 9 % , M ",
"J J H J K O.+.+.} Y J H 8 % , h ",
"J J J J L +.+.+.| Y J H 8 % $ g ",
"J J J I ~ +.+.+...! K J 8 % # g ",
"J J J } o.+.+.+.O...} } 8 % # a ",
"J J J +.+.+.+.+.+.+.+.+.8 % $ p ",
"J J J +.+.+.+.+.+.+.+.+.8 % > y ",
"J J J K K J J J J J J H 8 % @ 3 ",
"J J J J J J J J J J H H 8 & 1 h ",
"J J J J J J J J J J J H 9 % 1 C ",
"J J J J J J J J J J J H 9 % 1 V ",
"J J J J J J J J J J J H 9 % , V ",
"J J J J J J J J J J J H 9 & , c ",
"J J J J J J J J J J J H 8 % , f ",
"J J J J J J J J J J J H 8 % # g ",
"J J K J J J J J J J J H 8 % # a ",
"J J J J J J J J J J J H 8 % # 3 ",
"J J J J J J J J J J J H 9 % @ 3 ",
"J K J K K J J H J J J H 9 % : h ",
"K K K K K K J K J J J H 9 % , B ",
"H H H H H H H H H J J H 8 % * h ",
"J H J J J J J H J H J P 0 % # f ",
"U U U U U U U U U E E U 0 % $ s ",
") ) _ / ) ) ) ) ) ) ^ G < % $ g ",
"H H H H H H H H H H H q * * > g ",
"< < < < < < < < < < < = = * : y ",
"= = = = = = = = = = = = = * # 3 ",
"* = = = = = = = = = = = < = # 6 ",
"= = = = * = = = = = = = * O , C ",
"= = = = = = = = = = = = % . 2 C ",
"= = = = = = = = = = = = X   5 V ",
"* = = = = = = = = = = %   . d B ",
"* * * * * = * * * * % .   # x v ",
"X X X X X X X X X X X   @ 6 z n ",
"# o # @ # ; - + + + ; > s z z z ",
"4 4 p p t r e e 3 e y t z z y r ",
"e 3 r r e e e e 3 e e 3 r e e e "
};
