/* XPM */
static char *xpm_[] = {
/* columns rows colors chars-per-pixel */
"16 48 101 2 ",
"   c #0C0B0E",
".  c #0C0A15",
"X  c #05031C",
"o  c #08051C",
"O  c #0E0D19",
"+  c #100E1E",
"@  c #131315",
"#  c #151519",
"$  c #181719",
"%  c #1A1A1C",
"&  c #0A0623",
"*  c #0D0A22",
"=  c #130D2F",
"-  c #131325",
";  c #1F1F21",
":  c #14142B",
">  c #090337",
",  c #00003F",
"<  c #0A073A",
"1  c #0C0B3D",
"2  c #150D38",
"3  c #180E3B",
"4  c #201F21",
"5  c #222224",
"6  c #2C2C2E",
"7  c #333335",
"8  c #040142",
"9  c #090345",
"0  c #0B0B47",
"q  c #070049",
"w  c #0B034A",
"e  c #070849",
"r  c #150C42",
"t  c #120A4E",
"y  c #171745",
"u  c #1C1246",
"i  c #16144B",
"p  c #1B124C",
"a  c #1C1C4B",
"s  c #141652",
"d  c #1D1253",
"f  c #171852",
"g  c #1A1B54",
"h  c #1C175A",
"j  c #1F1F5D",
"k  c #20134C",
"l  c #221455",
"z  c #221D53",
"x  c #231959",
"c  c #23224E",
"v  c #242553",
"b  c #2D2D54",
"n  c #29295A",
"m  c #303056",
"M  c #30305E",
"N  c #262761",
"B  c #292761",
"V  c #2B2B63",
"C  c #373761",
"Z  c #383861",
"A  c #49484A",
"S  c #515053",
"D  c #57575A",
"F  c #5B5B5E",
"G  c #5E5E61",
"H  c #616164",
"J  c #66666A",
"K  c #6B6B6E",
"L  c #6F6F71",
"P  c #727275",
"I  c #7B7B7C",
"U  c #7F7F82",
"Y  c #807F80",
"T  c #818184",
"R  c #868689",
"E  c #88888B",
"W  c #89898B",
"Q  c #8E8E91",
"!  c #909093",
"~  c #A5A5A6",
"^  c #A6A6A7",
"/  c #ACABAC",
"(  c #B0AFAF",
")  c #B0B0B2",
"_  c #B4B4B6",
"`  c #B7B7B8",
"'  c #C1C1C2",
"]  c #C5C5C6",
"[  c #CACACB",
"{  c #CBCBCC",
"}  c #CCCCCD",
"|  c #D3D3D4",
" . c #E5E5E6",
".. c #EEEEEE",
"X. c #F3F3F4",
"o. c #F6F6F6",
"O. c #F6F6F7",
"+. c #F9F9F9",
"@. c gray98",
"#. c gray99",
"$. c white",
/* pixels */
"f f f s e e i f g z n n n v g g ",
"V V N j t e g n n C Z Z Z Z n n ",
"V V j d 1 & & * - ; - - - - - - ",
"B j p = O                       ",
"x l =   #.#.#.#.#.#.#.J $ $ $ $ ",
"l k . @ #.#.#.#.#.#.#.` A 5 5 % ",
"l u . @ #.#.#.#.#.#.#.#.#.T T I ",
"l 2 . 5 O.O.+.#.#.#.#.#.#.( / ~ ",
"r & @ 7 T T U W | #.#.#.#.P P P ",
"1 . @ 7 J H H K _ #.#.#.@.H H F ",
"a # @ 6 F R } }  .#.#.[ ! G H F ",
"m # @ 6 I [ #.#. .[ { R F G G G ",
"b O @ 6 ` @.#.#.) H H G F G F G ",
"c + @ 6 #.#.#.#.~ H G G G G G G ",
"a O @ 6 #.#.#.#.' P P L L G G G ",
"i . @ 6 #.#.#.#.O.........G G G ",
"u . @ 6 #.#.#.#.#.#.#.#.#.G G G ",
"u . @ 6 #.#.#.#.#.#.#.#.#.G G G ",
"< . @ 6 G G H G H G G G H G G G ",
"1 . @ 6 F G G G G G G G G G G G ",
"v O @ 6 F G G H G G G G G G G G ",
"v . @ 6 F G G G G G G G G G G G ",
"v @ @ 6 D G G G G G G G G G G G ",
"a . @ 6 F G G G G G G G G G G G ",
"p . @ 6 D G G G G G G G G G G G ",
"u . @ 6 D G G G G G G G G G G G ",
"u . @ 6 D G G G G G G G G G G G ",
"3 . @ 6 D G G G G G G G G G G G ",
"> . @ 6 D G G G G G G G G G G G ",
"y . @ 6 D G G G G G H G G H G G ",
"b @ @ 6 D G G G H H H H H H H H ",
"b O + 6 D G G G F F G F F F F G ",
"v @ @ 7 H H G G G G G G G F G G ",
"a O @ 7 K P L K K K K K K K K K ",
"i . @ % S W ! Q Q Q Q Q ! Q Q Q ",
"p . @ % 7 F F F F G G F F G F F ",
"u . @ % % 4 5 ; ; ; ; ; ; 4 ; ; ",
"1 . @ % % $ % % ; % % ; $ % % % ",
"0 . @ % % % % % % % % % % % % % ",
"v : @ $ % % % % ; % % % ; % % % ",
"M c @ $ % % % % $ % % % % % % $ ",
"V c . $ % % % % $ ; ; % % % % % ",
"N g O   @ $ $ % $ % ; % % % % # ",
"h l 2     $ @ # $ $ # # # $ % $ ",
"l l k 3 o     .                 ",
"l l l t > X X & * * * * * & o o ",
"d l t w q 8 , 9 t k d w w 8 < 8 ",
"9 8 8 8 8 8 , 8 8 9 8 8 8 8 8 8 "
};
