/* XPM */
static char *xpm_[] = {
/* columns rows colors chars-per-pixel */
"16 48 103 2 ",
"   c #060606",
".  c #06060A",
"X  c #0C0B0D",
"o  c #0A0714",
"O  c #0C0B10",
"+  c #05031D",
"@  c #08071D",
"#  c #0D0B1C",
"$  c #100C1E",
"%  c #141415",
"&  c #161619",
"*  c #181719",
"=  c #1A1A1C",
"-  c #060423",
";  c #0A0622",
":  c #0E0C22",
">  c #110B25",
",  c #131325",
"<  c #1E1E20",
"1  c #16162C",
"2  c #19192A",
"3  c #02013E",
"4  c #0C053E",
"5  c #09093F",
"6  c #100838",
"7  c #171733",
"8  c #212123",
"9  c #2D2D2F",
"0  c #2E2E30",
"q  c #323235",
"w  c #363639",
"e  c #030142",
"r  c #0A0444",
"t  c #0B0A45",
"y  c #0C034B",
"u  c #0B0C4A",
"i  c #180D45",
"p  c #150A4A",
"a  c #180E49",
"s  c #131443",
"d  c #1C1046",
"f  c #181944",
"g  c #15134D",
"h  c #1D124B",
"j  c #1B1B4D",
"k  c #1C0F52",
"l  c #171752",
"z  c #1E1356",
"x  c #171852",
"c  c #1A1A53",
"v  c #191559",
"b  c #1A1B5D",
"n  c #211353",
"m  c #282848",
"M  c #252656",
"N  c #272857",
"B  c #23235B",
"V  c #2A2A5B",
"C  c #33335A",
"Z  c #272862",
"A  c #2D2D63",
"S  c #343462",
"D  c #383865",
"F  c #3C3C68",
"G  c #434343",
"H  c #565559",
"J  c #5A5A5E",
"K  c #5E5E61",
"L  c #616164",
"P  c #666669",
"I  c #6A6A6C",
"U  c #6A6A6D",
"Y  c #6B6B6E",
"T  c #6C6C6F",
"R  c #6F6F72",
"E  c #707073",
"W  c #737376",
"Q  c #79797B",
"!  c #818284",
"~  c #848487",
"^  c #88888A",
"/  c #88888C",
"(  c #89898C",
")  c #8C8C8E",
"_  c #8D8D8F",
"`  c #8E8E91",
"'  c #8F8F92",
"]  c #939395",
"[  c #979799",
"{  c #A5A5A6",
"}  c #B1B1B2",
"|  c #B5B5B6",
" . c #B8B8BA",
".. c #C1C1C2",
"X. c #C4C4C5",
"o. c #C9C9CA",
"O. c #CBCBCC",
"+. c #D9D9DA",
"@. c gray90",
"#. c #EEEEEE",
"$. c #F6F6F6",
"%. c #F9F9F9",
"&. c white",
/* pixels */
"x x l l l x u r g x x c V N V N ",
"V V V V V B g t x V A D F F F F ",
", , , , , : @ + # : 2 m S A S A ",
"X X X O X O X X X X X , M Z Z Z ",
"* * & &.&.&.&.&.&.&.L X 7 c b b ",
"= < = &.&.&.&.&.&.&. .G $ s z n ",
"U K U &.&.&.&.&.&.&.&.&.% $ h p ",
"] ^ [ %.%.%.%.&.&.&.&.&.8 X 4 y ",
"R I R ) ~ ! ) +.&.&.&.&.q O - e ",
"J L P P L P L | &.&.&.%.w % # 5 ",
"K K K L ^ O.O.@.&.&.O.) 0 & & j ",
"K K J Q X.&.&.@.O.O.^ J 0 % : M ",
"K K K  .%.&.&.} L L K J 9 % , c ",
"K K K %.&.&.&.{ K K K J 9 % # h ",
"K K K &.&.&.&...W R R I 9 % # h ",
"K K K &.&.&.&.$.#.#.#.#.9 % # a ",
"K K K &.&.&.&.&.&.&.&.&.9 % $ a ",
"K K K &.&.&.&.&.&.&.&.&.9 % : r ",
"K K K K K K K K K K K J 9 % + 3 ",
"K K K K K K K K K K K J 0 % , M ",
"K K K K K K K K K K K J 0 % 2 C ",
"K K K K K K K K K K K J 0 % 1 V ",
"K K K K K K K K K K K H 9 % , V ",
"K K K K K K K K K K K J 0 & , c ",
"K K K K K K K K K K K J 9 % : g ",
"K K K K K K K K K K K J 0 % : h ",
"K K K K K K K K K K K J 9 % # a ",
"K K K K K K K K K K K J 9 % # r ",
"K K K K K K K K K K K J 0 % @ 5 ",
"L K K L L K K K J K K J 9 % # g ",
"L L L L L L K K K K K J 9 % , B ",
"J J J J J J J J J K K J 9 % & j ",
"K K K J K K K K K K K P q % # g ",
"U Y Y Y U U I I I R W R q % $ i ",
"' ] ' ' ] ' ' ' ' ` ^ H 8 % $ d ",
"J J J J J J J J K J H w = & > h ",
"< < = < < < = < < < < = = % > y ",
"= = = = = = = = = = = = = & @ 3 ",
"= = = = = = = = = = = = = = # s ",
"= = = = = = = = = = = = = X & C ",
"= = = = = = = = = = = = % X , S ",
"= = = = = = = = = = = * X   1 V ",
"= * = = = = = = = = = % . . f B ",
"* * * * * = * & & * % X   # l v ",
"X X X X X O O O X X X . @ 6 n n ",
"# o # o # ; + - + + ; > h n n z ",
"4 4 i i t r e e 3 e r p z k y y ",
"e e r r e e e 3 3 e e e r e e e "
};
