/* XPM */
static char *xpm_[] = {
/* columns rows colors chars-per-pixel */
"16 48 96 2 ",
"   c #0C0B0E",
".  c #0C0A15",
"X  c #05031C",
"o  c #08051C",
"O  c #0E0D19",
"+  c #131315",
"@  c #151519",
"#  c #181719",
"$  c #1A1A1C",
"%  c #0A0623",
"&  c #0D0A22",
"*  c #130D2F",
"=  c #131325",
"-  c #1F1F21",
";  c #14142B",
":  c #090337",
">  c #00003F",
",  c #0A073A",
"<  c #0C0B3D",
"1  c #180E3B",
"2  c #191038",
"3  c #222224",
"4  c #2C2C2E",
"5  c #333335",
"6  c #040142",
"7  c #090345",
"8  c #070049",
"9  c #0B034A",
"0  c #070849",
"q  c #150C42",
"w  c #1A0F44",
"e  c #120A4E",
"r  c #171745",
"t  c #1C1246",
"y  c #16144B",
"u  c #1B124C",
"i  c #1C1C4B",
"p  c #141652",
"a  c #1D1253",
"s  c #171852",
"d  c #1A1B54",
"f  c #1C175A",
"g  c #1F1F5D",
"h  c #20134C",
"j  c #221455",
"k  c #221D53",
"l  c #231959",
"z  c #23224E",
"x  c #242553",
"c  c #2D2D54",
"v  c #29295A",
"b  c #303056",
"n  c #30305E",
"m  c #262761",
"M  c #292761",
"N  c #2B2B63",
"B  c #383861",
"V  c #515053",
"C  c #57575A",
"Z  c #5B5B5E",
"A  c #5E5E61",
"S  c #626264",
"D  c #66666A",
"F  c #6B6B6E",
"G  c #6F6F72",
"H  c #727275",
"J  c #7D7D7E",
"K  c #7D7D80",
"L  c #807F80",
"P  c #868688",
"I  c #88888A",
"U  c #88888B",
"Y  c #8B8B8D",
"T  c #8E8E91",
"R  c #8F8F92",
"E  c #909093",
"W  c #949496",
"Q  c #979799",
"!  c #A1A1A3",
"~  c #A5A5A7",
"^  c #A7A7A9",
"/  c #A8A8AA",
"(  c #ACABAC",
")  c #B0AFAF",
"_  c gray76",
"`  c #CACACB",
"'  c #CECECE",
"]  c #D2D2D2",
"[  c #DCDCDD",
"{  c #DFDFE0",
"}  c #E0E0E1",
"|  c #E9E9E9",
" . c #F6F6F6",
".. c #F8F8F8",
"X. c #FBFBFB",
"o. c #FEFEFE",
/* pixels */
"s s s p 0 0 y s d x v v v x d d ",
"N N m g e 0 d v n n B B B B v v ",
"N N g a < % % & = = = = = = = = ",
"M g u * O                       ",
"l j *   o.o.o.o.o.o.o.D # + # + ",
"j h . + o.o.o.o.o.o.o._ D 3 3 - ",
"j t . # o.o.o.o.o.o.o.o.o.L J J ",
"j 2 . 3 o.o.o.o.o.o.o.o.o.) / ~ ",
"q % + 5 Q Q W T ' o.o.o.o.H H H ",
", . + 5 D S A D K o.o.X.X.S A A ",
"i @ + 4 Z H P / } o.o.Y S A S Z ",
"b @ + 4 Z ! o.o.o.o.o.I A A A A ",
"v + + 4 Z ^ o.o.o.o.o.o.| Z A A ",
"x O + 4 Z F K I ` o.o.o.o.A A A ",
"i O + 4 Z S S S ^ o.o.o.o.A A A ",
"y . + 4 ] { [ {  .o.o.o.o.A A A ",
"t . + 4 o.o.o.o.o.o.o.] I A A A ",
"w . + 4 o.o.o.o.o.o.o.Y A A A A ",
", . + 4 Z S A A A A A A A A A A ",
"< . + 4 Z A A S A A A A A A A A ",
"z O + 4 Z A A A A A A A A A A A ",
"x + + 4 Z A A A A A A A A A A A ",
"x O + 4 Z A A A A A A A A A A A ",
"i . + 4 Z A A A A A A A A A A A ",
"t . + 4 C A A A A A A A A A A A ",
"t . + 4 C A A A A A A A A A A A ",
"t . + 4 C A A A A A A A A A A A ",
"q . + 4 C A A A A A A A A A A A ",
": . + 4 C A Z A A A A A A A A A ",
"r O + 4 C A Z A A A S A A A A S ",
"c + + 4 Z A A A S S S S S S S S ",
"c O + 4 C A A A Z Z Z Z Z Z Z Z ",
"x + + 5 S S A A A Z A Z A A A Z ",
"i O . 5 F H G F F F F F F F F F ",
"y O + 3 V I E R R R R R R R R R ",
"t . + $ 5 Z Z Z A Z Z A Z A Z Z ",
"t O + $ $ - - - - - - - - 3 - - ",
", . + $ $ $ $ $ $ - $ $ $ $ $ $ ",
"< o + $ $ $ $ $ $ $ - $ $ $ $ $ ",
"x ; + # $ $ $ $ $ - $ $ $ $ $ $ ",
"n z O # $ $ $ $ $ $ $ $ $ $ $ $ ",
"N z . # $ $ $ $ $ - - $ $ $ $ # ",
"m k O   + # @ $ @ $ $ $ $ $ $ # ",
"f f 2     + @ @ @ # # # # # $ # ",
"j j h 1 %                       ",
"j j j e : X X % & & & & & % X o ",
"a j e 9 8 6 : 7 e u u 9 8 9 : 6 ",
"6 7 6 6 6 6 6 > 9 7 6 6 6 6 6 6 "
};
