/* XPM */
static char *xpm_[] = {
/* columns rows colors chars-per-pixel */
"16 48 100 2 ",
"   c #060606",
".  c #06060A",
"X  c #0C0B0D",
"o  c #0A0714",
"O  c #0C0B10",
"+  c #05031D",
"@  c #08071D",
"#  c #0D0B1C",
"$  c #100C1E",
"%  c #141415",
"&  c #161619",
"*  c #181719",
"=  c #1A1A1C",
"-  c #060423",
";  c #0A0622",
":  c #0E0C22",
">  c #110B25",
",  c #131325",
"<  c #1E1E20",
"1  c #16162C",
"2  c #19192A",
"3  c #02013E",
"4  c #0C053E",
"5  c #09093F",
"6  c #171733",
"7  c #15103C",
"8  c #212123",
"9  c #2D2D2F",
"0  c #2E2E30",
"q  c #323235",
"w  c #363639",
"e  c #030142",
"r  c #0A0444",
"t  c #0B0A45",
"y  c #0C034B",
"u  c #0B0C4A",
"i  c #180D45",
"p  c #150A4A",
"a  c #131443",
"s  c #1C1046",
"d  c #181944",
"f  c #15134D",
"g  c #1D124B",
"h  c #1B1B4D",
"j  c #1C0F52",
"k  c #171752",
"l  c #1E1356",
"z  c #171852",
"x  c #1A1A53",
"c  c #191559",
"v  c #1A1B5D",
"b  c #211353",
"n  c #282848",
"m  c #252656",
"M  c #272857",
"N  c #23235B",
"B  c #2A2A5B",
"V  c #33335A",
"C  c #272862",
"Z  c #2D2D63",
"A  c #343462",
"S  c #383865",
"D  c #3C3C68",
"F  c #565559",
"G  c #5A5A5E",
"H  c #5E5E61",
"J  c #616163",
"K  c #666669",
"L  c #6A6A6C",
"P  c #6B6B6E",
"I  c #6C6C6F",
"U  c #6F6F72",
"Y  c #717174",
"T  c #7C7C7F",
"R  c #808082",
"E  c #858588",
"W  c #868689",
"Q  c #88888C",
"!  c #89898C",
"~  c #8B8B8D",
"^  c #8E8E91",
"/  c #8F8F92",
"(  c #919193",
")  c #939395",
"_  c #979799",
"`  c #99999B",
"'  c #A0A0A1",
"]  c #A5A5A7",
"[  c #C1C1C2",
"{  c #CACACB",
"}  c #D2D2D2",
"|  c #D3D3D4",
" . c #D4D4D5",
".. c #DCDCDD",
"X. c #DFDFDF",
"o. c #E0E0E1",
"O. c #E8E8E9",
"+. c #F6F6F6",
"@. c #F8F8F8",
"#. c #FEFEFE",
/* pixels */
"z z k k k z u r f z z x B M M M ",
"B B B B B N f t x B Z S D D D D ",
", , , , , : @ + # , 2 n A Z Z A ",
"X X X O X O X X X X X , m C C C ",
"* * * #.#.#.#.#.#.#.J X 6 x v v ",
"= 8 = #.#.#.#.#.#.#.[ J $ a l b ",
"L H L #.#.#.#.#.#.#.#.#.% $ g p ",
") ! ` #.#.#.#.#.#.#.#.#.8 O 4 y ",
"I L Y ' ` ` ( | #.#.#.#.q % - e ",
"G J K K J J J R #.#.@.@.q % o 5 ",
"H H J J Y W ] o.#.#.^ J 0 * $ h ",
"H H G G ' #.#.#.#.#.! H 0 % , m ",
"H H H H ] #.#.#.#.#.#.O.9 % , x ",
"H H H H L T W { #.#.#.#.9 % # g ",
"H H H H H J J ] #.#.#.#.9 % # g ",
"H H H | o.....@.#.#.#.#.9 % # g ",
"H H H #.#.#.#.#.#.#.} E 0 % $ g ",
"H H H #.#.#.#.#.#.#.Q G 9 % # y ",
"H H H H H H H H H H H G 9 % ; 3 ",
"H H H H H H H H H H H G 0 % , h ",
"H H H H H H H H H H H G 0 % 2 V ",
"J H H H H H H H H H H G 0 % 1 B ",
"H H H H H H H H H H H G 0 % 1 M ",
"H H H H H H H H H H H G 0 % , x ",
"H H H H H H H H H H H G 9 % : k ",
"H H H H H J H H H H H G 9 % # g ",
"H H H H H H H H H H H G 9 % # i ",
"H H H H H H H H H H H G 9 % # r ",
"H H H J H H H H H H H G 9 % @ 3 ",
"H J H J J H G H H H H G 9 & : f ",
"J J J J J J J H H G H G 0 % , m ",
"G G G G G G G G G H H G 9 % & x ",
"H H H G H H H H G H H K q % # f ",
"I P P I P P P P P U Y U q % $ s ",
"^ ( / / / / ^ ( / ^ ~ F 8 % $ g ",
"G G G G G G G G G G F w * % > g ",
"= 8 < < < < < < < < 8 = = * : t ",
"= = * = = = * = = = = = = * @ 3 ",
"= = = = = = = = = * = * < * # a ",
"= = = = = = = = = = = = * O , V ",
"= = = = = = = = = = = * * . 2 A ",
"= = = = = = = = = = = * X   1 B ",
"* = = < = = = = = = = %   . d C ",
"* * * * * * * * * * % X . @ f c ",
"X X X X X X X X X X X . @ 7 b b ",
"# o o @ # ; - + + + ; > s b l l ",
"r 4 i s t r e e 3 e r p l j y y ",
"e e r r e e e e 3 e e 3 r e e 3 "
};
