/* XPM */
static char *xpm_[] = {
/* columns rows colors chars-per-pixel */
"16 48 95 2 ",
"   c #0C0B0E",
".  c #0C0A15",
"X  c #05031C",
"o  c #08051C",
"O  c #0E0D19",
"+  c #100E1E",
"@  c #131315",
"#  c #151519",
"$  c #181719",
"%  c #1A1A1C",
"&  c #0A0623",
"*  c #0D0A22",
"=  c #130D2F",
"-  c #131325",
";  c #1F1F21",
":  c #14142B",
">  c #090337",
",  c #00003F",
"<  c #0A073A",
"1  c #0C0B3D",
"2  c #150D38",
"3  c #180E3B",
"4  c #191038",
"5  c #201F21",
"6  c #222224",
"7  c #2C2C2E",
"8  c #333235",
"9  c #3D3C3E",
"0  c #040142",
"q  c #090345",
"w  c #070049",
"e  c #0B034A",
"r  c #070849",
"t  c #150C42",
"y  c #1A0F44",
"u  c #120A4E",
"i  c #171745",
"p  c #1C1246",
"a  c #16144B",
"s  c #1B124C",
"d  c #1C1C4B",
"f  c #141652",
"g  c #1D1253",
"h  c #171852",
"j  c #1A1B54",
"k  c #1C175A",
"l  c #1F1F5D",
"z  c #20134C",
"x  c #211E4D",
"c  c #221455",
"v  c #221D53",
"b  c #23224E",
"n  c #242553",
"m  c #2D2D54",
"M  c #23235F",
"N  c #29295A",
"B  c #303056",
"V  c #30305E",
"C  c #262761",
"Z  c #292761",
"A  c #2B2B63",
"S  c #373761",
"D  c #383861",
"F  c #4A494B",
"G  c #515053",
"H  c #57575A",
"J  c #5B5B5E",
"K  c #5E5E61",
"L  c #616164",
"P  c #67676A",
"I  c #6B6B6E",
"U  c #6F6F72",
"Y  c #727275",
"T  c #767679",
"R  c #7B7B7C",
"E  c #807F80",
"W  c #868688",
"Q  c #89898B",
"!  c gray54",
"~  c #8D8D8F",
"^  c #8E8E91",
"/  c #929295",
"(  c #9B9B9D",
")  c #A3A3A5",
"_  c #AEAEAF",
"`  c #B4B4B5",
"'  c #B9B9B8",
"]  c #C4C4C5",
"[  c #CACACB",
"{  c #DBDBDC",
"}  c #EAEAEA",
"|  c #F6F6F6",
" . c gray97",
".. c gray98",
"X. c #FDFDFD",
/* pixels */
"h h h f r r a h j n N N N n j j ",
"A A C l u r j N V D S D D S N N ",
"A A l g 1 & & * - - - - - - - - ",
"Z l s = O                       ",
"v c =   X.X.X.F $ 8  .X.X.$ % % ",
"c z O @ X.X...F % 9  .X.X.5 5 % ",
"c p . $ X.X. .R P Q  .X.X.W R R ",
"c 2 . 6 X.X.X.` ~ ' ..X.X._ _ ) ",
"t & @ 8 X.X.X.( P _ X.X.X.T Y Y ",
"1 . # 8 X.X.X./ P ` X.X.X.L K J ",
"d + # 7 X.X.X.{ T } X.X.X.L K K ",
"B # @ 7 [  .X.X...X.X.X.X.K K K ",
"m O @ 7 J ] X.X.....X.X.X.K K J ",
"b O @ 7 J P T T I ) X.X.X.K K K ",
"x O # 7 J L K L K W X.X.X.K K K ",
"i . @ 7 J K K K K Q X.X.X.L K K ",
"p . @ 7 J K K K K Q X.X.X.K K K ",
"p . @ 7 J K L L K ( X.X.X.K K K ",
"< . @ 7 J K K K K K K K K K K K ",
"1 . @ 7 J K L K K K K K K K K K ",
"b O @ 7 J K K K K K K K K J K K ",
"n @ @ 7 J K K K K K K K K K K K ",
"b O @ 7 J K K K K K K K K K K K ",
"d O @ 7 J K K K K K K K K K K K ",
"s . # 7 H J K K K K K K K K K K ",
"p . O 7 J J K K K K K K K K K K ",
"p . @ 7 J K K K K K K K K K K K ",
"3 . @ 7 J K J K K K K K K K K K ",
"<   @ 7 J J J J K K K K K K K K ",
"i . @ 7 H J J K K K K L L K K L ",
"m + # 7 J K K L L L L L L L L L ",
"B . # 7 J K K J J J J J J J J J ",
"b @ @ 8 L L K J K K K K J K K J ",
"x O @ 8 I Y Y I I I I I I I I I ",
"a O @ ; G Q ^ ~ ^ ^ ^ ^ ^ ^ ^ ^ ",
"p O @ $ 8 J J J J J K K K J K J ",
"y . @ % % ; ; ; 6 ; ; 6 ; 6 ; ; ",
"< O # $ % % % % % % % % % % % % ",
"1 O @ % % % % % $ ; ; % % % % % ",
"n : . % % % % % ; $ % % % % % % ",
"V b . % % % % % $ ; % % % ; $ $ ",
"V b . @ % % % % $ ; % ; % $ % % ",
"C v O   @ $ % % $ % % $ % % % % ",
"k c 3     @ $ # # $ % # # $ $ % ",
"c c z 3 o     .                 ",
"c c c u > X X & * * * * * & X o ",
"g g u e q 0 , q u z s e e q , q ",
"q q 0 0 0 , , 0 q q 0 0 0 , 0 , "
};
