/* XPM */
static char *xpm_[] = {
/* columns rows colors chars-per-pixel */
"16 48 107 2 ",
"   c #060606",
".  c #06060A",
"X  c #0B0B0D",
"o  c #0A0714",
"O  c #0C0B10",
"+  c #05031D",
"@  c #08071D",
"#  c #0D0B1C",
"$  c #100C1E",
"%  c #141415",
"&  c #161619",
"*  c #181719",
"=  c #1A1A1C",
"-  c #060423",
";  c #0A0622",
":  c #0E0C22",
">  c #110B25",
",  c #131325",
"<  c #1E1E20",
"1  c #16162C",
"2  c #19192A",
"3  c #02013E",
"4  c #0C053E",
"5  c #09093F",
"6  c #100838",
"7  c #171733",
"8  c #15103C",
"9  c #201F20",
"0  c #212123",
"q  c #2D2D2F",
"w  c #2E2E30",
"e  c #323234",
"r  c #363639",
"t  c #3B3A3C",
"y  c #030142",
"u  c #0A0444",
"i  c #0B0A45",
"p  c #0C034B",
"a  c #0B0C4A",
"s  c #180D45",
"d  c #150A4A",
"f  c #180E49",
"g  c #131443",
"h  c #1C1046",
"j  c #181944",
"k  c #15134D",
"l  c #1D124B",
"z  c #1B1B4D",
"x  c #160A51",
"c  c #171752",
"v  c #1E1356",
"b  c #171852",
"n  c #1A1A53",
"m  c #191559",
"M  c #1A1B5D",
"N  c #211353",
"B  c #282848",
"V  c #252656",
"C  c #272857",
"Z  c #23235B",
"A  c #2A2A5B",
"S  c #33335A",
"D  c #272862",
"F  c #2D2D63",
"G  c #343462",
"H  c #383865",
"J  c #3C3C68",
"K  c #414042",
"L  c #4A4A4B",
"P  c #565559",
"I  c #5A5A5E",
"U  c #5E5E61",
"Y  c #616164",
"T  c #666669",
"R  c #6B6B6E",
"E  c #6E6D71",
"W  c #6F6F72",
"Q  c #717174",
"!  c #747476",
"~  c #757578",
"^  c #78787A",
"/  c #7B7B7E",
"(  c #7D7C7D",
")  c #868688",
"_  c #89898B",
"`  c gray54",
"'  c #88888C",
"]  c #8E8E90",
"[  c #8E8E91",
"{  c #8F8F92",
"}  c #939395",
"|  c #979799",
" . c #9B9B9D",
".. c #9E9E9F",
"X. c #A3A3A5",
"o. c #A6A6A8",
"O. c #B1B1B1",
"+. c #B5B5B7",
"@. c #C0C0C0",
"#. c #C4C4C5",
"$. c #CBCBCC",
"%. c #DADADB",
"&. c #EEEEEE",
"*. c #F4F4F4",
"=. c gray97",
"-. c #F9F9F9",
";. c #FEFEFE",
/* pixels */
"b b c c c b a u k n n n C A C C ",
"A A A A A Z k i n A F H J J J J ",
", , , , , : @ + @ : 2 B F F G F ",
"X X X O X O X X X X X , C A D D ",
"* * * ;.;.;.L & e *.;.;.7 M M M ",
"= 0 = ;.;.;.K 9 t =.;.;.& 8 N N ",
"R I R ;.;.-.` ( ! *.;.;.% # s d ",
"} ` | ;.;.;.@.O...=.;.;.0 O 4 p ",
"E T Q ;.;.;.../ o.;.;.;.e X ; y ",
"U Y T ;.;.;.] T +.;.;.;.r % # i ",
"U U Y ;.;.;.%.~ &.;.;.;.w & # z ",
"U U I $.&.;.;.-.;.;.;.;.w % , V ",
"U U I Y #.;.;.-.-.;.;.;.q % , n ",
"U U U U T ~ ^ R X.;.;.;.w % # l ",
"U U U U U U U U ) ;.;.;.q % # l ",
"U U U U U U U U ` ;.;.;.q % $ l ",
"U U U U U U U U ` ;.;.;.q % $ f ",
"U U U U U U U U  .;.;.;.q % : u ",
"U U U U U U U U U U U I q % + 3 ",
"U U U U U U U U U U U I w % , V ",
"U U U U U U U U U U U I w % 2 S ",
"U U U U U U U U U U U I w % 1 A ",
"U U U U U U U U U U U I w % , Z ",
"U U U U U U U U U U U I w & , n ",
"U U U U U U U U U U U I q % : z ",
"U U U U U U U U U U U I q % : l ",
"U U U U U U U U U U I I q % # s ",
"U U U U U U U U U U U I q % # u ",
"U U U U U U U U U U U I w % @ 3 ",
"U Y U Y Y U U U U U Y I q % $ z ",
"Y Y Y Y Y Y U U U I Y I w % , V ",
"I U I I I I I U I U I I q % , n ",
"U U U I U U I U U I U T e % @ k ",
"R R R R R E R R E E E E e % # l ",
"] ] ] ] ] { { ] ] ] ' P 0 % $ l ",
"U I I U I I U U U I I r * % > l ",
"< < < < < < < < < < < < = * : i ",
"= = = = * = = = = = * = < & @ 3 ",
"= * = = = = = = = = = = < * # g ",
"= = = = = = = * = = = = * O & S ",
"= = = = = = = = = = = = % . 2 G ",
"= = = = = = = = = = = * X   7 A ",
"= * = = = = = = = = = % . . j M ",
"* * * * * = * * & & % X   # z m ",
"X O X X X O O X X X X . @ 6 N N ",
"# o # o # ; + - + + ; > l N N v ",
"4 4 s s i u y y 3 y u d N x p p ",
"y y u u y y y y 3 3 y y i y y y "
};
