/* XPM */
static char *xpm_[] = {
/* columns rows colors chars-per-pixel */
"16 48 100 2 ",
"   c #0C0B0E",
".  c #0C0A15",
"X  c #05031C",
"o  c #08051C",
"O  c #0E0D19",
"+  c #100E1E",
"@  c #131315",
"#  c #151519",
"$  c #181719",
"%  c #1A1A1C",
"&  c #0A0623",
"*  c #0D0A22",
"=  c #130D2F",
"-  c #131325",
";  c #1F1F21",
":  c #14142B",
">  c #090337",
",  c #00003F",
"<  c #0A073A",
"1  c #0C0B3D",
"2  c #150D38",
"3  c #180E3B",
"4  c #201F21",
"5  c #222224",
"6  c #2C2C2E",
"7  c #333335",
"8  c #040142",
"9  c #090345",
"0  c #070049",
"q  c #0B034A",
"w  c #070849",
"e  c #150C42",
"r  c #120A4E",
"t  c #171745",
"y  c #1C1246",
"u  c #16144B",
"i  c #1B124C",
"p  c #1C1C4B",
"a  c #141652",
"s  c #1D1253",
"d  c #171852",
"f  c #1A1B54",
"g  c #1C175A",
"h  c #1F1F5D",
"j  c #20134C",
"k  c #221455",
"l  c #221D53",
"z  c #231959",
"x  c #23224E",
"c  c #242553",
"v  c #2D2D54",
"b  c #23235F",
"n  c #29295A",
"m  c #303056",
"M  c #30305E",
"N  c #262761",
"B  c #292761",
"V  c #2B2B63",
"C  c #373761",
"Z  c #383861",
"A  c #515053",
"S  c #57575A",
"D  c #5B5B5E",
"F  c #5E5E61",
"G  c #616164",
"H  c #666669",
"J  c #6B6B6E",
"K  c #6F6F72",
"L  c #727275",
"P  c #7B7B7C",
"I  c #7C7C7E",
"U  c gray50",
"Y  c #7E7F82",
"T  c #838386",
"R  c #858587",
"E  c #88888B",
"W  c #8E8E91",
"Q  c #8F8F92",
"!  c #909093",
"~  c #929294",
"^  c #949496",
"/  c #979799",
"(  c #A0A0A2",
")  c #A3A3A4",
"_  c #A6A6A7",
"`  c #AAAAAC",
"'  c #ACABAC",
"]  c #B0AFAF",
"[  c #B8B8B9",
"{  c #C3C3C4",
"}  c #CECECF",
"|  c #D3D3D4",
" . c #D5D5D6",
".. c #E1E1E2",
"X. c #E2E2E3",
"o. c #E4E4E5",
"O. c gray92",
"+. c gray97",
"@. c gray99",
"#. c white",
/* pixels */
"d d d a w w u d f c n n v n f f ",
"V V N h r w f n M Z Z M Z Z n n ",
"V V h s 1 & & * - - - - - - - - ",
"B h i = O             .         ",
"z k =   @.@.@.@.@.@.@.@.@.$ $ $ ",
"k j . @ @.@.@.@.@.@.@.@.@.4 4 4 ",
"k y . @ @.@.@.@.@.@.@.@.@.Y Y P ",
"k 2 O 5 @.@.@.@.@.@.@.@.@.] ' _ ",
"e * @ 7 @.@.@.@. .R U Y R L L L ",
"1 . @ 7 @.@.@.@./ G G G G G F D ",
"p # @ 6 @.@.@.@.o.[ ` H F F F F ",
"m # @ 6 ( ) ) ) X.@.@.{ H F F F ",
"v + @ 6 D G F G ^ @.@.@.O.F F D ",
"x O @ 6 D F F F / @.@.@.@.F F F ",
"p O @ 6 L H H H [ @.@.@.@.F F F ",
"u . @ 6 ..} } X.+.@.@.@.@.F F F ",
"y . @ 6 @.@.@.@.@.@.@.| T F F F ",
"y . @ 6 @.@.@.@.@.@.@.T F F F F ",
"< . @ 6 F F F F G F F F F F F F ",
"1 . @ 6 D F G F F F F F F F F F ",
"c @ @ 6 D F F F F F F F F F F F ",
"c O @ 6 D F F F F F F F F F F F ",
"c O @ 6 D F F F F F F F F F F F ",
"p . @ 6 S F F F F F F F F F F F ",
"y . @ 6 S F F F F F F F F F F F ",
"y . @ 6 S F F F F F F F F F F F ",
"y . @ 6 S F F F F F F F F F F F ",
"e . @ 6 S F F F F F F F F F F F ",
"> . @ 6 S D F F F F F F F F F F ",
"t . @ 6 S F D F F F F G F F G F ",
"v # @ 6 S F F F G G G G G G G G ",
"v O @ 6 D F F F D D D D F D D D ",
"c + @ 7 G G F F D F F F D F F F ",
"p O @ 7 J L L J J J J J J J J J ",
"u O @ % A E ! ! Q Q Q ! ~ ~ Q E ",
"y . @ % 7 D D D D F D D D D D D ",
"y . # % % % % 5 ; 5 ; ; 5 4 4 ; ",
"1 . @ % % % % % % % % % % % % % ",
"1 . # % % % % % % ; % ; % % % % ",
"c : @ # % % % % % % % % % % % % ",
"M x @ % % % % % % % % % % % % % ",
"V x . @ % % % % % ; % % % % % % ",
"b l +   @ # % % # % % % % % % % ",
"g k 3     @ $ $ # % % @ # $ $ % ",
"k k j 3 o                       ",
"k k k r > X X & * * * * * & o o ",
"s s r 0 0 8 , 9 r k i q q 9 > 8 ",
"0 9 8 8 8 , , , 8 9 8 8 8 8 8 8 "
};
