/* XPM */
static char *xpm_[] = {
/* columns rows colors chars-per-pixel */
"16 48 104 2 ",
"   c #060606",
".  c #06060A",
"X  c #0B0B0D",
"o  c #0A0714",
"O  c #0C0B10",
"+  c #05031D",
"@  c #08071D",
"#  c #0D0B1C",
"$  c #100C1E",
"%  c #141415",
"&  c #161619",
"*  c #181719",
"=  c #1A1A1C",
"-  c #060423",
";  c #0A0622",
":  c #0E0C22",
">  c #110B25",
",  c #131325",
"<  c #1E1E20",
"1  c #16162C",
"2  c #19192A",
"3  c #02013E",
"4  c #0C053E",
"5  c #100838",
"6  c #171733",
"7  c #212123",
"8  c #2D2D2F",
"9  c #2E2E30",
"0  c #323235",
"q  c #363639",
"w  c #030142",
"e  c #0A0444",
"r  c #0B0A45",
"t  c #0C034B",
"y  c #0B0C4A",
"u  c #180D45",
"i  c #150A4A",
"p  c #180E49",
"a  c #131443",
"s  c #1C1046",
"d  c #181944",
"f  c #15134D",
"g  c #1D124B",
"h  c #1B1B4D",
"j  c #160A51",
"k  c #1C0F52",
"l  c #171752",
"z  c #1E1356",
"x  c #171852",
"c  c #1A1A53",
"v  c #191559",
"b  c #1A1B5D",
"n  c #211353",
"m  c #282848",
"M  c #252656",
"N  c #272857",
"B  c #23235B",
"V  c #2A2A5B",
"C  c #33335A",
"Z  c #272862",
"A  c #2D2D63",
"S  c #343462",
"D  c #383865",
"F  c #3C3C68",
"G  c #565559",
"H  c #5A5A5E",
"J  c #5E5E61",
"K  c #626265",
"L  c #666668",
"P  c #68686B",
"I  c #6A6A6C",
"U  c #6B6B6E",
"Y  c #6C6C6F",
"T  c #6E6D71",
"R  c #6F6F72",
"E  c #717174",
"W  c #737376",
"Q  c #747477",
"!  c #79797C",
"~  c #7C7C7F",
"^  c #818183",
"/  c #848486",
"(  c #89898C",
")  c #8E8E91",
"_  c #8F8F92",
"`  c #929294",
"'  c #939395",
"]  c #959597",
"[  c #979799",
"{  c #A0A0A2",
"}  c #A2A2A3",
"|  c #AAAAAC",
" . c #B8B8BA",
".. c #BABABC",
"X. c #C4C4C5",
"o. c #CECECF",
"O. c #D3D3D4",
"+. c #DBDBDC",
"@. c #E2E2E2",
"#. c #E4E4E5",
"$. c #EAEAEB",
"%. c gray97",
"&. c gray99",
"*. c white",
/* pixels */
"x x l l l x y e f x x c V N V N ",
"V V V V V B f r c V A D F F F F ",
", , , , , : @ + : : , m S A S A ",
"X X X O X O X X X X X , M Z Z Z ",
"* * & *.*.*.*.*.*.*.*.*.6 c b b ",
"= < = *.*.*.*.*.*.*.*.*.# a z n ",
"I J P *.*.*.*.*.*.*.*.*.% > u j ",
"' ( [ *.*.*.*.*.*.*.*.*.7 X 5 t ",
"Y I R *.*.*.*.+.! Q ~ ~ 0 % - w ",
"H K L *.*.*.*.] K K K L q % o r ",
"J J K *.*.*.*.#...| P J 9 % # h ",
"J H H { { { { @.*.*.X.K 9 & , M ",
"J J J J J J J ' *.*.*.$.8 % , h ",
"J J J J J J J [ *.*.*.*.8 % # g ",
"J J J W L K L  .*.*.*.*.8 % # g ",
"J J J @.o.o.@.%.*.*.*.*.8 % # p ",
"J J J *.*.*.*.*.*.*.O.^ 8 % # p ",
"J J J *.*.*.*.*.*.*./ H 8 % : t ",
"J J J J J J J J J J J H 8 % ; w ",
"J J J J J J J J J J H H 8 & , h ",
"J J J J J J J J J J J H 8 & 2 C ",
"J J J J J J J J J J J H 8 % , C ",
"J J J J J J J J J J J H 8 & , B ",
"J J J J J J J J J J J G 8 % 1 c ",
"J J J J J J J J J J J H 8 % : h ",
"J J J J J J J J J J J H 8 % # g ",
"J J J J J J J J J J J H 8 % # p ",
"J J J J J J J J J J J H 8 % # e ",
"J J J H J J J J J J J H 8 % @ 3 ",
"J J K K K J H J J J J H 8 % : h ",
"K K K K K K K J J H J H 8 % , B ",
"H H H H H H H H H J J H 8 % % h ",
"J J J H J H J J J H J L 0 % # f ",
"Y P Y Y R I I I R R R R 0 % > u ",
") ` ' ) ' ) ) ` ) ) ( G 7 % $ g ",
"H H H H H H H H H H H q = % > g ",
"= 7 = = < < = < < < < = = & : e ",
"= = = = = = = = = = = = = * # 3 ",
"= = = = = = = = = = = = < = # a ",
"= = = = = = = = = = = = & X & C ",
"= = = = = = = = = = = = &   2 S ",
"= = = = = = = = = = = = X   1 V ",
"= * = = = = = = = = = % . . d B ",
"* * * * * = * * * & % .   @ l v ",
"X X X X X X X X X X X . @ 5 n n ",
"# o # o # ; - - + + ; : g n n n ",
"e 4 u u r e w w 3 w e i z k t t ",
"3 w e e w w w w 3 w w w e w w w "
};
