/* XPM */
static char *xpm_[] = {
/* columns rows colors chars-per-pixel */
"16 48 102 2 ",
"   c #0C0B0E",
".  c #0C0A15",
"X  c #05031C",
"o  c #08051C",
"O  c #0E0D19",
"+  c #100E1E",
"@  c #131315",
"#  c #151519",
"$  c #181719",
"%  c #1A1A1C",
"&  c #0A0623",
"*  c #0D0A22",
"=  c #130D2F",
"-  c #131325",
";  c #1F1F21",
":  c #090337",
">  c #00003F",
",  c #0A073A",
"<  c #0C0B3D",
"1  c #150D38",
"2  c #180E3B",
"3  c #201F21",
"4  c #222224",
"5  c #262628",
"6  c #2C2C2E",
"7  c #333335",
"8  c #363639",
"9  c #040142",
"0  c #090345",
"q  c #0B0B47",
"w  c #070049",
"e  c #0B034A",
"r  c #070849",
"t  c #150C42",
"y  c #1A0F44",
"u  c #120A4E",
"i  c #171745",
"p  c #1C1246",
"a  c #16144B",
"s  c #1B124C",
"d  c #1C1C4B",
"f  c #141652",
"g  c #1D1253",
"h  c #171852",
"j  c #1A1B54",
"k  c #1C175A",
"l  c #1F1F5D",
"z  c #20134C",
"x  c #221455",
"c  c #221D53",
"v  c #231959",
"b  c #23224E",
"n  c #242553",
"m  c #2D2D54",
"M  c #29295A",
"N  c #30305E",
"B  c #262761",
"V  c #292761",
"C  c #2B2B63",
"Z  c #383861",
"A  c #515053",
"S  c #57575A",
"D  c #5B5B5E",
"F  c #5E5E61",
"G  c #616164",
"H  c #6B6B6E",
"J  c #6E6E71",
"K  c #727275",
"L  c #757578",
"P  c #7D7D7E",
"I  c #7E7E81",
"U  c #807F80",
"Y  c #818183",
"T  c #89898B",
"R  c #8F8F92",
"E  c #909093",
"W  c #99999B",
"Q  c #A2A2A4",
"!  c #A6A6A7",
"~  c #ACABAC",
"^  c #B0AFAF",
"/  c gray69",
"(  c #B1B1B2",
")  c #B8B8B9",
"_  c #C3C3C4",
"`  c #CACACB",
"'  c gray80",
"]  c #D5D4D5",
"[  c #D8D8D9",
"{  c #DADADB",
"}  c #DFDFE0",
"|  c gray90",
" . c #E5E5E6",
".. c #ECECEC",
"X. c #F3F3F3",
"o. c #F3F3F4",
"O. c #F4F4F4",
"+. c gray96",
"@. c #F9F9F9",
"#. c gray98",
"$. c #FCFCFD",
"%. c #FEFEFE",
/* pixels */
"h h h f r r a h j n M M M n c h ",
"C C B l u r j M N N Z Z Z Z M M ",
"C C l g < & & * - - - - - - - - ",
"V l s = O                       ",
"v x =     $ 6 #.%.%.T $ $ % $ % ",
"x z . @ $ 5 / %.%.%.%.D 4 % 4 $ ",
"x p . $ 8 / %.%.%.%.%.] U U P P ",
"x 1 . 4 W +.%.%.%.%.%. .^ ^ ~ ! ",
"t & @ 7 %.%.%.X.Q ! W I L K K K ",
"< . @ 7 %.%.%.` G G G G G G F D ",
"d # @ 6 %.%.%.o.) ) ) Y F G F F ",
"m # @ 6 %.%.%.o.` +.%.{ Y F F D ",
"m + @ 6 %.%.%._ F ' %.%.#.F F F ",
"n O @ 6 %.%.%.P F J +.%.%.F F F ",
"d . @ 6 %.%...K F H ..%.%.F F F ",
"a . @ 6 %.%.%. .] { %.%.o.F F F ",
"p . @ 6 T { %.%.%.%.%.} H F F F ",
"y . @ 6 D I %.%.%.%.%.E F F F F ",
", . @ 6 D G F G F F F F F F F F ",
"< . @ 6 D F F G F F F F F F F F ",
"b O @ 6 D F F F F F F F F F F F ",
"n @ @ 6 D F F F F F F F F F F F ",
"b O @ 6 D F F F F F F F F F F F ",
"d O @ 6 D F F F F F F F F F F F ",
"p . @ 6 S F F F F F F F F F F F ",
"p . @ 6 S F F F F F F F F F F F ",
"p . @ 6 S F F F F F F F F F F F ",
"t . @ 6 S F F F F F F F F F F F ",
": . @ 6 S F F F D F F F F F F G ",
"i O @ 6 S F D F G F G F G F F G ",
"m @ @ 6 S F F F G G G G G G G G ",
"m O @ 6 S F F F D D D D D D D D ",
"n @ @ 7 G G F F F F F F D F F D ",
"d O O 7 H K J H H H H H H H H H ",
"a . @ 4 A T E R R R R R R R R R ",
"p . @ % 7 S F D D F D F F D F D ",
"p O @ % % ; ; ; ; ; ; ; ; ; ; ; ",
", . @ % % % % % % % ; % % % % % ",
"q . # % % % % % ; $ % % % % % % ",
"n - @ # % % % % $ ; ; % % % % % ",
"N b @ $ % % % % % % % % % % % % ",
"C b . $ % % % % $ ; % % % % % % ",
"B j O   @ $ % % $ - % % % % % % ",
"k x 1     $ @ # $ $ % @ @ $ % % ",
"x x z 2 o     .                 ",
"x x x u : X X & * * * * * & . o ",
"g g u e w 9 9 9 u z s e e 0 > 0 ",
"9 0 9 9 9 > > 9 0 0 9 9 9 > 9 9 "
};
