/* XPM */
static char *xpm_[] = {
/* columns rows colors chars-per-pixel */
"16 48 106 2 ",
"   c #060606",
".  c #06060A",
"X  c #0C0B0D",
"o  c #0A0714",
"O  c #0C0B10",
"+  c #05031D",
"@  c #08071D",
"#  c #0D0B1C",
"$  c #100C1E",
"%  c #141415",
"&  c #161619",
"*  c #181719",
"=  c #1A1A1C",
"-  c #060423",
";  c #0A0622",
":  c #0E0C22",
">  c #110B25",
",  c #131325",
"<  c #1E1E20",
"1  c #16162C",
"2  c #19192A",
"3  c #02013E",
"4  c #0C053E",
"5  c #09093F",
"6  c #171733",
"7  c #15103C",
"8  c #201F21",
"9  c #212123",
"0  c #272628",
"q  c #2D2D2F",
"w  c #2E2E30",
"e  c #333335",
"r  c #363639",
"t  c #030142",
"y  c #0A0444",
"u  c #0B0A45",
"i  c #0C034B",
"p  c #0B0C4A",
"a  c #180D45",
"s  c #150A4A",
"d  c #180E49",
"f  c #131443",
"g  c #1C1046",
"h  c #181944",
"j  c #15134D",
"k  c #1D124B",
"l  c #1B1B4D",
"z  c #1C0F52",
"x  c #171752",
"c  c #1E1356",
"v  c #171852",
"b  c #1A1A53",
"n  c #191559",
"m  c #1A1B5D",
"M  c #211353",
"N  c #282848",
"B  c #252656",
"V  c #272857",
"C  c #23235B",
"Z  c #2A2A5B",
"A  c #33335A",
"S  c #272862",
"D  c #2D2D63",
"F  c #343462",
"G  c #383865",
"H  c #3C3C68",
"J  c #565559",
"K  c #5A5A5D",
"L  c #5E5E61",
"P  c #616164",
"I  c #666669",
"U  c #6B6B6E",
"Y  c #6E6E71",
"T  c #717174",
"R  c #7C7C7E",
"E  c #7F7F81",
"W  c #807F80",
"Q  c #828284",
"!  c #89898C",
"~  c #8B8B8E",
"^  c #8E8E91",
"/  c #8F8F92",
"(  c #929294",
")  c #939395",
"_  c #979799",
"`  c #9C9C9E",
"'  c #AFAFB0",
"]  c #B9B9BA",
"[  c #BABABC",
"{  c #C2C1C1",
"}  c #C3C3C4",
"|  c #C8C8C9",
" . c #CBCBCC",
".. c #D0D0D0",
"X. c #D5D5D6",
"o. c #DBDBDC",
"O. c #DFDFDF",
"+. c #E0E0E1",
"@. c #E5E5E6",
"#. c #EBEBEC",
"$. c gray94",
"%. c #F3F3F4",
"&. c #F4F4F4",
"*. c #F9F9F9",
"=. c gray98",
"-. c #FEFEFE",
/* pixels */
"v v x x x v p y j x v b Z V V V ",
"Z Z Z Z Z C j u b Z D G H H H H ",
", , , , , : @ + # : 2 N F D F D ",
"X X X O X O X X X X X , B S S S ",
"* * * & & q =.-.-.~ % X 6 b m m ",
"= 8 = 9 0 ' -.-.-.-.K * % f c c ",
"U K U Q { -.-.-.-.-.| e % > k s ",
") ~ _  .=.-.-.-.-.-.X.K 9 X 4 i ",
"U U T -.-.-.&.' ` ( R Y e X ; t ",
"K P I -.-.-.} I I P P I e % # 5 ",
"L P P -.-.-.&.] ] ] Q K w * $ l ",
"L K K -.-.-.&. .&.-.o.W w % , B ",
"L L L -.-.-.} P  .-.-.=.q % , b ",
"L L L -.-.-.R L Y &.-.-.q % # k ",
"L L L -.-.#.Y L U $.-.-.q % # k ",
"L L L -.-.-.@.X.X.-.-.&.q % $ k ",
"L L L ~ O.-.-.-.-.-.+.I q % $ g ",
"L L L L R -.-.-.-.-.^ K q % : i ",
"L L L L L L L L L L L K q % ; t ",
"L L L L L L L L L L L K w % , l ",
"L L L L L L L L L L L K w % 2 A ",
"L L L L L L L L L L L K w % 1 Z ",
"L L L L L L L L L L L K w % , Z ",
"L L L L L L L L L L L K w & , b ",
"L L L L L L L L L L L K q % , j ",
"L P L L L L L L L L L K q % # k ",
"L L L L L L L L L L L K q % # d ",
"L L L L L L L L L L L K q % # t ",
"L L L L L L L L L L L K q % @ 3 ",
"L L P P P L K L L L L K q % $ v ",
"P P P P P P P L L K P K w % , B ",
"K K K K K K K K K L L K q % & b ",
"L L L L L L K L L K L I e % # j ",
"U U U U U Y U U Y Y Y Y e % # g ",
"^ ) ^ ^ ^ ^ ( ^ ^ ^ ~ J 9 % $ k ",
"K K K K K K K K K K K r * % > k ",
"< < < < < < = 8 8 9 = = = % > u ",
"= = * = = = = = * = = = < * @ 3 ",
"= = = = = = = = = = = = 8 * # f ",
"= = = = = = = = = = = = * X , A ",
"= = = = = = = = = = = * * . 2 F ",
"= = = = = = = = = = = * X   1 Z ",
"= = = = = = = = = = = % . . h C ",
"* * * * * = * * * * % X   # x n ",
"X X O O X O O O X X X . @ 7 M M ",
"o o # o # ; + - + + ; > k c k c ",
"y 4 a a u y t t 3 t y s c z i i ",
"3 t y y t t t 3 3 t t t t t t t "
};
