/* XPM */
static char *xpm_[] = {
/* columns rows colors chars-per-pixel */
"16 48 95 2 ",
"   c #0C0B0E",
".  c #0C0A15",
"X  c #05031C",
"o  c #08051C",
"O  c #0E0D19",
"+  c #100E1E",
"@  c #131315",
"#  c #151519",
"$  c #181719",
"%  c #1A1A1C",
"&  c #0A0623",
"*  c #0D0A22",
"=  c #130D2F",
"-  c #131325",
";  c #1F1F21",
":  c #14142B",
">  c #090337",
",  c #00003F",
"<  c #0A073A",
"1  c #0C0B3D",
"2  c #150D38",
"3  c #180E3B",
"4  c #191038",
"5  c #201F21",
"6  c #222224",
"7  c #2C2C2E",
"8  c #333335",
"9  c #040142",
"0  c #090345",
"q  c #0B0B47",
"w  c #070049",
"e  c #0B034A",
"r  c #070849",
"t  c #150C42",
"y  c #120A4E",
"u  c #171745",
"i  c #1C1246",
"p  c #16144B",
"a  c #1B124C",
"s  c #1C1C4B",
"d  c #141652",
"f  c #1D1253",
"g  c #171852",
"h  c #1A1B54",
"j  c #1C175A",
"k  c #1F1F5D",
"l  c #20134C",
"z  c #211E4D",
"x  c #221455",
"c  c #221D53",
"v  c #231959",
"b  c #23224E",
"n  c #242553",
"m  c #2D2D54",
"M  c #23235F",
"N  c #29295A",
"B  c #303056",
"V  c #30305E",
"C  c #262761",
"Z  c #292761",
"A  c #2B2B63",
"S  c #383861",
"D  c #515053",
"F  c #57575A",
"G  c #5B5B5E",
"H  c #5E5E61",
"J  c #616164",
"K  c #666669",
"L  c #6B6B6E",
"P  c #6F6F72",
"I  c #727275",
"U  c #7C7C7D",
"Y  c #7F7F81",
"T  c #838386",
"R  c #848486",
"E  c #88888B",
"W  c #8A8A8C",
"Q  c #8E8E90",
"!  c #8F8F92",
"~  c #909093",
"^  c #959597",
"/  c #969698",
"(  c #A6A6A7",
")  c #ACABAC",
"_  c #AFAFB1",
"`  c #B2B2B3",
"'  c #BBBBBC",
"]  c #C8C8C9",
"[  c #D3D3D4",
"{  c #E0E0E1",
"}  c gray90",
"|  c gray93",
" . c #F6F6F6",
".. c #FBFBFB",
"X. c #FEFEFE",
/* pixels */
"g g g d r r p g c n N N N n h h ",
"A A C k y r h N V V S S S S N N ",
"A A k f 1 & & * : - - - - - - - ",
"Z k a = O                       ",
"v x =   X.X.X.X.X.X.X.X.X.$ $ $ ",
"x l . @ X.X.X.X.X.X.X.X.X.5 6 % ",
"x i . $ X.X.X.X.X.X.X.X.X.T U U ",
"x 2 . 6  ...X.X.X.X.X.X.X.) ) ( ",
"t & @ 8 R E / ` { X.X.X.X.I I I ",
"1 . @ 8 K H H K _ X.X.X...J H H ",
"s # @ 7 G J J / } X.X.] Y H H G ",
"B # @ 7 G K Q | X. .[ U H H H H ",
"m O @ 7 F R X.X.X.} L H H H G H ",
"n O @ 7 G W X.X.X.[ H H H H H H ",
"s + @ 7 G W X.X.X.' H H H H H H ",
"p . @ 7 G W X.X.X.` H H H H H H ",
"i . @ 7 G / X.X.X.) H H H H H H ",
"i . @ 7 G Q X.X.X._ J H H H H H ",
"< . @ 7 G H J H H H H H H G J H ",
"1 . @ 7 G H H H H H H H H J G H ",
"b O @ 7 G H H J H H H H H H H H ",
"n O @ 7 G H H H H H H H H H H H ",
"b O @ 7 G H H H H H H H J H H H ",
"s . @ 7 G H H H H H H H G H H H ",
"u O @ 7 F H H H H H G H H H H H ",
"l . @ 7 F H H H H H J H H H H H ",
"i . @ 7 G H H H H H H H H H H H ",
"3 . @ 7 F G H H H H H H H H G J ",
"> . @ 7 F H G H H H H H H H H J ",
"u . @ 7 F G H H H J J H J H H J ",
"m # @ 7 F H H H J J J J J J J J ",
"m O @ 7 G H H H G G G G G G G G ",
"n O @ 8 K J H G H G H H H G H H ",
"z O @ 8 L I P L L L L L L L L L ",
"p O @ % D W ~ ~ ~ Q ~ Q ~ Q Q Q ",
"i . @ % 8 F G G G H G H H G H G ",
"i . @ % % ; 6 % ; ; ; ; ; 5 ; ; ",
"< . @ % % % % % % % ; % % % % % ",
"q . @ % % % % % % ; % % % % % % ",
"n : @ $ % % % % % % ; % % % % % ",
"V b @ @ % % % % % % % % % % % % ",
"A b . $ $ % % % % ; ; % % % % $ ",
"M n O . @ $ % % # % % % % % % $ ",
"j x 4     $ @ $ # $ $ $ # $ % $ ",
"x x l 3 o     .                 ",
"x x x y > X X & * * * * * & o o ",
"f f y w w 9 , 0 y l a e e 0 9 0 ",
"0 0 9 9 9 , , , 0 0 0 9 9 , 9 , "
};
