/* XPM */
static char *xpm_[] = {
/* columns rows colors chars-per-pixel */
"16 48 97 2 ",
"   c #060606",
".  c #06060A",
"X  c #0B0B0D",
"o  c #0A0714",
"O  c #0C0B10",
"+  c #05031D",
"@  c #08071D",
"#  c #0D0B1C",
"$  c #100C1E",
"%  c #141415",
"&  c #181719",
"*  c #1A1A1C",
"=  c #060423",
"-  c #0A0622",
";  c #0E0C22",
":  c #110B25",
">  c #131325",
",  c #1E1E20",
"<  c #16162C",
"1  c #19192A",
"2  c #02013E",
"3  c #0C053E",
"4  c #09093F",
"5  c #100838",
"6  c #171733",
"7  c #15103C",
"8  c #212123",
"9  c #2D2D2F",
"0  c #2E2E30",
"q  c #323235",
"w  c #363639",
"e  c #030142",
"r  c #0A0444",
"t  c #0B0A45",
"y  c #0C034B",
"u  c #0B0C4A",
"i  c #180D45",
"p  c #150A4A",
"a  c #180E49",
"s  c #131443",
"d  c #1C1046",
"f  c #181944",
"g  c #15134D",
"h  c #1D124B",
"j  c #1B1B4D",
"k  c #160A51",
"l  c #1C0F52",
"z  c #171752",
"x  c #1E1356",
"c  c #171852",
"v  c #1A1A53",
"b  c #191559",
"n  c #1A1B5D",
"m  c #211353",
"M  c #282848",
"N  c #272857",
"B  c #23235B",
"V  c #2A2A5B",
"C  c #33335A",
"Z  c #272862",
"A  c #2D2D63",
"S  c #343462",
"D  c #383865",
"F  c #3C3C68",
"G  c #565559",
"H  c #5A5A5D",
"J  c #5E5E61",
"K  c #616164",
"L  c #68686A",
"P  c #6A6A6C",
"I  c #6B6B6E",
"U  c #6C6C6F",
"Y  c #6E6D71",
"T  c #6F6F72",
"R  c #717174",
"E  c #7D7D7F",
"W  c #7E7E81",
"Q  c #838385",
"!  c #89898B",
"~  c #88888C",
"^  c #8D8D8F",
"/  c #8D8D90",
"(  c #8F8F91",
")  c #939395",
"_  c #979799",
"`  c #979899",
"'  c #AEAEB0",
"]  c #B2B2B3",
"[  c #B3B3B4",
"{  c #BBBBBC",
"}  c #C8C8CA",
"|  c #D3D3D4",
" . c gray90",
".. c gray93",
"X. c #F6F6F6",
"o. c #FBFBFB",
"O. c #FEFEFE",
/* pixels */
"c c z z z c u r g v v v N V N N ",
"V V V V V B g t v V A D F F F F ",
"> > > > > ; @ + @ ; 1 M A A S A ",
"X X X O X O X X X X X > N V Z Z ",
"& & & O.O.O.O.O.O.O.O.O.6 n n n ",
"* 8 * O.O.O.O.O.O.O.O.O.% 7 x x ",
"P J P O.O.O.O.O.O.O.O.O.% # d k ",
") ! _ o.O.O.O.O.O.O.O.O.8 O 5 y ",
"U L T / ~ ` [  .O.O.O.O.q % = e ",
"J K L L K K K ] O.O.O.o.q % @ 4 ",
"J J J K K K )  .O.O.} E q % # j ",
"J J H H K ^ ..O.X.| W H 0 % > N ",
"J J H J Q o.O.O. .U J G 9 % > v ",
"J J J J ~ O.O.O.| J J H 0 % # h ",
"J J J J ! O.O.O.{ J J H 9 % # h ",
"J J J J ^ O.O.O.] J J H 9 % # h ",
"J J J J ) O.O.O.' J J H 0 % $ h ",
"J J J J ) O.O.O.] J J H 9 % # y ",
"J J J J J J J J J J J H 9 % - 2 ",
"J J J J J J J J J J J H 0 % > j ",
"J J J J J J J J J J J H 0 % 1 C ",
"J J J J J J J J J J J H 0 % < V ",
"J J J J J J J J J J J H 9 % > N ",
"J J J J J J J J J J J G 0 % < v ",
"J J J J J J J J J J J H 9 % > g ",
"J J J J J J J J J J J H 9 % $ h ",
"J J J J J J J J J J J H 9 % # a ",
"J J J J J J J J J J J H 9 % # e ",
"J J J J J J J J J J J H 9 % @ 2 ",
"K J K K K J H J J J J H 9 % # j ",
"K K K K K K K J J H J H 9 & > N ",
"H H H H H H H H H J J H 9 % > v ",
"J H J J J J J J J J J L q % # g ",
"P U P T P T P P P T R T q % # a ",
"/ ) / / ^ / / ) / / ~ G 8 % $ h ",
"H H H H J H H H J H G w & % : h ",
", , , , , , , , 8 8 * * * % : y ",
"* * * * * * * * & * * * , & @ 2 ",
"* * * * * * * * * * * * * % # s ",
"* * * & * * & * * * * * * % > C ",
"* * * * * * * * * * * * % X 1 C ",
"* * * * * * * * * * & & X   1 V ",
"* & * * * * * * * * * % . . f B ",
"& & & & & * & % & & % X . @ z b ",
"X X X X X X X X X X X . @ 7 m m ",
"# o # o # - = = + + - ; h x x h ",
"r 3 i i t r e e e e r p m l y y ",
"e e r r e e e e 2 2 e e r e e e "
};
