/* XPM */
static char *xpm_[] = {
/* columns rows colors chars-per-pixel */
"16 48 116 2 ",
"   c #0C0B0E",
".  c #0C0A15",
"X  c #05031C",
"o  c #08051C",
"O  c #0E0D19",
"+  c #100E1E",
"@  c #131315",
"#  c #151519",
"$  c #181719",
"%  c #1A1A1C",
"&  c #0A0623",
"*  c #0D0A22",
"=  c #130D2F",
"-  c #131325",
";  c #1F1F21",
":  c #14142B",
">  c #090337",
",  c #0F0937",
"<  c #00003F",
"1  c #0A073A",
"2  c #0C0B3D",
"3  c #150D38",
"4  c #180E3B",
"5  c #10103F",
"6  c #191038",
"7  c #201F21",
"8  c #222224",
"9  c #2C2C2E",
"0  c #333335",
"q  c #040142",
"w  c #090345",
"e  c #0B0B47",
"r  c #070049",
"t  c #0B034A",
"y  c #070849",
"u  c #150C42",
"i  c #1A0F44",
"p  c #120A4E",
"a  c #171745",
"s  c #1C1246",
"d  c #16144B",
"f  c #1B124C",
"g  c #1C1C4B",
"h  c #141652",
"j  c #1D1253",
"k  c #171852",
"l  c #1A1B54",
"z  c #1C175A",
"x  c #1F1F5D",
"c  c #20134C",
"v  c #211E4D",
"b  c #221455",
"n  c #221D53",
"m  c #231959",
"M  c #23224E",
"N  c #242553",
"B  c #2D2D54",
"V  c #23235F",
"C  c #29295A",
"Z  c #303056",
"A  c #30305E",
"S  c #262761",
"D  c #292761",
"F  c #2B2B63",
"G  c #373761",
"H  c #383861",
"J  c #4E4E4F",
"K  c #525254",
"L  c #57575A",
"P  c #5B5B5E",
"I  c #5E5E61",
"U  c #626264",
"Y  c #656568",
"T  c #6B6B6E",
"R  c #6E6E71",
"E  c #727275",
"W  c #7D7D7E",
"Q  c #807F80",
"!  c #828284",
"~  c #88888B",
"^  c #89898B",
"/  c #8B8B8C",
"(  c #8E8E91",
")  c #8F8F92",
"_  c #909093",
"`  c #929294",
"'  c #98989A",
"]  c #A0A0A1",
"[  c #A6A6A7",
"{  c #ABABAD",
"}  c #ACABAC",
"|  c #B0AFAF",
" . c #B1B1B3",
".. c #B2B2B4",
"X. c #BDBDBE",
"o. c #BDBDBF",
"O. c #BEBEBF",
"+. c #C3C3C5",
"@. c #C7C7C8",
"#. c #C8C8C9",
"$. c gray79",
"%. c #CBCBCC",
"&. c gray84",
"*. c #E2E2E2",
"=. c #E9E9E9",
"-. c #EAEAEB",
";. c #F3F3F3",
":. c #F3F3F4",
">. c gray97",
",. c #F9F9F9",
"<. c #F9F9FA",
"1. c gray98",
"2. c #FBFBFB",
"3. c #FDFDFD",
"4. c #FEFEFE",
"5. c white",
/* pixels */
"k k k h y y d k k l C C C C l k ",
"F F S x p e l C A G H H H G C C ",
"F F x z , X & * - - - - - - - - ",
"D x f = .                       ",
"m b =     J 5.5.5.5.5./ # # # # ",
"b c O @ Y $.5.5.5.5.5.%.K 7 7 ; ",
"b s . # 5.5.5.5.5.5.5.5.5.Q W W ",
"b 3 . 8 5.5.5.5.5.5.5.5.5.| } [ ",
"u & @ 0 5.5.5.@.T @.5.5.5.E E E ",
"1 . @ 0 2.5.5.E Y T 5.5.2.U I P ",
"g # @ 9 I o.5.+.T o.5.' Y I I I ",
"Z # @ 9 P ..5.;.$.:.5.{ I I I I ",
"B # @ 9 >.5.5.o.P o.5.5.-.I I I ",
"M O @ 9 5.5.5.U I R 2.5.5.I I I ",
"v O @ 9 5.5.5.] I  .5.5.5.I I I ",
"d . @ 9 5.5.5.2.-.2.5.5.5.I I I ",
"s . @ 9 ^ &.5.5.5.5.5.*.E I I I ",
"i . @ 9 P ! 5.5.5.5.5.` I I I I ",
"1 . @ 9 P I I I I I I I I I I I ",
"5 . @ 9 P I I I I I I I I I I I ",
"M O @ 9 P I I I I I I I I I I I ",
"N O @ 9 P I I I I I I I I I I I ",
"M O @ 9 P I I I I I I I I I I I ",
"g . @ 9 P I I I I I I I I I I I ",
"s . @ 9 P I I I I I I I I I I I ",
"s . @ 9 P I I I I I I I I I I I ",
"s . @ 9 P I I I I I I I I I I I ",
"u . @ 9 L I I I I I I I I I I I ",
"1 . @ 9 L P P I I I I I I I I I ",
"a . @ 9 L P P I I I I I I I I I ",
"B # @ 9 P I I U U U U U U U U U ",
"B # @ 9 P I I I P P P P P P P P ",
"M O @ 0 Y U I I I I I I I I I I ",
"v O @ 0 T E R T T T T T T T T T ",
"d . @ 8 K ^ _ ( ( ( ( ( ( ( ( ( ",
"s . @ % 0 L P P P P P P P P P P ",
"s O @ % % ; ; ; ; ; ; ; ; ; ; ; ",
"1 . @ % % % % % % % % % % % % % ",
"2 . @ % % % % % % % % % % % % % ",
"N : @ % % % % % % % % % % % % % ",
"F M . # % % % % % % % % % % % % ",
"F N . @ % % % % % % % % % % % % ",
"V n +   @ # % % % % % % % % % % ",
"z b 6     @ # % # % $ # # % % % ",
"b b c 4 o                       ",
"b b b p > X X & * * * * * & X o ",
"j b p t r q q w p j f t t w q q ",
"w y q q q q < q q w q q q q q q "
};
