/* XPM */
static char *xpm_[] = {
/* columns rows colors chars-per-pixel */
"16 48 99 2 ",
"   c #060606",
".  c #06060A",
"X  c #0C0B0D",
"o  c #0A0714",
"O  c #0C0B10",
"+  c #05031D",
"@  c #08071D",
"#  c #0D0B1C",
"$  c #100C1E",
"%  c #141415",
"&  c #161619",
"*  c #181719",
"=  c #1A1A1C",
"-  c #060423",
";  c #0A0622",
":  c #0E0C22",
">  c #110B25",
",  c #131325",
"<  c #1E1E20",
"1  c #16162C",
"2  c #19192A",
"3  c #02013E",
"4  c #0C053E",
"5  c #09093F",
"6  c #100838",
"7  c #171733",
"8  c #15103C",
"9  c #212123",
"0  c #2D2D2F",
"q  c #2E2E30",
"w  c #323235",
"e  c #363639",
"r  c #030142",
"t  c #0A0444",
"y  c #0B0A45",
"u  c #0C034B",
"i  c #0B0C4A",
"p  c #110843",
"a  c #180D45",
"s  c #150A4A",
"d  c #180E49",
"f  c #131443",
"g  c #1C1046",
"h  c #181944",
"j  c #15134D",
"k  c #1D124B",
"l  c #1B1B4D",
"z  c #160A51",
"x  c #171752",
"c  c #1E1356",
"v  c #171852",
"b  c #1A1A53",
"n  c #191559",
"m  c #1A1B5D",
"M  c #211353",
"N  c #282848",
"B  c #252656",
"V  c #272857",
"C  c #23235B",
"Z  c #2A2A5B",
"A  c #33335A",
"S  c #272862",
"D  c #2D2D63",
"F  c #343462",
"G  c #383865",
"H  c #3C3C68",
"J  c #4E4E4F",
"K  c #565559",
"L  c #5A5A5E",
"P  c #5E5E61",
"I  c #616164",
"U  c #666669",
"Y  c #6B6B6E",
"T  c #6E6E71",
"R  c #717174",
"E  c #7D7D80",
"W  c #818183",
"Q  c #89898C",
"!  c #8B8B8C",
"~  c #8C8C8E",
"^  c #8F8F92",
"/  c #929294",
"(  c #939395",
")  c #99999B",
"_  c #ADADAF",
"`  c #B1B1B3",
"'  c #BDBDBF",
"]  c #C1C1C3",
"[  c #C2C2C3",
"{  c #C8C8C9",
"}  c #CBCBCB",
"|  c #D5D5D6",
" . c #E2E2E2",
".. c #E8E8E9",
"X. c #F2F2F3",
"o. c #F3F3F4",
"O. c gray97",
"+. c gray98",
"@. c #FEFEFE",
/* pixels */
"v v x x x v i t j b v b V Z Z V ",
"Z Z Z Z Z C j y b Z D G H H H H ",
", , , , , : @ + # : 2 N D D F D ",
"X X X O X O X X X X X , V S S S ",
"* * & & J @.@.@.@.@.~ X 7 m m m ",
"= < = Y { @.@.@.@.@.} J % 8 c c ",
"Y P Y @.@.@.@.@.@.@.@.@.% # g z ",
"/ ! ) @.@.@.@.@.@.@.@.@.9 O 6 u ",
"Y Y T @.@.@.{ E [ @.@.@.w % - r ",
"L I U +.@.@.Y U T @.@.+.w % @ 5 ",
"L I I U ' @.[ Y [ @.) I w % # l ",
"I L L L ` @.O.{ o.@._ L 0 & , B ",
"P P P O.@.@.' L ' @.@...0 & , l ",
"P P P @.@.@.I P Y +.@.@.0 % $ k ",
"P P P @.@.@._ L ` @.@.@.0 % # k ",
"P P P @.@.@.O...@.@.@.@.0 % # d ",
"I P P ~ | @.@.@.@.@. .Y 0 % $ d ",
"P P P P W @.@.@.@.@./ L 0 & ; u ",
"P P P P P P P P P P I L 0 % + 3 ",
"P P P P P P P P P P L L 0 % , B ",
"P P P P P P P P P P P L q & 2 A ",
"P P P P P P P P P P P L q % , Z ",
"P P P P P P P P P P P L 0 % 1 V ",
"P P P P P P P P P P P L q % , b ",
"P P P P P P P P P P P L 0 % : v ",
"P P P P I P P P P P P L 0 % # k ",
"P P P P P P P P P P P L 0 % # d ",
"P P P P P P P P P P P L 0 % # t ",
"P P P P P P P P P P P L q % @ 3 ",
"P P I I I P P L P P P L q % # l ",
"I I I I I I I P P L P L q % , C ",
"L L L L L L L L L P P L 0 % & l ",
"P P P L P P P P P L P U w % # j ",
"Y Y Y Y Y Y Y Y Y T T T w % > g ",
"^ / / / ^ ^ ^ ^ ^ ^ ! K 9 % $ k ",
"L L L L L L L L L L L e = % > k ",
"< < = < < < = < < = = = = = ; p ",
"= = = = = = = = = = = = = % @ 3 ",
"= = = = = = = = = = = = = % # f ",
"= = = = = = = = = = = = = % , A ",
"= = = = = = = = = = = = %   2 F ",
"= = = = = = = = = = = * X   1 Z ",
"= * = = = = = = = = = %   . h S ",
"* * * * * = & = = * % X . # j n ",
"X X X X X O O O X X X . @ 8 M M ",
"# o # o # ; + - + - - > a M c c ",
"4 4 a a y t r r 3 r t s M d u u ",
"r r t t r r r 3 3 r r r t r r 3 "
};
