/* XPM */
static char *xpm_[] = {
/* columns rows colors chars-per-pixel */
"16 48 117 2 ",
"   c #0C0B0E",
".  c #0C0A15",
"X  c #05031C",
"o  c #08051C",
"O  c #0E0D19",
"+  c #100E1E",
"@  c #131315",
"#  c #151519",
"$  c #181719",
"%  c #1A1A1C",
"&  c #0A0623",
"*  c #0D0A22",
"=  c #130D2F",
"-  c #131325",
";  c #1F1F21",
":  c #14142B",
">  c #090337",
",  c #0F0937",
"<  c #00003F",
"1  c #0A073A",
"2  c #0C0B3D",
"3  c #150D38",
"4  c #180E3B",
"5  c #10103F",
"6  c #191038",
"7  c #201F21",
"8  c #222224",
"9  c #2C2C2E",
"0  c #333335",
"q  c #39383A",
"w  c #040142",
"e  c #090345",
"r  c #0B0B47",
"t  c #070049",
"y  c #0B034A",
"u  c #070849",
"i  c #150C42",
"p  c #1A0F44",
"a  c #120A4E",
"s  c #171745",
"d  c #1C1246",
"f  c #16144B",
"g  c #1B124C",
"h  c #1C1C4B",
"j  c #141652",
"k  c #1D1253",
"l  c #171852",
"z  c #1A1B54",
"x  c #1C175A",
"c  c #1F1F5D",
"v  c #20134C",
"b  c #211E4D",
"n  c #221455",
"m  c #221D53",
"M  c #231959",
"N  c #23224E",
"B  c #242553",
"V  c #2D2D54",
"C  c #23235F",
"Z  c #29295A",
"A  c #303056",
"S  c #30305E",
"D  c #262761",
"F  c #292761",
"G  c #2B2B63",
"H  c #373761",
"J  c #383861",
"K  c #4C4C4D",
"L  c #4F4E50",
"P  c #515053",
"I  c #57575A",
"U  c #5B5B5E",
"Y  c #5E5E61",
"T  c #616164",
"R  c #666669",
"E  c #6B6B6E",
"W  c #6F6F72",
"Q  c #727275",
"!  c #767678",
"~  c #7B7B7C",
"^  c #7E7E81",
"/  c #807F80",
"(  c #828284",
")  c #868688",
"_  c #8B8B8D",
"`  c #8F8F92",
"'  c #909093",
"]  c #99999B",
"[  c #9D9D9E",
"{  c #9D9D9F",
"}  c #9E9EA0",
"|  c #A1A1A3",
" . c #A5A5A6",
".. c #A6A6A7",
"X. c #ACABAC",
"o. c #B0AFAF",
"O. c #B3B3B4",
"+. c #B5B5B6",
"@. c #B6B6B8",
"#. c #B9B9BA",
"$. c #BABABB",
"%. c #BFBFC0",
"&. c #C3C3C5",
"*. c #C9C9CA",
"=. c #CBCBCC",
"-. c #CCCCCD",
";. c #D4D4D5",
":. c #D7D7D7",
">. c #D8D8D9",
",. c #EEEEEF",
"<. c #F0F0F1",
"1. c #F1F1F2",
"2. c #F7F7F8",
"3. c #F9F9F9",
"4. c gray98",
"5. c #FEFEFE",
"6. c white",
/* pixels */
"l l l j u u f l l z Z Z Z Z z l ",
"G G D c a r z Z S H J J J H Z Z ",
"G G c x , X & * - - - - - - - - ",
"F c g = .                       ",
"M n =     q 6.6.6.6.6.U # # # # ",
"n v O @ K -.6.6.6.6.6.;.L 7 7 ; ",
"n d . # 6.6.6.6.6.6.6.6.6./ ~ ~ ",
"n 3 . 8 6.6.6.6.6.6.6.6.6.o.X. .",
"i & @ 0 6.6.6.*.{ ;.6.6.6.Q Q Q ",
"1 . @ 0 6.6.6.] R ! <.6.6.T Y U ",
"h # @ 9 6.6.6.} Y ! <.6.6.Y Y Y ",
"A # @ 9 ) ,.6.#.E +.6.6.6.Y Y Y ",
"V # @ 9 U  .6.6.3.6.6.6.6.Y Y Y ",
"N O @ 9 U ^ ` _ ) #.6.6.6.Y Y Y ",
"b O @ 9 U R R R T { 6.6.6.Y Y Y ",
"f . @ 9 U O.@.| ^ >.6.6.6.Y Y Y ",
"d . @ 9 U &.6.3.2.6.6.=.^ Y Y Y ",
"p . @ 9 U %.6.6.6.6.6.( Y Y Y Y ",
"1 . @ 9 U Y Y Y Y Y Y Y Y Y Y Y ",
"5 . @ 9 U Y Y Y Y Y Y Y Y Y Y Y ",
"N O @ 9 U Y Y Y Y Y Y Y Y Y Y Y ",
"B O @ 9 U Y Y Y Y Y Y Y Y Y Y Y ",
"N O @ 9 U Y Y Y Y Y Y Y Y Y Y Y ",
"h . @ 9 U Y Y Y Y Y Y Y Y Y Y Y ",
"d . @ 9 U Y Y Y Y Y Y Y Y Y Y Y ",
"d . @ 9 U Y Y Y Y Y Y Y Y Y Y Y ",
"d . @ 9 U Y Y Y Y Y Y Y Y Y Y Y ",
"i . @ 9 I Y Y Y Y Y Y Y Y Y Y Y ",
"1 . @ 9 I U U Y Y Y Y Y Y Y Y Y ",
"s . @ 9 I U U Y Y Y Y Y Y Y Y Y ",
"V # @ 9 U Y Y T T T T T T T T T ",
"V # @ 9 U Y Y Y U U U U U U U U ",
"N O @ 0 R T Y Y Y Y Y Y Y Y Y Y ",
"b O @ 0 E Q W E E E E E E E E E ",
"f . @ 8 P _ ' ` ` ` ` ` ` ` ` ` ",
"d . @ % 0 I U U U U U U U U U U ",
"d O @ % % ; ; ; ; ; ; ; ; ; ; ; ",
"1 . @ % % % % % % % % % % % % % ",
"2 . @ % % % % % % % % % % % % % ",
"B : @ % % % % % % % % % % % % % ",
"G N . # % % % % % % % % % % % % ",
"G B . @ % % % % % % % % % % % % ",
"C m +   @ # % % % % % % % % % % ",
"x n 6     @ # % # % $ # # % % % ",
"n n v 4 o                       ",
"n n n a > X X & * * * * * & X o ",
"k n a y t w w e a k g y y e w w ",
"e u w w w w < w w e w w w w w w "
};
