/* XPM */
static char *xpm_[] = {
/* columns rows colors chars-per-pixel */
"16 48 116 2 ",
"   c #060606",
".  c #06060A",
"X  c #0C0B0D",
"o  c #0A0714",
"O  c #0C0B10",
"+  c #05031D",
"@  c #08071D",
"#  c #0D0B1C",
"$  c #100C1E",
"%  c #141415",
"&  c #161619",
"*  c #181719",
"=  c #1A1A1C",
"-  c #060423",
";  c #0A0622",
":  c #0E0C22",
">  c #110B25",
",  c #131325",
"<  c #1E1E20",
"1  c #16162C",
"2  c #19192A",
"3  c #02013E",
"4  c #0C053E",
"5  c #09093F",
"6  c #100838",
"7  c #171733",
"8  c #15103C",
"9  c #212123",
"0  c #2D2D2F",
"q  c #2E2E30",
"w  c #323235",
"e  c #363639",
"r  c #39393A",
"t  c #030142",
"y  c #0A0444",
"u  c #0B0A45",
"i  c #0C034B",
"p  c #0B0C4A",
"a  c #110843",
"s  c #180D45",
"d  c #150A4A",
"f  c #180E49",
"g  c #131443",
"h  c #1C1046",
"j  c #181944",
"k  c #15134D",
"l  c #1D124B",
"z  c #1B1B4D",
"x  c #160A51",
"c  c #1C0F52",
"v  c #171752",
"b  c #1E1356",
"n  c #171852",
"m  c #1A1A53",
"M  c #191559",
"N  c #1A1B5D",
"B  c #211353",
"V  c #282848",
"C  c #252656",
"Z  c #272857",
"A  c #23235B",
"S  c #2A2A5B",
"D  c #33335A",
"F  c #272862",
"G  c #2D2D63",
"H  c #343462",
"J  c #383865",
"K  c #3C3C68",
"L  c #49494A",
"P  c #525153",
"I  c #565559",
"U  c #5A5A5E",
"Y  c #5E5E61",
"T  c #616164",
"R  c #666669",
"E  c #6B6B6E",
"W  c #6F6E72",
"Q  c #717174",
"!  c #7A7A7D",
"~  c #7F7F81",
"^  c #828284",
"/  c #868688",
"(  c #88888C",
")  c #89898C",
"_  c #8D8D8F",
"`  c #8E8E91",
"'  c #8F8F92",
"]  c #939395",
"[  c #959597",
"{  c #979799",
"}  c #9B9B9C",
"|  c #9D9D9E",
" . c #A0A0A2",
".. c #A4A4A6",
"X. c #AAAAAC",
"o. c #B3B3B4",
"O. c #B5B5B7",
"+. c #B6B6B7",
"@. c #B8B8B9",
"#. c #BABABB",
"$. c #BFBFC0",
"%. c #C3C3C4",
"&. c #CACACB",
"*. c #CBCBCC",
"=. c #CCCCCD",
"-. c #D0D0D1",
";. c #D6D6D7",
":. c #D8D8D9",
">. c #EEEEEE",
",. c gray94",
"<. c #F1F1F2",
"1. c #F7F7F8",
"2. c #F9F9F9",
"3. c gray98",
"4. c #FEFEFE",
"5. c white",
/* pixels */
"n n v v n n p y k n n m S S S Z ",
"S S S S S A k u n S S J K K K K ",
", , , , , : @ + @ : 1 V G G G G ",
"X X X X X X X X X X X , C F F F ",
"* * * * r 5.5.5.5.5.U X 7 m N N ",
"= = = P =.5.5.5.5.5.;.L # 8 b b ",
"R Y E 5.5.5.5.5.5.5.5.5.% $ l x ",
"] ( { 5.5.5.5.5.5.5.5.5.9 O 6 i ",
"E R W 5.5.5.&.X.-.5.5.5.w % - t ",
"Y T R 5.5.5.[ R ! ,.5.5.w % @ 5 ",
"Y Y T 5.5.5.} T ! ,.5.5.q % # z ",
"Y Y U / >.5.@.Q +.5.5.5.q % , C ",
"Y Y U Y ..5.5.2.5.5.5.5.0 % , m ",
"Y Y Y Y ~ _ _ / @.5.5.5.0 % # l ",
"Y Y Y Y R R R T | 5.5.5.0 % # l ",
"Y Y Y Y o.+. .~ :.5.5.5.0 % $ l ",
"Y Y Y Y %.5.2.1.5.5.*.! 0 % # f ",
"Y Y Y Y $.5.5.5.5.5.^ U 0 % : i ",
"Y Y Y Y Y Y Y Y Y Y Y U 0 % ; 3 ",
"Y Y Y Y Y Y Y Y Y Y Y U q % , z ",
"Y Y Y Y Y Y Y Y Y Y Y U q * 2 D ",
"Y Y Y Y Y Y Y Y Y Y Y U 0 % 1 S ",
"Y Y Y Y Y Y Y Y Y Y Y U 0 % , C ",
"Y Y Y Y Y Y Y Y Y Y Y U 0 % , m ",
"Y Y Y Y Y Y Y Y Y Y Y U 0 % : l ",
"Y Y Y Y Y Y Y Y Y Y Y U 0 % # l ",
"Y Y Y Y Y Y Y Y Y Y Y U 0 % # f ",
"Y Y Y Y Y Y Y Y Y Y Y U 0 % # y ",
"Y Y Y Y Y Y Y Y Y Y Y U 0 % @ 5 ",
"Y Y Y Y Y Y Y Y Y Y Y U 0 % : z ",
"T T T T T T Y Y Y Y T U 0 % , C ",
"U U U U U U U U U Y Y U 0 % & m ",
"Y Y Y Y Y Y Y Y Y U Y R w % # k ",
"E E E E E E E E E W Q W w % # l ",
"' ' ' ' ' ' ' ' ' ' ( I 9 % $ l ",
"U U U U U U U U U U I e = % > l ",
"< < < < < < < < < < < = = % : u ",
"= = = = = = = = = = = = = * @ 3 ",
"= = = = = = = = = = = = = * # g ",
"= = = = = = = = = = = = = % , D ",
"= = = = = = = = = = = = % . 1 H ",
"= = = = = = = = = = = = X   1 S ",
"= = = = = = = = = = = %   . j A ",
"= * * * * * * * * * % .   # k M ",
"X X X X X X X X X X X . @ 8 B B ",
"# o # # # ; - - + + ; > l B b c ",
"y 4 s h a y t t 3 t y d B c i i ",
"t t t y t t t t 3 t t t y t t t "
};
