/* XPM */
static char *a9ea63d7379647888674555572240031NyA0P3hfqcTe7hQl[] = {
/* columns rows colors chars-per-pixel */
"32 48 189 2 ",
"   c #00003F",
".  c #26213F",
"X  c #2B223F",
"o  c #030144",
"O  c #090545",
"+  c #0B0A46",
"@  c #070149",
"#  c #0B034A",
"$  c #070849",
"%  c #0C0B4A",
"&  c #110F43",
"*  c #10074E",
"=  c #130A4D",
"-  c #190D4F",
";  c #0F1047",
":  c #141346",
">  c #191746",
",  c #13134C",
"<  c #19154C",
"1  c #1B1B4A",
"2  c #150A51",
"3  c #1A0E52",
"4  c #0F1053",
"5  c #141453",
"6  c #1E1255",
"7  c #171852",
"8  c #1A1B53",
"9  c #171459",
"0  c #1C1659",
"q  c #1D1C5B",
"w  c #211E4A",
"e  c #221455",
"r  c #241B52",
"t  c #201658",
"y  c #231B5A",
"u  c #1F215F",
"i  c #262240",
"p  c #2C2343",
"a  c #282847",
"s  c #25234B",
"d  c #29254B",
"f  c #25284E",
"g  c #292B4D",
"h  c #332643",
"j  c #3A2542",
"k  c #322847",
"l  c #3E2B44",
"z  c #3C274C",
"x  c #252554",
"c  c #2A2652",
"v  c #272855",
"b  c #2C2B54",
"n  c #23235D",
"m  c #29245E",
"M  c #2B2B5B",
"N  c #322C5C",
"B  c #3C2C55",
"V  c #2D3055",
"C  c #2D325B",
"Z  c #30325C",
"A  c #242561",
"S  c #282761",
"D  c #272862",
"F  c #2B2B63",
"G  c #2B2B62",
"H  c #282962",
"J  c #2C2B62",
"K  c #2B2C63",
"L  c #2C2C63",
"P  c #2D2D63",
"I  c #2E2E64",
"U  c #2F2F64",
"Y  c #2F2E64",
"T  c #2D2E64",
"R  c #2B2C62",
"E  c #372D60",
"W  c #2E3261",
"Q  c #323761",
"!  c #333365",
"~  c #303064",
"^  c #353667",
"/  c #343464",
"(  c #3C3264",
")  c #343A62",
"_  c #303963",
"`  c #393967",
"'  c #393966",
"]  c #393966",
"[  c #32356C",
"{  c #34356A",
"}  c #323A6B",
"|  c #333A6A",
" . c #3B3B69",
".. c #393968",
"X. c #3B3C68",
"o. c #3C3C68",
"O. c #3B3B69",
"+. c #343772",
"@. c #3F3577",
"#. c #363B71",
"$. c #363C74",
"%. c #383E71",
"&. c #373F7D",
"*. c #363F79",
"=. c #442642",
"-. c #4B2741",
";. c #472845",
":. c #4C2842",
">. c #502841",
",. c #5B2A44",
"<. c #59344D",
"1. c #412952",
"2. c #4C3353",
"3. c #573754",
"4. c #593454",
"5. c #652D44",
"6. c #692C44",
"7. c #663D53",
"8. c #693853",
"9. c #402F65",
"0. c #433A6E",
"q. c #423779",
"w. c #44397E",
"e. c #37406F",
"r. c #35426E",
"t. c #38456F",
"y. c #38406F",
"u. c #374471",
"i. c #3A4375",
"p. c #3A4977",
"a. c #39437E",
"s. c #3A437A",
"d. c #3E4D7B",
"f. c #3B4B7F",
"g. c #3B4B7C",
"h. c #734055",
"j. c #704659",
"k. c #7E4B5A",
"l. c #534576",
"z. c #594A7D",
"x. c #844655",
"c. c #884555",
"v. c #834C5A",
"b. c #394382",
"n. c #3C4484",
"m. c #3B4482",
"M. c #3E4F82",
"N. c #3D4A84",
"B. c #3F4D8B",
"V. c #3F5185",
"C. c #3D548B",
"Z. c #4C4284",
"A. c #4F448A",
"S. c #404F8D",
"D. c #414D8D",
"F. c #50468C",
"G. c #415285",
"H. c #43578A",
"J. c #42558B",
"K. c #44598D",
"L. c #465B8F",
"P. c #43598F",
"I. c #435791",
"U. c #425492",
"Y. c #445A95",
"T. c #485B94",
"R. c #455799",
"E. c #435998",
"W. c #465F9C",
"Q. c #465D9B",
"!. c #495D9A",
"~. c #5A529A",
"^. c #446097",
"/. c #49639C",
"(. c #6C6699",
"). c #4766A1",
"_. c #4C67A1",
"`. c #4863A5",
"'. c #4964A3",
"]. c #4A6AA4",
"[. c #4C69A3",
"{. c #4967A8",
"}. c #4E6FA8",
"|. c #6660A9",
" X c #6B67A9",
".X c #756FA1",
"XX c #7974AF",
"oX c #726FB2",
"OX c #807CB5",
/* pixels */
"7 7 7 5 $ O , 7 7 8 M M M v 8 7 7 7 7 7 7 7 % O , 7 7 8 M M M v ",
"F F D q = % q F ~ ] o.o.o. .~ F F F F F F D 5 % q F ~ ] o.o.o.X.",
"L F q 0 = O 5 A ^ ] U U U U U L L L L K D q = O 4 A ^  .U U U U ",
"S q 0 2 @ o # 9 F U F F D F F F L F F S q 0 % o # 9 D U F F D F ",
"y e e 2 @ o @ 6 m F D q 0 0 y m J D q y e e % o @ 3 m F D 0 0 0 ",
"e e e 2 @ o @ 3 y q q 6 6 6 e t y y e e e e % o @ 3 y q q 6 6 6 ",
"e e 3 # @ o # 3 e 0 6 e e 2 = 6 e e e e e 3 @ o @ 3 t 0 6 e e 2 ",
"e 3 # @ @ o @ 2 6 e 6 2 2 @ @ * 2 3 e e 3 # @ o @ 2 6 e e 2 2 @ ",
"= @ @ o o o o @ % = = + 1 w w w 1 w s < % @ o o o @ % = = @ @ @ ",
"+ % % % % % + + ; 1 s v d.L.G.M e.L.H.Q g f 1 : % + + + + + + + ",
"n M Z Z Z M n x C M.| M S.`.E.M a.'.W.} M f.t.Z M n q q 8 q q q ",
" . . . . .] M t._.{.U.M [ b.a.M [ n.&.M #.).].L.) Z U U U U U F ",
"^ ~ F F L b C T.R.U.b.M d M M d c M M c { B.U.Q.p.b M L K L F q ",
"D L D D M | | ^ n.m.L d . i i i i i i p c +.n.*.W r.V L S m y 0 ",
"m D q q V P./.| L M p i i i i i i i i i i c L M V.[.y.M y 0 e e ",
"0 0 0 c | U.Y.N.d p j p i i i i i i i i i i i C Y.U.N.v t e e e ",
"e e e b M #.*.M h <.5.j i i i i i i i i i i . d [ *.! b r e e 3 ",
"6 e 3 d v M v s <.x.5.-.h i i i i i i i i i i i d v M v r e 3 # ",
"O O O g N.C.C p k.x.5.-.j i i i i i i i i i i . d i.P.^ & O O o ",
", , < v B.'.g.k v.c.6.-.j i i i i i i i i i i . V Q./.^ 1 < 8 8 ",
"M M F b b.U.$.p 7.8.,.-.j i i i i i i i i i i . b B.S.W b ^ ] ] ",
"U U L b ! +.W b l.z.B j j i i i i i i i i i i i c [ #.M Z o.~ ~ ",
"F F n b b M s ( XXOXZ.z j i i i i i i i i i i i s c b b M ~ F F ",
"u y y b M./.u.! ~.|.Z.1.j i i i i i i i i i i . b Y./._ x F F u ",
"0 e e b N.Q.s.b @.w.E z j i i i i i i i i i i . M U.E.W r u q 0 ",
"e e e v a.S.#.p 3.4.:.;.j i i i i i i i i i i . b N.B.W r 0 0 e ",
"e e e v ~ { M h v.c.6.-.j i i i i i i i i i . . d ~ ! M r e e 3 ",
"- 3 % s M C g h v.x.6.-.j i i i i i i i i i i . a C C v < 3 = @ ",
"O + % x H.}.p.h v.c.6.-.j i i i i i i i i i i i b /.[._ & O O O ",
"8 v M b m.E.*.h v.x.5.-.j i i i i i i i i i i i M S.U.W 1 8 8 8 ",
"] o.o.Z m.U.*.p 2.2.;.=.j i i i i i i i i i i i M D.S.C M U U F ",
" .~ L V } *.~ / (..X0.j j i i i i i i i i i i i v #.$.M M L F n ",
"F L F Z v M d (  XoXA.1.j i i i i i i i i i i i s c M b M S m 0 ",
"m F n b g.^.e.N F.~.q.z j i i i i i i i i i i i b H.Y.^ n 0 e e ",
"q 0 y b N.!.i.d ( 9.z =.j i i i i i i i i i i . N U.Y.^ r e e e ",
"e 6 e b M W c p j.h.,.=.h i i i i i i i i i . . d M L M r e e 6 ",
"e e 6 d | g.M h k.x.>.p i i i i i i i i i i . . d %.p.M w e 6 * ",
"% = > a W i.M i l l X i i . . . . . . . . . . . s | e.b i : O o ",
"% % : : : % + : : : 1 1 1 1 > : : : : : : : : + + : : : : 1 < < ",
"n n m n q % % 8 m M Q Q Q Q L m m m m n m n q % % 7 m M L Q Q Q ",
"U U U A q = % q ^ o. .^ ^ ^ ~ U U U U U U D q 2 % 5 D ^ o.^ ^ ^ ",
"F F n q 6 % @ 5 F ~ L F F F F J L L F F A q 6 % @ $ q L ^ F F F ",
"n m q e 2 @ o % y F F A n A m m J F A m q e 3 @ o @ 2 n F F A n ",
"0 e e e 2 @ o = y D n q 0 0 6 y m m 0 e e e 3 @ o @ 3 y A n 0 0 ",
"e e e e 2 @ o = t 0 0 e e 6 3 6 e e e e e e 2 @ o @ 3 0 0 0 e e ",
"e e e * @ @ o % e e e e 6 * @ * 6 6 e e e 2 @ @ o @ 2 e e e 6 3 ",
"6 e * @ @ @ o @ = 6 6 # @ @ @ @ @ # 3 e * @ @ @ o @ @ = e 3 # @ ",
"@ O o o o o   o O O O o o o o o o o O O o o o o   o o O O O o o "
};
