/* XPM */
static char *_82d65fc5b9847b8b27e280bfe85e669olb4ioanXI17x4P3[] = {
/* columns rows colors chars-per-pixel */
"32 48 175 2 ",
"   c #00003F",
".  c #030144",
"X  c #090546",
"o  c #0A0947",
"O  c #070149",
"+  c #0B034B",
"@  c #070849",
"#  c #0D0C4A",
"$  c #11064E",
"%  c #130A4D",
"&  c #190D4F",
"*  c #0F104D",
"=  c #13134D",
"-  c #18174E",
";  c #0E0750",
":  c #0B0C52",
">  c #150A51",
",  c #1A0D52",
"<  c #0D1052",
"1  c #0E165D",
"2  c #141453",
"3  c #1E1255",
"4  c #161953",
"5  c #1B1B54",
"6  c #161559",
"7  c #1C1659",
"8  c #1D1C5B",
"9  c #221455",
"0  c #241857",
"q  c #201758",
"w  c #231B5B",
"e  c #291E5D",
"r  c #17265E",
"t  c #1F215F",
"y  c #262757",
"u  c #272857",
"i  c #212159",
"p  c #24245A",
"a  c #26225E",
"s  c #23235D",
"d  c #29255F",
"f  c #29235E",
"g  c #282858",
"h  c #2B2B5C",
"j  c #31315E",
"k  c #161E62",
"l  c #1C2E67",
"z  c #192E68",
"x  c #1E356C",
"c  c #222361",
"v  c #232461",
"b  c #252560",
"n  c #262661",
"m  c #242461",
"M  c #282761",
"N  c #292660",
"B  c #272862",
"V  c #272862",
"C  c #282962",
"Z  c #2B2B63",
"A  c #2B2B62",
"S  c #2B2961",
"D  c #2C2B63",
"F  c #2B2C63",
"G  c #2C2C63",
"H  c #2D2D63",
"J  c #2F2F64",
"K  c #2E2E64",
"L  c #2D2D64",
"P  c #2B2B63",
"I  c #2A2C6A",
"U  c #2F3066",
"Y  c #2B336B",
"T  c #303064",
"R  c #333365",
"E  c #353567",
"W  c #343465",
"Q  c #393967",
"!  c #393966",
"~  c #363769",
"^  c #3B3B69",
"/  c #393968",
"(  c #3C3C68",
")  c #3B3B69",
"_  c #273271",
"`  c #323B70",
"'  c #3B4472",
"]  c #1A4482",
"[  c #1F5899",
"{  c #1D5193",
"}  c #2C4B84",
"|  c #284886",
" . c #365480",
".. c #305A83",
"X. c #335889",
"o. c #2C6C9D",
"O. c #316A96",
"+. c #38679F",
"@. c #2D6FA5",
"#. c #2869A8",
"$. c #2663A6",
"%. c #306FAC",
"&. c #3B7CA8",
"*. c #2D78B4",
"=. c #327CB5",
"-. c #397AB7",
";. c #397FBA",
":. c #405687",
">. c #485F8D",
",. c #495184",
"<. c #467199",
"1. c #417CAE",
"2. c #3485AC",
"3. c #3B88B6",
"4. c #3482B9",
"5. c #3882B9",
"6. c #3388B2",
"7. c #349ABF",
"8. c #5181AB",
"9. c #4192BE",
"0. c #559EB9",
"q. c #6294BA",
"w. c #7F94B5",
"e. c #38ABCA",
"r. c #33B4D5",
"t. c #4597C2",
"y. c #5898C2",
"u. c #54AAC5",
"i. c #41B8D2",
"p. c #4BBCD5",
"a. c #58B1D1",
"s. c #64A4C9",
"d. c #70AACA",
"f. c #67BCD2",
"g. c #6DBFD5",
"h. c #29CDE8",
"j. c #7DCADC",
"k. c #4FC8E4",
"l. c #50CDE3",
"z. c #57D5E8",
"x. c #7FD9E9",
"c. c #75D6EB",
"v. c #4EE0EC",
"b. c #76E1EE",
"n. c #6EE3F1",
"m. c #83A2BE",
"M. c #88C8DB",
"N. c #A9C9DE",
"B. c #AFD0DC",
"V. c #8CDEEC",
"C. c #ABD8EF",
"Z. c #ABD7F1",
"A. c #9AE2ED",
"S. c #8BEAF4",
"D. c #A0E5EF",
"F. c #A9E3F0",
"G. c #BBEEF6",
"H. c #B2E8F1",
"J. c #A6F0F9",
"K. c #AAF0F9",
"L. c #C3E3EE",
"P. c #C6E6F1",
"I. c #CBE6F1",
"U. c #C2F2F6",
"Y. c #CFF5F6",
"T. c #CBF8F7",
"R. c #C1F7F9",
"E. c #CDF7F8",
"W. c #D1F3F7",
"Q. c #DDFAFA",
"!. c #E1FAFB",
"~. c #EBFEFC",
"^. c #E2F6F9",
"/. c #F5FDFC",
"(. c #FCFEFE",
/* pixels */
"4 4 4 2 @ @ = 4 4 8 g g g y 8 4 4 4 4 4 4 4 # @ = 4 4 8 g g g u ",
"Z Z n 8 % # 8 Z T ^ ( ( ( ^ T Z Z Z Z Z Z n 2 # 8 Z T Q ( ( ( ( ",
"G Z 8 7 % X 2 m E Q L L L L L G G G G F n 8 % X < v E ^ L L L L ",
"M 8 7 > O . + 6 Z L Z Z B Z Z Z G Z Z d 8 7 # . + 6 n L Z Z B Z ",
"0 9 9 > O . O 3 a Z n 8 6 6 0 d D n 8 0 9 9 # . O , a Z n 8 6 6 ",
"9 9 9 > O . O , 0 8 7 3 3 3 9 0 w 0 9 9 9 9 # . O , 0 8 8 3 3 3 ",
"9 9 , + O . + , 9 7 3 9 9 > % 3 9 9 9 9 9 , O . O , q 7 3 9 9 > ",
"9 , + + O . O > 3 9 3 > > + O $ > , 9 9 , + O . O > 3 9 9 > > + ",
"% O O . . . . O # % # O O O O O O + % % O . . . . O # % % O O O ",
"o # # # # # o o o o o o o o @ . . o o # # # # # # o o o o o o o ",
"i h j j j h p 8 8 8 8 8 8 8 2 @ # 8 i p h j j j h i 8 8 8 8 8 8 ",
"^ ^ ^ ^ ^ ^ T L L L L L Z v 7 # # v U ^ ( ^ ^ ^ ~ T L L G L L Z ",
"E T Z Z Z Z D G G G Z Z s 7 > X @ 2 Y ' T Z Z Z Z D G G G G Z 8 ",
"n G B n m n d Z G Z n a 7 3 $ . . ; 2.O.G n n m n d Z F M a e 7 ",
"a B 8 7 6 7 9 a d w 7 9 9 9 $ . . > 7.6.B 8 7 6 7 0 a M w 7 9 9 ",
"7 6 7 9 9 3 9 9 e 9 9 9 9 3 + . . $ @.s.I 7 9 9 3 9 9 9 9 9 9 9 ",
"9 9 9 9 , + + 8 %.} 9 9 3 $ O O . > c w.:.9 9 > + $ 3 9 9 9 9 , ",
"3 9 , + + O O ; +.d.e 3 $ + 1 { [ $.#.p.i.8 + + O O + $ , 9 , + ",
"X X O . . . . . x j.>.X < o.e.c.C.Z.c.v.c.] . . . . . . O X X . ",
"= = = = # @ @ # 4 <.M. .0.F.U.Q././.Q.E.U.u.r = @ @ # = = - 5 5 ",
"h h Z s 8 # # 5 B ` N.B.U./.(.(.(././.(./.G.1.m 2 # 4 B G E Q Q ",
"L L Z v 7 % + 2 v ~ q.H./.(.(.(.(.(.(.(.(.!.l.| > X < m E ( T T ",
"Z Z s 7 , + O + 6 V 4.x.~.(.(.(.(.(.(.(.(.~.b.*.> O + 6 B T Z Z ",
"s w q 9 > O . O > v 5.L./.(.(.(.(.(.(.(.(./.P.;.: . O > e Z Z t ",
"7 9 9 9 > O . O , w 5.P./.(.(.(.(.(.(.(.(.(.I.-.: . O , 0 t 8 7 ",
"9 9 9 3 $ O . O , w =.A.~.(.(.(.(.(.(.(.(./.D.=.: . O > 9 7 7 9 ",
"9 9 3 $ + O . O > 3 | l.Q.(.(.(.(.(.(./.(.!.z.] O . O > 9 9 9 , ",
"& , # O O . . O O # 7 9.Y.(./.(.(.(.(././.W.t.: . . . O $ , % O ",
"X o o o o @ . . @ @ X z g.E././.(.(././.T.f.z o @ . . @ @ X X @ ",
"5 p g h h g 8 5 5 5 5 l f.R.S.J.!.^.K.n.a...g h p 8 5 5 5 5 5 5 ",
"Q ( ( ( ( ^ T G L L L X.V.m.o.3.y.y.t.h.r.' ( ( ^ L L L L L L Z ",
"^ T G G G G G G G G G :.M.,., # : k Y &.2.U G G G G G G G G Z s ",
"Z G Z n n n M D G Z Z &.8.9 $ . O ; 8 Z G Z n n n Z Z F Z M a 7 ",
"s Z s 6 6 7 0 a Z s m *._ 9 $ . . $ q M Z 8 8 6 7 w d Z w 7 9 9 ",
"8 6 7 9 9 3 9 9 0 9 0 | e 9 $ . . $ 3 6 6 7 9 9 9 9 9 w 9 9 9 9 ",
"9 3 9 9 , $ $ , 9 9 9 9 9 > O . . $ 9 9 3 9 9 , $ % 3 9 9 9 9 3 ",
"9 9 , % + + O + % , 9 9 % + O . . + > 9 9 , % + O + $ > , 9 3 $ ",
"# % X . . O O . . X # X O . . . . . O # # O . O O . . O X # X . ",
"# # # # # @ . o # # - - - - = # # # # # # # # @ X o # # * - - - ",
"s s s s 8 # # 5 s h W W W W G a s s s s s s 8 # # 4 s h G W W W ",
"L L L n 8 % + 8 E ( ^ E ~ ~ T L L L L L L n 8 > # 4 B ~ ( E E ~ ",
"Z Z s 7 3 # . 2 Z T G Z Z Z Z D G G Z Z m 7 3 # O @ 8 G E Z Z Z ",
"s a 7 9 > O . # w Z Z m s v a d D Z v a 7 9 , O . O > s Z Z v t ",
"7 9 9 9 > O . % w n s 8 7 7 3 w a a 7 9 9 9 , O . O , w m s 7 7 ",
"9 9 9 9 > O . % q 7 7 9 9 3 , 3 9 9 9 9 9 3 > O . O , 7 7 7 9 9 ",
"9 9 9 % + O . # 9 9 9 9 3 % O $ 3 3 9 9 9 > + O . O > 9 9 9 3 , ",
"3 9 % O O O . O % 3 3 + O O O O O + , 9 % O O O . O + % 9 , + O ",
"O @ . . . .   . X X X . . . . . . . X X . . . .   . . X X X . . "
};
