/* XPM */
static char *_067486bd47d4ae8adff8e86d4c6ba6blwOVbQ7wbbXE1Fyr[] = {
/* columns rows colors chars-per-pixel */
"32 48 182 2 ",
"   c #00003F",
".  c #030144",
"X  c #090546",
"o  c #0A0947",
"O  c #070249",
"+  c #0B034B",
"@  c #070B4C",
"#  c #0D0C4A",
"$  c #11064E",
"%  c #130A4D",
"&  c #190D4F",
"*  c #13134D",
"=  c #18174E",
"-  c #0B0A52",
";  c #150A51",
":  c #1A0D52",
">  c #0E1053",
",  c #0D1957",
"<  c #131453",
"1  c #1E1255",
"2  c #171852",
"3  c #1A1B54",
"4  c #151559",
"5  c #1B1659",
"6  c #101A5A",
"7  c #1D1C5B",
"8  c #221455",
"9  c #241857",
"0  c #201758",
"q  c #231B5A",
"w  c #1F215F",
"e  c #15235F",
"r  c #262757",
"t  c #272857",
"y  c #212159",
"u  c #24245A",
"i  c #26225E",
"p  c #23235D",
"a  c #29255F",
"s  c #29235E",
"d  c #282858",
"f  c #2B2B5C",
"g  c #31315E",
"h  c #121B64",
"j  c #201F61",
"k  c #132566",
"l  c #1E2568",
"z  c #162C68",
"x  c #18346B",
"c  c #1C2D73",
"v  c #1E3A7B",
"b  c #222361",
"n  c #232461",
"m  c #252460",
"M  c #262661",
"N  c #242561",
"B  c #282761",
"V  c #292761",
"C  c #272862",
"Z  c #262962",
"A  c #282962",
"S  c #2B2B63",
"D  c #2B2B62",
"F  c #2B2961",
"G  c #2C2B63",
"H  c #2B2C63",
"J  c #2C2C63",
"K  c #2D2D63",
"L  c #2F2F64",
"P  c #2D2D64",
"I  c #2B2B63",
"U  c #252D69",
"Y  c #2E3067",
"T  c #21386D",
"R  c #2D326A",
"E  c #303064",
"W  c #333365",
"Q  c #353667",
"!  c #343465",
"~  c #393967",
"^  c #393966",
"/  c #373768",
"(  c #3B3B69",
")  c #393968",
"_  c #3C3C68",
"`  c #3B3B69",
"'  c #323A6B",
"]  c #203174",
"[  c #2B3A73",
"{  c #233F72",
"}  c #3D3A72",
"|  c #3A3570",
" . c #244374",
".. c #2E487F",
"X. c #284578",
"o. c #304377",
"O. c #39447C",
"+. c #1F5A8C",
"@. c #274582",
"#. c #2A4A81",
"$. c #2C5187",
"%. c #2F578B",
"&. c #2A588C",
"*. c #335282",
"=. c #3D5988",
"-. c #2B608E",
";. c #266897",
":. c #236E9E",
">. c #3B6997",
",. c #336B9B",
"<. c #2B77A9",
"1. c #387CA6",
"2. c #367CB0",
"3. c #4C5F8A",
"4. c #5F6896",
"5. c #686F9A",
"6. c #7278A0",
"7. c #2780AA",
"8. c #3F8AAE",
"9. c #2E8DB5",
"0. c #3385B2",
"q. c #3B89B5",
"w. c #2C92B7",
"e. c #3891BD",
"r. c #4B8BB4",
"t. c #4A9DBA",
"y. c #5790BB",
"u. c #509FBC",
"i. c #6E8AAE",
"p. c #779DBD",
"a. c #2EA7C9",
"s. c #3EA5CB",
"d. c #2FAFD5",
"f. c #39B9D6",
"g. c #32B8D8",
"h. c #4790C8",
"j. c #5DA3C4",
"k. c #58A9D2",
"l. c #4BB8D7",
"z. c #45B6D6",
"x. c #60A9C5",
"c. c #64ADCB",
"v. c #61B0CA",
"b. c #76ADD0",
"n. c #60B7D1",
"m. c #6FBCDA",
"M. c #76B8D2",
"N. c #6CBAE2",
"B. c #32D1E8",
"V. c #6DC4DC",
"C. c #7DD4E6",
"Z. c #8391B0",
"A. c #87A5C1",
"S. c #89ADC8",
"D. c #8CBBD1",
"F. c #A5B3C8",
"G. c #87C2DF",
"H. c #8FC4DC",
"J. c #99C0D8",
"K. c #95C9DF",
"L. c #84C9E3",
"P. c #94C8E0",
"I. c #84DBE9",
"U. c #A5D4E5",
"Y. c #AFDEEB",
"T. c #BBD9E8",
"R. c #A3E3EF",
"E. c #ABE6F4",
"W. c #A4EFF6",
"Q. c #BAEFF4",
"!. c #BBF5F8",
"~. c #BEF9FC",
"^. c #CEDFE8",
"/. c #C3D3E2",
"(. c #C0F4F8",
"). c #C8F5F8",
"_. c #C4F2F7",
"`. c #E5FAFB",
"'. c #EEFBFB",
"]. c #E4F4F8",
"[. c #F5FCFC",
"{. c #FBFEFD",
/* pixels */
"2 2 2 < o o * 2 2 7 d d d r 7 2 2 2 2 2 2 2 # o * 2 2 7 d d d t ",
"S S M 7 % # 7 S E ( _ _ _ ( E S S S S S S M < # 7 S E ~ _ _ _ _ ",
"J S 7 5 % X < n Q ~ P P P P P J J J J H M 7 % X > n Q ( P P P P ",
"V 7 5 ; O . + 4 S P S S C S S S J S S V 7 5 # . + 4 M P S S C S ",
"9 8 8 ; O . O 1 i S M 7 5 5 9 a G M 7 9 8 8 # . O : i S M 7 5 5 ",
"8 8 8 ; O . O : 9 7 5 1 1 1 8 9 q 9 8 8 8 8 # . O : 9 7 7 1 1 1 ",
"8 8 : + O . + : 8 5 1 8 8 ; % 1 8 8 8 8 8 : O . O : 0 5 1 8 8 ; ",
"8 : + + O . O ; 1 8 1 ; ; + O $ ; : 8 8 : + O . O ; 1 8 8 ; ; + ",
"% O O . . . . O # % # O O O O O O + % % O . . . . O # % % O O O ",
"o # # # # # o o o o o o o o o . . o o # # # # # # o o o o o o o ",
"y f g g g f u 7 7 7 7 7 7 7 < o # 7 y u f g g g f y 7 7 7 7 7 7 ",
"( ( ( ( ( ( E P P P P P S n 5 # # n Y ( _ ( ( ( Q E P P J P P S ",
"Q E S S S S G J J J S S p 5 ; X o < M Q E P P S S G J J J J S 7 ",
"M J C M n M a S J S M i 5 1 $ . . + 5 S [ 0.,.n M a S H V i q 5 ",
"i C 7 5 4 5 8 i a q 5 8 8 8 $ . . $ 8 M <.d.X.4 5 9 i V q 5 8 8 ",
"5 5 5 8 8 1 8 8 8 8 8 8 8 1 + , =.6.5.n r.,.8 8 1 8 8 8 8 8 8 8 ",
"8 8 8 8 : + + : 8 8 8 8 1 $ - 8.C.J.F.} A.| $.w.:.< 1 8 8 8 8 : ",
"1 8 : + + O O + + ; 8 1 $ + O.U.m.h.S.Z.i.7 9.B.g.6 + $ : 8 : + ",
"X X O . . . . . . O X X @ ../.].G.N.s.;.e O +.a.7.@ . . O X X . ",
"* * * * # o o # * * *  .u.U.[.{.[.`.W.I.j. .< < @ o # * * = 3 3 ",
"f f S p 7 # # 3 C S ' v.(.[.{.{.{.[.[.[.).n.[ 7 < # 2 C J Q ~ ~ ",
"P P S n 5 % + < n E 3.T.{.{.{.{.{.{.{.[.{.E.q.j ; X > n Q _ E E ",
"S S p 5 : + O + 4 U p.'.{.{.{.{.{.{.{.{.{.`.M.l # O + 4 C E S S ",
"p q 0 8 ; O . O 4 4.^.[.{.{.{.{.{.{.{.{.{.{.K.] O . O ; q S S w ",
"5 8 8 8 ; O . 6 2.b.U.[.{.{.{.{.{.{.{.{.{.{.K.] O . O : 9 w 7 5 ",
"8 8 8 1 $ O . > @.@.k.].{.{.{.{.{.{.{.{.{.'.L.c O . O ; 8 5 5 8 ",
"8 8 1 $ + O . O ; j e.!.{.{.{.{.{.{.{.{.{.~.z.h O . O ; 8 8 8 : ",
"& : # O O . . o - # &.E.{.{.{.{.{.{.{.[.{.E.<.o . . . O $ : % O ",
"X o o o o o . x 0., 6 x.Q.[.{.{.{.{.{.{._.c.z o o . . o o X X o ",
"3 u d d f d U -.{ 7 3 T t.Y.[.{.{.'.!.R.c.o.d f u 7 3 3 3 3 3 3 ",
"~ _ _ _ _ ( *.f.>.P P P %.V.U.H.H.L.l.e.=._ _ _ ( P P P P P P S ",
"( E J J J J Y *.o.J J R y.D.O.k k v [ _ E J J J J J J J J J S p ",
"S J S M M M V G J S S >.p.} % . O - 7 S J S M M M S S H S V i 5 ",
"p S p 5 5 5 9 i S p #.1.A 8 $ . . $ 0 V S 7 7 5 5 q a S q 5 8 8 ",
"7 5 5 8 8 1 8 8 9 8 m i 8 8 $ . . $ 1 5 5 5 8 8 8 8 8 q 8 8 8 8 ",
"8 1 8 8 : $ $ : 8 8 8 8 8 % O . . $ 8 8 1 8 8 : $ % 1 8 8 8 8 1 ",
"8 8 : % + + O + % : 8 8 % + O . . + ; 8 8 : % + O + $ ; : 8 1 $ ",
"# % X . . O O . . X # X O . . . . . O # # O . O O . . O X # X . ",
"# # # # # o . o # # = = = = * # # # # # # # # o X o # # # = = = ",
"p p p p 7 # # 3 p f ! ! ! ! J i p p p p p p 7 # # 2 p f J ! ! ! ",
"P P P M 7 % + 7 Q _ ( Q Q Q E P P P P P P M 7 ; # 2 C Q _ Q Q Q ",
"S S p 5 1 # . ; S E J S S S S G J J S S n 5 1 # O @ 7 J Q S S S ",
"p i 5 8 ; O . # q S S n p n i a G S n i 5 8 : O . O ; p S S n w ",
"5 8 8 8 ; O . % q M p 7 5 5 1 q i i 5 8 8 8 : O . O : q n p 5 5 ",
"8 8 8 8 ; O . % 0 5 5 8 8 1 : 1 8 8 8 8 8 1 ; O . O : 5 5 5 8 8 ",
"8 8 8 % + O . # 8 8 8 8 1 % O $ 1 1 8 8 8 ; + O . O ; 8 8 8 1 : ",
"1 8 % O O O . O % 1 1 + O O O O O + : 8 % O O O . O + % 8 : + O ",
"O o . . . .   . X X X . . . . . . . X . . . . .   . . X X X . . "
};
