/* XPM */
static char *a07ae1d05c914cdad375f0ee0f6e45f6tZFg2qdEguvUaPTi[] = {
/* columns rows colors chars-per-pixel */
"32 48 171 2 ",
"   c #00003F",
".  c #030144",
"X  c #090546",
"o  c #0A0946",
"O  c #070248",
"+  c #0B034B",
"@  c #070849",
"#  c #0D0C4A",
"$  c #11074E",
"%  c #130A4D",
"&  c #190D4F",
"*  c #13134D",
"=  c #18174E",
"-  c #0D0850",
";  c #070E52",
":  c #150B51",
">  c #1A0D52",
",  c #0F1053",
"<  c #0E165B",
"1  c #131453",
"2  c #1E1255",
"3  c #151954",
"4  c #1B1B54",
"5  c #161559",
"6  c #1C1659",
"7  c #1D1C5B",
"8  c #221455",
"9  c #241857",
"0  c #211758",
"q  c #221959",
"w  c #231C5B",
"e  c #1F215F",
"r  c #262757",
"t  c #272857",
"y  c #212159",
"u  c #24245A",
"i  c #24235D",
"p  c #29255F",
"a  c #29235E",
"s  c #282858",
"d  c #2B2B5C",
"f  c #31315E",
"g  c #0F1D61",
"h  c #1A1D63",
"j  c #1F2162",
"k  c #1B2B63",
"l  c #1B3067",
"z  c #1A3A77",
"x  c #222361",
"c  c #232461",
"v  c #252560",
"b  c #262661",
"n  c #242561",
"m  c #282761",
"M  c #292660",
"N  c #272862",
"B  c #272863",
"V  c #282962",
"C  c #2B2B63",
"Z  c #2B2B62",
"A  c #2B2961",
"S  c #2C2B63",
"D  c #2B2C63",
"F  c #2C2C63",
"G  c #2D2D63",
"H  c #2A2A64",
"J  c #2F2F64",
"K  c #2D2D64",
"L  c #2B2B63",
"P  c #222E6A",
"I  c #2F3066",
"U  c #26306B",
"Y  c #2E3169",
"T  c #303064",
"R  c #333365",
"E  c #353667",
"W  c #343465",
"Q  c #393967",
"!  c #393966",
"~  c #363668",
"^  c #3B3B69",
"/  c #393968",
"(  c #3C3C68",
")  c #3B3B69",
"_  c #233474",
"`  c #293675",
"'  c #363870",
"]  c #3A3F70",
"[  c #403E75",
"{  c #1D407D",
"}  c #2C447B",
"|  c #484D7A",
" . c #1B558D",
".. c #1C5091",
"X. c #2C4D86",
"o. c #21488C",
"O. c #2A4381",
"+. c #334780",
"@. c #23548F",
"#. c #365388",
"$. c #225393",
"%. c #265A91",
"&. c #2463A1",
"*. c #2B6DA7",
"=. c #336FA0",
"-. c #2F77B0",
";. c #4B5E8C",
":. c #486B9C",
">. c #5A6591",
",. c #52779F",
"<. c #676E9B",
"1. c #6A749F",
"2. c #4471A1",
"3. c #3A83AC",
"4. c #2E81B6",
"5. c #388BB7",
"6. c #3F87BA",
"7. c #4B81B1",
"8. c #4D8CB8",
"9. c #4691B3",
"0. c #5B91B8",
"q. c #689ABD",
"w. c #3B91C5",
"e. c #38A9CD",
"r. c #3DB6D8",
"t. c #4999CE",
"y. c #5D93C1",
"u. c #53A9C8",
"i. c #5CBDD6",
"p. c #48AFD8",
"a. c #67B9D1",
"s. c #3CC0DB",
"d. c #4DC9E6",
"f. c #67D1E5",
"g. c #68D9E8",
"h. c #66D5EA",
"j. c #70D9E8",
"k. c #8995B5",
"l. c #87BBD4",
"z. c #A0B9CE",
"x. c #A8B3CB",
"c. c #8DC7D9",
"v. c #81D3E8",
"b. c #90DEEC",
"n. c #8CDEF0",
"m. c #ABD9EB",
"M. c #B4DAE4",
"N. c #96E1ED",
"B. c #93ECF4",
"V. c #A3E0EB",
"C. c #B5E0E6",
"Z. c #AEEBF1",
"A. c #B6E7F5",
"S. c #B6ECF4",
"D. c #C4D8E8",
"F. c #C7E9F1",
"G. c #DFEFF6",
"H. c #D8EFF8",
"J. c #C5F6F5",
"K. c #CCF4F7",
"L. c #D7F1F5",
"P. c #DFF3F5",
"I. c #DEF7FA",
"U. c #D5F8FB",
"Y. c #D7F8FA",
"T. c #E1EDEE",
"R. c #E5EFF1",
"E. c #ECFCFB",
"W. c #E2F7F8",
"Q. c #F3FCFC",
"!. c #FCFEFE",
/* pixels */
"3 3 3 1 @ @ * 3 3 7 s s s r 7 3 3 3 3 3 3 3 # @ * 3 3 7 s s s t ",
"C C b 7 % # 7 C T Q ( ( ( ^ T C C C C C C b 1 # 7 C T Q ( ( ( ( ",
"F C 7 6 % X 1 c E Q K K K K K F F F F L b 7 % X , c E ^ F K K K ",
"m 7 6 : O . + 5 C K C C N C C C F C C p 7 6 # . + 5 b K C C N C ",
"q 8 8 : O . O 2 i C b 7 5 5 q p S b 7 q 8 8 # . O > i C b 7 5 5 ",
"8 8 8 : O . O > q 7 6 2 2 2 8 9 w 9 8 8 8 8 # . O > q 7 7 2 2 2 ",
"8 8 > + O . + > 8 6 2 8 8 : % 2 8 8 8 8 8 > O . O > 0 6 2 8 8 : ",
"8 > + + O . O : 2 8 2 : : + O $ : > 8 8 > + O . O : 2 8 8 : : + ",
"% O O . . . . O # % # O O O O O O + % % O . . . . O # % % O O O ",
"o # # # # # o o o o o o o o @ . . o o # # # # # # o o o o o o o ",
"y d f f f d u 7 7 7 7 7 7 7 1 @ # 7 y u d f f f d y 7 7 7 7 7 7 ",
"^ ^ ^ ^ ^ ^ T K K K K K H c 6 # # c I ^ ( ^ ^ ^ ~ T K K F K K C ",
"E T C C C C S F F F C C i 6 : X @ 1 b E T C C C C S F F F F C 7 ",
"b F N b c b p C F C H #.j 2 $ . . + 6 C F b b c b p C L m i w 6 ",
"i N 7 6 5 6 8 a m w w q.>.' : . . $ 8 H X.7 6 5 6 q a m w 6 8 8 ",
"6 5 6 8 8 2 8 8 8 8 9 ,.z.l.P . . $ 6 %.*._ B 8 2 8 8 8 8 8 8 8 ",
"8 8 8 8 > + + > 8 8 8 B +.y._ ; O + i r.4.O.` 2 + + 2 8 8 8 8 > ",
"2 8 > + + O O + + : n 5.r.p.t.w. .g _ c.2.h o.$.+ + + $ > 8 > + ",
"X X O . . . . . . k 8.b.B.H.G.Z.g.u.i.C.T z -...O . . . O X X . ",
"* * * * # @ @ # l a.K.Q.Q.!.Q.Q.E.I.U.T.] 1 3 1 @ @ # * * = 4 4 ",
"d d C p 7 # # 7 3.S.!.!.!.!.!.!.!.!.!.R.| C p 7 1 # 3 N F E Q Q ",
"K K C c 6 % + { s.J.!.!.!.!.!.!.!.!.!.R.;.L c 7 : X , c E ( T T ",
"C C i 6 > + O &.v.E.!.!.!.!.!.!.!.!.!.W.7.c 6 2 # O + 5 N T C C ",
"e w 0 8 : O . &.m.!.!.!.!.!.!.!.!.!.!.P.7.q 8 > O . O : w C C e ",
"6 8 8 8 : O . &.m.!.!.!.!.!.!.!.!.!.!.L.7.0 8 > O . O > q e 7 6 ",
"8 8 8 2 $ O . $.f.Y.!.!.!.!.!.!.!.!.Q.B.-.8 2 : O . O : 8 6 6 8 ",
"8 8 2 $ + O . < e.J.!.!.!.!.!.!.!.!.E.h.X.2 % + O . O : 8 8 8 > ",
"& > # O O . . O $.V.E.!.!.!.!.!.!.Q.S.8.7 $ O O . . . O $ > % O ",
"X o o o o @ . . # 3.N.U.W.Q.!.E.U.A.9.3 o o o o @ . . @ @ X X @ ",
"4 u s d d s 7 4 4 k =.p.j.F.F.n.d.6.P 7 u s s d u 7 4 4 4 4 4 4 ",
"Q ( ( ( ( ^ T F K K Y } 0.M.:.@.z U I ^ ( ( ( ( ^ K K K K K K C ",
"^ T F F F F F F F F F T k.x.6 X @ 5 C ^ T F F F F F F F F F C i ",
"C F C b b b m S F C m >.D.<.$ . O - 7 C F C b b b C C L C m i 6 ",
"p C i 5 5 6 q a C i 6 [ 1.w $ . . $ 0 m C 7 7 5 6 9 p C w 6 8 8 ",
"7 5 6 8 8 2 8 8 9 8 8 8 8 8 $ . . $ 2 5 5 6 8 8 8 8 8 9 8 8 8 8 ",
"8 2 8 8 > $ $ > 8 8 8 8 8 % O . . + 2 8 2 8 8 > $ % 2 8 8 8 8 2 ",
"8 8 > % + + O + % > 8 8 % + O . . + : 8 8 > % + O + $ : > 8 2 $ ",
"# % X . . . O . . X # X O . . . . . O X # O . O O . . O X # X . ",
"# # # # # @ . o # # = = = = * # # # # # # # # @ . o # # * = = = ",
"i i p i 7 # # 4 p d W W W W F p p p p i p i 7 # # 3 p d F W W W ",
"K K K b 7 % + 7 E ( ^ E ~ ~ T K K K K K K b 7 : # 3 N ~ ( E E ~ ",
"C C i 6 2 # . 1 C T F C C C C S F F C C c 6 2 # O @ 7 F E C C C ",
"i i 6 8 : O . # w C C c i c i p S C c i 6 8 > O . O : i C C c i ",
"6 8 8 8 : O . % 9 b i 7 6 6 2 9 a i 6 8 8 8 > O . O > w c i 6 6 ",
"8 8 8 8 : O . % 0 6 6 8 8 2 > 2 8 8 8 8 8 8 : O . O > 6 6 6 8 8 ",
"8 8 8 % + O . % 8 8 8 8 2 % O $ 2 2 8 8 8 : + O . O : 8 8 8 2 > ",
"2 8 % O O O . O % 2 2 + O O O O O + > 8 % O O O . O + % 8 > + O ",
"O @ . . . .   . . X . . . . . . . . . X . . . .   . . . X . . . "
};
