/* XPM */
static char *_d0b303581504340ccfd9b06b453709bCmgWwf24mWPU1DJo[] = {
/* columns rows colors chars-per-pixel */
"32 48 202 2 ",
"   c #00003F",
".  c #251F3F",
"X  c #2C213E",
"o  c #25203F",
"O  c #34223E",
"+  c #38253F",
"@  c #030144",
"#  c #090546",
"$  c #0A0A47",
"%  c #070149",
"&  c #0B034A",
"*  c #070849",
"=  c #0D0C4A",
"-  c #10074E",
";  c #130A4D",
":  c #190D4F",
">  c #131246",
",  c #1C1E47",
"<  c #13134C",
"1  c #1A144A",
"2  c #161848",
"3  c #18184E",
"4  c #150A51",
"5  c #1A0E52",
"6  c #0F1053",
"7  c #141453",
"8  c #1E1255",
"9  c #171852",
"0  c #1B1B54",
"q  c #171459",
"w  c #1B1659",
"e  c #1D1C5B",
"r  c #231D42",
"t  c #2B1F42",
"y  c #201D4B",
"u  c #221455",
"i  c #251955",
"p  c #201758",
"a  c #231B5A",
"s  c #1F204A",
"d  c #1F215F",
"f  c #262242",
"g  c #2B2243",
"h  c #24234C",
"j  c #29254B",
"k  c #2D294F",
"l  c #352341",
"z  c #3A2542",
"x  c #34274C",
"c  c #36294F",
"v  c #252553",
"b  c #2A2652",
"n  c #272855",
"m  c #2B2B54",
"M  c #24235C",
"N  c #2A245C",
"B  c #2B2C5B",
"V  c #272D5B",
"C  c #332652",
"Z  c #312955",
"A  c #3B2A54",
"S  c #332B5A",
"D  c #392752",
"F  c #2E3156",
"G  c #2E325C",
"H  c #323254",
"J  c #32335E",
"K  c #242561",
"L  c #282761",
"P  c #272862",
"I  c #282862",
"U  c #2B2B63",
"Y  c #2A2961",
"T  c #2C2C63",
"R  c #2E2F60",
"E  c #2F2F64",
"W  c #2D2D64",
"Q  c #2B2B63",
"!  c #342C62",
"~  c #3A2C63",
"^  c #2F3365",
"/  c #303161",
"(  c #313661",
")  c #323265",
"_  c #333465",
"`  c #393162",
"'  c #333B62",
"]  c #393967",
"[  c #393966",
"{  c #34356A",
"}  c #3D346B",
"|  c #333A6C",
" . c #3A3A69",
".. c #3C3C68",
"X. c #3B3B69",
"o. c #363C72",
"O. c #393D74",
"+. c #383F7A",
"@. c #432542",
"#. c #4A2742",
"$. c #442944",
"%. c #4C2A45",
"&. c #4E2D49",
"*. c #532A45",
"=. c #5C2C45",
"-. c #5D2D49",
";. c #552F4A",
":. c #55314A",
">. c #5D344B",
",. c #5D3047",
"<. c #402B52",
"1. c #402A58",
"2. c #433057",
"3. c #49335B",
"4. c #642D46",
"5. c #622E48",
"6. c #633449",
"7. c #6B354A",
"8. c #6D394D",
"9. c #663348",
"0. c #71354B",
"q. c #723B4E",
"w. c #75374B",
"e. c #6D3A51",
"r. c #633750",
"t. c #723D51",
"y. c #7A3F53",
"u. c #42356C",
"i. c #493B6C",
"p. c #473B6D",
"a. c #443A76",
"s. c #35406E",
"d. c #374272",
"f. c #3A4474",
"g. c #374079",
"h. c #3A437D",
"j. c #3B4B7D",
"k. c #714054",
"l. c #794353",
"z. c #784659",
"x. c #834555",
"c. c #814559",
"v. c #864A58",
"b. c #8D4C5C",
"n. c #8A4754",
"m. c #8B505F",
"M. c #94535E",
"N. c #98555E",
"B. c #965561",
"V. c #985361",
"C. c #4B3F87",
"Z. c #3A4281",
"A. c #3D4B84",
"S. c #3E4C8A",
"D. c #3F538C",
"F. c #3E5383",
"G. c #3F5691",
"H. c #4B4387",
"J. c #414E87",
"K. c #4C4188",
"L. c #404B8C",
"P. c #554C8C",
"I. c #5B4C8C",
"U. c #415485",
"Y. c #41528C",
"T. c #45588E",
"R. c #584E97",
"E. c #594E98",
"W. c #425493",
"Q. c #445A94",
"!. c #465D9F",
"~. c #5D549A",
"^. c #5E589B",
"/. c #585094",
"(. c #63599E",
"). c #6A5E9B",
"_. c #476098",
"`. c #49609A",
"'. c #615BA2",
"]. c #4B64A3",
"[. c #4C6AA4",
"{. c #4E6DAA",
"}. c #4E70AA",
"|. c #4F6EB0",
" X c #6966AC",
".X c #6A68AF",
"XX c #6966A8",
"oX c #726AA3",
"OX c #7E74A9",
"+X c #6E6AB3",
"@X c #7A75B2",
"#X c #7F7DB7",
"$X c #827FB6",
"%X c #8E84AC",
"&X c #9186AE",
"*X c #8D87BA",
"=X c #918BB9",
"-X c #9A92BC",
";X c #A59DC2",
":X c #AFA8C8",
">X c #A8A1C4",
",X c #B3ABC9",
/* pixels */
"9 9 9 7 * # < 9 9 0 n n n n 0 9 9 9 9 9 9 9 = # < 9 9 0 n n n n ",
"U U P e ; = e U ) ] ...... .) U U U U U U P 7 = e U ) ] ......X.",
"T U e w ; # 7 K _ ] E E E E E E T T T Q P e ; # 6 K _  .E E E E ",
"L e w 4 % @ & q U E U U P U U U T U U L e w = @ & q P E Q U P U ",
"a u u 4 % @ % 8 M U P e w w a N Q P e a u u = @ % 5 M Q P e w w ",
"u u u 4 % @ % 5 a e e 8 8 8 u i a a u u u u = @ % 5 a e e 8 8 8 ",
"u u 5 & % @ & 5 u w 8 u u 4 ; 8 u u u u u 5 % @ % 5 p w 8 u u 4 ",
"u 5 & % % @ % 4 8 u 8 4 4 % % - 4 5 u u 5 & % @ % 4 8 u u 4 4 % ",
"; % % @ @ @ @ % = ; = % = > > > > 1 y 1 # @ @ @ @ % = ; ; % % % ",
"$ = = = = = $ $ $ > s h J f.d.F B f.f.( h h 2 > = $ $ = $ $ $ $ ",
"M B J J J B M M n ( J m A.{.{.| _ [.{.A.m ( ' F B M e e 0 e 0 e ",
" . . . . . ./ G U.[._.T { S.S.) / S.S.| B Q.[.U.' / E E T T T U ",
"_ ) U U U B m U.].W.Y.) n ) ) m b ^ ^ m T S.Q.].T.F B T T T U e ",
"P T P P M m B o.J.A.o.n g g g g g g g g j o.S.L.O.B m B L M a w ",
"M P e w v j.`.) { { v f @.=.%.g g #.=.z o j { ) _ Q.j.m a w u u ",
"w w w i J G.!.T.n j g X 4.n.w.z O 0.x.6.g g j b D.!.Q.G i u u u ",
"u u u b J h.S.O.j l *.O q.N.c.z l c.B.y.l %.z j o.A.h./ b u u 5 ",
"8 u 5 y b B T b l -.=.l t.N.c.z l c.B.l.O =.4.l b B B m v u 5 & ",
"# # % , ( | n g #.x.8.O t.V.c.z l c.M.l.l 6.x.#.f b | _ y # # @ ",
"< < < j A.{.A.j >.M.q.O q.B.c.z l c.B.l.l 8.M.6.g j.{.Y.h 3 0 0 ",
"B B U m O.W.S.j *.v.6.X 6.b.t.O O e.m.r.O >.v.;.j A.W.g.m _ ] ] ",
"E E Q m | A.+.g x 2.A C A 3.A C C 1.3.A c A 2.x j O.A.o.F ..) ) ",
"U U M m B B n k P.'.'.'.'.'.'.'.'.'.oXOX&X%XXX/.Z n n B m ) U U ",
"d a p b ( d.( m ^.+X+X+X+X+X+X+X+X+X*X-X,X:X#X'.S G d.^ n U U d ",
"w u u k j.{.G.B C.E.E.E.E.E.R.R.R.E.(.).oXoX^.C.S Y.|.S.b d e w ",
"u u u j o.W.h.j Z ~ ~ ! ~ ~ ~ ! ! ~ ~ ~ ! ~ ~ S j +.Y.+.v w w u ",
"u u 8 h | Z.o.j @.5.%.g %.5.*.g g *.4.*.X #.5.$.g o.h.| h u u 5 ",
": 5 = y m B b g =.x.6.O 7.b.q.+ l w.n.8.l 6.x.,.g b n m h 5 ; % ",
"# $ $ h | A.s.f >.M.q.O q.B.c.+ l c.M.l.l e.M.6.f | A.o.y # # # ",
"0 M n H j.[.W.j 6.M.q.O t.B.c.z O c.M.y.l e.M.6.g U.[.A.v 0 0 0 ",
"] ....H o.D.Z.j $.t.&.g &.z.>.g X >.z.:.X &.k.%.g h.W.g.m E E U ",
" .) T H o.S.Z.j ` u.} } } u.u.} } u.i.p.p.i.i.` j g.S.O.m T U M ",
"U T U F ! ^ B Z ^..X X X.X X.X X.X X#X=X;X;X@X(.S B ^ T m L M w ",
"M U M n F G m m R..X.X+X.X.X.X.X+X.X$X=X>X>X@X~.S m ^ F m w u u ",
"e w e n j.{.W.N a.H.K.K.H.H.H.K.K.H.H.P.I.I.H.a.m F.}.J.j u u u ",
"u 8 u b | A.O.j x <.D b D <.A C C D <.A C D <.x f | A.o.b u u 8 ",
"u u 5 v S B n f #.9.*.l =.0.5.l O =.0.-.l *.7.%.t j B m b u 8 - ",
"= ; # h | T.o.g $.k.:.g ;.z.r.l X >.z.:.t &.k.&.g | T.| h ; # @ ",
"= = , f n B n r r g g f f g g . r f g f r f g . r h V v f j 3 3 ",
"M M M M 0 = $ 9 M B J J J J B M M M M M M M 0 < = 9 M M B ( ( ( ",
"E E E K e ; = e _ .. ._ ] ] ) E E E E E E P e 4 = 7 P ] .._ _ ] ",
"U U M e 8 = % 7 U ) T U U U U Q T T U U K e 8 = % * e T _ U U U ",
"M M e u 4 % @ = a U U K M K M N Q U K M e u 5 % @ % 4 M U U K M ",
"w u u u 4 % @ ; a P M e w w 8 a N M w u u u 5 % @ % 5 a K M w w ",
"u u u u 4 % @ ; p w w u u 8 5 8 u u u u u u 4 % @ % 5 w w w u u ",
"u u u - % % @ = u u u u 8 - % - 8 8 u u u 4 % % @ % 4 u u u 8 5 ",
"8 u - % % % @ % ; 8 8 & % % % % % & 5 u - % % % @ % % ; u 5 & % ",
"% # @ @ @ @   @ # # # @ @ @ @ @ @ @ # # @ @ @ @   @ @ # # # @ @ "
};
