/* XPM */
static char *c1eb294da1af44f1c84569a72f4a6a99ryCSQFNHzRaxwHtO[] = {
/* columns rows colors chars-per-pixel */
"32 48 109 2 ",
"   c #171852",
".  c #161652",
"X  c #070849",
"o  c #080846",
"O  c #12124C",
"+  c #1B1C53",
"@  c #272857",
"#  c #2E3156",
"$  c #313456",
"%  c #2A2A54",
"&  c #1C1F4F",
"*  c #17194E",
"=  c #2C2D62",
"-  c #262761",
";  c #1D1E5D",
":  c #120E4E",
">  c #0E0F4B",
",  c #1F225A",
"<  c #323564",
"1  c #383A65",
"2  c #39426C",
"3  c #363E6E",
"4  c #353A65",
"5  c #39426B",
"6  c #272A5C",
"7  c #1E2254",
"8  c #22235A",
"9  c #3C3C68",
"0  c #1D1759",
"q  c #2E3264",
"w  c #394476",
"e  c #3C497B",
"r  c #394579",
"t  c #374072",
"y  c #313A6D",
"u  c #292761",
"i  c #221959",
"p  c #1D1455",
"a  c #252861",
"s  c #363E72",
"d  c #394379",
"f  c #3C4A81",
"g  c #3B467D",
"h  c #374276",
"j  c #394276",
"k  c #3C4A7F",
"l  c #333669",
"z  c #2D396A",
"x  c #2E366A",
"c  c #231656",
"v  c #353A6B",
"b  c #374479",
"n  c #231B56",
"m  c #3D4C82",
"M  c #33325C",
"N  c #52333F",
"B  c #3D4D84",
"V  c #2B265A",
"C  c #190F51",
"Z  c #3C477E",
"A  c #332E5A",
"S  c #342C54",
"D  c #2B2B5C",
"F  c #19124E",
"G  c #393D72",
"H  c #342A4F",
"J  c #CC2F7B",
"K  c #3D294A",
"L  c #442C4B",
"P  c #4B2C46",
"I  c #353C6F",
"U  c #432A46",
"Y  c #3B2D53",
"T  c #9C2A70",
"R  c #4B2D4A",
"E  c #532E47",
"W  c #54314B",
"Q  c #5B344B",
"!  c #222455",
"~  c #383F78",
"^  c #373F75",
"/  c #353D71",
"(  c #BD6A62",
")  c #2E315B",
"_  c #3A366A",
"`  c #443C72",
"'  c #3A3563",
"]  c #3C2F5A",
"[  c #393047",
"{  c #3D3046",
"}  c #352E46",
"|  c #3D3044",
" . c #292750",
".. c #362749",
"X. c #3D2944",
"o. c #352E42",
"O. c #342C42",
"+. c #382E44",
"@. c #312C42",
"#. c #3B2744",
"$. c #342847",
"%. c #2A294D",
"&. c #262444",
"*. c #27274B",
"=. c #2A264C",
"-. c #2A2241",
";. c #292941",
":. c #292A3F",
">. c #29233E",
/* pixels */
"      . X o O   + @ # $ $ $ $ $ # $ $ $ # % & O * +   + @ @ @ @ ",
"= = - ; : > , = < 1 1 1 2 2 3 4 4 1 5 2 3 < 6 7 8 = < 1 9 9 9 9 ",
"= = ; 0 : O , q 4 4 4 3 w e r t 3 t r e w y q 6 6 q 4 9 q = = = ",
"u ; i p :   a y 3 3 4 s d f g h 3 j g k r s l l z x l < = = - = ",
"i c c p   , x r r j v v s d s v 4 s j d s v 3 h b h s l = 8 ; ; ",
"c c c n 8 q h m m r v l l v l < < < 4 v l l s r m m r y = 8 n p ",
"c c n 8 = y r m f j 4 < M M N N N N M M M < l b f B g s q V n C ",
"c n n 6 x s r Z d v < A S S N N N N S S S A < v d f g j 4 D n : ",
"F   8 x 3 h j G v < A H N N J J J J N N K H A < v s j j s q , O ",
"O 7 q t d j 3 l < A H L N N J J J J N N P K H A < 4 s d d I 6 + ",
"6 < 3 r g j 4 M A H N N J J J J J J J J N N K H A M 4 j g j l D ",
"1 1 s d r G < S H K N N J J J J J J J J N N U K H A l G r d v q ",
"< < 4 s s 4 M Y N N T T J J J J J J J J T T N N L Y M 4 G s l = ",
"D < l v 4 < Y L N N T T J J J J J J J J T T N N P L Y < l 4 < D ",
"D M < l < M Y R N N T T T T J J J J T T T T N N E R Y A < < < D ",
"6 q 4 l < Y L W N N T T T T J J J J T T T T N N Q E L Y < 4 l q ",
"@ < G s N N N N T T T T T T T T T T T T T T T T N N N N 4 t t x ",
"D 4 j r N N N N T T T T T T T T T T T T T T T T N N N N 3 r d x ",
"! l N N T T J J J J N N N N N N N N N N N N J J J J T T N N d x ",
"6 l N N T T J J J J N N N N N N N N N N N N J J J J T T N N h < ",
"N N T T T T J J J J J J J J J J J J J J J J J J J J T T T T N N ",
"N N T T T T J J J J J J J J J J J J J J J J J J J J T T T T N N ",
"N N T T T T T T J J J J J J J J J J J J J J J J T T T T T T N N ",
"N N T T T T T T J J J J J J J J J J J J J J J J T T T T T T N N ",
"D < N N T T T T T T T T T T T T T T T T T T T T T T T T N N s x ",
"D l N N T T T T T T T T T T T T T T T T T T T T T T T T N N d l ",
"D l j d N N N N T T T T T T T T T T T T T T T T N N N N G d ~ l ",
"V < s s N N N N T T T T T T T T T T T T T T T T N N N N 4 ^ s = ",
"! q N N N N N N N N N N N N N N N N N N N N N N N N N N N N l D ",
"6 q N N N N N N N N N N N N N N N N N N N N N N N N N N N N < D ",
"< 4 N N N N N N N N N N N N N N N N N N N N N N N N N N N N 4 < ",
"4 4 N N N N N N N N N N N N N N N N N N N N N N N N N N N N 3 < ",
"< 3 N N N N N N N N N N N N N N N N N N N N N N N N N N N N j l ",
"q 3 N N N N N N N N N N N N N N N N N N N N N N N N N N N N d l ",
"D y N N N N N N N N N N N N N N N N N N N N N N N N N N N N d l ",
"D l N N N N N N N N N N N N N N N N N N N N N N N N N N N N s < ",
"V < v / N N N N N N N N N N N N N N N N N N N N N N N N 4 s v = ",
"n D l l N N N N N N N N N N N N N N N N N N N N N N N N l 4 < D ",
"! D < l N N ( ( T T J J J J J J J J J J J J T T ( ( N N l l < ) ",
"D < 3 v N N ( ( T T J J J J J J J J J J J J T T ( ( N N 4 3 3 4 ",
"< 4 t s v _ N N T T T T J J J J J J J J T T T T N N ` 9 3 t t 4 ",
"< 4 G G v ' N N T T T T J J J J J J J J T T T T N N ' ' 4 G s l ",
"= < v v l M N N T T T T T T T T T T T T T T T T N N ] M l v 4 x ",
"D < l l M S N N T T T T T T T T T T T T T T T T N N Y A M < < = ",
"V A < < $ S [ { N N N N N N N N N N N N N N N N { { K S M < < D ",
"% M < < $ S } | N N N N N N N N N N N N N N N N { | K S $ < < D ",
" .# < < $ H ..X.o.O.O.O.o.+.o.@.@.@.o.+.o.O.@.O.X.#.$.%.# ) ) % ",
"&.*.% %  .=.-.-.;.:.:.:.:.:.:.:.;.;.;.;.:.:.:.;.>.>.-.&.*.*.% =."
};
