/* XPM */
static char *_dac5c0aa5744ff18a1f9bcc20e82d8f4KqmjeYiVAxfYnOX[] = {
/* columns rows colors chars-per-pixel */
"32 48 77 1 ",
"  c #01013F",
". c #030243",
"X c #090545",
"o c #0B0946",
"O c #060149",
"+ c #0C044B",
"@ c #0C0B4B",
"# c #12064E",
"$ c #140A4D",
"% c #180B4F",
"& c #10104D",
"* c #0D0C52",
"= c #180750",
"- c #150B53",
"; c #1A0C52",
": c #0F1054",
"> c #151552",
", c #1D1254",
"< c #171854",
"1 c #1B1B56",
"2 c #14135A",
"3 c #1C1659",
"4 c #16185B",
"5 c #1C1C5C",
"6 c #221455",
"7 c #261955",
"8 c #2A1B57",
"9 c #221758",
"0 c #231D5B",
"q c #2B1E58",
"w c #1F205F",
"e c #262657",
"r c #23235D",
"t c #20205E",
"y c #24235E",
"u c #27255F",
"i c #2B225B",
"p c #2E235B",
"a c #28215C",
"s c #2B275F",
"d c #2E285F",
"f c #2E2E5E",
"g c #30295E",
"h c #302F5F",
"j c #30305E",
"k c #1F2060",
"l c #232360",
"z c #232461",
"x c #272560",
"c c #282761",
"v c #272862",
"b c #282963",
"n c #2B2B62",
"m c #2B2C62",
"M c #2B2C63",
"N c #2C2C63",
"B c #2D2E63",
"V c #2E2F64",
"C c #312F63",
"Z c #302F65",
"A c #323063",
"S c #303065",
"D c #333364",
"F c #343365",
"G c #333465",
"H c #363667",
"J c #393967",
"K c #373768",
"L c #3B3B68",
"P c #3C3C68",
"I c #3E3E69",
"U c #403F6A",
"Y c #41416A",
"T c #44446B",
"R c #45456C",
"E c #48486D",
"W c #4E4E6F",
/* pixels */
"HHHSy>&BKPEWWWWYHHHHHHHVt@<BLUEW",
"HHVx9$@tSRYLJLLHHHHHHFBy9o*tHTYJ",
"HBu0;+O-yHJHSGSFHHHHFBy7;O+>xHJS",
"siq7;OO#0CHBvxxsCHSnspq8#OO=0AHV",
"qqq8;OO#8snu000qpgdaqqq8#OO%qnnu",
"qq86#OO#8000q8967qqqqq86#OO;7y00",
"q86=#OO#98q889;#;988q86##OO%9qq8",
"7,##+O.+#68,###+##%67,#++.O+%67,",
"$oXXX..OOo$oOOOOOOOo$oXXX..OXooo",
"1eeee1<<<<<<<<@Xo<<<eeeee1<<<<<<",
"JPPPLHnnnnnmnl3@@tBHJPPPPAnnnnnn",
"HSVSZVBBBBBnz5,o@4nLHVZSSBBBBBBn",
"VBnnnnnBmnnt5,#OO*5BVnnnnnnBmnny",
"nx5550annt096,+..+3snx5550aBnt99",
"w533339003669,+..+,0w53336000966",
"3366;;;666666;+..+,33396;;,66666",
"6,,;#++;;696-+O..+;666;;++#;,66,",
",%+++O+++;,%+OO..O+;,%++OO+++;,%",
"XXO......XXXXXX....XXX......XXXX",
"111<>Xo<11effffe1111111<>X@<11ef",
"nBnl3@@tBHLJLLJSnnnnnnnt3X>tVHLL",
"Vnl5,oX4xHHVVSVVVBBBVnl3;X@4nHHV",
"nt5,#O.+3nVnxxxcnBmncy5,#.O*5BVn",
"096,#..+,ynz5559ync0996,+..+3xnz",
"669,#..+60w5333,6003666,+..#3555",
"666=+O.+,33366;=;666666=+..#,333",
"66=+OO.+;69,;;++#;;666=++.O+;66,",
",%+OO..O+$,%+OOOO++$,%+OO..Oo%,%",
"XX..................XX........X.",
"efhffe<<<<<<<<*.@<<5ejffft<<<<<<",
"SVVVBnllllzlw4-X@4xVSVVVVxllllll",
"nxxxxxzllxxk4-@.O*5nnxxxxxxllxxk",
"xt55550llk53-=+..O2txw5555tzl553",
"54222,3004,;;=+..+-554222,5054-;",
"42---=;,,--;;=+..+=222---=;,,-=;",
"--;;#+#;;;;;=+O..+=--=;;#+#=;;;;",
";=#+OOO##=;=+O...O#;;=#+OO+##;;=",
"%oO.....Oo%o......Oo%oO.....O#%o",
"...... ...XoX............ ....Xo",
"5553:Xo<55sAASAu55555553*.@<5tsS",
"lxw4-+X4lSSBBVmvllllll54-X@4xSSB",
"xw4-+O.*4nnxxxxxlllxz54-+.O*4nnx",
"53--+..O-0xw54450zl553-=+..+2lxw",
"-;;=+..O=354222;3052-;;=O..+-554",
";;;=+..O=222--==;,,;=;;=O..+=22-",
";;=+O..O=---;;#+#;;;;;=+O..+=--=",
";=+O...O+=;=++OOO+#=;=+OO..O+=;=",
"#+.......o#o.......o#+......Oo#+"
};
