/* XPM */
static char *_48f8606552449b7854a27298f35b569Irevrhhyk0zy44uc[] = {
/* columns rows colors chars-per-pixel */
"32 48 139 2 ",
"   c #060606",
".  c #06060A",
"X  c #0C0B0D",
"o  c #0A0714",
"O  c #0C0A15",
"+  c #05031D",
"@  c #08061D",
"#  c #0D0B1B",
"$  c #100D1E",
"%  c #131315",
"&  c #161619",
"*  c #181719",
"=  c #1A1A1C",
"-  c #060423",
";  c #0A0622",
":  c #0E0B22",
">  c #110B25",
",  c #130D2F",
"<  c #131325",
"1  c #1E1E20",
"2  c #15152B",
"3  c #19192A",
"4  c #090337",
"5  c #0F0937",
"6  c #02013F",
"7  c #0B063B",
"8  c #0B0A3E",
"9  c #130B38",
"0  c #180E3B",
"q  c #171733",
"w  c #13103D",
"e  c #191038",
"r  c #201F21",
"t  c #212123",
"y  c #2C2C2E",
"u  c #2E2E30",
"i  c #333335",
"p  c #363639",
"a  c #030142",
"s  c #0A0344",
"d  c #0B0B46",
"f  c #070049",
"g  c #0B034A",
"h  c #070849",
"j  c #0B0C4A",
"k  c #140A43",
"l  c #190E45",
"z  c #130A4D",
"x  c #190E49",
"c  c #151644",
"v  c #1C1246",
"b  c #181944",
"n  c #15144C",
"m  c #1D124B",
"M  c #1B1B4C",
"N  c #160A51",
"B  c #1C0F52",
"V  c #161652",
"C  c #1E1354",
"Z  c #171852",
"A  c #1A1A53",
"S  c #1B165A",
"D  c #1D1D5D",
"F  c #20134C",
"G  c #211E4D",
"H  c #221454",
"J  c #221D53",
"K  c #231959",
"L  c #23224E",
"P  c #282848",
"I  c #252555",
"U  c #272857",
"Y  c #2D2D54",
"T  c #23235C",
"R  c #292A5B",
"E  c #303056",
"W  c #32325C",
"Q  c #262761",
"!  c #292761",
"~  c #272862",
"^  c #2C2C63",
"/  c #363661",
"(  c #383862",
")  c #3C3C68",
"_  c #515053",
"`  c #57565A",
"'  c #5B5A5E",
"]  c #5E5E61",
"[  c #616164",
"{  c #666669",
"}  c #6B6B6E",
"|  c #6E6E72",
" . c #6F7072",
".. c #717174",
"X. c #727275",
"o. c #727375",
"O. c #737376",
"+. c #747475",
"@. c #747477",
"#. c #717174",
"$. c #747578",
"%. c #757578",
"&. c #767678",
"*. c #777779",
"=. c #79797B",
"-. c #7B7B7C",
";. c #7A7A7D",
":. c #7B7B7E",
">. c #7D7C7D",
",. c gray49",
"<. c #7E7D7E",
"1. c gray50",
"2. c #807F7F",
"3. c #807F80",
"4. c #808080",
"5. c #838383",
"6. c #818184",
"7. c #828285",
"8. c #858589",
"9. c #868689",
"0. c #88888C",
"q. c #8D8D8F",
"w. c #89898C",
"e. c #8F8F92",
"r. c #919193",
"t. c #939395",
"y. c #909093",
"u. c #979799",
"i. c #A2A1A2",
"p. c #A6A6A7",
"a. c #ACABAC",
"s. c #B0AFAF",
"d. c #B0B0AF",
"f. c gray69",
"g. c #B1B0B0",
"h. c #B1B1B1",
"j. c #B2B1B2",
"k. c #B3B2B3",
"l. c #B5B4B4",
/* pixels */
"Z Z Z V h h n Z Z A U U U U A Z Z Z Z Z Z Z j h n Z Z A U U U U ",
"^ ^ Q D z d A R W / ( ( ( / R U U U U U U T n d Z R R ( ) ) ) ) ",
"^ ^ D S 5 + ; : < < < < < < < < < < < < < : @ + @ : < P ^ / ^ ^ ",
"! D m , # X X X X X X X X X X X X X X X X X X X X X X < U ^ ~ ^ ",
"K H , X X & * & & & & & & & & & & & & * & & & & & & & X q A D D ",
"H F # % * 1 1 = = r r r r r r 1 = 1 = r r r r r = = 1 * # w S S ",
"H v O & p ] [ +.{ 1.5.3.3.3.1.-.{ ] } 3.2.1.5.1.{ ] ' i % $ m N ",
"H 9 O t ' 7.9.i.q.d.l.f.f.s.a.p.t.0.u.f.s.a.f.f.r.9.7.` t O 9 g ",
"k ; % i | #.| X.{ =.*.*.*.+.X.X.} { | -.X. .*.-.} | X.| i % - a ",
"8 O % i { ] ] { { [ [ [ [ [ ] ' ] [ { { [ [ [ { { [ [ { i % # 8 ",
"M & % y ' [ [ { ] ' [ ] ] ] ] ] ] ] [ [ [ [ ] [ [ [ [ ' u % # M ",
"E & % y ' [ ] [ ' ' ] ] ] ] ] ] ] ] ' ' ] ] ] ] ' ] [ ' u % < U ",
"Y & % y ' ] ] ] ' ] ] ] ] ] ] ] ] ] ' ] ] ] ] ] ' ] ] ' y % < A ",
"L # % y ' ] ] ] ] ] ] ] ] ] ] ] ] ] ] ] ] ] ] ] ] ] ] ' y % # n ",
"G # % y ' [ [ ] ] ] ] ] ] ] ] ] ] ] ] ] ] ] ] ] ] ] ] ' y % # m ",
"n O % y ' ] ] ] ] ] ] ] ] ] ] ] ] ] ] ] ] ] ] ] ] ] ] ' y % $ m ",
"v O % y ' ] ] ] ] ] ] ] ] ] ] ] ] ] ] ] ] ] ] ] ] ] ] ' y % # x ",
"l O % y ' ] ] ] ] ] ] ] ] ] ] ] ] ] ] ] ] ] ] ] ] ] ] ' y % : g ",
"7 o % y ' ] ] ] ] ] ] ] ] ] ] ] ] ] ] ] ] ] ] ] ] ] ] ' y % ; 6 ",
"w O % y ' ] ] ] ] ] ] ] ] ] ] ] ] ] ] ] ] ] ] ] ] ] ] ' u % < M ",
"L # % y ' ] ] ] ] ] ] ] ] ] ] ] ] ] ] ] ] ] ] ] ] ] ] ' u % 3 W ",
"I # % y ' ] ] ] ] ] ] ] ] ] ] ] ] ] ] ] ] ] ] ] ] ] ] ' y % < R ",
"L # % y ' ] ] ] ] ] ] ] ] ] ] ] ] ] ] ] ] ] ] ] ] ] ] ' y % < U ",
"M O % y ' ] ] ] ] ] ] ] ] ] ] ] ] ] ] ] ] ] ] ] ] ] ] ' y % < A ",
"v O % y ' ] ] ] ] ] ] ] ] ] ] ] ] ] ] ] ] ] ] ] ] ] ] ' y % : n ",
"v O % y ' ] ] ] ] ] ] ] ] ] ] ] ] ] ] ] ] ] ] ] ] ] ] ' y % # m ",
"v O % y ' ] ] ] ] ] ] ] ] ] ] ] ] ] ] ] ] ] ] ] ] ] ] ' y % # x ",
"k O % y ` ] ] ] ] ] ] ] ] ] ] ] ] ] ] ] ] ] ] ] ] ] ] ' y % # s ",
"7 o % y ` ' ' ] ] ] ] ] ] ] ] ] ] ] ] ] ] ] ] ] ] ] ] ' y % @ 6 ",
"c O % y ` ' ' ] ] ] ] ] ] ] ] ] ] ] ] ] ] ] ] ] ] ] ] ' y % : M ",
"Y & % y ' ] ] [ [ [ [ [ [ [ [ [ [ [ [ [ [ [ ] ] ] ] [ ' y % < U ",
"Y & % y ' ] ] ] ' ' ' ' ' ' ' ' ' ' ' ' ' ' ' ' ' ] ] ' y % & A ",
"L # % i { [ ] ] ] ] ] ] ] ] ] ] ] ] ] ] ] ] ] ] ] ' ] { i % # n ",
"G # % i } X.| } } } } } } } } } } } } } } } } } } | X.| i % # m ",
"n O % t _ w.r.e.e.e.e.e.e.e.e.e.e.e.e.e.e.e.e.e.e.e.0.` t % $ m ",
"v O % = i ` ' ' ' ' ' ' ' ' ' ' ' ' ' ' ' ' ' ' ' ' ` p * % > m ",
"v O % * = 1 1 1 1 1 1 1 1 1 1 1 1 1 1 1 1 1 1 1 1 1 1 = = % : g ",
"7 O % = = = = = = = = = = = = = = = = = = = = = = = = = = & @ 6 ",
"8 O % = = = = = = = = = = = = = = = = = = = = = = = = = = * # c ",
"I 2 % * = = = = = = = = = = = = = = = = = = = = = = = = * % < E ",
"^ L O & = = = = = = = = = = = * = = = = = = = = = = = = % . 2 / ",
"^ I O % * = = = = = = = = * * * * = = = = = = = = = = * X   2 R ",
"T J $ X % & = = * = = * * = * * * * = = = = = = = = = %   . b T ",
"S H e X X % & * & * * & & * * * * * * * * * * * * & % .   # n S ",
"H H F 0 # X X X X X X X X X X X X X X X X X X X X X X . # w H H ",
"H H H z 4 + + ; : : : : : ; + @ # o O O O ; - - + + ; > m H C B ",
"C H z g f a a a z C m g g s a a s 7 l v k s a a 6 a s z H B g g ",
"a h a a a a 6 a a s a a a a a a a a a s a a a a 6 a a a s a a a "
};
