/* XPM */
static char *_acaac08eee04792d63f799511be256b1teqvMgkja4QyGDS[] = {
/* columns rows colors chars-per-pixel */
"32 48 166 2 ",
"   c #06060B",
".  c #09090A",
"X  c #070716",
"o  c #0C0B15",
"O  c #06041D",
"+  c #0A071C",
"@  c #0E0C1B",
"#  c #100B1E",
"$  c #131214",
"%  c #13131A",
"&  c #1A1A1C",
"*  c #070524",
"=  c #0A0525",
"-  c #0E0C22",
";  c #0B0628",
":  c #0E0928",
">  c #110B23",
",  c #130D29",
"<  c #0F1028",
"1  c #131324",
"2  c #121229",
"3  c #19192B",
"4  c #01013D",
"5  c #0A0639",
"6  c #170E36",
"7  c #14143E",
"8  c #1C1C3B",
"9  c #222123",
"0  c #2C2C2E",
"q  c #2E2E31",
"w  c #333335",
"e  c #363639",
"r  c #3A3A3C",
"t  c #030144",
"y  c #0A0445",
"u  c #0B0A46",
"i  c #070149",
"p  c #0B034A",
"a  c #070849",
"s  c #0D0C4A",
"d  c #170C40",
"f  c #1A0F44",
"g  c #10074E",
"h  c #130A4D",
"j  c #190E4A",
"k  c #171745",
"l  c #1C1344",
"z  c #1F1F42",
"x  c #14144D",
"c  c #1A154E",
"v  c #171849",
"b  c #1C1C4C",
"n  c #150A51",
"m  c #1A0D52",
"M  c #0F1053",
"N  c #141453",
"B  c #1E1255",
"V  c #171852",
"C  c #1A1B54",
"Z  c #171459",
"A  c #1B1659",
"S  c #1D1C5C",
"D  c #21134E",
"F  c #231556",
"G  c #211657",
"H  c #221455",
"J  c #241455",
"K  c #241456",
"L  c #241556",
"P  c #221455",
"I  c #241857",
"U  c #221F51",
"Y  c #201658",
"T  c #221858",
"R  c #231958",
"E  c #231959",
"W  c #221A59",
"Q  c #201A5A",
"!  c #201A5B",
"~  c #261C5A",
"^  c #241C5B",
"/  c #202041",
"(  c #242543",
")  c #272743",
"_  c #22224C",
"`  c #262757",
"'  c #262553",
"]  c #272857",
"[  c #2B2B57",
"{  c #2D2D55",
"}  c #2F2F55",
"|  c #212259",
" . c #26215E",
".. c #27225E",
"X. c #26265D",
"o. c #24235D",
"O. c #29245E",
"+. c #29245E",
"@. c #282858",
"#. c #2F2F5B",
"$. c #2B2B5C",
"%. c #2C2B5E",
"&. c #37375F",
"*. c #222361",
"=. c #232461",
"-. c #252561",
";. c #252661",
":. c #272761",
">. c #262762",
",. c #232460",
"<. c #292761",
"1. c #272862",
"2. c #272863",
"3. c #2A2961",
"4. c #282862",
"5. c #282962",
"6. c #292962",
"7. c #2B2B62",
"8. c #2A2A63",
"9. c #2B2B63",
"0. c #2A2B63",
"q. c #2C2B62",
"w. c #2B2C63",
"e. c #2D2D60",
"r. c #2C2C63",
"t. c #2D2D63",
"y. c #2D2D64",
"u. c #2D2E64",
"i. c #2F2F64",
"p. c #2F2E64",
"a. c #2C2C63",
"s. c #303064",
"d. c #333365",
"f. c #353567",
"g. c #353667",
"h. c #353564",
"j. c #393967",
"k. c #3A3A67",
"l. c #373768",
"z. c #393968",
"x. c #3B3B69",
"c. c #3B3C68",
"v. c #3C3C68",
"b. c #3B3B69",
"n. c #424143",
"m. c #424243",
"M. c #434243",
"N. c #434344",
"B. c #444344",
"V. c #454445",
"C. c #535356",
"Z. c #565659",
"A. c #5A5A5D",
"S. c #5E5E61",
"D. c #616164",
"F. c #666669",
"G. c #6A6A6D",
"H. c #707073",
"J. c #77777A",
"K. c #7B7B7E",
"L. c #7E7E80",
"P. c #838385",
"I. c #878789",
"U. c #939394",
"Y. c #9C9C9D",
"T. c #A0A0A0",
/* pixels */
"V V V N a a x V V C @.@.@.` C V V V V V V V s a x V V C @.@.@.] ",
"9.9.:.S h s S 9.d.k.v.v.v.x.d.9.9.9.9.9.9.:.N s S 9.d.k.v.v.v.c.",
"r.9.S A h y N =.f.k.i.i.i.i.i.r.r.r.r.w.:.S h y M *.f.x.i.i.i.i.",
"<.S A n i t p Z 9.i.9.9.1.9.9.9.r.9.9.<.S A s t p Z :.i.9.9.1.9.",
"E F F n i t i B ..9.:.S S S E O.q.:.S E F F p t i m ..9.:.S S S ",
"F F J n i t i m E S S B B B P I ~ E F F F J p t i m E S S B B B ",
"F F m p i t p m F A B J P n h B F F F F P m i t i m F A B F P n ",
"J m p i i t i n B J B n n i i g n m F P m p i t i n B J P n n i ",
"h i i t t t t i p h p i i i i i i p h h i t t t t i p h h i i i ",
"u s s s s s u u u u u u u u a t t u u u s s s s s u u u u u u u ",
"| $.#.{ ) 3 2 2 2 2 2 2 2 < - * = 2 2 2 2 3 3 3 2 2 2 7 C C S S ",
"x.k.) 1 $ $ $ $ $ $ $ $ $ $ $ $ $ $ $ $ $ $ $ $ $ $ $ $ / r.i.9.",
"f.[ % $ 9 e e r r m.V.B.B.N.N.m.r w r B.B.m.B.m.r w w 9 % 8 X.S ",
"X.z o 9 Z.J.K.U.L.Y.T.Y.Y.Y.Y.U.P.K.I.Y.Y.Y.Y.Y.P.K.J.C.9 o k A ",
"U 1 $ w G.F.F.G.F.G.G.G.G.G.F.F.F.F.G.H.G.G.G.H.G.G.G.G.w $ > D ",
"v @ $ 0 A.D.S.D.A.A.S.S.S.S.S.S.S.S.S.S.S.S.S.S.S.S.D.A.q $ # c ",
"l o $ 0 A.D.S.S.A.A.S.S.S.S.S.S.S.S.A.S.S.S.S.S.A.S.S.A.0 $ @ j ",
"f o $ 0 A.D.S.S.S.S.S.S.S.S.S.S.S.S.S.S.S.S.S.S.S.S.S.A.0 $ @ y ",
"5 X $ 0 A.D.S.S.S.S.S.S.S.S.S.S.S.S.S.S.S.S.S.S.S.S.S.A.0 $ X 4 ",
"7 o $ 0 A.S.S.S.S.S.S.S.S.S.S.S.S.S.S.S.S.S.S.S.S.S.S.A.0 $ - b ",
"_ @ $ 0 A.S.S.S.S.S.S.S.S.S.S.S.S.S.S.S.S.S.S.S.S.S.S.A.0 $ 3 &.",
"' @ $ 0 A.S.S.S.S.S.S.S.S.S.S.S.S.S.S.S.S.S.S.S.S.S.S.A.q $ 2 #.",
"_ @ $ 0 A.S.S.S.S.S.S.S.S.S.S.S.S.S.S.S.S.S.S.S.S.S.S.A.0 $ 2 ` ",
"b o $ 0 A.S.S.S.S.S.S.S.S.S.S.S.S.S.S.S.S.S.S.S.S.S.S.A.0 $ 2 C ",
"l o $ 0 A.S.S.S.S.S.S.S.S.S.S.S.S.S.S.S.S.S.S.S.S.S.S.A.0 $ - c ",
"l o $ 0 A.S.S.S.S.S.S.S.S.S.S.S.S.S.S.S.S.S.S.S.S.S.S.A.0 $ - c ",
"l o $ 0 Z.A.A.S.S.S.S.S.S.S.S.S.S.S.S.S.S.S.S.S.S.S.S.A.0 $ > j ",
"d o $ 0 A.S.S.S.S.S.S.S.S.S.S.S.S.S.S.S.S.S.S.S.S.S.S.A.0 $ @ y ",
"5 X $ w D.D.S.S.S.S.S.S.S.S.S.S.S.S.S.S.S.S.S.S.S.S.S.D.w $ X 5 ",
"k o $ 0 S.K.L.K.K.K.K.K.K.K.K.K.K.K.K.K.K.K.K.K.K.L.K.D.0 $ @ v ",
"{ % $ & w C.Z.Z.Z.Z.Z.Z.Z.Z.Z.Z.Z.Z.Z.Z.Z.Z.Z.Z.Z.Z.C.w & $ 2 ` ",
"{ % $ & & & & & & & & & & & & & & & & & & & & & & & & & & % 2 C ",
"` 2 $ & & & & & & & & & & & & & & & & & & & & & & & & & & $ - c ",
"X._ o % & & & & & & & & & & & & & & & & & & & & & & & & $ . > P ",
"S V @ $ $ & & & & & & & & & & & & & & & & & & & & & & $ .   6 F ",
"F B l > o $ $ $ $ $ $ $ $ $ $ $ $ $ $ $ $ $ $ $ $ $ $ .   > D B ",
"P J m h 5 * * ; ; : , , ; * O O O O + - > : * * * * * ; d D B g ",
"u h y t t i i t t y s u i t t 4 4 4 y y u y t y i t t i y s y t ",
"s s s s s a t u s s x c x x x s s s s s s s s a y u s s s c c x ",
"o.| ` o.S s s C X.#.h.h.h.h.r.X.X.X.X.o.X.o.S s s V X.$.r.h.h.h.",
"i.i.i.:.S h s S f.v.x.f.l.l.d.i.i.i.i.i.i.:.S n s N 1.l.v.f.f.l.",
"9.9.o.S B p i N 9.d.r.9.9.9.9.q.r.r.9.9.=.S B p i a S r.f.9.9.9.",
"o...S F n i t s ^ 9.9.=.o.*...O.q.9.*...S F m i t i n o.9.9.*.o.",
"A F F F n i t h ~ :.o.S Z Z B ~ +...A F F J m i t i m ~ =.o.Z Z ",
"F F F B n i t h Y Z Z F F B m B F F F F F B n i t i m A Z Z F F ",
"P P P h i i t s P F F P B h i g B B P F P n i i t i n P F P B m ",
"B P h i i i t i h B B p i i i i i p m P h i i i t i i h P m p i ",
"i a t t t t 4 t y y y t t t t t t t y y t t t t 4 t t y y y t t "
};
